G04 start of page 3 for group 1 idx 1 *
G04 Title: (unknown), bottom *
G04 Creator: pcb 20110918 *
G04 CreationDate: Tue 28 Jun 2016 03:12:46 AM GMT UTC *
G04 For: railfan *
G04 Format: Gerber/RS-274X *
G04 PCB-Dimensions: 275000 250000 *
G04 PCB-Coordinate-Origin: lower left *
%MOIN*%
%FSLAX25Y25*%
%LNBOTTOM*%
%ADD33C,0.0390*%
%ADD32C,0.0630*%
%ADD31C,0.0380*%
%ADD30C,0.0200*%
%ADD29C,0.0360*%
%ADD28C,0.0690*%
%ADD27C,0.0600*%
%ADD26C,0.0001*%
%ADD25C,0.0300*%
%ADD24C,0.0550*%
%ADD23C,0.0100*%
G54D23*X10500Y50500D02*X5500Y45500D01*
X31000Y14500D02*X26000Y9500D01*
X11500D01*
X5500Y15500D01*
X108750Y65500D02*X5500D01*
X107750Y50500D02*X10500D01*
X100750Y35500D02*X5500D01*
G54D24*X38500Y70000D02*X11500D01*
G54D23*X31000Y14500D02*Y25500D01*
X103250Y53000D02*X19500D01*
X17000Y55500D01*
X5500D01*
X152750Y7500D02*X154750Y5500D01*
X142750Y7500D02*X140750Y5500D01*
X5500D01*
G54D25*Y75500D02*X92250D01*
G54D23*X269500D02*X181250D01*
X198750Y78500D02*X254500D01*
X261500Y85500D01*
X269500D01*
X142750Y7500D02*Y116000D01*
X152750Y7500D02*Y118500D01*
X132750Y109500D02*Y67500D01*
X127750Y104500D02*Y70500D01*
X122750Y109500D02*Y72500D01*
X117750Y104500D02*Y74500D01*
X172750Y109500D02*Y76000D01*
X184250Y93000D02*X198750Y78500D01*
X167750Y114500D02*X172750Y109500D01*
X127750Y114500D02*X132750Y109500D01*
X117750Y114500D02*X122750Y109500D01*
X132750Y67500D02*X100750Y35500D01*
X127750Y70500D02*X107750Y50500D01*
X117750Y74500D02*X108750Y65500D01*
X122750Y72500D02*X103250Y53000D01*
X154750Y5500D02*X269500D01*
X183250Y65500D02*X269500D01*
X266000Y49000D02*X184250D01*
X190250Y35500D02*X269500D01*
G54D25*X98250Y105000D02*X107750Y114500D01*
X98250Y81500D02*Y105000D01*
X92250Y75500D02*X98250Y81500D01*
G54D23*X184250Y108000D02*X177750Y114500D01*
X184250Y93000D02*Y108000D01*
X177750Y79000D02*Y104500D01*
X152750Y118500D02*X143750Y127500D01*
X142750Y116000D02*X131250Y127500D01*
X139075Y147675D02*X137500Y149250D01*
Y152450D02*Y149250D01*
X139075Y140500D02*Y147675D01*
X189250Y52000D02*X266000D01*
X157750Y68000D02*X190250Y35500D01*
X184250Y49000D02*X162750Y70500D01*
X167750Y73500D02*X189250Y52000D01*
X181250Y75500D02*X177750Y79000D01*
X157750Y104500D02*Y68000D01*
X162750Y109500D02*X157750Y114500D01*
X162750Y70500D02*Y109500D01*
X167750Y104500D02*Y73500D01*
X172750Y76000D02*X183250Y65500D01*
X263500Y9500D02*X269500Y15500D01*
Y45500D02*X266000Y49000D01*
Y52000D02*X269500Y55500D01*
X244000Y14500D02*X249000Y9500D01*
X263500D01*
X244000Y25500D02*Y14500D01*
G54D26*G36*
X104750Y107500D02*Y101500D01*
X110750D01*
Y107500D01*
X104750D01*
G37*
G54D27*X117750Y104500D03*
X127750D03*
X137750D03*
X147750D03*
X157750D03*
X167750D03*
X177750D03*
X107750Y114500D03*
X117750D03*
X127750D03*
X137750D03*
X147750D03*
X157750D03*
X167750D03*
X177750D03*
X5500Y55500D03*
Y45500D03*
Y35500D03*
Y25500D03*
G54D26*G36*
X2500Y88500D02*Y82500D01*
X8500D01*
Y88500D01*
X2500D01*
G37*
G54D27*X5500Y75500D03*
Y65500D03*
G54D28*X25000Y85090D03*
X42716D03*
G54D27*X5500Y15500D03*
Y5500D03*
G54D28*X25000Y15910D03*
X42716D03*
X25000Y41500D03*
X42716D03*
X25000Y59500D03*
X42716D03*
G54D26*G36*
X266500Y88500D02*Y82500D01*
X272500D01*
Y88500D01*
X266500D01*
G37*
G54D27*X269500Y75500D03*
Y65500D03*
G54D28*X232284Y85090D03*
X250000D03*
G54D27*X269500Y55500D03*
G54D28*X232284Y59500D03*
X250000D03*
G54D27*X269500Y45500D03*
G54D28*X232284Y41500D03*
X250000D03*
G54D27*X269500Y35500D03*
Y25500D03*
Y15500D03*
Y5500D03*
G54D28*X232284Y15910D03*
X250000D03*
G54D29*X31000Y25500D03*
X20500Y70000D03*
X29500D03*
X131250Y127500D03*
X143750D03*
X137500Y152450D03*
X139075Y140500D03*
X244000Y25500D03*
X16000Y70000D03*
X11500D03*
X38500D03*
X34000D03*
G54D30*G54D31*G54D32*G54D31*G54D33*G54D31*G54D33*G54D31*G54D33*G54D31*G54D33*G54D31*G54D33*G54D31*G54D33*M02*
