G04 start of page 7 for group -4063 idx -4063 *
G04 Title: (unknown), componentmask *
G04 Creator: pcb 20110918 *
G04 CreationDate: Tue 28 Jun 2016 03:12:46 AM GMT UTC *
G04 For: railfan *
G04 Format: Gerber/RS-274X *
G04 PCB-Dimensions: 275000 250000 *
G04 PCB-Coordinate-Origin: lower left *
%MOIN*%
%FSLAX25Y25*%
%LNTOPMASK*%
%ADD45R,0.0300X0.0300*%
%ADD44R,0.0227X0.0227*%
%ADD43R,0.0572X0.0572*%
%ADD42C,0.0750*%
%ADD41C,0.0730*%
%ADD40C,0.0660*%
%ADD39C,0.0001*%
G54D39*G36*
X104450Y107800D02*Y101200D01*
X111050D01*
Y107800D01*
X104450D01*
G37*
G54D40*X117750Y104500D03*
X127750D03*
X137750D03*
X147750D03*
X157750D03*
X167750D03*
X177750D03*
X107750Y114500D03*
X117750D03*
G54D41*X123450Y149500D03*
X151550D03*
G54D40*X127750Y114500D03*
X137750D03*
X147750D03*
X157750D03*
X167750D03*
X177750D03*
X5500Y55500D03*
Y45500D03*
Y35500D03*
Y25500D03*
G54D39*G36*
X2200Y88800D02*Y82200D01*
X8800D01*
Y88800D01*
X2200D01*
G37*
G54D40*X5500Y75500D03*
Y65500D03*
G54D42*X25000Y85090D03*
X42716D03*
G54D40*X5500Y15500D03*
Y5500D03*
G54D42*X25000Y15910D03*
X42716D03*
X25000Y41500D03*
X42716D03*
X25000Y59500D03*
X42716D03*
G54D39*G36*
X266200Y88800D02*Y82200D01*
X272800D01*
Y88800D01*
X266200D01*
G37*
G54D40*X269500Y75500D03*
Y65500D03*
G54D42*X232284Y85090D03*
X250000D03*
G54D40*X269500Y55500D03*
G54D42*X232284Y59500D03*
X250000D03*
G54D40*X269500Y45500D03*
G54D42*X232284Y41500D03*
X250000D03*
G54D40*X269500Y35500D03*
Y25500D03*
Y15500D03*
Y5500D03*
G54D42*X232284Y15910D03*
X250000D03*
G54D43*X130800Y152450D02*X132400D01*
X130800Y146550D02*X132400D01*
X142600Y152450D02*X144200D01*
G54D44*X135925Y128587D02*Y126717D01*
X139075Y128587D02*Y126717D01*
Y135283D02*Y133413D01*
X135925Y135283D02*Y133413D01*
G54D43*X142600Y146550D02*X144200D01*
G54D45*X161350Y10100D02*Y8500D01*
Y18300D02*Y16700D01*
X165250Y10100D02*Y8500D01*
Y18300D02*Y16700D01*
X169150Y10100D02*Y8500D01*
Y18300D02*Y16700D01*
M02*
