M48
INCH
T37C0.020
T36C0.039
T35C0.038
%
T37
X003100Y002550
X002050Y007000
X002950Y007000
X013125Y012750
X014375Y012750
X013750Y015245
X013908Y014050
X024400Y002550
X001600Y007000
X001150Y007000
X003850Y007000
X003400Y007000
T35
X010775Y010450
X011775Y010450
X012775Y010450
X013775Y010450
X014775Y010450
X015775Y010450
X016775Y010450
X017775Y010450
X010775Y011450
X011775Y011450
X012775Y011450
X013775Y011450
X014775Y011450
X015775Y011450
X016775Y011450
X017775Y011450
X000550Y005550
X000550Y004550
X000550Y003550
X000550Y002550
X000550Y008550
X000550Y007550
X000550Y006550
X000550Y001550
X000550Y000550
X026950Y008550
X026950Y007550
X026950Y006550
X026950Y005550
X026950Y004550
X026950Y003550
X026950Y002550
X026950Y001550
X026950Y000550
T36
X002500Y008509
X004272Y008509
X002500Y001591
X004272Y001591
X002500Y004150
X004272Y004150
X002500Y005950
X004272Y005950
X023228Y008509
X025000Y008509
X023228Y005950
X025000Y005950
X023228Y004150
X025000Y004150
X023228Y001591
X025000Y001591
M30
