G04 start of page 9 for group -4079 idx -4079 *
G04 Title: (unknown), topsilk *
G04 Creator: pcb 20110918 *
G04 CreationDate: Tue 28 Jun 2016 03:12:46 AM GMT UTC *
G04 For: railfan *
G04 Format: Gerber/RS-274X *
G04 PCB-Dimensions: 275000 250000 *
G04 PCB-Coordinate-Origin: lower left *
%MOIN*%
%FSLAX25Y25*%
%LNTOPSILK*%
%ADD52C,0.0080*%
%ADD51C,0.0140*%
%ADD50C,0.0100*%
G54D50*X58750Y95690D02*X216230D01*
X189750Y70000D02*Y31000D01*
X197250Y78000D02*Y23000D01*
X216230Y4390D02*Y122500D01*
X58750D01*
X189750Y31000D02*X85250D01*
Y70000D02*X189750D01*
X77750Y23000D02*X197250D01*
X77750Y78000D02*X197230D01*
X85250Y31000D02*Y70000D01*
X77750Y78000D02*Y23000D01*
X58750Y50500D02*X216230D01*
X58750Y122500D02*Y4390D01*
X216230D01*
G54D51*X87750Y34000D02*X96500Y48000D01*
X87750D02*X96500Y34000D01*
X100700D02*X109450Y48000D01*
X100700D02*X109450Y34000D01*
X113650D02*X122400Y48000D01*
X113650D02*X122400Y34000D01*
X126600D02*X135350Y48000D01*
X126600D02*X135350Y34000D01*
X139550D02*X148300Y48000D01*
X139550D02*X148300Y34000D01*
X152500D02*X161250Y48000D01*
X152500D02*X161250Y34000D01*
X165450D02*X174200Y48000D01*
X165450D02*X174200Y34000D01*
X178400D02*X187150Y48000D01*
X178400D02*X187150Y34000D01*
X87750Y53000D02*X96500Y67000D01*
X87750D02*X96500Y53000D01*
X100700D02*X109450Y67000D01*
X100700D02*X109450Y53000D01*
X113650D02*X122400Y67000D01*
X113650D02*X122400Y53000D01*
X126600D02*X135350Y67000D01*
X126600D02*X135350Y53000D01*
X139550D02*X148300Y67000D01*
X139550D02*X148300Y53000D01*
X152500D02*X161250Y67000D01*
X152500D02*X161250Y53000D01*
X165450D02*X174200Y67000D01*
X165450D02*X174200Y53000D01*
X178400D02*X187150Y67000D01*
X178400D02*X187150Y53000D01*
G54D52*X32858Y72295D02*X34858D01*
X33858Y73295D02*Y71295D01*
X32858Y28705D02*X34858D01*
X33858Y29705D02*Y27705D01*
X240142Y28705D02*X242142D01*
X241142Y29705D02*Y27705D01*
X240142Y72295D02*X242142D01*
X241142Y73295D02*Y71295D01*
G54D50*X133759Y137299D02*Y124701D01*
Y137299D02*X141241D01*
Y124701D01*
X133759D02*X141241D01*
X102750Y99500D02*X182750D01*
Y119500D02*Y99500D01*
X102750Y119500D02*X182750D01*
X102750D02*Y99500D01*
X112750Y109500D02*Y99500D01*
X102750Y109500D02*X112750D01*
X123000Y140500D02*X152000D01*
X123000Y158500D02*X152000D01*
Y154000D01*
Y140500D02*Y145000D01*
X123000Y158500D02*Y154000D01*
Y140500D02*Y145000D01*
X127500Y158500D02*X123000Y154000D01*
X500Y90500D02*Y500D01*
X10500D01*
Y90500D01*
X500D01*
Y80500D02*X10500D01*
Y90500D01*
X22047Y36579D02*Y20831D01*
X29921Y40516D02*X37795D01*
X45669Y36579D02*Y20831D01*
X29921Y16894D02*X37795D01*
X22047Y80169D02*Y64421D01*
X29921Y84106D02*X37795D01*
X45669Y80169D02*Y64421D01*
X29921Y60484D02*X37795D01*
X264500Y90500D02*Y500D01*
X274500D01*
Y90500D01*
X264500D01*
Y80500D02*X274500D01*
Y90500D01*
X229331Y36579D02*Y20831D01*
X237205Y40516D02*X245079D01*
X252953Y36579D02*Y20831D01*
X237205Y16894D02*X245079D01*
X229331Y80169D02*Y64421D01*
X237205Y84106D02*X245079D01*
X252953Y80169D02*Y64421D01*
X237205Y60484D02*X245079D01*
X159350Y20300D02*Y6400D01*
X171150D01*
Y20300D02*Y6400D01*
X159350Y20300D02*X171150D01*
G54D52*X143500Y134000D02*X145500D01*
X146000Y133500D01*
Y132500D01*
X145500Y132000D02*X146000Y132500D01*
X144000Y132000D02*X145500D01*
X144000Y134000D02*Y130000D01*
X144800Y132000D02*X146000Y130000D01*
X147200Y133200D02*X148000Y134000D01*
Y130000D01*
X147200D02*X148700D01*
X136750Y93000D02*Y89000D01*
X138750D01*
X140650D02*X141950D01*
X139950Y89700D02*X140650Y89000D01*
X139950Y92300D02*Y89700D01*
Y92300D02*X140650Y93000D01*
X141950D01*
X143650D02*Y89000D01*
X144950Y93000D02*X145650Y92300D01*
Y89700D01*
X144950Y89000D02*X145650Y89700D01*
X143150Y89000D02*X144950D01*
X143150Y93000D02*X144950D01*
X146850Y92200D02*X147650Y93000D01*
Y89000D01*
X146850D02*X148350D01*
X124500Y137500D02*Y133500D01*
X125800Y137500D02*X126500Y136800D01*
Y134200D01*
X125800Y133500D02*X126500Y134200D01*
X124000Y133500D02*X125800D01*
X124000Y137500D02*X125800D01*
X127700Y136700D02*X128500Y137500D01*
Y133500D01*
X127700D02*X129200D01*
X31358Y12205D02*X31858Y11705D01*
X29858Y12205D02*X31358D01*
X29358Y11705D02*X29858Y12205D01*
X29358Y11705D02*Y10705D01*
X29858Y10205D01*
X31358D01*
X31858Y9705D01*
Y8705D01*
X31358Y8205D02*X31858Y8705D01*
X29858Y8205D02*X31358D01*
X29358Y8705D02*X29858Y8205D01*
X33058Y12205D02*Y10205D01*
X33558Y8205D01*
X34558Y10205D01*
X35558Y8205D01*
X36058Y10205D01*
Y12205D02*Y10205D01*
X37258Y8705D02*X37758Y8205D01*
X37258Y11705D02*Y8705D01*
Y11705D02*X37758Y12205D01*
X38758D01*
X39258Y11705D01*
Y8705D01*
X38758Y8205D02*X39258Y8705D01*
X37758Y8205D02*X38758D01*
X37258Y9205D02*X39258Y11205D01*
X31358Y79795D02*X31858Y79295D01*
X29858Y79795D02*X31358D01*
X29358Y79295D02*X29858Y79795D01*
X29358Y79295D02*Y78295D01*
X29858Y77795D01*
X31358D01*
X31858Y77295D01*
Y76295D01*
X31358Y75795D02*X31858Y76295D01*
X29858Y75795D02*X31358D01*
X29358Y76295D02*X29858Y75795D01*
X33058Y79795D02*Y77795D01*
X33558Y75795D01*
X34558Y77795D01*
X35558Y75795D01*
X36058Y77795D01*
Y79795D02*Y77795D01*
X37258Y78995D02*X38058Y79795D01*
Y75795D01*
X37258D02*X38758D01*
X238142Y12205D02*X238642Y11705D01*
X236642Y12205D02*X238142D01*
X236142Y11705D02*X236642Y12205D01*
X236142Y11705D02*Y10705D01*
X236642Y10205D01*
X238142D01*
X238642Y9705D01*
Y8705D01*
X238142Y8205D02*X238642Y8705D01*
X236642Y8205D02*X238142D01*
X236142Y8705D02*X236642Y8205D01*
X239842Y12205D02*Y10205D01*
X240342Y8205D01*
X241342Y10205D01*
X242342Y8205D01*
X242842Y10205D01*
Y12205D02*Y10205D01*
X244042Y11705D02*X244542Y12205D01*
X245542D01*
X246042Y11705D01*
X245542Y8205D02*X246042Y8705D01*
X244542Y8205D02*X245542D01*
X244042Y8705D02*X244542Y8205D01*
Y10405D02*X245542D01*
X246042Y11705D02*Y10905D01*
Y9905D02*Y8705D01*
Y9905D02*X245542Y10405D01*
X246042Y10905D02*X245542Y10405D01*
X238142Y79795D02*X238642Y79295D01*
X236642Y79795D02*X238142D01*
X236142Y79295D02*X236642Y79795D01*
X236142Y79295D02*Y78295D01*
X236642Y77795D01*
X238142D01*
X238642Y77295D01*
Y76295D01*
X238142Y75795D02*X238642Y76295D01*
X236642Y75795D02*X238142D01*
X236142Y76295D02*X236642Y75795D01*
X239842Y79795D02*Y77795D01*
X240342Y75795D01*
X241342Y77795D01*
X242342Y75795D01*
X242842Y77795D01*
Y79795D02*Y77795D01*
X244042Y79295D02*X244542Y79795D01*
X246042D01*
X246542Y79295D01*
Y78295D01*
X244042Y75795D02*X246542Y78295D01*
X244042Y75795D02*X246542D01*
X151950Y15600D02*Y12100D01*
X152450Y11600D01*
X153450D01*
X153950Y12100D01*
Y15600D02*Y12100D01*
X155150Y14800D02*X155950Y15600D01*
Y11600D01*
X155150D02*X156650D01*
M02*
