G04 start of page 6 for group -4063 idx -4063 *
G04 Title: (unknown), componentmask *
G04 Creator: pcb 20140316 *
G04 CreationDate: Thu 09 Feb 2017 01:57:55 AM GMT UTC *
G04 For: railfan *
G04 Format: Gerber/RS-274X *
G04 PCB-Dimensions (mil): 2750.00 5500.00 *
G04 PCB-Coordinate-Origin: lower left *
%MOIN*%
%FSLAX25Y25*%
%LNTOPMASK*%
%ADD108R,0.0400X0.0400*%
%ADD107R,0.0690X0.0690*%
%ADD106R,0.0410X0.0410*%
%ADD105R,0.0530X0.0530*%
%ADD104R,0.0560X0.0560*%
%ADD103R,0.0300X0.0300*%
%ADD102R,0.0227X0.0227*%
%ADD101R,0.0290X0.0290*%
%ADD100R,0.0300X0.0300*%
%ADD99R,0.0257X0.0257*%
%ADD98R,0.0158X0.0158*%
%ADD97R,0.0572X0.0572*%
%ADD96R,0.0217X0.0217*%
%ADD95C,0.1440*%
%ADD94C,0.0760*%
%ADD93C,0.0710*%
%ADD92C,0.1130*%
%ADD91C,0.0650*%
%ADD90C,0.4060*%
%ADD89C,0.1090*%
%ADD88C,0.0001*%
%ADD87C,0.2997*%
%ADD86C,0.0660*%
G54D86*X269500Y383500D03*
Y393500D03*
Y403500D03*
Y413500D03*
Y423500D03*
Y433500D03*
Y443500D03*
Y453500D03*
Y463500D03*
X5500Y413500D03*
Y423500D03*
Y433500D03*
Y443500D03*
Y383500D03*
Y393500D03*
Y403500D03*
G54D87*X74000Y366000D03*
G54D86*X5500Y453500D03*
Y463500D03*
G54D87*X27500Y112500D03*
X30000Y165000D03*
G54D88*G36*
X27300Y298300D02*Y291700D01*
X33900D01*
Y298300D01*
X27300D01*
G37*
G54D86*X30600Y236000D03*
G54D89*X49428Y83316D03*
X69999Y90000D03*
G54D87*X27500Y487000D03*
X247500Y112500D03*
X157000Y165000D03*
G54D89*X204999Y90000D03*
X205001Y20000D03*
X225572Y83316D03*
X238287Y65815D03*
Y44184D03*
X225572Y26684D03*
G54D90*X216500Y163000D03*
G54D91*X226343Y200000D03*
X216500D03*
X206657D03*
G54D92*X236185Y212992D03*
X196815D03*
G54D93*X227650Y238200D03*
Y261800D03*
X246350Y238200D03*
Y261800D03*
G54D87*X201000Y366000D03*
X247500Y487000D03*
G54D93*X205650Y510200D03*
Y533800D03*
X224350Y510200D03*
Y533800D03*
G54D88*G36*
X124200Y424800D02*Y418200D01*
X130800D01*
Y424800D01*
X124200D01*
G37*
G54D86*X137500Y421500D03*
X147500D03*
G54D88*G36*
X124200Y414800D02*Y408200D01*
X130800D01*
Y414800D01*
X124200D01*
G37*
G54D86*X137500Y411500D03*
X147500D03*
G54D91*X112000Y513157D03*
G54D92*X124992Y503315D03*
G54D91*X112000Y523000D03*
Y532843D03*
G54D92*X124992Y542685D03*
G54D88*G36*
X100200Y112800D02*Y106200D01*
X106800D01*
Y112800D01*
X100200D01*
G37*
G54D86*X93500Y109500D03*
X83500D03*
G54D88*G36*
X100200Y122800D02*Y116200D01*
X106800D01*
Y122800D01*
X100200D01*
G37*
G54D86*X93500Y119500D03*
X83500D03*
G54D89*X184428Y83316D03*
Y26684D03*
X171713Y44185D03*
Y65816D03*
X90572Y83316D03*
X103287Y65815D03*
X36713Y65816D03*
X103287Y44184D03*
X36713Y44185D03*
G54D94*X137500Y47300D03*
G54D89*X90572Y26684D03*
X70001Y20000D03*
X49428Y26684D03*
G54D95*X137500Y18500D03*
G54D94*Y35500D03*
G54D96*X154700Y243028D02*Y238602D01*
X157850Y243028D02*Y238602D01*
X161000Y243028D02*Y238602D01*
X164149Y243028D02*Y238602D01*
X145252Y243028D02*Y238602D01*
X148401Y243028D02*Y238602D01*
X151551Y243028D02*Y238602D01*
G54D97*X128607Y242543D02*X129393D01*
G54D96*X167299Y243028D02*Y238602D01*
G54D97*X83043Y230893D02*Y230107D01*
X75957Y230893D02*Y230107D01*
Y240893D02*Y240107D01*
X128607Y235457D02*X129393D01*
X75957Y250893D02*Y250107D01*
X83043Y250893D02*Y250107D01*
Y240893D02*Y240107D01*
X64607Y247043D02*X65393D01*
X64607Y260957D02*X65393D01*
X64607Y239957D02*X65393D01*
G54D98*X75547Y261744D02*Y259972D01*
X77516Y261744D02*Y259972D01*
X79484Y261744D02*Y259972D01*
X81453Y261744D02*Y259972D01*
G54D99*X75547Y264500D02*X81453D01*
G54D100*X75370D02*X81630D01*
G54D98*X81453Y269028D02*Y267256D01*
G54D101*X79100Y277800D02*X84700D01*
G54D88*G36*
X77531Y278950D02*X83550Y284969D01*
X86096Y282423D01*
X80077Y276404D01*
X77531Y278950D01*
G37*
G36*
X81750Y280750D02*Y277150D01*
X85350D01*
Y280750D01*
X81750D01*
G37*
G54D98*X79484Y269028D02*Y267256D01*
X77516Y269028D02*Y267256D01*
X75547Y269028D02*Y267256D01*
G54D97*X64607Y268043D02*X65393D01*
G54D101*X63300Y299200D02*Y277800D01*
X68900D01*
G54D88*G36*
X64450Y284969D02*X70469Y278950D01*
X67923Y276404D01*
X61904Y282423D01*
X64450Y284969D01*
G37*
G36*
X62650Y280750D02*Y277150D01*
X66250D01*
Y280750D01*
X62650D01*
G37*
G36*
X80077Y300596D02*X86096Y294577D01*
X83550Y292031D01*
X77531Y298050D01*
X80077Y300596D01*
G37*
G54D97*X162457Y316893D02*Y316107D01*
X155457Y307893D02*Y307107D01*
X162543Y307893D02*Y307107D01*
G54D101*X63300Y299200D02*X68900D01*
G54D88*G36*
X61904Y294577D02*X67923Y300596D01*
X70469Y298050D01*
X64450Y292031D01*
X61904Y294577D01*
G37*
G36*
X62650Y299850D02*Y296250D01*
X66250D01*
Y299850D01*
X62650D01*
G37*
G54D101*X84700Y299200D02*Y277800D01*
X79100Y299200D02*X84700D01*
G54D88*G36*
X81750Y299850D02*Y296250D01*
X85350D01*
Y299850D01*
X81750D01*
G37*
G54D102*X65276Y52587D02*Y50717D01*
Y59283D02*Y57413D01*
X68425Y52587D02*Y50717D01*
Y59283D02*Y57413D01*
X71575Y52587D02*Y50717D01*
X74724Y52587D02*Y50717D01*
Y59283D02*Y57413D01*
X71575Y59283D02*Y57413D01*
G54D103*X71700Y137600D02*X73300D01*
X63500D02*X65100D01*
X71700Y141500D02*X73300D01*
X63500D02*X65100D01*
X71700Y145400D02*X73300D01*
X63500D02*X65100D01*
G54D102*X132776Y62587D02*Y60717D01*
Y69283D02*Y67413D01*
X135925Y62587D02*Y60717D01*
Y69283D02*Y67413D01*
X139075Y62587D02*Y60717D01*
X142224Y62587D02*Y60717D01*
Y69283D02*Y67413D01*
X139075Y69283D02*Y67413D01*
G54D104*X165000Y123004D02*Y113516D01*
Y140484D02*Y130996D01*
G54D97*X139457Y122393D02*Y121607D01*
X146543Y122393D02*Y121607D01*
X139457Y132393D02*Y131607D01*
X146543Y132393D02*Y131607D01*
G54D102*X116776Y137587D02*Y135717D01*
Y144283D02*Y142413D01*
X119925Y137587D02*Y135717D01*
X123075Y137587D02*Y135717D01*
X126224Y137587D02*Y135717D01*
Y144283D02*Y142413D01*
X123075Y144283D02*Y142413D01*
X119925Y144283D02*Y142413D01*
G54D96*X170448Y243028D02*Y238602D01*
X173598Y243028D02*Y238602D01*
X176748Y243028D02*Y238602D01*
X183472Y249752D02*X187898D01*
G54D97*X179906Y220528D02*X182661D01*
X179906Y211472D02*X182661D01*
X168457Y201393D02*Y200607D01*
X165339Y220528D02*X168094D01*
X165339Y211472D02*X168094D01*
X175543Y201393D02*Y200607D01*
G54D104*X175000Y123004D02*Y113516D01*
X185000Y123004D02*Y113516D01*
Y140484D02*Y130996D01*
X175000Y140484D02*Y130996D01*
G54D96*X183472Y252901D02*X187898D01*
X183472Y256051D02*X187898D01*
X183472Y259200D02*X187898D01*
X183472Y262350D02*X187898D01*
X183472Y265500D02*X187898D01*
X183472Y268649D02*X187898D01*
X183472Y271799D02*X187898D01*
X183472Y274948D02*X187898D01*
X183472Y278098D02*X187898D01*
X183472Y281248D02*X187898D01*
G54D97*X193543Y201393D02*Y200607D01*
X186457Y201393D02*Y200607D01*
G54D96*X176748Y292398D02*Y287972D01*
X173599Y292398D02*Y287972D01*
X170449Y292398D02*Y287972D01*
X167300Y292398D02*Y287972D01*
X164150Y292398D02*Y287972D01*
X161000Y292398D02*Y287972D01*
X157851Y292398D02*Y287972D01*
G54D97*X169543Y316893D02*Y316107D01*
G54D103*X233700Y304900D02*X235300D01*
X241900D02*X243500D01*
X233700Y301000D02*X235300D01*
X233700Y297100D02*X235300D01*
X241900D02*X243500D01*
X241900Y301000D02*X243500D01*
G54D96*X154701Y292398D02*Y287972D01*
X151552Y292398D02*Y287972D01*
X148402Y292398D02*Y287972D01*
X145252Y292398D02*Y287972D01*
X134102Y281248D02*X138528D01*
X134102Y278099D02*X138528D01*
X134102Y274949D02*X138528D01*
X134102Y271800D02*X138528D01*
X134102Y268650D02*X138528D01*
X134102Y265500D02*X138528D01*
X134102Y262351D02*X138528D01*
X134102Y259201D02*X138528D01*
X134102Y256052D02*X138528D01*
X134102Y252902D02*X138528D01*
X134102Y249752D02*X138528D01*
G54D102*X132776Y434587D02*Y432717D01*
X135925Y434587D02*Y432717D01*
X139075Y434587D02*Y432717D01*
X142224Y434587D02*Y432717D01*
Y441283D02*Y439413D01*
X139075Y441283D02*Y439413D01*
X135925Y441283D02*Y439413D01*
X132776Y441283D02*Y439413D01*
G54D105*X231950Y447401D02*Y447400D01*
G54D106*X172559Y452441D02*X178071D01*
X183543Y444567D02*X189055D01*
X183543Y460315D02*X189055D01*
G54D105*X231950Y439600D02*Y439599D01*
G54D104*X198000Y433413D02*Y426760D01*
X208000Y419240D02*Y412587D01*
X218000Y433413D02*Y426760D01*
X228000Y419240D02*Y412587D01*
G54D107*X244750Y443500D02*Y443499D01*
G54D102*X200276Y52587D02*Y50717D01*
Y59283D02*Y57413D01*
X203425Y52587D02*Y50717D01*
Y59283D02*Y57413D01*
X206575Y52587D02*Y50717D01*
X209724Y52587D02*Y50717D01*
Y59283D02*Y57413D01*
X206575Y59283D02*Y57413D01*
G54D86*X216500Y179250D03*
X205010Y174490D03*
X227990D03*
X216500Y146750D03*
X205010Y151510D03*
X227990D03*
X200250Y163000D03*
X232750D03*
G54D97*X73543Y467893D02*Y467107D01*
Y477893D02*Y477107D01*
X66457Y467893D02*Y467107D01*
Y477893D02*Y477107D01*
G54D106*X85945Y499685D02*X91457D01*
X85945Y483937D02*X91457D01*
X85945Y468189D02*X91457D01*
G54D97*X93457Y539393D02*Y538607D01*
X100543Y539393D02*Y538607D01*
G54D106*X85945Y515433D02*X91457D01*
X96929Y476063D02*X102441D01*
X96929Y491811D02*X102441D01*
X96929Y507559D02*X102441D01*
G54D102*X135925Y495087D02*Y493217D01*
X139075Y495087D02*Y493217D01*
Y501783D02*Y499913D01*
X135925Y501783D02*Y499913D01*
G54D97*X181543Y539393D02*Y538607D01*
X174457Y539393D02*Y538607D01*
G54D106*X172559Y515433D02*X178071D01*
X172559Y499685D02*X178071D01*
X172559Y483937D02*X178071D01*
X172559Y468189D02*X178071D01*
X183543Y476063D02*X189055D01*
X183543Y491811D02*X189055D01*
X183543Y507559D02*X189055D01*
G54D103*X30600Y262300D02*Y260700D01*
Y270500D02*Y268900D01*
X34500Y262300D02*Y260700D01*
Y270500D02*Y268900D01*
X38400Y262300D02*Y260700D01*
Y270500D02*Y268900D01*
G54D97*X36457Y248893D02*Y248107D01*
X43543Y248893D02*Y248107D01*
G54D108*X29100Y436300D02*Y435700D01*
X36900Y436300D02*Y435700D01*
X33000Y444500D02*Y443900D01*
G54D97*X32607Y456457D02*X33393D01*
X32607Y463543D02*X33393D01*
G54D106*X85945Y452441D02*X91457D01*
X96929Y444567D02*X102441D01*
X96929Y460315D02*X102441D01*
G54D103*X104600Y413300D02*Y411700D01*
X108500Y413300D02*Y411700D01*
X112400Y413300D02*Y411700D01*
Y421500D02*Y419900D01*
X108500Y421500D02*Y419900D01*
X104600Y421500D02*Y419900D01*
M02*
