G04 start of page 12 for group -3984 idx -3984 *
G04 Title: (unknown), fab *
G04 Creator: pcb 20140316 *
G04 CreationDate: Thu 09 Feb 2017 01:57:55 AM GMT UTC *
G04 For: railfan *
G04 Format: Gerber/RS-274X *
G04 PCB-Dimensions (mil): 2750.00 5500.00 *
G04 PCB-Coordinate-Origin: lower left *
%MOIN*%
%FSLAX25Y25*%
%LNFAB*%
%ADD144C,0.0050*%
%ADD143C,0.0040*%
%ADD142C,0.0100*%
%ADD141C,0.0075*%
%ADD140C,0.0060*%
%ADD139R,0.0080X0.0080*%
G54D139*X214900Y164600D02*X218100D01*
X214900D02*Y161400D01*
X218100D01*
Y164600D02*Y161400D01*
X213300Y166200D02*X219700D01*
X213300D02*Y159800D01*
X219700D01*
Y166200D02*Y159800D01*
X13400Y562850D02*X16600D01*
X13400D02*Y559650D01*
X16600D01*
Y562850D02*Y559650D01*
X11800Y564450D02*X18200D01*
X11800D02*Y558050D01*
X18200D01*
Y564450D02*Y558050D01*
G54D140*X135000Y563500D02*X136500Y560500D01*
X138000Y563500D01*
X136500Y560500D02*Y557500D01*
X139800Y560800D02*X142050D01*
X139800Y557500D02*X142800D01*
X139800Y563500D02*Y557500D01*
Y563500D02*X142800D01*
X147600D02*X148350Y562750D01*
X145350Y563500D02*X147600D01*
X144600Y562750D02*X145350Y563500D01*
X144600Y562750D02*Y561250D01*
X145350Y560500D01*
X147600D01*
X148350Y559750D01*
Y558250D01*
X147600Y557500D02*X148350Y558250D01*
X145350Y557500D02*X147600D01*
X144600Y558250D02*X145350Y557500D01*
X98000Y562300D02*X99200Y563500D01*
Y557500D01*
X98000D02*X100250D01*
X45000Y558250D02*X45750Y557500D01*
X45000Y562750D02*Y558250D01*
Y562750D02*X45750Y563500D01*
X47250D01*
X48000Y562750D01*
Y558250D01*
X47250Y557500D02*X48000Y558250D01*
X45750Y557500D02*X47250D01*
X45000Y559000D02*X48000Y562000D01*
X49800Y557500D02*X50550D01*
X52350Y562750D02*X53100Y563500D01*
X55350D01*
X56100Y562750D01*
Y561250D01*
X52350Y557500D02*X56100Y561250D01*
X52350Y557500D02*X56100D01*
X57900Y563500D02*X60900D01*
X57900D02*Y560500D01*
X58650Y561250D01*
X60150D01*
X60900Y560500D01*
Y558250D01*
X60150Y557500D02*X60900Y558250D01*
X58650Y557500D02*X60150D01*
X57900Y558250D02*X58650Y557500D01*
X62700Y558250D02*X63450Y557500D01*
X62700Y562750D02*Y558250D01*
Y562750D02*X63450Y563500D01*
X64950D01*
X65700Y562750D01*
Y558250D01*
X64950Y557500D02*X65700Y558250D01*
X63450Y557500D02*X64950D01*
X62700Y559000D02*X65700Y562000D01*
X246700Y112500D02*G75*G03X248300Y112500I800J0D01*G01*
G75*G03X246700Y112500I-800J0D01*G01*
X245100D02*G75*G03X249900Y112500I2400J0D01*G01*
G75*G03X245100Y112500I-2400J0D01*G01*
X26700D02*G75*G03X28300Y112500I800J0D01*G01*
G75*G03X26700Y112500I-800J0D01*G01*
X25100D02*G75*G03X29900Y112500I2400J0D01*G01*
G75*G03X25100Y112500I-2400J0D01*G01*
X246700Y487000D02*G75*G03X248300Y487000I800J0D01*G01*
G75*G03X246700Y487000I-800J0D01*G01*
X245100D02*G75*G03X249900Y487000I2400J0D01*G01*
G75*G03X245100Y487000I-2400J0D01*G01*
X26700D02*G75*G03X28300Y487000I800J0D01*G01*
G75*G03X26700Y487000I-800J0D01*G01*
X25100D02*G75*G03X29900Y487000I2400J0D01*G01*
G75*G03X25100Y487000I-2400J0D01*G01*
X156200Y165000D02*G75*G03X157800Y165000I800J0D01*G01*
G75*G03X156200Y165000I-800J0D01*G01*
X154600D02*G75*G03X159400Y165000I2400J0D01*G01*
G75*G03X154600Y165000I-2400J0D01*G01*
X29200D02*G75*G03X30800Y165000I800J0D01*G01*
G75*G03X29200Y165000I-800J0D01*G01*
X27600D02*G75*G03X32400Y165000I2400J0D01*G01*
G75*G03X27600Y165000I-2400J0D01*G01*
X73200Y366000D02*G75*G03X74800Y366000I800J0D01*G01*
G75*G03X73200Y366000I-800J0D01*G01*
X71600D02*G75*G03X76400Y366000I2400J0D01*G01*
G75*G03X71600Y366000I-2400J0D01*G01*
X200200D02*G75*G03X201800Y366000I800J0D01*G01*
G75*G03X200200Y366000I-800J0D01*G01*
X198600D02*G75*G03X203400Y366000I2400J0D01*G01*
G75*G03X198600Y366000I-2400J0D01*G01*
X14200Y576250D02*G75*G03X15800Y576250I800J0D01*G01*
G75*G03X14200Y576250I-800J0D01*G01*
X12600D02*G75*G03X17400Y576250I2400J0D01*G01*
G75*G03X12600Y576250I-2400J0D01*G01*
X135000Y578500D02*X136500Y575500D01*
X138000Y578500D01*
X136500Y575500D02*Y572500D01*
X139800Y575800D02*X142050D01*
X139800Y572500D02*X142800D01*
X139800Y578500D02*Y572500D01*
Y578500D02*X142800D01*
X147600D02*X148350Y577750D01*
X145350Y578500D02*X147600D01*
X144600Y577750D02*X145350Y578500D01*
X144600Y577750D02*Y576250D01*
X145350Y575500D01*
X147600D01*
X148350Y574750D01*
Y573250D01*
X147600Y572500D02*X148350Y573250D01*
X145350Y572500D02*X147600D01*
X144600Y573250D02*X145350Y572500D01*
X98000Y573250D02*X98750Y572500D01*
X98000Y574450D02*Y573250D01*
Y574450D02*X99050Y575500D01*
X99950D01*
X101000Y574450D01*
Y573250D01*
X100250Y572500D02*X101000Y573250D01*
X98750Y572500D02*X100250D01*
X98000Y576550D02*X99050Y575500D01*
X98000Y577750D02*Y576550D01*
Y577750D02*X98750Y578500D01*
X100250D01*
X101000Y577750D01*
Y576550D01*
X99950Y575500D02*X101000Y576550D01*
X45000Y573250D02*X45750Y572500D01*
X45000Y577750D02*Y573250D01*
Y577750D02*X45750Y578500D01*
X47250D01*
X48000Y577750D01*
Y573250D01*
X47250Y572500D02*X48000Y573250D01*
X45750Y572500D02*X47250D01*
X45000Y574000D02*X48000Y577000D01*
X49800Y572500D02*X50550D01*
X52350Y577300D02*X53550Y578500D01*
Y572500D01*
X52350D02*X54600D01*
X56400Y577750D02*X57150Y578500D01*
X59400D01*
X60150Y577750D01*
Y576250D01*
X56400Y572500D02*X60150Y576250D01*
X56400Y572500D02*X60150D01*
X62700D02*X64950Y575500D01*
Y577750D02*Y575500D01*
X64200Y578500D02*X64950Y577750D01*
X62700Y578500D02*X64200D01*
X61950Y577750D02*X62700Y578500D01*
X61950Y577750D02*Y576250D01*
X62700Y575500D01*
X64950D01*
X135100Y20900D02*X139900Y16100D01*
X135100D02*X139900Y20900D01*
X135900Y20100D02*X139100D01*
X135900D02*Y16900D01*
X139100D01*
Y20100D02*Y16900D01*
X12600Y593650D02*X17400Y588850D01*
X12600D02*X17400Y593650D01*
X13400Y592850D02*X16600D01*
X13400D02*Y589650D01*
X16600D01*
Y592850D02*Y589650D01*
X135000Y593500D02*X136500Y590500D01*
X138000Y593500D01*
X136500Y590500D02*Y587500D01*
X139800Y590800D02*X142050D01*
X139800Y587500D02*X142800D01*
X139800Y593500D02*Y587500D01*
Y593500D02*X142800D01*
X147600D02*X148350Y592750D01*
X145350Y593500D02*X147600D01*
X144600Y592750D02*X145350Y593500D01*
X144600Y592750D02*Y591250D01*
X145350Y590500D01*
X147600D01*
X148350Y589750D01*
Y588250D01*
X147600Y587500D02*X148350Y588250D01*
X145350Y587500D02*X147600D01*
X144600Y588250D02*X145350Y587500D01*
X98000Y592300D02*X99200Y593500D01*
Y587500D01*
X98000D02*X100250D01*
X45000Y588250D02*X45750Y587500D01*
X45000Y592750D02*Y588250D01*
Y592750D02*X45750Y593500D01*
X47250D01*
X48000Y592750D01*
Y588250D01*
X47250Y587500D02*X48000Y588250D01*
X45750Y587500D02*X47250D01*
X45000Y589000D02*X48000Y592000D01*
X49800Y587500D02*X50550D01*
X52350Y592300D02*X53550Y593500D01*
Y587500D01*
X52350D02*X54600D01*
X56400Y592300D02*X57600Y593500D01*
Y587500D01*
X56400D02*X58650D01*
X60450Y588250D02*X61200Y587500D01*
X60450Y589450D02*Y588250D01*
Y589450D02*X61500Y590500D01*
X62400D01*
X63450Y589450D01*
Y588250D01*
X62700Y587500D02*X63450Y588250D01*
X61200Y587500D02*X62700D01*
X60450Y591550D02*X61500Y590500D01*
X60450Y592750D02*Y591550D01*
Y592750D02*X61200Y593500D01*
X62700D01*
X63450Y592750D01*
Y591550D01*
X62400Y590500D02*X63450Y591550D01*
X236185Y216192D02*Y209792D01*
X232985Y212992D02*X239385D01*
X234585Y214592D02*X237785D01*
X234585D02*Y211392D01*
X237785D01*
Y214592D02*Y211392D01*
X196815Y216192D02*Y209792D01*
X193615Y212992D02*X200015D01*
X195215Y214592D02*X198415D01*
X195215D02*Y211392D01*
X198415D01*
Y214592D02*Y211392D01*
X124992Y506515D02*Y500115D01*
X121792Y503315D02*X128192D01*
X123392Y504915D02*X126592D01*
X123392D02*Y501715D01*
X126592D01*
Y504915D02*Y501715D01*
X124992Y545885D02*Y539485D01*
X121792Y542685D02*X128192D01*
X123392Y544285D02*X126592D01*
X123392D02*Y541085D01*
X126592D01*
Y544285D02*Y541085D01*
X15000Y609450D02*Y603050D01*
X11800Y606250D02*X18200D01*
X13400Y607850D02*X16600D01*
X13400D02*Y604650D01*
X16600D01*
Y607850D02*Y604650D01*
X135000Y608500D02*X136500Y605500D01*
X138000Y608500D01*
X136500Y605500D02*Y602500D01*
X139800Y605800D02*X142050D01*
X139800Y602500D02*X142800D01*
X139800Y608500D02*Y602500D01*
Y608500D02*X142800D01*
X147600D02*X148350Y607750D01*
X145350Y608500D02*X147600D01*
X144600Y607750D02*X145350Y608500D01*
X144600Y607750D02*Y606250D01*
X145350Y605500D01*
X147600D01*
X148350Y604750D01*
Y603250D01*
X147600Y602500D02*X148350Y603250D01*
X145350Y602500D02*X147600D01*
X144600Y603250D02*X145350Y602500D01*
X98000Y604750D02*X101000Y608500D01*
X98000Y604750D02*X101750D01*
X101000Y608500D02*Y602500D01*
X45000Y603250D02*X45750Y602500D01*
X45000Y607750D02*Y603250D01*
Y607750D02*X45750Y608500D01*
X47250D01*
X48000Y607750D01*
Y603250D01*
X47250Y602500D02*X48000Y603250D01*
X45750Y602500D02*X47250D01*
X45000Y604000D02*X48000Y607000D01*
X49800Y602500D02*X50550D01*
X52350Y603250D02*X53100Y602500D01*
X52350Y607750D02*Y603250D01*
Y607750D02*X53100Y608500D01*
X54600D01*
X55350Y607750D01*
Y603250D01*
X54600Y602500D02*X55350Y603250D01*
X53100Y602500D02*X54600D01*
X52350Y604000D02*X55350Y607000D01*
X57150Y603250D02*X57900Y602500D01*
X57150Y604450D02*Y603250D01*
Y604450D02*X58200Y605500D01*
X59100D01*
X60150Y604450D01*
Y603250D01*
X59400Y602500D02*X60150Y603250D01*
X57900Y602500D02*X59400D01*
X57150Y606550D02*X58200Y605500D01*
X57150Y607750D02*Y606550D01*
Y607750D02*X57900Y608500D01*
X59400D01*
X60150Y607750D01*
Y606550D01*
X59100Y605500D02*X60150Y606550D01*
X62700Y602500D02*X65700Y608500D01*
X61950D02*X65700D01*
X184428Y83316D02*Y80116D01*
Y83316D02*X187201Y84916D01*
X184428Y83316D02*X181655Y84916D01*
X182828Y83316D02*G75*G03X186028Y83316I1600J0D01*G01*
G75*G03X182828Y83316I-1600J0D01*G01*
X204999Y90000D02*Y86800D01*
Y90000D02*X207772Y91600D01*
X204999Y90000D02*X202226Y91600D01*
X203399Y90000D02*G75*G03X206599Y90000I1600J0D01*G01*
G75*G03X203399Y90000I-1600J0D01*G01*
X225572Y83316D02*Y80116D01*
Y83316D02*X228345Y84916D01*
X225572Y83316D02*X222799Y84916D01*
X223972Y83316D02*G75*G03X227172Y83316I1600J0D01*G01*
G75*G03X223972Y83316I-1600J0D01*G01*
X238287Y65815D02*Y62615D01*
Y65815D02*X241060Y67415D01*
X238287Y65815D02*X235514Y67415D01*
X236687Y65815D02*G75*G03X239887Y65815I1600J0D01*G01*
G75*G03X236687Y65815I-1600J0D01*G01*
X238287Y44184D02*Y40984D01*
Y44184D02*X241060Y45784D01*
X238287Y44184D02*X235514Y45784D01*
X236687Y44184D02*G75*G03X239887Y44184I1600J0D01*G01*
G75*G03X236687Y44184I-1600J0D01*G01*
X225572Y26684D02*Y23484D01*
Y26684D02*X228345Y28284D01*
X225572Y26684D02*X222799Y28284D01*
X223972Y26684D02*G75*G03X227172Y26684I1600J0D01*G01*
G75*G03X223972Y26684I-1600J0D01*G01*
X205001Y20000D02*Y16800D01*
Y20000D02*X207774Y21600D01*
X205001Y20000D02*X202228Y21600D01*
X203401Y20000D02*G75*G03X206601Y20000I1600J0D01*G01*
G75*G03X203401Y20000I-1600J0D01*G01*
X184428Y26684D02*Y23484D01*
Y26684D02*X187201Y28284D01*
X184428Y26684D02*X181655Y28284D01*
X182828Y26684D02*G75*G03X186028Y26684I1600J0D01*G01*
G75*G03X182828Y26684I-1600J0D01*G01*
X171713Y44185D02*Y40985D01*
Y44185D02*X174486Y45785D01*
X171713Y44185D02*X168940Y45785D01*
X170113Y44185D02*G75*G03X173313Y44185I1600J0D01*G01*
G75*G03X170113Y44185I-1600J0D01*G01*
X171713Y65816D02*Y62616D01*
Y65816D02*X174486Y67416D01*
X171713Y65816D02*X168940Y67416D01*
X170113Y65816D02*G75*G03X173313Y65816I1600J0D01*G01*
G75*G03X170113Y65816I-1600J0D01*G01*
X49428Y83316D02*Y80116D01*
Y83316D02*X52201Y84916D01*
X49428Y83316D02*X46655Y84916D01*
X47828Y83316D02*G75*G03X51028Y83316I1600J0D01*G01*
G75*G03X47828Y83316I-1600J0D01*G01*
X69999Y90000D02*Y86800D01*
Y90000D02*X72772Y91600D01*
X69999Y90000D02*X67226Y91600D01*
X68399Y90000D02*G75*G03X71599Y90000I1600J0D01*G01*
G75*G03X68399Y90000I-1600J0D01*G01*
X90572Y83316D02*Y80116D01*
Y83316D02*X93345Y84916D01*
X90572Y83316D02*X87799Y84916D01*
X88972Y83316D02*G75*G03X92172Y83316I1600J0D01*G01*
G75*G03X88972Y83316I-1600J0D01*G01*
X103287Y65815D02*Y62615D01*
Y65815D02*X106060Y67415D01*
X103287Y65815D02*X100514Y67415D01*
X101687Y65815D02*G75*G03X104887Y65815I1600J0D01*G01*
G75*G03X101687Y65815I-1600J0D01*G01*
X103287Y44184D02*Y40984D01*
Y44184D02*X106060Y45784D01*
X103287Y44184D02*X100514Y45784D01*
X101687Y44184D02*G75*G03X104887Y44184I1600J0D01*G01*
G75*G03X101687Y44184I-1600J0D01*G01*
X90572Y26684D02*Y23484D01*
Y26684D02*X93345Y28284D01*
X90572Y26684D02*X87799Y28284D01*
X88972Y26684D02*G75*G03X92172Y26684I1600J0D01*G01*
G75*G03X88972Y26684I-1600J0D01*G01*
X70001Y20000D02*Y16800D01*
Y20000D02*X72774Y21600D01*
X70001Y20000D02*X67228Y21600D01*
X68401Y20000D02*G75*G03X71601Y20000I1600J0D01*G01*
G75*G03X68401Y20000I-1600J0D01*G01*
X49428Y26684D02*Y23484D01*
Y26684D02*X52201Y28284D01*
X49428Y26684D02*X46655Y28284D01*
X47828Y26684D02*G75*G03X51028Y26684I1600J0D01*G01*
G75*G03X47828Y26684I-1600J0D01*G01*
X36713Y44185D02*Y40985D01*
Y44185D02*X39486Y45785D01*
X36713Y44185D02*X33940Y45785D01*
X35113Y44185D02*G75*G03X38313Y44185I1600J0D01*G01*
G75*G03X35113Y44185I-1600J0D01*G01*
X36713Y65816D02*Y62616D01*
Y65816D02*X39486Y67416D01*
X36713Y65816D02*X33940Y67416D01*
X35113Y65816D02*G75*G03X38313Y65816I1600J0D01*G01*
G75*G03X35113Y65816I-1600J0D01*G01*
X15000Y621250D02*Y618050D01*
Y621250D02*X17773Y622850D01*
X15000Y621250D02*X12227Y622850D01*
X13400Y621250D02*G75*G03X16600Y621250I1600J0D01*G01*
G75*G03X13400Y621250I-1600J0D01*G01*
X135000Y623500D02*X136500Y620500D01*
X138000Y623500D01*
X136500Y620500D02*Y617500D01*
X139800Y620800D02*X142050D01*
X139800Y617500D02*X142800D01*
X139800Y623500D02*Y617500D01*
Y623500D02*X142800D01*
X147600D02*X148350Y622750D01*
X145350Y623500D02*X147600D01*
X144600Y622750D02*X145350Y623500D01*
X144600Y622750D02*Y621250D01*
X145350Y620500D01*
X147600D01*
X148350Y619750D01*
Y618250D01*
X147600Y617500D02*X148350Y618250D01*
X145350Y617500D02*X147600D01*
X144600Y618250D02*X145350Y617500D01*
X98000Y622750D02*X98750Y623500D01*
X101000D01*
X101750Y622750D01*
Y621250D01*
X98000Y617500D02*X101750Y621250D01*
X98000Y617500D02*X101750D01*
X103550Y618250D02*X104300Y617500D01*
X103550Y622750D02*Y618250D01*
Y622750D02*X104300Y623500D01*
X105800D01*
X106550Y622750D01*
Y618250D01*
X105800Y617500D02*X106550Y618250D01*
X104300Y617500D02*X105800D01*
X103550Y619000D02*X106550Y622000D01*
X45000Y618250D02*X45750Y617500D01*
X45000Y622750D02*Y618250D01*
Y622750D02*X45750Y623500D01*
X47250D01*
X48000Y622750D01*
Y618250D01*
X47250Y617500D02*X48000Y618250D01*
X45750Y617500D02*X47250D01*
X45000Y619000D02*X48000Y622000D01*
X49800Y617500D02*X50550D01*
X52350Y618250D02*X53100Y617500D01*
X52350Y622750D02*Y618250D01*
Y622750D02*X53100Y623500D01*
X54600D01*
X55350Y622750D01*
Y618250D01*
X54600Y617500D02*X55350Y618250D01*
X53100Y617500D02*X54600D01*
X52350Y619000D02*X55350Y622000D01*
X57900Y617500D02*X60900Y623500D01*
X57150D02*X60900D01*
X62700Y622750D02*X63450Y623500D01*
X64950D01*
X65700Y622750D01*
X64950Y617500D02*X65700Y618250D01*
X63450Y617500D02*X64950D01*
X62700Y618250D02*X63450Y617500D01*
Y620800D02*X64950D01*
X65700Y622750D02*Y621550D01*
Y620050D02*Y618250D01*
Y620050D02*X64950Y620800D01*
X65700Y621550D02*X64950Y620800D01*
X101900Y111100D02*X105100D01*
X101900D02*Y107900D01*
X105100D01*
Y111100D02*Y107900D01*
X91900Y111100D02*X95100D01*
X91900D02*Y107900D01*
X95100D01*
Y111100D02*Y107900D01*
X81900Y111100D02*X85100D01*
X81900D02*Y107900D01*
X85100D01*
Y111100D02*Y107900D01*
X101900Y121100D02*X105100D01*
X101900D02*Y117900D01*
X105100D01*
Y121100D02*Y117900D01*
X91900Y121100D02*X95100D01*
X91900D02*Y117900D01*
X95100D01*
Y121100D02*Y117900D01*
X81900Y121100D02*X85100D01*
X81900D02*Y117900D01*
X85100D01*
Y121100D02*Y117900D01*
X125900Y423100D02*X129100D01*
X125900D02*Y419900D01*
X129100D01*
Y423100D02*Y419900D01*
X135900Y423100D02*X139100D01*
X135900D02*Y419900D01*
X139100D01*
Y423100D02*Y419900D01*
X145900Y423100D02*X149100D01*
X145900D02*Y419900D01*
X149100D01*
Y423100D02*Y419900D01*
X125900Y413100D02*X129100D01*
X125900D02*Y409900D01*
X129100D01*
Y413100D02*Y409900D01*
X135900Y413100D02*X139100D01*
X135900D02*Y409900D01*
X139100D01*
Y413100D02*Y409900D01*
X145900Y413100D02*X149100D01*
X145900D02*Y409900D01*
X149100D01*
Y413100D02*Y409900D01*
X29000Y296600D02*X32200D01*
X29000D02*Y293400D01*
X32200D01*
Y296600D02*Y293400D01*
X29000Y237600D02*X32200D01*
X29000D02*Y234400D01*
X32200D01*
Y237600D02*Y234400D01*
X135900Y37100D02*X139100D01*
X135900D02*Y33900D01*
X139100D01*
Y37100D02*Y33900D01*
X135900Y48900D02*X139100D01*
X135900D02*Y45700D01*
X139100D01*
Y48900D02*Y45700D01*
X13400Y637850D02*X16600D01*
X13400D02*Y634650D01*
X16600D01*
Y637850D02*Y634650D01*
X135000Y638500D02*X136500Y635500D01*
X138000Y638500D01*
X136500Y635500D02*Y632500D01*
X139800Y635800D02*X142050D01*
X139800Y632500D02*X142800D01*
X139800Y638500D02*Y632500D01*
Y638500D02*X142800D01*
X147600D02*X148350Y637750D01*
X145350Y638500D02*X147600D01*
X144600Y637750D02*X145350Y638500D01*
X144600Y637750D02*Y636250D01*
X145350Y635500D01*
X147600D01*
X148350Y634750D01*
Y633250D01*
X147600Y632500D02*X148350Y633250D01*
X145350Y632500D02*X147600D01*
X144600Y633250D02*X145350Y632500D01*
X98000Y637300D02*X99200Y638500D01*
Y632500D01*
X98000D02*X100250D01*
X104300Y638500D02*X105050Y637750D01*
X102800Y638500D02*X104300D01*
X102050Y637750D02*X102800Y638500D01*
X102050Y637750D02*Y633250D01*
X102800Y632500D01*
X104300Y635800D02*X105050Y635050D01*
X102050Y635800D02*X104300D01*
X102800Y632500D02*X104300D01*
X105050Y633250D01*
Y635050D02*Y633250D01*
X45000D02*X45750Y632500D01*
X45000Y637750D02*Y633250D01*
Y637750D02*X45750Y638500D01*
X47250D01*
X48000Y637750D01*
Y633250D01*
X47250Y632500D02*X48000Y633250D01*
X45750Y632500D02*X47250D01*
X45000Y634000D02*X48000Y637000D01*
X49800Y632500D02*X50550D01*
X52350Y633250D02*X53100Y632500D01*
X52350Y637750D02*Y633250D01*
Y637750D02*X53100Y638500D01*
X54600D01*
X55350Y637750D01*
Y633250D01*
X54600Y632500D02*X55350Y633250D01*
X53100Y632500D02*X54600D01*
X52350Y634000D02*X55350Y637000D01*
X57150Y634750D02*X60150Y638500D01*
X57150Y634750D02*X60900D01*
X60150Y638500D02*Y632500D01*
X62700Y633250D02*X63450Y632500D01*
X62700Y637750D02*Y633250D01*
Y637750D02*X63450Y638500D01*
X64950D01*
X65700Y637750D01*
Y633250D01*
X64950Y632500D02*X65700Y633250D01*
X63450Y632500D02*X64950D01*
X62700Y634000D02*X65700Y637000D01*
X225543Y200000D02*G75*G03X227143Y200000I800J0D01*G01*
G75*G03X225543Y200000I-800J0D01*G01*
X215700D02*G75*G03X217300Y200000I800J0D01*G01*
G75*G03X215700Y200000I-800J0D01*G01*
X205857D02*G75*G03X207457Y200000I800J0D01*G01*
G75*G03X205857Y200000I-800J0D01*G01*
X111200Y513157D02*G75*G03X112800Y513157I800J0D01*G01*
G75*G03X111200Y513157I-800J0D01*G01*
Y523000D02*G75*G03X112800Y523000I800J0D01*G01*
G75*G03X111200Y523000I-800J0D01*G01*
Y532843D02*G75*G03X112800Y532843I800J0D01*G01*
G75*G03X111200Y532843I-800J0D01*G01*
X14200Y651250D02*G75*G03X15800Y651250I800J0D01*G01*
G75*G03X14200Y651250I-800J0D01*G01*
X135000Y653500D02*X136500Y650500D01*
X138000Y653500D01*
X136500Y650500D02*Y647500D01*
X139800Y650800D02*X142050D01*
X139800Y647500D02*X142800D01*
X139800Y653500D02*Y647500D01*
Y653500D02*X142800D01*
X147600D02*X148350Y652750D01*
X145350Y653500D02*X147600D01*
X144600Y652750D02*X145350Y653500D01*
X144600Y652750D02*Y651250D01*
X145350Y650500D01*
X147600D01*
X148350Y649750D01*
Y648250D01*
X147600Y647500D02*X148350Y648250D01*
X145350Y647500D02*X147600D01*
X144600Y648250D02*X145350Y647500D01*
X100250Y653500D02*X101000Y652750D01*
X98750Y653500D02*X100250D01*
X98000Y652750D02*X98750Y653500D01*
X98000Y652750D02*Y648250D01*
X98750Y647500D01*
X100250Y650800D02*X101000Y650050D01*
X98000Y650800D02*X100250D01*
X98750Y647500D02*X100250D01*
X101000Y648250D01*
Y650050D02*Y648250D01*
X45000D02*X45750Y647500D01*
X45000Y652750D02*Y648250D01*
Y652750D02*X45750Y653500D01*
X47250D01*
X48000Y652750D01*
Y648250D01*
X47250Y647500D02*X48000Y648250D01*
X45750Y647500D02*X47250D01*
X45000Y649000D02*X48000Y652000D01*
X49800Y647500D02*X50550D01*
X52350Y648250D02*X53100Y647500D01*
X52350Y652750D02*Y648250D01*
Y652750D02*X53100Y653500D01*
X54600D01*
X55350Y652750D01*
Y648250D01*
X54600Y647500D02*X55350Y648250D01*
X53100Y647500D02*X54600D01*
X52350Y649000D02*X55350Y652000D01*
X57150Y652750D02*X57900Y653500D01*
X59400D01*
X60150Y652750D01*
X59400Y647500D02*X60150Y648250D01*
X57900Y647500D02*X59400D01*
X57150Y648250D02*X57900Y647500D01*
Y650800D02*X59400D01*
X60150Y652750D02*Y651550D01*
Y650050D02*Y648250D01*
Y650050D02*X59400Y650800D01*
X60150Y651550D02*X59400Y650800D01*
X62700Y647500D02*X64950Y650500D01*
Y652750D02*Y650500D01*
X64200Y653500D02*X64950Y652750D01*
X62700Y653500D02*X64200D01*
X61950Y652750D02*X62700Y653500D01*
X61950Y652750D02*Y651250D01*
X62700Y650500D01*
X64950D01*
X4300Y384700D02*X6700Y382300D01*
X4300D02*X6700Y384700D01*
X4300Y394700D02*X6700Y392300D01*
X4300D02*X6700Y394700D01*
X4300Y404700D02*X6700Y402300D01*
X4300D02*X6700Y404700D01*
X4300Y414700D02*X6700Y412300D01*
X4300D02*X6700Y414700D01*
X4300Y424700D02*X6700Y422300D01*
X4300D02*X6700Y424700D01*
X4300Y434700D02*X6700Y432300D01*
X4300D02*X6700Y434700D01*
X4300Y444700D02*X6700Y442300D01*
X4300D02*X6700Y444700D01*
X4300Y454700D02*X6700Y452300D01*
X4300D02*X6700Y454700D01*
X4300Y464700D02*X6700Y462300D01*
X4300D02*X6700Y464700D01*
X268300Y384700D02*X270700Y382300D01*
X268300D02*X270700Y384700D01*
X268300Y394700D02*X270700Y392300D01*
X268300D02*X270700Y394700D01*
X268300Y404700D02*X270700Y402300D01*
X268300D02*X270700Y404700D01*
X268300Y414700D02*X270700Y412300D01*
X268300D02*X270700Y414700D01*
X268300Y424700D02*X270700Y422300D01*
X268300D02*X270700Y424700D01*
X268300Y434700D02*X270700Y432300D01*
X268300D02*X270700Y434700D01*
X268300Y444700D02*X270700Y442300D01*
X268300D02*X270700Y444700D01*
X268300Y454700D02*X270700Y452300D01*
X268300D02*X270700Y454700D01*
X268300Y464700D02*X270700Y462300D01*
X268300D02*X270700Y464700D01*
X13800Y667450D02*X16200Y665050D01*
X13800D02*X16200Y667450D01*
X135000Y668500D02*X136500Y665500D01*
X138000Y668500D01*
X136500Y665500D02*Y662500D01*
X139800Y665800D02*X142050D01*
X139800Y662500D02*X142800D01*
X139800Y668500D02*Y662500D01*
Y668500D02*X142800D01*
X147600D02*X148350Y667750D01*
X145350Y668500D02*X147600D01*
X144600Y667750D02*X145350Y668500D01*
X144600Y667750D02*Y666250D01*
X145350Y665500D01*
X147600D01*
X148350Y664750D01*
Y663250D01*
X147600Y662500D02*X148350Y663250D01*
X145350Y662500D02*X147600D01*
X144600Y663250D02*X145350Y662500D01*
X98000Y667300D02*X99200Y668500D01*
Y662500D01*
X98000D02*X100250D01*
X102050Y663250D02*X102800Y662500D01*
X102050Y664450D02*Y663250D01*
Y664450D02*X103100Y665500D01*
X104000D01*
X105050Y664450D01*
Y663250D01*
X104300Y662500D02*X105050Y663250D01*
X102800Y662500D02*X104300D01*
X102050Y666550D02*X103100Y665500D01*
X102050Y667750D02*Y666550D01*
Y667750D02*X102800Y668500D01*
X104300D01*
X105050Y667750D01*
Y666550D01*
X104000Y665500D02*X105050Y666550D01*
X45000Y663250D02*X45750Y662500D01*
X45000Y667750D02*Y663250D01*
Y667750D02*X45750Y668500D01*
X47250D01*
X48000Y667750D01*
Y663250D01*
X47250Y662500D02*X48000Y663250D01*
X45750Y662500D02*X47250D01*
X45000Y664000D02*X48000Y667000D01*
X49800Y662500D02*X50550D01*
X52350Y663250D02*X53100Y662500D01*
X52350Y667750D02*Y663250D01*
Y667750D02*X53100Y668500D01*
X54600D01*
X55350Y667750D01*
Y663250D01*
X54600Y662500D02*X55350Y663250D01*
X53100Y662500D02*X54600D01*
X52350Y664000D02*X55350Y667000D01*
X57150Y667750D02*X57900Y668500D01*
X59400D01*
X60150Y667750D01*
X59400Y662500D02*X60150Y663250D01*
X57900Y662500D02*X59400D01*
X57150Y663250D02*X57900Y662500D01*
Y665800D02*X59400D01*
X60150Y667750D02*Y666550D01*
Y665050D02*Y663250D01*
Y665050D02*X59400Y665800D01*
X60150Y666550D02*X59400Y665800D01*
X61950Y663250D02*X62700Y662500D01*
X61950Y664450D02*Y663250D01*
Y664450D02*X63000Y665500D01*
X63900D01*
X64950Y664450D01*
Y663250D01*
X64200Y662500D02*X64950Y663250D01*
X62700Y662500D02*X64200D01*
X61950Y666550D02*X63000Y665500D01*
X61950Y667750D02*Y666550D01*
Y667750D02*X62700Y668500D01*
X64200D01*
X64950Y667750D01*
Y666550D01*
X63900Y665500D02*X64950Y666550D01*
X227650Y239800D02*Y236600D01*
X226050Y238200D02*X229250D01*
X227650Y263400D02*Y260200D01*
X226050Y261800D02*X229250D01*
X246350Y239800D02*Y236600D01*
X244750Y238200D02*X247950D01*
X246350Y263400D02*Y260200D01*
X244750Y261800D02*X247950D01*
X205650Y511800D02*Y508600D01*
X204050Y510200D02*X207250D01*
X205650Y535400D02*Y532200D01*
X204050Y533800D02*X207250D01*
X224350Y511800D02*Y508600D01*
X222750Y510200D02*X225950D01*
X224350Y535400D02*Y532200D01*
X222750Y533800D02*X225950D01*
X15000Y682850D02*Y679650D01*
X13400Y681250D02*X16600D01*
X135000Y683500D02*X136500Y680500D01*
X138000Y683500D01*
X136500Y680500D02*Y677500D01*
X139800Y680800D02*X142050D01*
X139800Y677500D02*X142800D01*
X139800Y683500D02*Y677500D01*
Y683500D02*X142800D01*
X147600D02*X148350Y682750D01*
X145350Y683500D02*X147600D01*
X144600Y682750D02*X145350Y683500D01*
X144600Y682750D02*Y681250D01*
X145350Y680500D01*
X147600D01*
X148350Y679750D01*
Y678250D01*
X147600Y677500D02*X148350Y678250D01*
X145350Y677500D02*X147600D01*
X144600Y678250D02*X145350Y677500D01*
X98000Y678250D02*X98750Y677500D01*
X98000Y679450D02*Y678250D01*
Y679450D02*X99050Y680500D01*
X99950D01*
X101000Y679450D01*
Y678250D01*
X100250Y677500D02*X101000Y678250D01*
X98750Y677500D02*X100250D01*
X98000Y681550D02*X99050Y680500D01*
X98000Y682750D02*Y681550D01*
Y682750D02*X98750Y683500D01*
X100250D01*
X101000Y682750D01*
Y681550D01*
X99950Y680500D02*X101000Y681550D01*
X45000Y678250D02*X45750Y677500D01*
X45000Y682750D02*Y678250D01*
Y682750D02*X45750Y683500D01*
X47250D01*
X48000Y682750D01*
Y678250D01*
X47250Y677500D02*X48000Y678250D01*
X45750Y677500D02*X47250D01*
X45000Y679000D02*X48000Y682000D01*
X49800Y677500D02*X50550D01*
X52350Y678250D02*X53100Y677500D01*
X52350Y682750D02*Y678250D01*
Y682750D02*X53100Y683500D01*
X54600D01*
X55350Y682750D01*
Y678250D01*
X54600Y677500D02*X55350Y678250D01*
X53100Y677500D02*X54600D01*
X52350Y679000D02*X55350Y682000D01*
X57150Y682750D02*X57900Y683500D01*
X59400D01*
X60150Y682750D01*
X59400Y677500D02*X60150Y678250D01*
X57900Y677500D02*X59400D01*
X57150Y678250D02*X57900Y677500D01*
Y680800D02*X59400D01*
X60150Y682750D02*Y681550D01*
Y680050D02*Y678250D01*
Y680050D02*X59400Y680800D01*
X60150Y681550D02*X59400Y680800D01*
X61950Y683500D02*X64950D01*
X61950D02*Y680500D01*
X62700Y681250D01*
X64200D01*
X64950Y680500D01*
Y678250D01*
X64200Y677500D02*X64950Y678250D01*
X62700Y677500D02*X64200D01*
X61950Y678250D02*X62700Y677500D01*
X87000Y268500D02*Y266900D01*
Y268500D02*X88387Y269300D01*
X87000Y268500D02*X85613Y269300D01*
X87000Y260500D02*Y258900D01*
Y260500D02*X88387Y261300D01*
X87000Y260500D02*X85613Y261300D01*
X87000Y264500D02*Y262900D01*
Y264500D02*X88387Y265300D01*
X87000Y264500D02*X85613Y265300D01*
X68000Y254000D02*Y252400D01*
Y254000D02*X69387Y254800D01*
X68000Y254000D02*X66613Y254800D01*
X64500Y256000D02*Y254400D01*
Y256000D02*X65887Y256800D01*
X64500Y256000D02*X63113Y256800D01*
X64500Y252000D02*Y250400D01*
Y252000D02*X65887Y252800D01*
X64500Y252000D02*X63113Y252800D01*
X71000Y230500D02*Y228900D01*
Y230500D02*X72387Y231300D01*
X71000Y230500D02*X69613Y231300D01*
X67000Y230500D02*Y228900D01*
Y230500D02*X68387Y231300D01*
X67000Y230500D02*X65613Y231300D01*
X145252Y219000D02*Y217400D01*
Y219000D02*X146639Y219800D01*
X145252Y219000D02*X143865Y219800D01*
X161000Y249000D02*Y247400D01*
Y249000D02*X162387Y249800D01*
X161000Y249000D02*X159613Y249800D01*
X177500Y268649D02*Y267049D01*
Y268649D02*X178887Y269449D01*
X177500Y268649D02*X176113Y269449D01*
X161000Y282000D02*Y280400D01*
Y282000D02*X162387Y282800D01*
X161000Y282000D02*X159613Y282800D01*
X144500Y265500D02*Y263900D01*
Y265500D02*X145887Y266300D01*
X144500Y265500D02*X143113Y266300D01*
X172000Y300000D02*Y298400D01*
Y300000D02*X173387Y300800D01*
X172000Y300000D02*X170613Y300800D01*
X176500Y300000D02*Y298400D01*
Y300000D02*X177887Y300800D01*
X176500Y300000D02*X175113Y300800D01*
X134500Y235500D02*Y233900D01*
Y235500D02*X135887Y236300D01*
X134500Y235500D02*X133113Y236300D01*
X134500Y231000D02*Y229400D01*
Y231000D02*X135887Y231800D01*
X134500Y231000D02*X133113Y231800D01*
X97500Y440000D02*Y438400D01*
Y440000D02*X98887Y440800D01*
X97500Y440000D02*X96113Y440800D01*
X102500Y440000D02*Y438400D01*
Y440000D02*X103887Y440800D01*
X102500Y440000D02*X101113Y440800D01*
X97500Y435500D02*Y433900D01*
Y435500D02*X98887Y436300D01*
X97500Y435500D02*X96113Y436300D01*
X102500Y435500D02*Y433900D01*
Y435500D02*X103887Y436300D01*
X102500Y435500D02*X101113Y436300D01*
X107500Y440000D02*Y438400D01*
Y440000D02*X108887Y440800D01*
X107500Y440000D02*X106113Y440800D01*
X107500Y435500D02*Y433900D01*
Y435500D02*X108887Y436300D01*
X107500Y435500D02*X106113Y436300D01*
X129500Y256052D02*Y254452D01*
Y256052D02*X130887Y256852D01*
X129500Y256052D02*X128113Y256852D01*
X71575Y45500D02*Y43900D01*
Y45500D02*X72962Y46300D01*
X71575Y45500D02*X70188Y46300D01*
X206575Y45500D02*Y43900D01*
Y45500D02*X207962Y46300D01*
X206575Y45500D02*X205189Y46300D01*
X157850Y215000D02*Y213400D01*
Y215000D02*X159237Y215800D01*
X157850Y215000D02*X156463Y215800D01*
X151500Y222000D02*Y220400D01*
Y222000D02*X152887Y222800D01*
X151500Y222000D02*X150113Y222800D01*
X142000Y222000D02*Y220400D01*
Y222000D02*X143387Y222800D01*
X142000Y222000D02*X140613Y222800D01*
X181000Y195000D02*Y193400D01*
Y195000D02*X182387Y195800D01*
X181000Y195000D02*X179613Y195800D01*
X201500Y256051D02*Y254451D01*
Y256051D02*X202887Y256851D01*
X201500Y256051D02*X200113Y256851D01*
X210000Y256051D02*Y254451D01*
Y256051D02*X211387Y256851D01*
X210000Y256051D02*X208613Y256851D01*
X74000Y407500D02*Y405900D01*
Y407500D02*X75387Y408300D01*
X74000Y407500D02*X72613Y408300D01*
X201000Y230000D02*Y228400D01*
Y230000D02*X202387Y230800D01*
X201000Y230000D02*X199613Y230800D01*
X201000Y234500D02*Y232900D01*
Y234500D02*X202387Y235300D01*
X201000Y234500D02*X199613Y235300D01*
X213500Y230000D02*Y228400D01*
Y230000D02*X214887Y230800D01*
X213500Y230000D02*X212113Y230800D01*
X216500Y234500D02*Y232900D01*
Y234500D02*X217887Y235300D01*
X216500Y234500D02*X215113Y235300D01*
X201000Y239000D02*Y237400D01*
Y239000D02*X202387Y239800D01*
X201000Y239000D02*X199613Y239800D01*
X219500Y239000D02*Y237400D01*
Y239000D02*X220887Y239800D01*
X219500Y239000D02*X218113Y239800D01*
X201500Y249752D02*Y248152D01*
Y249752D02*X202887Y250552D01*
X201500Y249752D02*X200113Y250552D01*
X219000Y249752D02*Y248152D01*
Y249752D02*X220387Y250552D01*
X219000Y249752D02*X217613Y250552D01*
X198500Y252901D02*Y251301D01*
Y252901D02*X199887Y253701D01*
X198500Y252901D02*X197113Y253701D01*
X225500Y252901D02*Y251301D01*
Y252901D02*X226887Y253701D01*
X225500Y252901D02*X224113Y253701D01*
X203500Y262350D02*Y260750D01*
Y262350D02*X204887Y263150D01*
X203500Y262350D02*X202113Y263150D01*
X261000Y383500D02*Y381900D01*
Y383500D02*X262387Y384300D01*
X261000Y383500D02*X259613Y384300D01*
X202000Y269000D02*Y267400D01*
Y269000D02*X203387Y269800D01*
X202000Y269000D02*X200613Y269800D01*
X233500Y272500D02*Y270900D01*
Y272500D02*X234887Y273300D01*
X233500Y272500D02*X232113Y273300D01*
X231500Y277000D02*Y275400D01*
Y277000D02*X232887Y277800D01*
X231500Y277000D02*X230113Y277800D01*
X237500Y281000D02*Y279400D01*
Y281000D02*X238887Y281800D01*
X237500Y281000D02*X236113Y281800D01*
X232500Y284000D02*Y282400D01*
Y284000D02*X233887Y284800D01*
X232500Y284000D02*X231113Y284800D01*
X206000Y281000D02*Y279400D01*
Y281000D02*X207387Y281800D01*
X206000Y281000D02*X204613Y281800D01*
X206500Y275500D02*Y273900D01*
Y275500D02*X207887Y276300D01*
X206500Y275500D02*X205113Y276300D01*
X253000Y413500D02*Y411900D01*
Y413500D02*X254387Y414300D01*
X253000Y413500D02*X251613Y414300D01*
X249500Y403500D02*Y401900D01*
Y403500D02*X250887Y404300D01*
X249500Y403500D02*X248113Y404300D01*
X232500Y453500D02*Y451900D01*
Y453500D02*X233887Y454300D01*
X232500Y453500D02*X231113Y454300D01*
X56000Y400500D02*Y398900D01*
Y400500D02*X57387Y401300D01*
X56000Y400500D02*X54613Y401300D01*
X93500Y412500D02*Y410900D01*
Y412500D02*X94887Y413300D01*
X93500Y412500D02*X92113Y413300D01*
X239500Y290500D02*Y288900D01*
Y290500D02*X240887Y291300D01*
X239500Y290500D02*X238113Y291300D01*
X67000Y420500D02*Y418900D01*
Y420500D02*X68387Y421300D01*
X67000Y420500D02*X65613Y421300D01*
X93500Y420500D02*Y418900D01*
Y420500D02*X94887Y421300D01*
X93500Y420500D02*X92113Y421300D01*
X190500Y135740D02*Y134140D01*
Y135740D02*X191887Y136540D01*
X190500Y135740D02*X189113Y136540D01*
X157850Y191500D02*Y189900D01*
Y191500D02*X159237Y192300D01*
X157850Y191500D02*X156463Y192300D01*
X175000Y146000D02*Y144400D01*
Y146000D02*X176387Y146800D01*
X175000Y146000D02*X173613Y146800D01*
X220000Y312500D02*Y310900D01*
Y312500D02*X221387Y313300D01*
X220000Y312500D02*X218613Y313300D01*
X200500Y293000D02*Y291400D01*
Y293000D02*X201887Y293800D01*
X200500Y293000D02*X199113Y293800D01*
X197000Y296500D02*Y294900D01*
Y296500D02*X198387Y297300D01*
X197000Y296500D02*X195613Y297300D01*
X193500Y300000D02*Y298400D01*
Y300000D02*X194887Y300800D01*
X193500Y300000D02*X192113Y300800D01*
X60500Y394000D02*Y392400D01*
Y394000D02*X61887Y394800D01*
X60500Y394000D02*X59113Y394800D01*
X206500Y307000D02*Y305400D01*
Y307000D02*X207887Y307800D01*
X206500Y307000D02*X205113Y307800D01*
X104500Y248000D02*Y246400D01*
Y248000D02*X105887Y248800D01*
X104500Y248000D02*X103113Y248800D01*
X109000Y248000D02*Y246400D01*
Y248000D02*X110387Y248800D01*
X109000Y248000D02*X107613Y248800D01*
X113500Y248000D02*Y246400D01*
Y248000D02*X114887Y248800D01*
X113500Y248000D02*X112113Y248800D01*
X118000Y248000D02*Y246400D01*
Y248000D02*X119387Y248800D01*
X118000Y248000D02*X116613Y248800D01*
X130500Y251500D02*Y249900D01*
Y251500D02*X131887Y252300D01*
X130500Y251500D02*X129113Y252300D01*
X129500Y260500D02*Y258900D01*
Y260500D02*X130887Y261300D01*
X129500Y260500D02*X128113Y261300D01*
X129500Y265000D02*Y263400D01*
Y265000D02*X130887Y265800D01*
X129500Y265000D02*X128113Y265800D01*
X205650Y447500D02*Y445900D01*
Y447500D02*X207037Y448300D01*
X205650Y447500D02*X204263Y448300D01*
X49500Y133000D02*Y131400D01*
Y133000D02*X50887Y133800D01*
X49500Y133000D02*X48113Y133800D01*
X49500Y143500D02*Y141900D01*
Y143500D02*X50887Y144300D01*
X49500Y143500D02*X48113Y144300D01*
X54500Y131000D02*Y129400D01*
Y131000D02*X55887Y131800D01*
X54500Y131000D02*X53113Y131800D01*
X54500Y140500D02*Y138900D01*
Y140500D02*X55887Y141300D01*
X54500Y140500D02*X53113Y141300D01*
X44500Y134500D02*Y132900D01*
Y134500D02*X45887Y135300D01*
X44500Y134500D02*X43113Y135300D01*
X44500Y146500D02*Y144900D01*
Y146500D02*X45887Y147300D01*
X44500Y146500D02*X43113Y147300D01*
X111124Y143348D02*Y141748D01*
Y143348D02*X112511Y144148D01*
X111124Y143348D02*X109737Y144148D01*
X172000Y90000D02*Y88400D01*
Y90000D02*X173387Y90800D01*
X172000Y90000D02*X170613Y90800D01*
X179500Y97500D02*Y95900D01*
Y97500D02*X180887Y98300D01*
X179500Y97500D02*X178113Y98300D01*
X208000Y425000D02*Y423400D01*
Y425000D02*X209387Y425800D01*
X208000Y425000D02*X206613Y425800D01*
X185500Y206500D02*Y204900D01*
Y206500D02*X186887Y207300D01*
X185500Y206500D02*X184113Y207300D01*
X181000Y201500D02*Y199900D01*
Y201500D02*X182387Y202300D01*
X181000Y201500D02*X179613Y202300D01*
X181000Y206500D02*Y204900D01*
Y206500D02*X182387Y207300D01*
X181000Y206500D02*X179613Y207300D01*
X176500Y206500D02*Y204900D01*
Y206500D02*X177887Y207300D01*
X176500Y206500D02*X175113Y207300D01*
X248500Y185000D02*Y183400D01*
Y185000D02*X249887Y185800D01*
X248500Y185000D02*X247113Y185800D01*
X141000Y292000D02*Y290400D01*
Y292000D02*X142387Y292800D01*
X141000Y292000D02*X139613Y292800D01*
X226500Y276000D02*Y274400D01*
Y276000D02*X227887Y276800D01*
X226500Y276000D02*X225113Y276800D01*
X164500Y460000D02*Y458400D01*
Y460000D02*X165887Y460800D01*
X164500Y460000D02*X163113Y460800D01*
X201552Y274948D02*Y273348D01*
Y274948D02*X202939Y275748D01*
X201552Y274948D02*X200165Y275748D01*
X205500Y293000D02*Y291400D01*
Y293000D02*X206887Y293800D01*
X205500Y293000D02*X204113Y293800D01*
X234500Y291500D02*Y289900D01*
Y291500D02*X235887Y292300D01*
X234500Y291500D02*X233113Y292300D01*
X210000Y291500D02*Y289900D01*
Y291500D02*X211387Y292300D01*
X210000Y291500D02*X208613Y292300D01*
X227000Y271500D02*Y269900D01*
Y271500D02*X228387Y272300D01*
X227000Y271500D02*X225613Y272300D01*
X74000Y412000D02*Y410400D01*
Y412000D02*X75387Y412800D01*
X74000Y412000D02*X72613Y412800D01*
X57000Y390500D02*Y388900D01*
Y390500D02*X58387Y391300D01*
X57000Y390500D02*X55613Y391300D01*
X112000Y460000D02*Y458400D01*
Y460000D02*X113387Y460800D01*
X112000Y460000D02*X110613Y460800D01*
X63000Y435000D02*Y433400D01*
Y435000D02*X64387Y435800D01*
X63000Y435000D02*X61613Y435800D01*
X66500Y438000D02*Y436400D01*
Y438000D02*X67887Y438800D01*
X66500Y438000D02*X65113Y438800D01*
X63000Y441000D02*Y439400D01*
Y441000D02*X64387Y441800D01*
X63000Y441000D02*X61613Y441800D01*
X66500Y444000D02*Y442400D01*
Y444000D02*X67887Y444800D01*
X66500Y444000D02*X65113Y444800D01*
X63000Y447000D02*Y445400D01*
Y447000D02*X64387Y447800D01*
X63000Y447000D02*X61613Y447800D01*
X108500Y407600D02*Y406000D01*
Y407600D02*X109887Y408400D01*
X108500Y407600D02*X107113Y408400D01*
X108500Y425600D02*Y424000D01*
Y425600D02*X109887Y426400D01*
X108500Y425600D02*X107113Y426400D01*
X108500Y416600D02*Y415000D01*
Y416600D02*X109887Y417400D01*
X108500Y416600D02*X107113Y417400D01*
X238600Y301000D02*Y299400D01*
Y301000D02*X239987Y301800D01*
X238600Y301000D02*X237213Y301800D01*
X247600Y301000D02*Y299400D01*
Y301000D02*X248987Y301800D01*
X247600Y301000D02*X246213Y301800D01*
X229600Y301000D02*Y299400D01*
Y301000D02*X230987Y301800D01*
X229600Y301000D02*X228213Y301800D01*
X242700Y316200D02*Y314600D01*
Y316200D02*X244087Y317000D01*
X242700Y316200D02*X241313Y317000D01*
X77400Y141500D02*Y139900D01*
Y141500D02*X78787Y142300D01*
X77400Y141500D02*X76013Y142300D01*
X59400Y141500D02*Y139900D01*
Y141500D02*X60787Y142300D01*
X59400Y141500D02*X58013Y142300D01*
X68400Y141500D02*Y139900D01*
Y141500D02*X69787Y142300D01*
X68400Y141500D02*X67013Y142300D01*
X152000Y124500D02*Y122900D01*
Y124500D02*X153387Y125300D01*
X152000Y124500D02*X150613Y125300D01*
X152000Y119500D02*Y117900D01*
Y119500D02*X153387Y120300D01*
X152000Y119500D02*X150613Y120300D01*
X43000Y271700D02*Y270100D01*
Y271700D02*X44387Y272500D01*
X43000Y271700D02*X41613Y272500D01*
X43000Y267000D02*Y265400D01*
Y267000D02*X44387Y267800D01*
X43000Y267000D02*X41613Y267800D01*
X245000Y198500D02*Y196900D01*
Y198500D02*X246387Y199300D01*
X245000Y198500D02*X243613Y199300D01*
X245000Y188500D02*Y186900D01*
Y188500D02*X246387Y189300D01*
X245000Y188500D02*X243613Y189300D01*
X240000Y198500D02*Y196900D01*
Y198500D02*X241387Y199300D01*
X240000Y198500D02*X238613Y199300D01*
X240000Y190500D02*Y188900D01*
Y190500D02*X241387Y191300D01*
X240000Y190500D02*X238613Y191300D01*
X185500Y156500D02*Y154900D01*
Y156500D02*X186887Y157300D01*
X185500Y156500D02*X184113Y157300D01*
X133000Y221000D02*Y219400D01*
Y221000D02*X134387Y221800D01*
X133000Y221000D02*X131613Y221800D01*
X175500Y225500D02*Y223900D01*
Y225500D02*X176887Y226300D01*
X175500Y225500D02*X174113Y226300D01*
X228000Y453500D02*Y451900D01*
Y453500D02*X229387Y454300D01*
X228000Y453500D02*X226613Y454300D01*
X205650Y443000D02*Y441400D01*
Y443000D02*X207037Y443800D01*
X205650Y443000D02*X204263Y443800D01*
X232000Y434000D02*Y432400D01*
Y434000D02*X233387Y434800D01*
X232000Y434000D02*X230613Y434800D01*
X236500Y434000D02*Y432400D01*
Y434000D02*X237887Y434800D01*
X236500Y434000D02*X235113Y434800D01*
X42000Y433500D02*Y431900D01*
Y433500D02*X43387Y434300D01*
X42000Y433500D02*X40613Y434300D01*
X42000Y438000D02*Y436400D01*
Y438000D02*X43387Y438800D01*
X42000Y438000D02*X40613Y438800D01*
X168000Y297000D02*Y295400D01*
Y297000D02*X169387Y297800D01*
X168000Y297000D02*X166613Y297800D01*
X78000Y317000D02*Y315400D01*
Y317000D02*X79387Y317800D01*
X78000Y317000D02*X76613Y317800D01*
X96500Y317000D02*Y315400D01*
Y317000D02*X97887Y317800D01*
X96500Y317000D02*X95113Y317800D01*
X48500Y284500D02*Y282900D01*
Y284500D02*X49887Y285300D01*
X48500Y284500D02*X47113Y285300D01*
X48500Y272500D02*Y270900D01*
Y272500D02*X49887Y273300D01*
X48500Y272500D02*X47113Y273300D01*
X81500Y313500D02*Y311900D01*
Y313500D02*X82887Y314300D01*
X81500Y313500D02*X80113Y314300D01*
X100000Y313500D02*Y311900D01*
Y313500D02*X101387Y314300D01*
X100000Y313500D02*X98613Y314300D01*
X148402Y296000D02*Y294400D01*
Y296000D02*X149789Y296800D01*
X148402Y296000D02*X147015Y296800D01*
X139000Y235500D02*Y233900D01*
Y235500D02*X140387Y236300D01*
X139000Y235500D02*X137613Y236300D01*
X139000Y231000D02*Y229400D01*
Y231000D02*X140387Y231800D01*
X139000Y231000D02*X137613Y231800D01*
X118000Y227500D02*Y225900D01*
Y227500D02*X119387Y228300D01*
X118000Y227500D02*X116613Y228300D01*
X113500Y224500D02*Y222900D01*
Y224500D02*X114887Y225300D01*
X113500Y224500D02*X112113Y225300D01*
X109000Y221500D02*Y219900D01*
Y221500D02*X110387Y222300D01*
X109000Y221500D02*X107613Y222300D01*
X104500Y218500D02*Y216900D01*
Y218500D02*X105887Y219300D01*
X104500Y218500D02*X103113Y219300D01*
X15000Y696250D02*Y694650D01*
Y696250D02*X16387Y697050D01*
X15000Y696250D02*X13613Y697050D01*
X135000Y698500D02*X136500Y695500D01*
X138000Y698500D01*
X136500Y695500D02*Y692500D01*
X139800Y695800D02*X142050D01*
X139800Y692500D02*X142800D01*
X139800Y698500D02*Y692500D01*
Y698500D02*X142800D01*
X147600D02*X148350Y697750D01*
X145350Y698500D02*X147600D01*
X144600Y697750D02*X145350Y698500D01*
X144600Y697750D02*Y696250D01*
X145350Y695500D01*
X147600D01*
X148350Y694750D01*
Y693250D01*
X147600Y692500D02*X148350Y693250D01*
X145350Y692500D02*X147600D01*
X144600Y693250D02*X145350Y692500D01*
X98000Y697300D02*X99200Y698500D01*
Y692500D01*
X98000D02*X100250D01*
X102050Y694750D02*X105050Y698500D01*
X102050Y694750D02*X105800D01*
X105050Y698500D02*Y692500D01*
X108350D02*X110600Y695500D01*
Y697750D02*Y695500D01*
X109850Y698500D02*X110600Y697750D01*
X108350Y698500D02*X109850D01*
X107600Y697750D02*X108350Y698500D01*
X107600Y697750D02*Y696250D01*
X108350Y695500D01*
X110600D01*
X45000Y693250D02*X45750Y692500D01*
X45000Y697750D02*Y693250D01*
Y697750D02*X45750Y698500D01*
X47250D01*
X48000Y697750D01*
Y693250D01*
X47250Y692500D02*X48000Y693250D01*
X45750Y692500D02*X47250D01*
X45000Y694000D02*X48000Y697000D01*
X49800Y692500D02*X50550D01*
X52350Y693250D02*X53100Y692500D01*
X52350Y697750D02*Y693250D01*
Y697750D02*X53100Y698500D01*
X54600D01*
X55350Y697750D01*
Y693250D01*
X54600Y692500D02*X55350Y693250D01*
X53100Y692500D02*X54600D01*
X52350Y694000D02*X55350Y697000D01*
X57150Y697750D02*X57900Y698500D01*
X60150D01*
X60900Y697750D01*
Y696250D01*
X57150Y692500D02*X60900Y696250D01*
X57150Y692500D02*X60900D01*
X62700Y693250D02*X63450Y692500D01*
X62700Y697750D02*Y693250D01*
Y697750D02*X63450Y698500D01*
X64950D01*
X65700Y697750D01*
Y693250D01*
X64950Y692500D02*X65700Y693250D01*
X63450Y692500D02*X64950D01*
X62700Y694000D02*X65700Y697000D01*
X3000Y713500D02*X3750Y712750D01*
X750Y713500D02*X3000D01*
X0Y712750D02*X750Y713500D01*
X0Y712750D02*Y711250D01*
X750Y710500D01*
X3000D01*
X3750Y709750D01*
Y708250D01*
X3000Y707500D02*X3750Y708250D01*
X750Y707500D02*X3000D01*
X0Y708250D02*X750Y707500D01*
X5550Y710500D02*Y708250D01*
X6300Y707500D01*
X8550Y710500D02*Y706000D01*
X7800Y705250D02*X8550Y706000D01*
X6300Y705250D02*X7800D01*
X5550Y706000D02*X6300Y705250D01*
Y707500D02*X7800D01*
X8550Y708250D01*
X11100Y709750D02*Y707500D01*
Y709750D02*X11850Y710500D01*
X12600D01*
X13350Y709750D01*
Y707500D01*
Y709750D02*X14100Y710500D01*
X14850D01*
X15600Y709750D01*
Y707500D01*
X10350Y710500D02*X11100Y709750D01*
X17400Y713500D02*Y707500D01*
Y708250D02*X18150Y707500D01*
X19650D01*
X20400Y708250D01*
Y709750D02*Y708250D01*
X19650Y710500D02*X20400Y709750D01*
X18150Y710500D02*X19650D01*
X17400Y709750D02*X18150Y710500D01*
X22200Y709750D02*Y708250D01*
Y709750D02*X22950Y710500D01*
X24450D01*
X25200Y709750D01*
Y708250D01*
X24450Y707500D02*X25200Y708250D01*
X22950Y707500D02*X24450D01*
X22200Y708250D02*X22950Y707500D01*
X27000Y713500D02*Y708250D01*
X27750Y707500D01*
X0Y704250D02*X29250D01*
X41750Y713500D02*Y707500D01*
X43700Y713500D02*X44750Y712450D01*
Y708550D01*
X43700Y707500D02*X44750Y708550D01*
X41000Y707500D02*X43700D01*
X41000Y713500D02*X43700D01*
G54D141*X46550Y712000D02*Y711850D01*
G54D140*Y709750D02*Y707500D01*
X50300Y710500D02*X51050Y709750D01*
X48800Y710500D02*X50300D01*
X48050Y709750D02*X48800Y710500D01*
X48050Y709750D02*Y708250D01*
X48800Y707500D01*
X51050Y710500D02*Y708250D01*
X51800Y707500D01*
X48800D02*X50300D01*
X51050Y708250D01*
X54350Y709750D02*Y707500D01*
Y709750D02*X55100Y710500D01*
X55850D01*
X56600Y709750D01*
Y707500D01*
Y709750D02*X57350Y710500D01*
X58100D01*
X58850Y709750D01*
Y707500D01*
X53600Y710500D02*X54350Y709750D01*
X60650Y707500D02*X61400D01*
X65900Y708250D02*X66650Y707500D01*
X65900Y712750D02*X66650Y713500D01*
X65900Y712750D02*Y708250D01*
X68450Y713500D02*X69950D01*
X69200D02*Y707500D01*
X68450D02*X69950D01*
X72500Y709750D02*Y707500D01*
Y709750D02*X73250Y710500D01*
X74000D01*
X74750Y709750D01*
Y707500D01*
X71750Y710500D02*X72500Y709750D01*
X77300Y710500D02*X79550D01*
X76550Y709750D02*X77300Y710500D01*
X76550Y709750D02*Y708250D01*
X77300Y707500D01*
X79550D01*
X81350Y713500D02*Y707500D01*
Y709750D02*X82100Y710500D01*
X83600D01*
X84350Y709750D01*
Y707500D01*
X86150Y713500D02*X86900Y712750D01*
Y708250D01*
X86150Y707500D02*X86900Y708250D01*
X41000Y704250D02*X88700D01*
X96050Y707500D02*X98000D01*
X95000Y708550D02*X96050Y707500D01*
X95000Y712450D02*Y708550D01*
Y712450D02*X96050Y713500D01*
X98000D01*
X99800Y709750D02*Y708250D01*
Y709750D02*X100550Y710500D01*
X102050D01*
X102800Y709750D01*
Y708250D01*
X102050Y707500D02*X102800Y708250D01*
X100550Y707500D02*X102050D01*
X99800Y708250D02*X100550Y707500D01*
X104600Y710500D02*Y708250D01*
X105350Y707500D01*
X106850D01*
X107600Y708250D01*
Y710500D02*Y708250D01*
X110150Y709750D02*Y707500D01*
Y709750D02*X110900Y710500D01*
X111650D01*
X112400Y709750D01*
Y707500D01*
X109400Y710500D02*X110150Y709750D01*
X114950Y713500D02*Y708250D01*
X115700Y707500D01*
X114200Y711250D02*X115700D01*
X95000Y704250D02*X117200D01*
X130750Y713500D02*Y707500D01*
X130000Y713500D02*X133000D01*
X133750Y712750D01*
Y711250D01*
X133000Y710500D02*X133750Y711250D01*
X130750Y710500D02*X133000D01*
X135550Y713500D02*Y708250D01*
X136300Y707500D01*
X140050Y710500D02*X140800Y709750D01*
X138550Y710500D02*X140050D01*
X137800Y709750D02*X138550Y710500D01*
X137800Y709750D02*Y708250D01*
X138550Y707500D01*
X140800Y710500D02*Y708250D01*
X141550Y707500D01*
X138550D02*X140050D01*
X140800Y708250D01*
X144100Y713500D02*Y708250D01*
X144850Y707500D01*
X143350Y711250D02*X144850D01*
X147100Y707500D02*X149350D01*
X146350Y708250D02*X147100Y707500D01*
X146350Y709750D02*Y708250D01*
Y709750D02*X147100Y710500D01*
X148600D01*
X149350Y709750D01*
X146350Y709000D02*X149350D01*
Y709750D02*Y709000D01*
X154150Y713500D02*Y707500D01*
X153400D02*X154150Y708250D01*
X151900Y707500D02*X153400D01*
X151150Y708250D02*X151900Y707500D01*
X151150Y709750D02*Y708250D01*
Y709750D02*X151900Y710500D01*
X153400D01*
X154150Y709750D01*
X157450Y710500D02*Y709750D01*
Y708250D02*Y707500D01*
X155950Y712750D02*Y712000D01*
Y712750D02*X156700Y713500D01*
X158200D01*
X158950Y712750D01*
Y712000D01*
X157450Y710500D02*X158950Y712000D01*
X130000Y704250D02*X160750D01*
X0Y728500D02*X3000D01*
X1500D02*Y722500D01*
X4800Y728500D02*Y722500D01*
Y724750D02*X5550Y725500D01*
X7050D01*
X7800Y724750D01*
Y722500D01*
X10350D02*X12600D01*
X9600Y723250D02*X10350Y722500D01*
X9600Y724750D02*Y723250D01*
Y724750D02*X10350Y725500D01*
X11850D01*
X12600Y724750D01*
X9600Y724000D02*X12600D01*
Y724750D02*Y724000D01*
X15150Y724750D02*Y722500D01*
Y724750D02*X15900Y725500D01*
X17400D01*
X14400D02*X15150Y724750D01*
X19950Y722500D02*X22200D01*
X19200Y723250D02*X19950Y722500D01*
X19200Y724750D02*Y723250D01*
Y724750D02*X19950Y725500D01*
X21450D01*
X22200Y724750D01*
X19200Y724000D02*X22200D01*
Y724750D02*Y724000D01*
X28950Y725500D02*X29700Y724750D01*
X27450Y725500D02*X28950D01*
X26700Y724750D02*X27450Y725500D01*
X26700Y724750D02*Y723250D01*
X27450Y722500D01*
X29700Y725500D02*Y723250D01*
X30450Y722500D01*
X27450D02*X28950D01*
X29700Y723250D01*
X33000Y724750D02*Y722500D01*
Y724750D02*X33750Y725500D01*
X35250D01*
X32250D02*X33000Y724750D01*
X37800Y722500D02*X40050D01*
X37050Y723250D02*X37800Y722500D01*
X37050Y724750D02*Y723250D01*
Y724750D02*X37800Y725500D01*
X39300D01*
X40050Y724750D01*
X37050Y724000D02*X40050D01*
Y724750D02*Y724000D01*
X44550Y727300D02*X45750Y728500D01*
Y722500D01*
X44550D02*X46800D01*
X48600Y723250D02*X49350Y722500D01*
X48600Y727750D02*Y723250D01*
Y727750D02*X49350Y728500D01*
X50850D01*
X51600Y727750D01*
Y723250D01*
X50850Y722500D02*X51600Y723250D01*
X49350Y722500D02*X50850D01*
X48600Y724000D02*X51600Y727000D01*
X59100Y728500D02*Y722500D01*
X58350D02*X59100Y723250D01*
X56850Y722500D02*X58350D01*
X56100Y723250D02*X56850Y722500D01*
X56100Y724750D02*Y723250D01*
Y724750D02*X56850Y725500D01*
X58350D01*
X59100Y724750D01*
G54D141*X60900Y727000D02*Y726850D01*
G54D140*Y724750D02*Y722500D01*
X63150Y727750D02*Y722500D01*
Y727750D02*X63900Y728500D01*
X64650D01*
X62400Y725500D02*X63900D01*
X66900Y727750D02*Y722500D01*
Y727750D02*X67650Y728500D01*
X68400D01*
X66150Y725500D02*X67650D01*
X70650Y722500D02*X72900D01*
X69900Y723250D02*X70650Y722500D01*
X69900Y724750D02*Y723250D01*
Y724750D02*X70650Y725500D01*
X72150D01*
X72900Y724750D01*
X69900Y724000D02*X72900D01*
Y724750D02*Y724000D01*
X75450Y724750D02*Y722500D01*
Y724750D02*X76200Y725500D01*
X77700D01*
X74700D02*X75450Y724750D01*
X80250Y722500D02*X82500D01*
X79500Y723250D02*X80250Y722500D01*
X79500Y724750D02*Y723250D01*
Y724750D02*X80250Y725500D01*
X81750D01*
X82500Y724750D01*
X79500Y724000D02*X82500D01*
Y724750D02*Y724000D01*
X85050Y724750D02*Y722500D01*
Y724750D02*X85800Y725500D01*
X86550D01*
X87300Y724750D01*
Y722500D01*
X84300Y725500D02*X85050Y724750D01*
X89850Y728500D02*Y723250D01*
X90600Y722500D01*
X89100Y726250D02*X90600D01*
X97800Y728500D02*Y722500D01*
X97050D02*X97800Y723250D01*
X95550Y722500D02*X97050D01*
X94800Y723250D02*X95550Y722500D01*
X94800Y724750D02*Y723250D01*
Y724750D02*X95550Y725500D01*
X97050D01*
X97800Y724750D01*
X100350D02*Y722500D01*
Y724750D02*X101100Y725500D01*
X102600D01*
X99600D02*X100350Y724750D01*
G54D141*X104400Y727000D02*Y726850D01*
G54D140*Y724750D02*Y722500D01*
X105900Y728500D02*Y723250D01*
X106650Y722500D01*
X108150Y728500D02*Y723250D01*
X108900Y722500D01*
X113850D02*X116100D01*
X116850Y723250D01*
X116100Y724000D02*X116850Y723250D01*
X113850Y724000D02*X116100D01*
X113100Y724750D02*X113850Y724000D01*
X113100Y724750D02*X113850Y725500D01*
X116100D01*
X116850Y724750D01*
X113100Y723250D02*X113850Y722500D01*
G54D141*X118650Y727000D02*Y726850D01*
G54D140*Y724750D02*Y722500D01*
X120150Y725500D02*X123150D01*
X120150Y722500D02*X123150Y725500D01*
X120150Y722500D02*X123150D01*
X125700D02*X127950D01*
X124950Y723250D02*X125700Y722500D01*
X124950Y724750D02*Y723250D01*
Y724750D02*X125700Y725500D01*
X127200D01*
X127950Y724750D01*
X124950Y724000D02*X127950D01*
Y724750D02*Y724000D01*
X130500Y722500D02*X132750D01*
X133500Y723250D01*
X132750Y724000D02*X133500Y723250D01*
X130500Y724000D02*X132750D01*
X129750Y724750D02*X130500Y724000D01*
X129750Y724750D02*X130500Y725500D01*
X132750D01*
X133500Y724750D01*
X129750Y723250D02*X130500Y722500D01*
X138000Y725500D02*Y723250D01*
X138750Y722500D01*
X140250D01*
X141000Y723250D01*
Y725500D02*Y723250D01*
X143550Y722500D02*X145800D01*
X146550Y723250D01*
X145800Y724000D02*X146550Y723250D01*
X143550Y724000D02*X145800D01*
X142800Y724750D02*X143550Y724000D01*
X142800Y724750D02*X143550Y725500D01*
X145800D01*
X146550Y724750D01*
X142800Y723250D02*X143550Y722500D01*
X149100D02*X151350D01*
X148350Y723250D02*X149100Y722500D01*
X148350Y724750D02*Y723250D01*
Y724750D02*X149100Y725500D01*
X150600D01*
X151350Y724750D01*
X148350Y724000D02*X151350D01*
Y724750D02*Y724000D01*
X156150Y728500D02*Y722500D01*
X155400D02*X156150Y723250D01*
X153900Y722500D02*X155400D01*
X153150Y723250D02*X153900Y722500D01*
X153150Y724750D02*Y723250D01*
Y724750D02*X153900Y725500D01*
X155400D01*
X156150Y724750D01*
G54D141*X160650Y727000D02*Y726850D01*
G54D140*Y724750D02*Y722500D01*
X162900Y724750D02*Y722500D01*
Y724750D02*X163650Y725500D01*
X164400D01*
X165150Y724750D01*
Y722500D01*
X162150Y725500D02*X162900Y724750D01*
X170400Y728500D02*Y723250D01*
X171150Y722500D01*
X169650Y726250D02*X171150D01*
X172650Y728500D02*Y722500D01*
Y724750D02*X173400Y725500D01*
X174900D01*
X175650Y724750D01*
Y722500D01*
G54D141*X177450Y727000D02*Y726850D01*
G54D140*Y724750D02*Y722500D01*
X179700D02*X181950D01*
X182700Y723250D01*
X181950Y724000D02*X182700Y723250D01*
X179700Y724000D02*X181950D01*
X178950Y724750D02*X179700Y724000D01*
X178950Y724750D02*X179700Y725500D01*
X181950D01*
X182700Y724750D01*
X178950Y723250D02*X179700Y722500D01*
X187200Y728500D02*Y723250D01*
X187950Y722500D01*
X191700Y725500D02*X192450Y724750D01*
X190200Y725500D02*X191700D01*
X189450Y724750D02*X190200Y725500D01*
X189450Y724750D02*Y723250D01*
X190200Y722500D01*
X192450Y725500D02*Y723250D01*
X193200Y722500D01*
X190200D02*X191700D01*
X192450Y723250D01*
X195000Y725500D02*Y723250D01*
X195750Y722500D01*
X198000Y725500D02*Y721000D01*
X197250Y720250D02*X198000Y721000D01*
X195750Y720250D02*X197250D01*
X195000Y721000D02*X195750Y720250D01*
Y722500D02*X197250D01*
X198000Y723250D01*
X199800Y724750D02*Y723250D01*
Y724750D02*X200550Y725500D01*
X202050D01*
X202800Y724750D01*
Y723250D01*
X202050Y722500D02*X202800Y723250D01*
X200550Y722500D02*X202050D01*
X199800Y723250D02*X200550Y722500D01*
X204600Y725500D02*Y723250D01*
X205350Y722500D01*
X206850D01*
X207600Y723250D01*
Y725500D02*Y723250D01*
X210150Y728500D02*Y723250D01*
X210900Y722500D01*
X209400Y726250D02*X210900D01*
X212400Y721000D02*X213900Y722500D01*
X218400Y727750D02*X219150Y728500D01*
X221400D01*
X222150Y727750D01*
Y726250D01*
X218400Y722500D02*X222150Y726250D01*
X218400Y722500D02*X222150D01*
X223950Y727750D02*X224700Y728500D01*
X226200D01*
X226950Y727750D01*
X226200Y722500D02*X226950Y723250D01*
X224700Y722500D02*X226200D01*
X223950Y723250D02*X224700Y722500D01*
Y725800D02*X226200D01*
X226950Y727750D02*Y726550D01*
Y725050D02*Y723250D01*
Y725050D02*X226200Y725800D01*
X226950Y726550D02*X226200Y725800D01*
X228750Y727300D02*X229950Y728500D01*
Y722500D01*
X228750D02*X231000D01*
X235500Y728500D02*Y722500D01*
Y724750D02*X236250Y725500D01*
X237750D01*
X238500Y724750D01*
Y722500D01*
X240300Y724750D02*Y723250D01*
Y724750D02*X241050Y725500D01*
X242550D01*
X243300Y724750D01*
Y723250D01*
X242550Y722500D02*X243300Y723250D01*
X241050Y722500D02*X242550D01*
X240300Y723250D02*X241050Y722500D01*
X245100Y728500D02*Y723250D01*
X245850Y722500D01*
X248100D02*X250350D01*
X247350Y723250D02*X248100Y722500D01*
X247350Y724750D02*Y723250D01*
Y724750D02*X248100Y725500D01*
X249600D01*
X250350Y724750D01*
X247350Y724000D02*X250350D01*
Y724750D02*Y724000D01*
X252900Y722500D02*X255150D01*
X255900Y723250D01*
X255150Y724000D02*X255900Y723250D01*
X252900Y724000D02*X255150D01*
X252150Y724750D02*X252900Y724000D01*
X252150Y724750D02*X252900Y725500D01*
X255150D01*
X255900Y724750D01*
X252150Y723250D02*X252900Y722500D01*
X261150Y728500D02*Y723250D01*
X261900Y722500D01*
X260400Y726250D02*X261900D01*
X263400Y724750D02*Y723250D01*
Y724750D02*X264150Y725500D01*
X265650D01*
X266400Y724750D01*
Y723250D01*
X265650Y722500D02*X266400Y723250D01*
X264150Y722500D02*X265650D01*
X263400Y723250D02*X264150Y722500D01*
X268950Y728500D02*Y723250D01*
X269700Y722500D01*
X268200Y726250D02*X269700D01*
X273450Y725500D02*X274200Y724750D01*
X271950Y725500D02*X273450D01*
X271200Y724750D02*X271950Y725500D01*
X271200Y724750D02*Y723250D01*
X271950Y722500D01*
X274200Y725500D02*Y723250D01*
X274950Y722500D01*
X271950D02*X273450D01*
X274200Y723250D01*
X276750Y728500D02*Y723250D01*
X277500Y722500D01*
G54D142*X7000Y523000D02*X0D01*
X27000Y543000D02*Y550000D01*
X248000D01*
Y543000D01*
X268000Y523000D02*X275000D01*
Y27000D01*
X268000D01*
X248000Y7000D02*Y0D01*
X27000D01*
Y7000D01*
X7000Y27000D02*X0D01*
Y523000D01*
X183500Y376000D02*Y325000D01*
X91500D01*
Y376000D01*
X183500D01*
X47500Y206000D02*Y155000D01*
Y206000D02*X139500D01*
Y155000D01*
X47500D02*X139500D01*
X27000Y543000D02*G75*G02X7000Y523000I-20000J0D01*G01*
X268000D02*G75*G02X248000Y543000I0J20000D01*G01*
Y7000D02*G75*G02X268000Y27000I20000J0D01*G01*
X7000D02*G75*G02X27000Y7000I0J-20000D01*G01*
G54D143*X119500Y351500D02*X120500D01*
X120000D02*Y347500D01*
X119500D02*X120500D01*
X122200Y349000D02*Y347500D01*
Y349000D02*X122700Y349500D01*
X123200D01*
X123700Y349000D01*
Y347500D01*
X121700Y349500D02*X122200Y349000D01*
X125400Y351500D02*Y348000D01*
X125900Y347500D01*
X124900Y350000D02*X125900D01*
X127400Y347500D02*X128900D01*
X126900Y348000D02*X127400Y347500D01*
X126900Y349000D02*Y348000D01*
Y349000D02*X127400Y349500D01*
X128400D01*
X128900Y349000D01*
X126900Y348500D02*X128900D01*
Y349000D02*Y348500D01*
X130600Y349000D02*Y347500D01*
Y349000D02*X131100Y349500D01*
X132100D01*
X130100D02*X130600Y349000D01*
G54D144*X133300Y350500D02*Y350400D01*
G54D143*Y349000D02*Y347500D01*
X134300Y349000D02*Y348000D01*
Y349000D02*X134800Y349500D01*
X135800D01*
X136300Y349000D01*
Y348000D01*
X135800Y347500D02*X136300Y348000D01*
X134800Y347500D02*X135800D01*
X134300Y348000D02*X134800Y347500D01*
X138000Y349000D02*Y347500D01*
Y349000D02*X138500Y349500D01*
X139500D01*
X137500D02*X138000Y349000D01*
X143200Y347500D02*X144500D01*
X142500Y348200D02*X143200Y347500D01*
X142500Y350800D02*Y348200D01*
Y350800D02*X143200Y351500D01*
X144500D01*
X145700Y349500D02*Y348000D01*
X146200Y347500D01*
X147200D01*
X147700Y348000D01*
Y349500D02*Y348000D01*
X149400Y351500D02*Y348000D01*
X149900Y347500D01*
X148900Y350000D02*X149900D01*
X150900Y349000D02*Y348000D01*
Y349000D02*X151400Y349500D01*
X152400D01*
X152900Y349000D01*
Y348000D01*
X152400Y347500D02*X152900Y348000D01*
X151400Y347500D02*X152400D01*
X150900Y348000D02*X151400Y347500D01*
X154100Y349500D02*Y348000D01*
X154600Y347500D01*
X155600D01*
X156100Y348000D01*
Y349500D02*Y348000D01*
X157800Y351500D02*Y348000D01*
X158300Y347500D01*
X157300Y350000D02*X158300D01*
X75500Y183000D02*X76500D01*
X76000D02*Y179000D01*
X75500D02*X76500D01*
X78200Y180500D02*Y179000D01*
Y180500D02*X78700Y181000D01*
X79200D01*
X79700Y180500D01*
Y179000D01*
X77700Y181000D02*X78200Y180500D01*
X81400Y183000D02*Y179500D01*
X81900Y179000D01*
X80900Y181500D02*X81900D01*
X83400Y179000D02*X84900D01*
X82900Y179500D02*X83400Y179000D01*
X82900Y180500D02*Y179500D01*
Y180500D02*X83400Y181000D01*
X84400D01*
X84900Y180500D01*
X82900Y180000D02*X84900D01*
Y180500D02*Y180000D01*
X86600Y180500D02*Y179000D01*
Y180500D02*X87100Y181000D01*
X88100D01*
X86100D02*X86600Y180500D01*
G54D144*X89300Y182000D02*Y181900D01*
G54D143*Y180500D02*Y179000D01*
X90300Y180500D02*Y179500D01*
Y180500D02*X90800Y181000D01*
X91800D01*
X92300Y180500D01*
Y179500D01*
X91800Y179000D02*X92300Y179500D01*
X90800Y179000D02*X91800D01*
X90300Y179500D02*X90800Y179000D01*
X94000Y180500D02*Y179000D01*
Y180500D02*X94500Y181000D01*
X95500D01*
X93500D02*X94000Y180500D01*
X99200Y179000D02*X100500D01*
X98500Y179700D02*X99200Y179000D01*
X98500Y182300D02*Y179700D01*
Y182300D02*X99200Y183000D01*
X100500D01*
X101700Y181000D02*Y179500D01*
X102200Y179000D01*
X103200D01*
X103700Y179500D01*
Y181000D02*Y179500D01*
X105400Y183000D02*Y179500D01*
X105900Y179000D01*
X104900Y181500D02*X105900D01*
X106900Y180500D02*Y179500D01*
Y180500D02*X107400Y181000D01*
X108400D01*
X108900Y180500D01*
Y179500D01*
X108400Y179000D02*X108900Y179500D01*
X107400Y179000D02*X108400D01*
X106900Y179500D02*X107400Y179000D01*
X110100Y181000D02*Y179500D01*
X110600Y179000D01*
X111600D01*
X112100Y179500D01*
Y181000D02*Y179500D01*
X113800Y183000D02*Y179500D01*
X114300Y179000D01*
X113300Y181500D02*X114300D01*
G54D140*X51175Y-9500D02*X54175D01*
X54925Y-8750D01*
Y-6950D02*Y-8750D01*
X54175Y-6200D02*X54925Y-6950D01*
X51925Y-6200D02*X54175D01*
X51925Y-3500D02*Y-9500D01*
X51175Y-3500D02*X54175D01*
X54925Y-4250D01*
Y-5450D01*
X54175Y-6200D02*X54925Y-5450D01*
X56725Y-7250D02*Y-8750D01*
Y-7250D02*X57475Y-6500D01*
X58975D01*
X59725Y-7250D01*
Y-8750D01*
X58975Y-9500D02*X59725Y-8750D01*
X57475Y-9500D02*X58975D01*
X56725Y-8750D02*X57475Y-9500D01*
X63775Y-6500D02*X64525Y-7250D01*
X62275Y-6500D02*X63775D01*
X61525Y-7250D02*X62275Y-6500D01*
X61525Y-7250D02*Y-8750D01*
X62275Y-9500D01*
X64525Y-6500D02*Y-8750D01*
X65275Y-9500D01*
X62275D02*X63775D01*
X64525Y-8750D01*
X67825Y-7250D02*Y-9500D01*
Y-7250D02*X68575Y-6500D01*
X70075D01*
X67075D02*X67825Y-7250D01*
X74875Y-3500D02*Y-9500D01*
X74125D02*X74875Y-8750D01*
X72625Y-9500D02*X74125D01*
X71875Y-8750D02*X72625Y-9500D01*
X71875Y-7250D02*Y-8750D01*
Y-7250D02*X72625Y-6500D01*
X74125D01*
X74875Y-7250D01*
X79375D02*Y-8750D01*
Y-7250D02*X80125Y-6500D01*
X81625D01*
X82375Y-7250D01*
Y-8750D01*
X81625Y-9500D02*X82375Y-8750D01*
X80125Y-9500D02*X81625D01*
X79375Y-8750D02*X80125Y-9500D01*
X84175Y-6500D02*Y-8750D01*
X84925Y-9500D01*
X86425D01*
X87175Y-8750D01*
Y-6500D02*Y-8750D01*
X89725Y-3500D02*Y-8750D01*
X90475Y-9500D01*
X88975Y-5750D02*X90475D01*
X91975Y-3500D02*Y-8750D01*
X92725Y-9500D01*
G54D141*X94225Y-5000D02*Y-5150D01*
G54D140*Y-7250D02*Y-9500D01*
X96475Y-7250D02*Y-9500D01*
Y-7250D02*X97225Y-6500D01*
X97975D01*
X98725Y-7250D01*
Y-9500D01*
X95725Y-6500D02*X96475Y-7250D01*
X101275Y-9500D02*X103525D01*
X100525Y-8750D02*X101275Y-9500D01*
X100525Y-7250D02*Y-8750D01*
Y-7250D02*X101275Y-6500D01*
X102775D01*
X103525Y-7250D01*
X100525Y-8000D02*X103525D01*
Y-7250D02*Y-8000D01*
G54D141*X108025Y-5000D02*Y-5150D01*
G54D140*Y-7250D02*Y-9500D01*
X110275D02*X112525D01*
X113275Y-8750D01*
X112525Y-8000D02*X113275Y-8750D01*
X110275Y-8000D02*X112525D01*
X109525Y-7250D02*X110275Y-8000D01*
X109525Y-7250D02*X110275Y-6500D01*
X112525D01*
X113275Y-7250D01*
X109525Y-8750D02*X110275Y-9500D01*
X118525Y-3500D02*Y-8750D01*
X119275Y-9500D01*
X117775Y-5750D02*X119275D01*
X120775Y-3500D02*Y-9500D01*
Y-7250D02*X121525Y-6500D01*
X123025D01*
X123775Y-7250D01*
Y-9500D01*
X126325D02*X128575D01*
X125575Y-8750D02*X126325Y-9500D01*
X125575Y-7250D02*Y-8750D01*
Y-7250D02*X126325Y-6500D01*
X127825D01*
X128575Y-7250D01*
X125575Y-8000D02*X128575D01*
Y-7250D02*Y-8000D01*
X133825Y-6500D02*X136075D01*
X133075Y-7250D02*X133825Y-6500D01*
X133075Y-7250D02*Y-8750D01*
X133825Y-9500D01*
X136075D01*
X138625D02*X140875D01*
X137875Y-8750D02*X138625Y-9500D01*
X137875Y-7250D02*Y-8750D01*
Y-7250D02*X138625Y-6500D01*
X140125D01*
X140875Y-7250D01*
X137875Y-8000D02*X140875D01*
Y-7250D02*Y-8000D01*
X143425Y-7250D02*Y-9500D01*
Y-7250D02*X144175Y-6500D01*
X144925D01*
X145675Y-7250D01*
Y-9500D01*
X142675Y-6500D02*X143425Y-7250D01*
X148225Y-3500D02*Y-8750D01*
X148975Y-9500D01*
X147475Y-5750D02*X148975D01*
X151225Y-9500D02*X153475D01*
X150475Y-8750D02*X151225Y-9500D01*
X150475Y-7250D02*Y-8750D01*
Y-7250D02*X151225Y-6500D01*
X152725D01*
X153475Y-7250D01*
X150475Y-8000D02*X153475D01*
Y-7250D02*Y-8000D01*
X156025Y-7250D02*Y-9500D01*
Y-7250D02*X156775Y-6500D01*
X158275D01*
X155275D02*X156025Y-7250D01*
X160075Y-3500D02*Y-8750D01*
X160825Y-9500D01*
G54D141*X162325Y-5000D02*Y-5150D01*
G54D140*Y-7250D02*Y-9500D01*
X164575Y-7250D02*Y-9500D01*
Y-7250D02*X165325Y-6500D01*
X166075D01*
X166825Y-7250D01*
Y-9500D01*
X163825Y-6500D02*X164575Y-7250D01*
X169375Y-9500D02*X171625D01*
X168625Y-8750D02*X169375Y-9500D01*
X168625Y-7250D02*Y-8750D01*
Y-7250D02*X169375Y-6500D01*
X170875D01*
X171625Y-7250D01*
X168625Y-8000D02*X171625D01*
Y-7250D02*Y-8000D01*
X176125Y-7250D02*Y-8750D01*
Y-7250D02*X176875Y-6500D01*
X178375D01*
X179125Y-7250D01*
Y-8750D01*
X178375Y-9500D02*X179125Y-8750D01*
X176875Y-9500D02*X178375D01*
X176125Y-8750D02*X176875Y-9500D01*
X181675Y-4250D02*Y-9500D01*
Y-4250D02*X182425Y-3500D01*
X183175D01*
X180925Y-6500D02*X182425D01*
X188125Y-3500D02*Y-8750D01*
X188875Y-9500D01*
X187375Y-5750D02*X188875D01*
X190375Y-3500D02*Y-9500D01*
Y-7250D02*X191125Y-6500D01*
X192625D01*
X193375Y-7250D01*
Y-9500D01*
G54D141*X195175Y-5000D02*Y-5150D01*
G54D140*Y-7250D02*Y-9500D01*
X197425D02*X199675D01*
X200425Y-8750D01*
X199675Y-8000D02*X200425Y-8750D01*
X197425Y-8000D02*X199675D01*
X196675Y-7250D02*X197425Y-8000D01*
X196675Y-7250D02*X197425Y-6500D01*
X199675D01*
X200425Y-7250D01*
X196675Y-8750D02*X197425Y-9500D01*
X205675Y-7250D02*Y-11750D01*
X204925Y-6500D02*X205675Y-7250D01*
X206425Y-6500D01*
X207925D01*
X208675Y-7250D01*
Y-8750D01*
X207925Y-9500D02*X208675Y-8750D01*
X206425Y-9500D02*X207925D01*
X205675Y-8750D02*X206425Y-9500D01*
X212725Y-6500D02*X213475Y-7250D01*
X211225Y-6500D02*X212725D01*
X210475Y-7250D02*X211225Y-6500D01*
X210475Y-7250D02*Y-8750D01*
X211225Y-9500D01*
X213475Y-6500D02*Y-8750D01*
X214225Y-9500D01*
X211225D02*X212725D01*
X213475Y-8750D01*
X216775Y-3500D02*Y-8750D01*
X217525Y-9500D01*
X216025Y-5750D02*X217525D01*
X219025Y-3500D02*Y-9500D01*
Y-7250D02*X219775Y-6500D01*
X221275D01*
X222025Y-7250D01*
Y-9500D01*
X200750Y578500D02*Y572500D01*
X202700Y578500D02*X203750Y577450D01*
Y573550D01*
X202700Y572500D02*X203750Y573550D01*
X200000Y572500D02*X202700D01*
X200000Y578500D02*X202700D01*
X207800Y575500D02*X208550Y574750D01*
X206300Y575500D02*X207800D01*
X205550Y574750D02*X206300Y575500D01*
X205550Y574750D02*Y573250D01*
X206300Y572500D01*
X208550Y575500D02*Y573250D01*
X209300Y572500D01*
X206300D02*X207800D01*
X208550Y573250D01*
X211850Y578500D02*Y573250D01*
X212600Y572500D01*
X211100Y576250D02*X212600D01*
X214850Y572500D02*X217100D01*
X214100Y573250D02*X214850Y572500D01*
X214100Y574750D02*Y573250D01*
Y574750D02*X214850Y575500D01*
X216350D01*
X217100Y574750D01*
X214100Y574000D02*X217100D01*
Y574750D02*Y574000D01*
X218900Y576250D02*X219650D01*
X218900Y574750D02*X219650D01*
X224150Y578500D02*X227150D01*
X225650D02*Y572500D01*
X228950Y578500D02*Y572500D01*
Y574750D02*X229700Y575500D01*
X231200D01*
X231950Y574750D01*
Y572500D01*
X233750Y575500D02*Y573250D01*
X234500Y572500D01*
X236000D01*
X236750Y573250D01*
Y575500D02*Y573250D01*
X241250D02*X242000Y572500D01*
X241250Y577750D02*Y573250D01*
Y577750D02*X242000Y578500D01*
X243500D01*
X244250Y577750D01*
Y573250D01*
X243500Y572500D02*X244250Y573250D01*
X242000Y572500D02*X243500D01*
X241250Y574000D02*X244250Y577000D01*
X246800Y572500D02*X249050Y575500D01*
Y577750D02*Y575500D01*
X248300Y578500D02*X249050Y577750D01*
X246800Y578500D02*X248300D01*
X246050Y577750D02*X246800Y578500D01*
X246050Y577750D02*Y576250D01*
X246800Y575500D01*
X249050D01*
X253550Y578500D02*Y572500D01*
Y578500D02*X256550D01*
X253550Y575800D02*X255800D01*
X259100Y572500D02*X261350D01*
X258350Y573250D02*X259100Y572500D01*
X258350Y574750D02*Y573250D01*
Y574750D02*X259100Y575500D01*
X260600D01*
X261350Y574750D01*
X258350Y574000D02*X261350D01*
Y574750D02*Y574000D01*
X263150Y578500D02*Y572500D01*
Y573250D02*X263900Y572500D01*
X265400D01*
X266150Y573250D01*
Y574750D02*Y573250D01*
X265400Y575500D02*X266150Y574750D01*
X263900Y575500D02*X265400D01*
X263150Y574750D02*X263900Y575500D01*
X270650Y577750D02*X271400Y578500D01*
X273650D01*
X274400Y577750D01*
Y576250D01*
X270650Y572500D02*X274400Y576250D01*
X270650Y572500D02*X274400D01*
X276200Y573250D02*X276950Y572500D01*
X276200Y577750D02*Y573250D01*
Y577750D02*X276950Y578500D01*
X278450D01*
X279200Y577750D01*
Y573250D01*
X278450Y572500D02*X279200Y573250D01*
X276950Y572500D02*X278450D01*
X276200Y574000D02*X279200Y577000D01*
X281000Y577300D02*X282200Y578500D01*
Y572500D01*
X281000D02*X283250D01*
X285800D02*X288800Y578500D01*
X285050D02*X288800D01*
X293300Y573250D02*X294050Y572500D01*
X293300Y577750D02*Y573250D01*
Y577750D02*X294050Y578500D01*
X295550D01*
X296300Y577750D01*
Y573250D01*
X295550Y572500D02*X296300Y573250D01*
X294050Y572500D02*X295550D01*
X293300Y574000D02*X296300Y577000D01*
X298100Y577300D02*X299300Y578500D01*
Y572500D01*
X298100D02*X300350D01*
X302150Y576250D02*X302900D01*
X302150Y574750D02*X302900D01*
X304700Y578500D02*X307700D01*
X304700D02*Y575500D01*
X305450Y576250D01*
X306950D01*
X307700Y575500D01*
Y573250D01*
X306950Y572500D02*X307700Y573250D01*
X305450Y572500D02*X306950D01*
X304700Y573250D02*X305450Y572500D01*
X310250D02*X313250Y578500D01*
X309500D02*X313250D01*
X315050Y576250D02*X315800D01*
X315050Y574750D02*X315800D01*
X317600Y578500D02*X320600D01*
X317600D02*Y575500D01*
X318350Y576250D01*
X319850D01*
X320600Y575500D01*
Y573250D01*
X319850Y572500D02*X320600Y573250D01*
X318350Y572500D02*X319850D01*
X317600Y573250D02*X318350Y572500D01*
X322400Y578500D02*X325400D01*
X322400D02*Y575500D01*
X323150Y576250D01*
X324650D01*
X325400Y575500D01*
Y573250D01*
X324650Y572500D02*X325400Y573250D01*
X323150Y572500D02*X324650D01*
X322400Y573250D02*X323150Y572500D01*
X329900Y577000D02*Y572500D01*
Y577000D02*X330950Y578500D01*
X332600D01*
X333650Y577000D01*
Y572500D01*
X329900Y575500D02*X333650D01*
X335450Y578500D02*Y572500D01*
Y578500D02*X337700Y575500D01*
X339950Y578500D01*
Y572500D01*
X347450Y578500D02*X348200Y577750D01*
X345200Y578500D02*X347450D01*
X344450Y577750D02*X345200Y578500D01*
X344450Y577750D02*Y573250D01*
X345200Y572500D01*
X347450D01*
X348200Y573250D01*
Y574750D02*Y573250D01*
X347450Y575500D02*X348200Y574750D01*
X345950Y575500D02*X347450D01*
X350000Y578500D02*Y572500D01*
Y578500D02*X352250Y575500D01*
X354500Y578500D01*
Y572500D01*
X356300Y578500D02*X359300D01*
X357800D02*Y572500D01*
X363800Y578500D02*Y573250D01*
X364550Y572500D01*
X366050D01*
X366800Y573250D01*
Y578500D02*Y573250D01*
X368600Y578500D02*X371600D01*
X370100D02*Y572500D01*
X374450D02*X376400D01*
X373400Y573550D02*X374450Y572500D01*
X373400Y577450D02*Y573550D01*
Y577450D02*X374450Y578500D01*
X376400D01*
X200000Y592000D02*Y587500D01*
Y592000D02*X201050Y593500D01*
X202700D01*
X203750Y592000D01*
Y587500D01*
X200000Y590500D02*X203750D01*
X205550D02*Y588250D01*
X206300Y587500D01*
X207800D01*
X208550Y588250D01*
Y590500D02*Y588250D01*
X211100Y593500D02*Y588250D01*
X211850Y587500D01*
X210350Y591250D02*X211850D01*
X213350Y593500D02*Y587500D01*
Y589750D02*X214100Y590500D01*
X215600D01*
X216350Y589750D01*
Y587500D01*
X218150Y589750D02*Y588250D01*
Y589750D02*X218900Y590500D01*
X220400D01*
X221150Y589750D01*
Y588250D01*
X220400Y587500D02*X221150Y588250D01*
X218900Y587500D02*X220400D01*
X218150Y588250D02*X218900Y587500D01*
X223700Y589750D02*Y587500D01*
Y589750D02*X224450Y590500D01*
X225950D01*
X222950D02*X223700Y589750D01*
X227750Y591250D02*X228500D01*
X227750Y589750D02*X228500D01*
X233000Y593500D02*Y587500D01*
Y593500D02*X235250Y590500D01*
X237500Y593500D01*
Y587500D01*
G54D141*X239300Y592000D02*Y591850D01*
G54D140*Y589750D02*Y587500D01*
X241550Y590500D02*X243800D01*
X240800Y589750D02*X241550Y590500D01*
X240800Y589750D02*Y588250D01*
X241550Y587500D01*
X243800D01*
X245600Y593500D02*Y587500D01*
Y589750D02*X246350Y590500D01*
X247850D01*
X248600Y589750D01*
Y587500D01*
X252650Y590500D02*X253400Y589750D01*
X251150Y590500D02*X252650D01*
X250400Y589750D02*X251150Y590500D01*
X250400Y589750D02*Y588250D01*
X251150Y587500D01*
X253400Y590500D02*Y588250D01*
X254150Y587500D01*
X251150D02*X252650D01*
X253400Y588250D01*
X256700Y587500D02*X258950D01*
X255950Y588250D02*X256700Y587500D01*
X255950Y589750D02*Y588250D01*
Y589750D02*X256700Y590500D01*
X258200D01*
X258950Y589750D01*
X255950Y589000D02*X258950D01*
Y589750D02*Y589000D01*
X260750Y593500D02*Y588250D01*
X261500Y587500D01*
X266450Y593500D02*Y587500D01*
X265700Y593500D02*X268700D01*
X269450Y592750D01*
Y591250D01*
X268700Y590500D02*X269450Y591250D01*
X266450Y590500D02*X268700D01*
X272000Y587500D02*X274250D01*
X271250Y588250D02*X272000Y587500D01*
X271250Y589750D02*Y588250D01*
Y589750D02*X272000Y590500D01*
X273500D01*
X274250Y589750D01*
X271250Y589000D02*X274250D01*
Y589750D02*Y589000D01*
X276800Y593500D02*Y588250D01*
X277550Y587500D01*
X276050Y591250D02*X277550D01*
X279800Y587500D02*X282050D01*
X279050Y588250D02*X279800Y587500D01*
X279050Y589750D02*Y588250D01*
Y589750D02*X279800Y590500D01*
X281300D01*
X282050Y589750D01*
X279050Y589000D02*X282050D01*
Y589750D02*Y589000D01*
X284600Y589750D02*Y587500D01*
Y589750D02*X285350Y590500D01*
X286850D01*
X283850D02*X284600Y589750D01*
X289400Y587500D02*X291650D01*
X292400Y588250D01*
X291650Y589000D02*X292400Y588250D01*
X289400Y589000D02*X291650D01*
X288650Y589750D02*X289400Y589000D01*
X288650Y589750D02*X289400Y590500D01*
X291650D01*
X292400Y589750D01*
X288650Y588250D02*X289400Y587500D01*
X294950D02*X297200D01*
X294200Y588250D02*X294950Y587500D01*
X294200Y589750D02*Y588250D01*
Y589750D02*X294950Y590500D01*
X296450D01*
X297200Y589750D01*
X294200Y589000D02*X297200D01*
Y589750D02*Y589000D01*
X299750Y589750D02*Y587500D01*
Y589750D02*X300500Y590500D01*
X301250D01*
X302000Y589750D01*
Y587500D01*
X299000Y590500D02*X299750Y589750D01*
X200000Y608500D02*X203000D01*
X201500D02*Y602500D01*
G54D141*X204800Y607000D02*Y606850D01*
G54D140*Y604750D02*Y602500D01*
X207050Y608500D02*Y603250D01*
X207800Y602500D01*
X206300Y606250D02*X207800D01*
X209300Y608500D02*Y603250D01*
X210050Y602500D01*
X212300D02*X214550D01*
X211550Y603250D02*X212300Y602500D01*
X211550Y604750D02*Y603250D01*
Y604750D02*X212300Y605500D01*
X213800D01*
X214550Y604750D01*
X211550Y604000D02*X214550D01*
Y604750D02*Y604000D01*
X216350Y606250D02*X217100D01*
X216350Y604750D02*X217100D01*
X221600Y603250D02*X222350Y602500D01*
X221600Y607750D02*X222350Y608500D01*
X221600Y607750D02*Y603250D01*
X224150Y605500D02*Y603250D01*
X224900Y602500D01*
X226400D01*
X227150Y603250D01*
Y605500D02*Y603250D01*
X229700Y604750D02*Y602500D01*
Y604750D02*X230450Y605500D01*
X231200D01*
X231950Y604750D01*
Y602500D01*
X228950Y605500D02*X229700Y604750D01*
X233750Y608500D02*Y602500D01*
Y604750D02*X236000Y602500D01*
X233750Y604750D02*X235250Y606250D01*
X238550Y604750D02*Y602500D01*
Y604750D02*X239300Y605500D01*
X240050D01*
X240800Y604750D01*
Y602500D01*
X237800Y605500D02*X238550Y604750D01*
X242600D02*Y603250D01*
Y604750D02*X243350Y605500D01*
X244850D01*
X245600Y604750D01*
Y603250D01*
X244850Y602500D02*X245600Y603250D01*
X243350Y602500D02*X244850D01*
X242600Y603250D02*X243350Y602500D01*
X247400Y605500D02*Y603250D01*
X248150Y602500D01*
X248900D01*
X249650Y603250D01*
Y605500D02*Y603250D01*
X250400Y602500D01*
X251150D01*
X251900Y603250D01*
Y605500D02*Y603250D01*
X254450Y604750D02*Y602500D01*
Y604750D02*X255200Y605500D01*
X255950D01*
X256700Y604750D01*
Y602500D01*
X253700Y605500D02*X254450Y604750D01*
X258500Y608500D02*X259250Y607750D01*
Y603250D01*
X258500Y602500D02*X259250Y603250D01*
X263750Y605500D02*X266750D01*
X271250Y608500D02*Y602500D01*
Y608500D02*X274250D01*
X271250Y605800D02*X273500D01*
X278300Y605500D02*X279050Y604750D01*
X276800Y605500D02*X278300D01*
X276050Y604750D02*X276800Y605500D01*
X276050Y604750D02*Y603250D01*
X276800Y602500D01*
X279050Y605500D02*Y603250D01*
X279800Y602500D01*
X276800D02*X278300D01*
X279050Y603250D01*
X281600Y608500D02*Y602500D01*
Y603250D02*X282350Y602500D01*
X283850D01*
X284600Y603250D01*
Y604750D02*Y603250D01*
X283850Y605500D02*X284600Y604750D01*
X282350Y605500D02*X283850D01*
X281600Y604750D02*X282350Y605500D01*
X287150Y604750D02*Y602500D01*
Y604750D02*X287900Y605500D01*
X289400D01*
X286400D02*X287150Y604750D01*
G54D141*X291200Y607000D02*Y606850D01*
G54D140*Y604750D02*Y602500D01*
X293450Y605500D02*X295700D01*
X292700Y604750D02*X293450Y605500D01*
X292700Y604750D02*Y603250D01*
X293450Y602500D01*
X295700D01*
X299750Y605500D02*X300500Y604750D01*
X298250Y605500D02*X299750D01*
X297500Y604750D02*X298250Y605500D01*
X297500Y604750D02*Y603250D01*
X298250Y602500D01*
X300500Y605500D02*Y603250D01*
X301250Y602500D01*
X298250D02*X299750D01*
X300500Y603250D01*
X303800Y608500D02*Y603250D01*
X304550Y602500D01*
X303050Y606250D02*X304550D01*
G54D141*X306050Y607000D02*Y606850D01*
G54D140*Y604750D02*Y602500D01*
X307550Y604750D02*Y603250D01*
Y604750D02*X308300Y605500D01*
X309800D01*
X310550Y604750D01*
Y603250D01*
X309800Y602500D02*X310550Y603250D01*
X308300Y602500D02*X309800D01*
X307550Y603250D02*X308300Y602500D01*
X313100Y604750D02*Y602500D01*
Y604750D02*X313850Y605500D01*
X314600D01*
X315350Y604750D01*
Y602500D01*
X312350Y605500D02*X313100Y604750D01*
X320600Y608500D02*Y602500D01*
X322550Y608500D02*X323600Y607450D01*
Y603550D01*
X322550Y602500D02*X323600Y603550D01*
X319850Y602500D02*X322550D01*
X319850Y608500D02*X322550D01*
X326150Y604750D02*Y602500D01*
Y604750D02*X326900Y605500D01*
X328400D01*
X325400D02*X326150Y604750D01*
X332450Y605500D02*X333200Y604750D01*
X330950Y605500D02*X332450D01*
X330200Y604750D02*X330950Y605500D01*
X330200Y604750D02*Y603250D01*
X330950Y602500D01*
X333200Y605500D02*Y603250D01*
X333950Y602500D01*
X330950D02*X332450D01*
X333200Y603250D01*
X335750Y605500D02*Y603250D01*
X336500Y602500D01*
X337250D01*
X338000Y603250D01*
Y605500D02*Y603250D01*
X338750Y602500D01*
X339500D01*
X340250Y603250D01*
Y605500D02*Y603250D01*
G54D141*X342050Y607000D02*Y606850D01*
G54D140*Y604750D02*Y602500D01*
X344300Y604750D02*Y602500D01*
Y604750D02*X345050Y605500D01*
X345800D01*
X346550Y604750D01*
Y602500D01*
X343550Y605500D02*X344300Y604750D01*
X350600Y605500D02*X351350Y604750D01*
X349100Y605500D02*X350600D01*
X348350Y604750D02*X349100Y605500D01*
X348350Y604750D02*Y603250D01*
X349100Y602500D01*
X350600D01*
X351350Y603250D01*
X348350Y601000D02*X349100Y600250D01*
X350600D01*
X351350Y601000D01*
Y605500D02*Y601000D01*
M02*
