G04 start of page 8 for group -4079 idx -4079 *
G04 Title: (unknown), topsilk *
G04 Creator: pcb 20140316 *
G04 CreationDate: Thu 09 Feb 2017 01:57:55 AM GMT UTC *
G04 For: railfan *
G04 Format: Gerber/RS-274X *
G04 PCB-Dimensions (mil): 2750.00 5500.00 *
G04 PCB-Coordinate-Origin: lower left *
%MOIN*%
%FSLAX25Y25*%
%LNTOPSILK*%
%ADD121C,0.0150*%
%ADD120C,0.0080*%
%ADD119C,0.0100*%
G54D119*X141000Y245500D02*X136000Y240500D01*
X141000Y245500D02*Y243000D01*
Y245500D02*X138500D01*
X27500Y257500D02*X24000Y254000D01*
X27500Y257500D02*X25500D01*
X27500D02*Y255500D01*
X157000Y114000D02*X152000Y109000D01*
X157000Y114000D02*Y111500D01*
Y114000D02*X154500D01*
X104500Y539000D02*X107500D01*
X106000Y540500D02*Y537500D01*
X169000Y540500D02*Y537500D01*
X167500Y539000D02*X170500D01*
G54D120*X100440Y544280D02*X102000D01*
X100440D02*X100050Y544670D01*
Y545450D02*Y544670D01*
X100440Y545840D02*X100050Y545450D01*
X100440Y545840D02*X101610D01*
Y547400D02*Y544280D01*
X100986Y545840D02*X100050Y547400D01*
X97554Y544280D02*X97164Y544670D01*
X97554Y544280D02*X98724D01*
X99114Y544670D02*X98724Y544280D01*
X99114Y545450D02*Y544670D01*
Y545450D02*X98724Y545840D01*
X97554D02*X98724D01*
X97554D02*X97164Y546230D01*
Y547010D02*Y546230D01*
X97554Y547400D02*X97164Y547010D01*
X97554Y547400D02*X98724D01*
X99114Y547010D02*X98724Y547400D01*
X94668Y544280D02*X94278Y544670D01*
X94668Y544280D02*X95838D01*
X96228Y544670D02*X95838Y544280D01*
X96228Y545450D02*Y544670D01*
Y545450D02*X95838Y545840D01*
X94668D02*X95838D01*
X94668D02*X94278Y546230D01*
Y547010D02*Y546230D01*
X94668Y547400D02*X94278Y547010D01*
X94668Y547400D02*X95838D01*
X96228Y547010D02*X95838Y547400D01*
X92562Y544280D02*X93342D01*
X92952Y547400D02*Y544280D01*
X92562Y547400D02*X93342D01*
X184000D02*Y545060D01*
X183454Y544280D01*
X182596D02*X183454D01*
X182596D02*X182050Y545060D01*
Y547400D02*Y545060D01*
Y545840D02*X184000D01*
X179554Y544280D02*X179164Y544670D01*
X179554Y544280D02*X180724D01*
X181114Y544670D02*X180724Y544280D01*
X181114Y545450D02*Y544670D01*
Y545450D02*X180724Y545840D01*
X179554D02*X180724D01*
X179554D02*X179164Y546230D01*
Y547010D02*Y546230D01*
X179554Y547400D02*X179164Y547010D01*
X179554Y547400D02*X180724D01*
X181114Y547010D02*X180724Y547400D01*
X176668Y544280D02*X176278Y544670D01*
X176668Y544280D02*X177838D01*
X178228Y544670D02*X177838Y544280D01*
X178228Y545450D02*Y544670D01*
Y545450D02*X177838Y545840D01*
X176668D02*X177838D01*
X176668D02*X176278Y546230D01*
Y547010D02*Y546230D01*
X176668Y547400D02*X176278Y547010D01*
X176668Y547400D02*X177838D01*
X178228Y547010D02*X177838Y547400D01*
X175342Y547010D02*Y544670D01*
X174952Y544280D01*
X174172D02*X174952D01*
X174172D02*X173782Y544670D01*
Y547010D02*Y544670D01*
X174172Y547400D02*X173782Y547010D01*
X174172Y547400D02*X174952D01*
X175342Y547010D02*X174952Y547400D01*
X171286D02*X172300D01*
X172846Y546854D02*X172300Y547400D01*
X172846Y546854D02*Y544826D01*
X172300Y544280D01*
X171286D02*X172300D01*
X110500Y81500D02*Y77500D01*
Y79000D02*X111000Y79500D01*
X112000D01*
X112500Y79000D01*
Y77500D01*
X114200Y81500D02*Y78000D01*
X114700Y77500D01*
X113700Y80000D02*X114700D01*
X116200Y81500D02*Y78000D01*
X116700Y77500D01*
X115700Y80000D02*X116700D01*
X118200Y79000D02*Y76000D01*
X117700Y79500D02*X118200Y79000D01*
X118700Y79500D01*
X119700D01*
X120200Y79000D01*
Y78000D01*
X119700Y77500D02*X120200Y78000D01*
X118700Y77500D02*X119700D01*
X118200Y78000D02*X118700Y77500D01*
X121400Y80000D02*X121900D01*
X121400Y79000D02*X121900D01*
X123100Y78000D02*X126100Y81000D01*
X127300Y78000D02*X130300Y81000D01*
X131500Y80500D02*Y80400D01*
Y79000D02*Y77500D01*
X134000Y79500D02*X134500Y79000D01*
X133000Y79500D02*X134000D01*
X132500Y79000D02*X133000Y79500D01*
X132500Y79000D02*Y78000D01*
X133000Y77500D01*
X134500Y79500D02*Y78000D01*
X135000Y77500D01*
X133000D02*X134000D01*
X134500Y78000D01*
X136700Y77500D02*X138200D01*
X138700Y78000D01*
X138200Y78500D02*X138700Y78000D01*
X136700Y78500D02*X138200D01*
X136200Y79000D02*X136700Y78500D01*
X136200Y79000D02*X136700Y79500D01*
X138200D01*
X138700Y79000D01*
X136200Y78000D02*X136700Y77500D01*
X140400Y79500D02*X141900D01*
X139900Y79000D02*X140400Y79500D01*
X139900Y79000D02*Y78000D01*
X140400Y77500D01*
X141900D01*
X144600Y79500D02*X145100Y79000D01*
X143600Y79500D02*X144600D01*
X143100Y79000D02*X143600Y79500D01*
X143100Y79000D02*Y78000D01*
X143600Y77500D01*
X145100Y79500D02*Y78000D01*
X145600Y77500D01*
X143600D02*X144600D01*
X145100Y78000D01*
X146800Y81500D02*Y78000D01*
X147300Y77500D01*
X148800D02*X150300D01*
X148300Y78000D02*X148800Y77500D01*
X148300Y79000D02*Y78000D01*
Y79000D02*X148800Y79500D01*
X149800D01*
X150300Y79000D01*
X148300Y78500D02*X150300D01*
Y79000D02*Y78500D01*
X153500Y81500D02*Y77500D01*
X153000D02*X153500Y78000D01*
X152000Y77500D02*X153000D01*
X151500Y78000D02*X152000Y77500D01*
X151500Y79000D02*Y78000D01*
Y79000D02*X152000Y79500D01*
X153000D01*
X153500Y79000D01*
X154700Y77500D02*X155200D01*
X156900Y79500D02*X158400D01*
X156400Y79000D02*X156900Y79500D01*
X156400Y79000D02*Y78000D01*
X156900Y77500D01*
X158400D01*
X159600Y79000D02*Y78000D01*
Y79000D02*X160100Y79500D01*
X161100D01*
X161600Y79000D01*
Y78000D01*
X161100Y77500D02*X161600Y78000D01*
X160100Y77500D02*X161100D01*
X159600Y78000D02*X160100Y77500D01*
X163300Y79000D02*Y77500D01*
Y79000D02*X163800Y79500D01*
X164300D01*
X164800Y79000D01*
Y77500D01*
Y79000D02*X165300Y79500D01*
X165800D01*
X166300Y79000D01*
Y77500D01*
X162800Y79500D02*X163300Y79000D01*
X105000Y88500D02*X106000D01*
X105500D02*Y84500D01*
X105000D02*X106000D01*
X107200Y86000D02*Y85000D01*
Y86000D02*X107700Y86500D01*
X108700D01*
X109200Y86000D01*
Y85000D01*
X108700Y84500D02*X109200Y85000D01*
X107700Y84500D02*X108700D01*
X107200Y85000D02*X107700Y84500D01*
X110400Y86500D02*Y85000D01*
X110900Y84500D01*
X111400D01*
X111900Y85000D01*
Y86500D02*Y85000D01*
X112400Y84500D01*
X112900D01*
X113400Y85000D01*
Y86500D02*Y85000D01*
X116100Y86500D02*X116600Y86000D01*
X115100Y86500D02*X116100D01*
X114600Y86000D02*X115100Y86500D01*
X114600Y86000D02*Y85000D01*
X115100Y84500D01*
X116600Y86500D02*Y85000D01*
X117100Y84500D01*
X115100D02*X116100D01*
X116600Y85000D01*
X122100Y88500D02*X122600Y88000D01*
X120600Y88500D02*X122100D01*
X120100Y88000D02*X120600Y88500D01*
X120100Y88000D02*Y87000D01*
X120600Y86500D01*
X122100D01*
X122600Y86000D01*
Y85000D01*
X122100Y84500D02*X122600Y85000D01*
X120600Y84500D02*X122100D01*
X120100Y85000D02*X120600Y84500D01*
X124300Y86500D02*X125800D01*
X123800Y86000D02*X124300Y86500D01*
X123800Y86000D02*Y85000D01*
X124300Y84500D01*
X125800D01*
X128500Y86500D02*X129000Y86000D01*
X127500Y86500D02*X128500D01*
X127000Y86000D02*X127500Y86500D01*
X127000Y86000D02*Y85000D01*
X127500Y84500D01*
X129000Y86500D02*Y85000D01*
X129500Y84500D01*
X127500D02*X128500D01*
X129000Y85000D01*
X130700Y88500D02*Y85000D01*
X131200Y84500D01*
X132700D02*X134200D01*
X132200Y85000D02*X132700Y84500D01*
X132200Y86000D02*Y85000D01*
Y86000D02*X132700Y86500D01*
X133700D01*
X134200Y86000D01*
X132200Y85500D02*X134200D01*
Y86000D02*Y85500D01*
X137400Y88500D02*Y84500D01*
X136900D02*X137400Y85000D01*
X135900Y84500D02*X136900D01*
X135400Y85000D02*X135900Y84500D01*
X135400Y86000D02*Y85000D01*
Y86000D02*X135900Y86500D01*
X136900D01*
X137400Y86000D01*
X140400Y86700D02*X141900D01*
X140400Y84500D02*X142400D01*
X140400Y88500D02*Y84500D01*
Y88500D02*X142400D01*
X144100Y86000D02*Y84500D01*
Y86000D02*X144600Y86500D01*
X145100D01*
X145600Y86000D01*
Y84500D01*
X143600Y86500D02*X144100Y86000D01*
X148300Y86500D02*X148800Y86000D01*
X147300Y86500D02*X148300D01*
X146800Y86000D02*X147300Y86500D01*
X146800Y86000D02*Y85000D01*
X147300Y84500D01*
X148300D01*
X148800Y85000D01*
X146800Y83500D02*X147300Y83000D01*
X148300D01*
X148800Y83500D01*
Y86500D02*Y83500D01*
X150000Y87500D02*Y87400D01*
Y86000D02*Y84500D01*
X151500Y86000D02*Y84500D01*
Y86000D02*X152000Y86500D01*
X152500D01*
X153000Y86000D01*
Y84500D01*
X151000Y86500D02*X151500Y86000D01*
X154700Y84500D02*X156200D01*
X154200Y85000D02*X154700Y84500D01*
X154200Y86000D02*Y85000D01*
Y86000D02*X154700Y86500D01*
X155700D01*
X156200Y86000D01*
X154200Y85500D02*X156200D01*
Y86000D02*Y85500D01*
X157900Y84500D02*X159400D01*
X157400Y85000D02*X157900Y84500D01*
X157400Y86000D02*Y85000D01*
Y86000D02*X157900Y86500D01*
X158900D01*
X159400Y86000D01*
X157400Y85500D02*X159400D01*
Y86000D02*Y85500D01*
X161100Y86000D02*Y84500D01*
Y86000D02*X161600Y86500D01*
X162600D01*
X160600D02*X161100Y86000D01*
X163800Y87500D02*Y87400D01*
Y86000D02*Y84500D01*
X165300Y86000D02*Y84500D01*
Y86000D02*X165800Y86500D01*
X166300D01*
X166800Y86000D01*
Y84500D01*
X164800Y86500D02*X165300Y86000D01*
X169500Y86500D02*X170000Y86000D01*
X168500Y86500D02*X169500D01*
X168000Y86000D02*X168500Y86500D01*
X168000Y86000D02*Y85000D01*
X168500Y84500D01*
X169500D01*
X170000Y85000D01*
X168000Y83500D02*X168500Y83000D01*
X169500D01*
X170000Y83500D01*
Y86500D02*Y83500D01*
X112000Y92500D02*X112500Y92000D01*
X112000Y95500D02*X112500Y96000D01*
X112000Y95500D02*Y92500D01*
X114400Y92000D02*X115700D01*
X113700Y92700D02*X114400Y92000D01*
X113700Y95300D02*Y92700D01*
Y95300D02*X114400Y96000D01*
X115700D01*
X116900D02*X117400Y95500D01*
Y92500D01*
X116900Y92000D02*X117400Y92500D01*
X120400Y95500D02*X120900Y96000D01*
X122400D01*
X122900Y95500D01*
Y94500D01*
X120400Y92000D02*X122900Y94500D01*
X120400Y92000D02*X122900D01*
X124100Y92500D02*X124600Y92000D01*
X124100Y95500D02*Y92500D01*
Y95500D02*X124600Y96000D01*
X125600D01*
X126100Y95500D01*
Y92500D01*
X125600Y92000D02*X126100Y92500D01*
X124600Y92000D02*X125600D01*
X124100Y93000D02*X126100Y95000D01*
X127300Y95200D02*X128100Y96000D01*
Y92000D01*
X127300D02*X128800D01*
X130500D02*X132500Y96000D01*
X130000D02*X132500D01*
X139800Y92000D02*X141100D01*
X139100Y92700D02*X139800Y92000D01*
X139100Y95300D02*Y92700D01*
Y95300D02*X139800Y96000D01*
X141100D01*
X143000Y92000D02*X144300D01*
X142300Y92700D02*X143000Y92000D01*
X142300Y95300D02*Y92700D01*
Y95300D02*X143000Y96000D01*
X144300D01*
X147300Y92000D02*X149300D01*
X149800Y92500D01*
Y93700D02*Y92500D01*
X149300Y94200D02*X149800Y93700D01*
X147800Y94200D02*X149300D01*
X147800Y96000D02*Y92000D01*
X147300Y96000D02*X149300D01*
X149800Y95500D01*
Y94700D01*
X149300Y94200D02*X149800Y94700D01*
X151000Y96000D02*X152000Y94000D01*
X153000Y96000D01*
X152000Y94000D02*Y92000D01*
X154200Y94000D02*X156200D01*
X159400Y96000D02*X159900Y95500D01*
X157900Y96000D02*X159400D01*
X157400Y95500D02*X157900Y96000D01*
X157400Y95500D02*Y94500D01*
X157900Y94000D01*
X159400D01*
X159900Y93500D01*
Y92500D01*
X159400Y92000D02*X159900Y92500D01*
X157900Y92000D02*X159400D01*
X157400Y92500D02*X157900Y92000D01*
X161100Y95000D02*Y92000D01*
Y95000D02*X161800Y96000D01*
X162900D01*
X163600Y95000D01*
Y92000D01*
X161100Y94000D02*X163600D01*
X117500Y104000D02*Y100000D01*
Y104000D02*X119000Y102000D01*
X120500Y104000D01*
Y100000D01*
X121700Y104000D02*X123700D01*
X124200Y103500D01*
Y102500D01*
X123700Y102000D02*X124200Y102500D01*
X122200Y102000D02*X123700D01*
X122200Y104000D02*Y100000D01*
X123000Y102000D02*X124200Y100000D01*
X125400D02*X127400D01*
X127900Y100500D01*
Y101700D02*Y100500D01*
X127400Y102200D02*X127900Y101700D01*
X125900Y102200D02*X127400D01*
X125900Y104000D02*Y100000D01*
X125400Y104000D02*X127400D01*
X127900Y103500D01*
Y102700D01*
X127400Y102200D02*X127900Y102700D01*
X129100Y104000D02*Y102000D01*
X129600Y100000D01*
X130600Y102000D01*
X131600Y100000D01*
X132100Y102000D01*
Y104000D02*Y102000D01*
X133300D02*X135300D01*
X137200Y100000D02*X138500D01*
X136500Y100700D02*X137200Y100000D01*
X136500Y103300D02*Y100700D01*
Y103300D02*X137200Y104000D01*
X138500D01*
X141700D02*X142200Y103500D01*
X140200Y104000D02*X141700D01*
X139700Y103500D02*X140200Y104000D01*
X139700Y103500D02*Y102500D01*
X140200Y102000D01*
X141700D01*
X142200Y101500D01*
Y100500D01*
X141700Y100000D02*X142200Y100500D01*
X140200Y100000D02*X141700D01*
X139700Y100500D02*X140200Y100000D01*
X143400Y104000D02*X145400D01*
X144400D02*Y100000D01*
X148400Y102000D02*X149400Y100000D01*
X150400Y102000D02*X149400Y100000D01*
X151600Y103200D02*X152400Y104000D01*
Y100000D01*
X151600D02*X153100D01*
X154300D02*X154800D01*
X156000Y103200D02*X156800Y104000D01*
Y100000D01*
X156000D02*X157500D01*
G54D119*X130610Y443299D02*Y430701D01*
Y443299D02*X144390D01*
Y430701D01*
X130610D02*X144390D01*
X193000Y428000D02*Y418000D01*
X233000Y428000D02*Y418000D01*
X193000Y428000D02*X194000D01*
X202000D02*X214000D01*
X222000D02*X233000D01*
X232000Y418000D02*X233000D01*
X212000D02*X224000D01*
X193000D02*X204000D01*
X191500Y416000D02*G75*G03X191500Y416000I0J500D01*G01*
X102600Y423500D02*Y409600D01*
X114400D01*
Y423500D01*
X102600D01*
X228000Y451600D02*Y435400D01*
X250000Y451600D02*Y435400D01*
X228000D02*X250000D01*
X228000Y451600D02*X250000D01*
X141715Y284785D02*Y249115D01*
Y284785D02*X180285D01*
Y246215D01*
X144615D02*X180285D01*
X144615D02*X141715Y249115D01*
X144615Y248115D02*G75*G03X144615Y248115I0J1000D01*G01*
X171607Y203755D02*X172393D01*
X171607Y198245D02*X172393D01*
X131755Y239393D02*Y238607D01*
X126245Y239393D02*Y238607D01*
X183843Y222299D02*Y209701D01*
X164157D02*X183843D01*
X164157Y222299D02*Y209701D01*
Y222299D02*X183843D01*
X185343Y224299D02*G75*G03X185343Y224299I0J-500D01*G01*
X165607Y313745D02*X166393D01*
X165607Y319255D02*X166393D01*
X158607Y310255D02*X159393D01*
X158607Y304745D02*X159393D01*
G54D121*X20400Y330300D02*Y200700D01*
Y330300D02*X85600D01*
X190600D02*X254700D01*
X20400Y200700D02*X40600D01*
X232600D02*X254700D01*
Y330300D02*Y200700D01*
G54D119*X231600Y306900D02*X245500D01*
X231600D02*Y295100D01*
X245500D01*
Y306900D02*Y295100D01*
X189607Y198245D02*X190393D01*
X189607Y203755D02*X190393D01*
X63110Y61299D02*Y48701D01*
Y61299D02*X76890D01*
Y48701D01*
X63110D02*X76890D01*
X198110Y61299D02*Y48701D01*
Y61299D02*X211890D01*
Y48701D01*
X198110D02*X211890D01*
X130610Y71299D02*Y58701D01*
Y71299D02*X144390D01*
Y58701D01*
X130610D02*X144390D01*
X123400Y39400D02*X151600D01*
Y400D01*
X123400D02*X151600D01*
X123400Y39400D02*Y400D01*
X79107Y253255D02*X79893D01*
X79107Y247745D02*X79893D01*
X79107Y227745D02*X79893D01*
X79107Y233255D02*X79893D01*
X79107Y237745D02*X79893D01*
X79107Y243255D02*X79893D01*
X67755Y243893D02*Y243107D01*
X62245Y243893D02*Y243107D01*
X72594Y270406D02*Y258594D01*
Y270406D02*X84406D01*
Y258594D01*
X72594D02*X84406D01*
X71094Y256594D02*G75*G03X71094Y256594I0J500D01*G01*
X67755Y264893D02*Y264107D01*
X62245Y264893D02*Y264107D01*
X61000Y301500D02*Y279500D01*
Y301500D02*X83000D01*
X87000Y297500D02*Y275500D01*
X65000D02*X87000D01*
X28600Y272500D02*Y258600D01*
X40400D01*
Y272500D01*
X28600D01*
X39607Y251255D02*X40393D01*
X39607Y245745D02*X40393D01*
X160000Y137000D02*Y117000D01*
X190000Y137000D02*Y117000D01*
X160000Y137000D02*X161000D01*
X189000D02*X190000D01*
X189000Y117000D02*X190000D01*
X160000D02*X161000D01*
X158500Y115000D02*G75*G03X158500Y115000I0J500D01*G01*
X142607Y124755D02*X143393D01*
X142607Y119245D02*X143393D01*
X142607Y134755D02*X143393D01*
X142607Y129245D02*X143393D01*
X114610Y146299D02*Y133701D01*
Y146299D02*X128390D01*
Y133701D01*
X114610D02*X128390D01*
X61500Y135600D02*X75400D01*
Y147400D02*Y135600D01*
X61500Y147400D02*X75400D01*
X61500D02*Y135600D01*
X177607Y536245D02*X178393D01*
X177607Y541755D02*X178393D01*
X26600Y447000D02*Y433100D01*
X39400D01*
Y447000D01*
X26600D01*
X30245Y460393D02*Y459607D01*
X35755Y460393D02*Y459607D01*
X96607Y541755D02*X97393D01*
X96607Y536245D02*X97393D01*
X69607Y464745D02*X70393D01*
X69607Y470255D02*X70393D01*
X69607Y474745D02*X70393D01*
X69607Y480255D02*X70393D01*
X133759Y503799D02*Y491201D01*
Y503799D02*X141241D01*
Y491201D01*
X133759D02*X141241D01*
X89193Y440000D02*Y435650D01*
X185807Y440000D02*Y435650D01*
X89193D02*X92500D01*
X185807D02*X182500D01*
X89193Y518642D02*X119390Y544351D01*
X185807Y518642D02*X155610Y544351D01*
X119390D02*X155610D01*
X89193Y414650D02*X92500D01*
X89193D02*Y425000D01*
X185807Y414650D02*X182500D01*
X185807D02*Y425000D01*
G54D120*X236600Y457600D02*Y453600D01*
X236100Y457600D02*X238100D01*
X238600Y457100D01*
Y456100D01*
X238100Y455600D02*X238600Y456100D01*
X236600Y455600D02*X238100D01*
X239800Y457100D02*X240300Y457600D01*
X241300D01*
X241800Y457100D01*
X241300Y453600D02*X241800Y454100D01*
X240300Y453600D02*X241300D01*
X239800Y454100D02*X240300Y453600D01*
Y455800D02*X241300D01*
X241800Y457100D02*Y456300D01*
Y455300D02*Y454100D01*
Y455300D02*X241300Y455800D01*
X241800Y456300D02*X241300Y455800D01*
X205200Y434500D02*X206000D01*
Y431000D01*
X205500Y430500D02*X206000Y431000D01*
X205000Y430500D02*X205500D01*
X204500Y431000D02*X205000Y430500D01*
X204500Y431500D02*Y431000D01*
X207700Y434500D02*Y430500D01*
X207200Y434500D02*X209200D01*
X209700Y434000D01*
Y433000D01*
X209200Y432500D02*X209700Y433000D01*
X207700Y432500D02*X209200D01*
X210900Y433700D02*X211700Y434500D01*
Y430500D01*
X210900D02*X212400D01*
X175698Y534575D02*Y530575D01*
X176998Y534575D02*X177698Y533875D01*
Y531275D01*
X176998Y530575D02*X177698Y531275D01*
X175198Y530575D02*X176998D01*
X175198Y534575D02*X176998D01*
X178898Y534075D02*X179398Y534575D01*
X180898D01*
X181398Y534075D01*
Y533075D01*
X178898Y530575D02*X181398Y533075D01*
X178898Y530575D02*X181398D01*
X28500Y431100D02*Y427100D01*
Y431100D02*X30000Y429100D01*
X31500Y431100D01*
Y427100D01*
X32700Y431100D02*Y427100D01*
Y431100D02*X35200Y427100D01*
Y431100D02*Y427100D01*
X36400Y430300D02*X37200Y431100D01*
Y427100D01*
X36400D02*X37900D01*
X95500Y418600D02*Y415100D01*
X96000Y414600D01*
X97000D01*
X97500Y415100D01*
Y418600D02*Y415100D01*
X98700Y418600D02*X100700D01*
X98700D02*Y416600D01*
X99200Y417100D01*
X100200D01*
X100700Y416600D01*
Y415100D01*
X100200Y414600D02*X100700Y415100D01*
X99200Y414600D02*X100200D01*
X98700Y415100D02*X99200Y414600D01*
X134552Y449075D02*X136552D01*
X137052Y448575D01*
Y447575D01*
X136552Y447075D02*X137052Y447575D01*
X135052Y447075D02*X136552D01*
X135052Y449075D02*Y445075D01*
X135852Y447075D02*X137052Y445075D01*
X138752D02*X140752Y449075D01*
X138252D02*X140752D01*
X37850Y462150D02*X39850D01*
X40350Y461650D01*
Y460650D01*
X39850Y460150D02*X40350Y460650D01*
X38350Y460150D02*X39850D01*
X38350Y462150D02*Y458150D01*
X39150Y460150D02*X40350Y458150D01*
X41550Y459650D02*X43550Y462150D01*
X41550Y459650D02*X44050D01*
X43550Y462150D02*Y458150D01*
X54964Y465650D02*X56264D01*
X54264Y466350D02*X54964Y465650D01*
X54264Y468950D02*Y466350D01*
Y468950D02*X54964Y469650D01*
X56264D01*
X57464Y468850D02*X58264Y469650D01*
Y465650D01*
X57464D02*X58964D01*
X60164Y466150D02*X60664Y465650D01*
X60164Y469150D02*Y466150D01*
Y469150D02*X60664Y469650D01*
X61664D01*
X62164Y469150D01*
Y466150D01*
X61664Y465650D02*X62164Y466150D01*
X60664Y465650D02*X61664D01*
X60164Y466650D02*X62164Y468650D01*
X55464Y475650D02*X56764D01*
X54764Y476350D02*X55464Y475650D01*
X54764Y478950D02*Y476350D01*
Y478950D02*X55464Y479650D01*
X56764D01*
X57964Y478850D02*X58764Y479650D01*
Y475650D01*
X57964D02*X59464D01*
X60664Y478850D02*X61464Y479650D01*
Y475650D01*
X60664D02*X62164D01*
X94698Y534575D02*Y530575D01*
X95998Y534575D02*X96698Y533875D01*
Y531275D01*
X95998Y530575D02*X96698Y531275D01*
X94198Y530575D02*X95998D01*
X94198Y534575D02*X95998D01*
X97898Y533775D02*X98698Y534575D01*
Y530575D01*
X97898D02*X99398D01*
X133500Y510000D02*X135500D01*
X136000Y509500D01*
Y508500D01*
X135500Y508000D02*X136000Y508500D01*
X134000Y508000D02*X135500D01*
X134000Y510000D02*Y506000D01*
X134800Y508000D02*X136000Y506000D01*
X137200Y509200D02*X138000Y510000D01*
Y506000D01*
X137200D02*X138700D01*
X139900Y509200D02*X140700Y510000D01*
Y506000D01*
X139900D02*X141400D01*
X132500Y537500D02*X135000Y541500D01*
X132500D02*X135000Y537500D01*
X136200Y541500D02*Y538000D01*
X136700Y537500D01*
X137700D01*
X138200Y538000D01*
Y541500D02*Y538000D01*
X139400Y541000D02*X139900Y541500D01*
X140900D01*
X141400Y541000D01*
X140900Y537500D02*X141400Y538000D01*
X139900Y537500D02*X140900D01*
X139400Y538000D02*X139900Y537500D01*
Y539700D02*X140900D01*
X141400Y541000D02*Y540200D01*
Y539200D02*Y538000D01*
Y539200D02*X140900Y539700D01*
X141400Y540200D02*X140900Y539700D01*
X133500Y290000D02*Y286500D01*
X134000Y286000D01*
X135000D01*
X135500Y286500D01*
Y290000D02*Y286500D01*
X136700Y289500D02*X137200Y290000D01*
X138700D01*
X139200Y289500D01*
Y288500D01*
X136700Y286000D02*X139200Y288500D01*
X136700Y286000D02*X139200D01*
X127136Y227150D02*X128436D01*
X126436Y227850D02*X127136Y227150D01*
X126436Y230450D02*Y227850D01*
Y230450D02*X127136Y231150D01*
X128436D01*
X129636Y228650D02*X131636Y231150D01*
X129636Y228650D02*X132136D01*
X131636Y231150D02*Y227150D01*
X175050Y314150D02*X176350D01*
X174350Y314850D02*X175050Y314150D01*
X174350Y317450D02*Y314850D01*
Y317450D02*X175050Y318150D01*
X176350D01*
X177550D02*X179550D01*
X177550D02*Y316150D01*
X178050Y316650D01*
X179050D01*
X179550Y316150D01*
Y314650D01*
X179050Y314150D02*X179550Y314650D01*
X178050Y314150D02*X179050D01*
X177550Y314650D02*X178050Y314150D01*
X168050Y305150D02*X169350D01*
X167350Y305850D02*X168050Y305150D01*
X167350Y308450D02*Y305850D01*
Y308450D02*X168050Y309150D01*
X169350D01*
X172050D02*X172550Y308650D01*
X171050Y309150D02*X172050D01*
X170550Y308650D02*X171050Y309150D01*
X170550Y308650D02*Y305650D01*
X171050Y305150D01*
X172050Y307350D02*X172550Y306850D01*
X170550Y307350D02*X172050D01*
X171050Y305150D02*X172050D01*
X172550Y305650D01*
Y306850D02*Y305650D01*
X166000Y229000D02*X167000Y227000D01*
X168000Y229000D01*
X167000Y227000D02*Y225000D01*
X169200Y228200D02*X170000Y229000D01*
Y225000D01*
X169200D02*X170700D01*
X236000Y312600D02*Y309100D01*
X236500Y308600D01*
X237500D01*
X238000Y309100D01*
Y312600D02*Y309100D01*
X239200Y310100D02*X241200Y312600D01*
X239200Y310100D02*X241700D01*
X241200Y312600D02*Y308600D01*
X67100Y66900D02*X69100D01*
X69600Y66400D01*
Y65400D01*
X69100Y64900D02*X69600Y65400D01*
X67600Y64900D02*X69100D01*
X67600Y66900D02*Y62900D01*
X68400Y64900D02*X69600Y62900D01*
X70800Y63400D02*X71300Y62900D01*
X70800Y64200D02*Y63400D01*
Y64200D02*X71500Y64900D01*
X72100D01*
X72800Y64200D01*
Y63400D01*
X72300Y62900D02*X72800Y63400D01*
X71300Y62900D02*X72300D01*
X70800Y65600D02*X71500Y64900D01*
X70800Y66400D02*Y65600D01*
Y66400D02*X71300Y66900D01*
X72300D01*
X72800Y66400D01*
Y65600D01*
X72100Y64900D02*X72800Y65600D01*
X202100Y66900D02*X204100D01*
X204600Y66400D01*
Y65400D01*
X204100Y64900D02*X204600Y65400D01*
X202600Y64900D02*X204100D01*
X202600Y66900D02*Y62900D01*
X203400Y64900D02*X204600Y62900D01*
X206300D02*X207800Y64900D01*
Y66400D02*Y64900D01*
X207300Y66900D02*X207800Y66400D01*
X206300Y66900D02*X207300D01*
X205800Y66400D02*X206300Y66900D01*
X205800Y66400D02*Y65400D01*
X206300Y64900D01*
X207800D01*
X188250Y192150D02*X189550D01*
X187550Y192850D02*X188250Y192150D01*
X187550Y195450D02*Y192850D01*
Y195450D02*X188250Y196150D01*
X189550D01*
X190750Y192650D02*X191250Y192150D01*
X190750Y193450D02*Y192650D01*
Y193450D02*X191450Y194150D01*
X192050D01*
X192750Y193450D01*
Y192650D01*
X192250Y192150D02*X192750Y192650D01*
X191250Y192150D02*X192250D01*
X190750Y194850D02*X191450Y194150D01*
X190750Y195650D02*Y194850D01*
Y195650D02*X191250Y196150D01*
X192250D01*
X192750Y195650D01*
Y194850D01*
X192050Y194150D02*X192750Y194850D01*
X170450Y192150D02*X171750D01*
X169750Y192850D02*X170450Y192150D01*
X169750Y195450D02*Y192850D01*
Y195450D02*X170450Y196150D01*
X171750D01*
X173450Y192150D02*X174950Y194150D01*
Y195650D02*Y194150D01*
X174450Y196150D02*X174950Y195650D01*
X173450Y196150D02*X174450D01*
X172950Y195650D02*X173450Y196150D01*
X172950Y195650D02*Y194650D01*
X173450Y194150D01*
X174950D01*
X172800Y108400D02*X173600D01*
Y104900D01*
X173100Y104400D02*X173600Y104900D01*
X172600Y104400D02*X173100D01*
X172100Y104900D02*X172600Y104400D01*
X172100Y105400D02*Y104900D01*
X174800Y107900D02*X175300Y108400D01*
X176800D01*
X177300Y107900D01*
Y106900D01*
X174800Y104400D02*X177300Y106900D01*
X174800Y104400D02*X177300D01*
X119152Y67475D02*X121152D01*
X121652Y66975D01*
Y65975D01*
X121152Y65475D02*X121652Y65975D01*
X119652Y65475D02*X121152D01*
X119652Y67475D02*Y63475D01*
X120452Y65475D02*X121652Y63475D01*
X122852Y66675D02*X123652Y67475D01*
Y63475D01*
X122852D02*X124352D01*
X125552Y63975D02*X126052Y63475D01*
X125552Y66975D02*Y63975D01*
Y66975D02*X126052Y67475D01*
X127052D01*
X127552Y66975D01*
Y63975D01*
X127052Y63475D02*X127552Y63975D01*
X126052Y63475D02*X127052D01*
X125552Y64475D02*X127552Y66475D01*
X117200Y20000D02*X118000D01*
Y16500D01*
X117500Y16000D02*X118000Y16500D01*
X117000Y16000D02*X117500D01*
X116500Y16500D02*X117000Y16000D01*
X116500Y17000D02*Y16500D01*
X119200Y19500D02*X119700Y20000D01*
X120700D01*
X121200Y19500D01*
X120700Y16000D02*X121200Y16500D01*
X119700Y16000D02*X120700D01*
X119200Y16500D02*X119700Y16000D01*
Y18200D02*X120700D01*
X121200Y19500D02*Y18700D01*
Y17700D02*Y16500D01*
Y17700D02*X120700Y18200D01*
X121200Y18700D02*X120700Y18200D01*
X141421Y113150D02*X142721D01*
X140721Y113850D02*X141421Y113150D01*
X140721Y116450D02*Y113850D01*
Y116450D02*X141421Y117150D01*
X142721D01*
X144421Y113150D02*X146421Y117150D01*
X143921D02*X146421D01*
X139893Y140650D02*X141893D01*
X142393Y140150D01*
Y139150D01*
X141893Y138650D02*X142393Y139150D01*
X140393Y138650D02*X141893D01*
X140393Y140650D02*Y136650D01*
X141193Y138650D02*X142393Y136650D01*
X143593Y140650D02*X145593D01*
X143593D02*Y138650D01*
X144093Y139150D01*
X145093D01*
X145593Y138650D01*
Y137150D01*
X145093Y136650D02*X145593Y137150D01*
X144093Y136650D02*X145093D01*
X143593Y137150D02*X144093Y136650D01*
X118760Y131740D02*X120760D01*
X121260Y131240D01*
Y130240D01*
X120760Y129740D02*X121260Y130240D01*
X119260Y129740D02*X120760D01*
X119260Y131740D02*Y127740D01*
X120060Y129740D02*X121260Y127740D01*
X123960Y131740D02*X124460Y131240D01*
X122960Y131740D02*X123960D01*
X122460Y131240D02*X122960Y131740D01*
X122460Y131240D02*Y128240D01*
X122960Y127740D01*
X123960Y129940D02*X124460Y129440D01*
X122460Y129940D02*X123960D01*
X122960Y127740D02*X123960D01*
X124460Y128240D01*
Y129440D02*Y128240D01*
X66000Y133600D02*Y130100D01*
X66500Y129600D01*
X67500D01*
X68000Y130100D01*
Y133600D02*Y130100D01*
X70700Y133600D02*X71200Y133100D01*
X69700Y133600D02*X70700D01*
X69200Y133100D02*X69700Y133600D01*
X69200Y133100D02*Y130100D01*
X69700Y129600D01*
X70700Y131800D02*X71200Y131300D01*
X69200Y131800D02*X70700D01*
X69700Y129600D02*X70700D01*
X71200Y130100D01*
Y131300D02*Y130100D01*
X30000Y278600D02*Y274600D01*
Y278600D02*X31500Y276600D01*
X33000Y278600D01*
Y274600D01*
X34700Y278600D02*Y274600D01*
X34200Y278600D02*X36200D01*
X36700Y278100D01*
Y277100D01*
X36200Y276600D02*X36700Y277100D01*
X34700Y276600D02*X36200D01*
X37900Y277800D02*X38700Y278600D01*
Y274600D01*
X37900D02*X39400D01*
X37293Y243650D02*X39293D01*
X39793Y243150D01*
Y242150D01*
X39293Y241650D02*X39793Y242150D01*
X37793Y241650D02*X39293D01*
X37793Y243650D02*Y239650D01*
X38593Y241650D02*X39793Y239650D01*
X40993Y243150D02*X41493Y243650D01*
X42493D01*
X42993Y243150D01*
X42493Y239650D02*X42993Y240150D01*
X41493Y239650D02*X42493D01*
X40993Y240150D02*X41493Y239650D01*
Y241850D02*X42493D01*
X42993Y243150D02*Y242350D01*
Y241350D02*Y240150D01*
Y241350D02*X42493Y241850D01*
X42993Y242350D02*X42493Y241850D01*
X87350Y252650D02*X89350D01*
X89850Y252150D01*
Y251150D01*
X89350Y250650D02*X89850Y251150D01*
X87850Y250650D02*X89350D01*
X87850Y252650D02*Y248650D01*
X88650Y250650D02*X89850Y248650D01*
X91050Y251850D02*X91850Y252650D01*
Y248650D01*
X91050D02*X92550D01*
X88050Y228150D02*X89350D01*
X87350Y228850D02*X88050Y228150D01*
X87350Y231450D02*Y228850D01*
Y231450D02*X88050Y232150D01*
X89350D01*
X90550Y231650D02*X91050Y232150D01*
X92050D01*
X92550Y231650D01*
X92050Y228150D02*X92550Y228650D01*
X91050Y228150D02*X92050D01*
X90550Y228650D02*X91050Y228150D01*
Y230350D02*X92050D01*
X92550Y231650D02*Y230850D01*
Y229850D02*Y228650D01*
Y229850D02*X92050Y230350D01*
X92550Y230850D02*X92050Y230350D01*
X88050Y238650D02*X89350D01*
X87350Y239350D02*X88050Y238650D01*
X87350Y241950D02*Y239350D01*
Y241950D02*X88050Y242650D01*
X89350D01*
X90550Y242150D02*X91050Y242650D01*
X92550D01*
X93050Y242150D01*
Y241150D01*
X90550Y238650D02*X93050Y241150D01*
X90550Y238650D02*X93050D01*
X53850Y245650D02*X55850D01*
X56350Y245150D01*
Y244150D01*
X55850Y243650D02*X56350Y244150D01*
X54350Y243650D02*X55850D01*
X54350Y245650D02*Y241650D01*
X55150Y243650D02*X56350Y241650D01*
X57550Y245150D02*X58050Y245650D01*
X59550D01*
X60050Y245150D01*
Y244150D01*
X57550Y241650D02*X60050Y244150D01*
X57550Y241650D02*X60050D01*
X89858Y266453D02*Y262953D01*
X90358Y262453D01*
X91358D01*
X91858Y262953D01*
Y266453D02*Y262953D01*
X93058Y265653D02*X93858Y266453D01*
Y262453D01*
X93058D02*X94558D01*
X56550Y262650D02*X57850D01*
X55850Y263350D02*X56550Y262650D01*
X55850Y265950D02*Y263350D01*
Y265950D02*X56550Y266650D01*
X57850D01*
X59050Y265850D02*X59850Y266650D01*
Y262650D01*
X59050D02*X60550D01*
X71500Y308000D02*Y304000D01*
X73500D01*
X74700Y307200D02*X75500Y308000D01*
Y304000D01*
X74700D02*X76200D01*
X23600Y327500D02*X24400D01*
Y324000D01*
X23900Y323500D02*X24400Y324000D01*
X23400Y323500D02*X23900D01*
X22900Y324000D02*X23400Y323500D01*
X22900Y324500D02*Y324000D01*
X25600Y326700D02*X26400Y327500D01*
Y323500D01*
X25600D02*X27100D01*
M02*
