G04 start of page 2 for group 0 idx 0 *
G04 Title: (unknown), top *
G04 Creator: pcb 20140316 *
G04 CreationDate: Thu 09 Feb 2017 01:57:55 AM GMT UTC *
G04 For: railfan *
G04 Format: Gerber/RS-274X *
G04 PCB-Dimensions (mil): 2750.00 5500.00 *
G04 PCB-Coordinate-Origin: lower left *
%MOIN*%
%FSLAX25Y25*%
%LNTOP*%
%ADD48C,0.1180*%
%ADD47C,0.0870*%
%ADD46C,0.0390*%
%ADD45C,0.2500*%
%ADD44C,0.0730*%
%ADD43C,0.1285*%
%ADD42C,0.0380*%
%ADD41C,0.0360*%
%ADD40R,0.0340X0.0340*%
%ADD39R,0.0630X0.0630*%
%ADD38R,0.0350X0.0350*%
%ADD37R,0.0470X0.0470*%
%ADD36R,0.0500X0.0500*%
%ADD35R,0.0240X0.0240*%
%ADD34R,0.0167X0.0167*%
%ADD33R,0.0230X0.0230*%
%ADD32R,0.0240X0.0240*%
%ADD31R,0.0197X0.0197*%
%ADD30R,0.0098X0.0098*%
%ADD29R,0.0512X0.0512*%
%ADD28R,0.0157X0.0157*%
%ADD27C,0.1380*%
%ADD26C,0.0700*%
%ADD25C,0.0650*%
%ADD24C,0.1070*%
%ADD23C,0.0590*%
%ADD22C,0.4000*%
%ADD21C,0.1030*%
%ADD20C,0.2937*%
%ADD19C,0.0600*%
%ADD18C,0.0300*%
%ADD17C,0.0400*%
%ADD16C,0.0350*%
%ADD15C,0.0150*%
%ADD14C,0.0500*%
%ADD13C,0.0100*%
%ADD12C,0.0200*%
%ADD11C,0.0001*%
G54D11*G36*
X81500Y271000D02*X78500Y274000D01*
Y278000D01*
X85000D01*
Y274500D01*
X81500Y271000D01*
G37*
G36*
X94500Y447000D02*X110500D01*
Y432500D01*
X94500D01*
Y447000D01*
G37*
G36*
X69000Y480500D02*Y432500D01*
X60500D01*
Y480500D01*
X69000D01*
G37*
G36*
X34000Y433221D02*Y440500D01*
X44500D01*
Y431000D01*
X43559D01*
X43500Y431005D01*
X43441Y431000D01*
X36221D01*
X34000Y433221D01*
G37*
G36*
X142000Y284500D02*X159250D01*
Y284188D01*
X159014Y283986D01*
X158728Y283651D01*
X158497Y283275D01*
X158329Y282868D01*
X158226Y282439D01*
X158191Y282000D01*
X158226Y281561D01*
X158329Y281132D01*
X158497Y280725D01*
X158728Y280349D01*
X159014Y280014D01*
X159349Y279728D01*
X159725Y279497D01*
X160132Y279329D01*
X160561Y279226D01*
X161000Y279191D01*
X161439Y279226D01*
X161868Y279329D01*
X162275Y279497D01*
X162651Y279728D01*
X162986Y280014D01*
X163272Y280349D01*
X163503Y280725D01*
X163671Y281132D01*
X163774Y281561D01*
X163800Y282000D01*
X163774Y282439D01*
X163671Y282868D01*
X163503Y283275D01*
X163272Y283651D01*
X162986Y283986D01*
X162750Y284188D01*
Y284500D01*
X180000D01*
Y270399D01*
X179688D01*
X179486Y270635D01*
X179151Y270921D01*
X178775Y271151D01*
X178368Y271320D01*
X177939Y271423D01*
X177500Y271457D01*
X177061Y271423D01*
X176632Y271320D01*
X176225Y271151D01*
X175849Y270921D01*
X175514Y270635D01*
X175228Y270300D01*
X174997Y269924D01*
X174829Y269517D01*
X174726Y269088D01*
X174691Y268649D01*
X174726Y268209D01*
X174829Y267781D01*
X174997Y267374D01*
X175228Y266998D01*
X175514Y266663D01*
X175849Y266377D01*
X176225Y266146D01*
X176632Y265978D01*
X177061Y265875D01*
X177500Y265840D01*
X177939Y265875D01*
X178368Y265978D01*
X178775Y266146D01*
X179151Y266377D01*
X179486Y266663D01*
X179688Y266899D01*
X180000D01*
Y246500D01*
X162750D01*
Y246812D01*
X162986Y247014D01*
X163272Y247349D01*
X163503Y247725D01*
X163671Y248132D01*
X163774Y248561D01*
X163800Y249000D01*
X163774Y249439D01*
X163671Y249868D01*
X163503Y250275D01*
X163272Y250651D01*
X162986Y250986D01*
X162651Y251272D01*
X162275Y251503D01*
X161868Y251671D01*
X161439Y251774D01*
X161000Y251809D01*
X160561Y251774D01*
X160132Y251671D01*
X159725Y251503D01*
X159349Y251272D01*
X159014Y250986D01*
X158728Y250651D01*
X158497Y250275D01*
X158329Y249868D01*
X158226Y249439D01*
X158191Y249000D01*
X158226Y248561D01*
X158329Y248132D01*
X158497Y247725D01*
X158728Y247349D01*
X159014Y247014D01*
X159250Y246812D01*
Y246500D01*
X142000D01*
Y263750D01*
X142312D01*
X142514Y263514D01*
X142849Y263228D01*
X143225Y262997D01*
X143632Y262829D01*
X144061Y262726D01*
X144500Y262691D01*
X144939Y262726D01*
X145368Y262829D01*
X145775Y262997D01*
X146151Y263228D01*
X146486Y263514D01*
X146772Y263849D01*
X147003Y264225D01*
X147171Y264632D01*
X147274Y265061D01*
X147300Y265500D01*
X147274Y265939D01*
X147171Y266368D01*
X147003Y266775D01*
X146772Y267151D01*
X146486Y267486D01*
X146151Y267772D01*
X145775Y268003D01*
X145368Y268171D01*
X144939Y268274D01*
X144500Y268309D01*
X144061Y268274D01*
X143632Y268171D01*
X143225Y268003D01*
X142849Y267772D01*
X142514Y267486D01*
X142312Y267250D01*
X142000D01*
Y284500D01*
G37*
G36*
X173000Y198000D02*Y214500D01*
X185500D01*
Y212059D01*
X185495Y212000D01*
X185514Y211765D01*
X185569Y211535D01*
X185659Y211317D01*
X185783Y211116D01*
X185783Y211115D01*
X185936Y210936D01*
X185981Y210898D01*
X189000Y207879D01*
Y198000D01*
X173000D01*
G37*
G36*
X162621Y223500D02*X170379D01*
X174398Y219481D01*
X174436Y219436D01*
X174615Y219283D01*
X174616Y219283D01*
X174817Y219159D01*
X175035Y219069D01*
X175265Y219014D01*
X175500Y218995D01*
X175559Y219000D01*
X176000D01*
Y212500D01*
X171647D01*
X171644Y214188D01*
X171607Y214341D01*
X171547Y214486D01*
X171465Y214621D01*
X171362Y214740D01*
X171243Y214843D01*
X171108Y214925D01*
X170963Y214985D01*
X170810Y215022D01*
X170653Y215031D01*
X163598Y215023D01*
X162500Y216121D01*
Y223379D01*
X162621Y223500D01*
G37*
G36*
X174500Y213000D02*Y219000D01*
X175441D01*
X175500Y218995D01*
X175559Y219000D01*
X176354D01*
X176356Y217812D01*
X176393Y217659D01*
X176453Y217514D01*
X176535Y217379D01*
X176638Y217260D01*
X176757Y217157D01*
X176892Y217075D01*
X177037Y217015D01*
X177190Y216978D01*
X177347Y216969D01*
X183902Y216977D01*
X185500Y215379D01*
Y213000D01*
X174500D01*
G37*
G36*
X144000Y127000D02*X154500D01*
Y117000D01*
X144000D01*
Y127000D01*
G37*
G36*
X229500Y442000D02*X239000D01*
Y431500D01*
X229500D01*
Y442000D01*
G37*
G36*
X159500Y319500D02*X165500D01*
Y302475D01*
X163025Y300000D01*
X159601D01*
Y301080D01*
X159607Y301149D01*
X159585Y301423D01*
X159585Y301423D01*
X159521Y301691D01*
X159500Y301741D01*
Y319500D01*
G37*
G36*
X84500Y258000D02*Y271000D01*
X89500D01*
Y258000D01*
X84500D01*
G37*
G36*
X62000Y244500D02*Y263500D01*
X70500D01*
Y262059D01*
X70495Y262000D01*
X70500Y261941D01*
Y244500D01*
X62000D01*
G37*
G36*
X78500Y237500D02*X73000D01*
Y253500D01*
X78500D01*
Y237500D01*
G37*
G36*
X62000D02*Y242500D01*
X78500D01*
Y237500D01*
X62000D01*
G37*
G36*
X33500Y281500D02*X65500D01*
Y275500D01*
X33500D01*
Y281500D01*
G37*
G36*
X71000Y279000D02*X76500D01*
Y271000D01*
X71000D01*
Y279000D01*
G37*
G36*
X62000Y265500D02*Y279000D01*
X72500D01*
Y265500D01*
X62000D01*
G37*
G36*
X37000Y272000D02*X45500D01*
Y267000D01*
X37000D01*
Y272000D01*
G37*
G36*
X45500Y274000D02*Y264500D01*
X40500D01*
Y274000D01*
X45500D01*
G37*
G36*
X80500Y225000D02*Y257000D01*
X89500D01*
Y225621D01*
X88879Y225000D01*
X80500D01*
G37*
G36*
X78500Y233500D02*Y227500D01*
X64000D01*
Y233500D01*
X78500D01*
G37*
G36*
X125500Y238000D02*X141500D01*
Y228500D01*
X129621D01*
X125500Y232621D01*
Y238000D01*
G37*
G54D12*X30600Y261500D02*Y236000D01*
X34500Y269700D02*Y278000D01*
Y261500D02*Y240000D01*
X39000Y235500D02*X85500D01*
G54D13*X89500Y220500D02*X18500D01*
X90500Y218500D02*X15500D01*
X13000Y212500D02*X93500D01*
G54D12*X34500Y240000D02*X39000Y235500D01*
G54D13*X19500Y222500D02*X13500Y228500D01*
X18500Y220500D02*X11500Y227500D01*
X5500Y228500D02*X15500Y218500D01*
X48500Y264500D02*X45000Y261000D01*
X43543Y248500D02*Y261000D01*
X48500Y264500D02*Y272500D01*
X45000Y261000D02*X38400D01*
G54D14*X138000Y242500D02*X86000D01*
G54D13*X118000Y267000D02*Y248000D01*
X113500Y268500D02*Y248000D01*
X109000Y270000D02*Y248000D01*
X145252Y240815D02*Y219000D01*
X137500Y226500D02*X142000Y222000D01*
X134500Y224500D02*X143500Y215500D01*
X148401D01*
X137500Y226500D02*X129500D01*
X134500Y224500D02*X128500D01*
X133000Y221000D02*X129000D01*
X129500Y226500D02*X119500Y236500D01*
X128500Y224500D02*X119000Y234000D01*
X129000Y221000D02*X118500Y231500D01*
X91500Y216500D02*X102500Y227500D01*
X92500Y214500D02*X102500Y224500D01*
X93500Y212500D02*X102500Y221500D01*
Y227500D02*X118000D01*
X102500Y224500D02*X113500D01*
X102500Y221500D02*X109000D01*
X90500Y218500D02*X103500Y231500D01*
X118500D01*
X89500Y220500D02*X103000Y234000D01*
X88500Y222500D02*X102500Y236500D01*
X103000Y234000D02*X119000D01*
X102500Y236500D02*X119500D01*
G54D12*X78500Y264500D02*X87000D01*
G54D13*X81453Y260858D02*Y255500D01*
X77516Y260858D02*Y250500D01*
X72000Y268000D02*Y262000D01*
X73142Y260858D02*X72000Y262000D01*
X73142Y260858D02*X75547D01*
Y277500D02*Y268142D01*
X79484D02*Y264500D01*
X85000Y280500D02*Y274500D01*
X81453Y270953D02*X85000Y274500D01*
X78500Y278000D02*Y273906D01*
X81453Y270953D02*X78500Y273906D01*
X81453Y278950D02*Y268142D01*
X83500Y146000D02*X86500Y149000D01*
X96500Y210500D02*X104500Y218500D01*
X170448Y240815D02*Y232552D01*
X173000Y230000D01*
X206657Y200000D02*Y269843D01*
X201552Y274948D01*
X206500Y275500D02*X203902Y278098D01*
X185685D01*
X193543Y201000D02*Y205457D01*
X187000Y212000D01*
Y216000D01*
X181472Y221528D01*
X182000Y179000D02*Y154500D01*
X178000Y176000D02*Y156000D01*
X170000Y148000D02*Y120000D01*
X182000Y154500D02*X194500Y142000D01*
X180000Y177500D02*Y120000D01*
X175000Y135740D02*Y146000D01*
X185500Y156500D02*Y181500D01*
G54D15*X175000Y157500D02*X165000Y147500D01*
Y135740D01*
G54D13*X178000Y156000D02*X170000Y148000D01*
G54D15*X175000Y157500D02*Y174350D01*
G54D13*X86500Y149000D02*X124500D01*
X126224Y147276D01*
Y143348D01*
X119925Y136652D02*Y122425D01*
X116776Y136652D02*Y127276D01*
X114500Y125000D01*
X99000D01*
X154700Y206300D02*X182000Y179000D01*
X185500Y181500D02*X181000Y186000D01*
Y195000D01*
X148401Y205599D02*X178000Y176000D01*
X151551Y205949D02*X180000Y177500D01*
G54D15*X175000Y174350D02*X157850Y191500D01*
G54D13*X167500Y201000D02*Y211500D01*
G54D15*X179500Y88244D02*X163000Y71744D01*
X194316Y73428D02*X169244Y98500D01*
G54D13*X179500Y97500D02*X223500D01*
G54D15*X163000Y71744D02*Y52898D01*
X171713Y44185D01*
G54D13*X200276Y51652D02*X185877D01*
X171713Y65816D01*
X209500Y41000D02*X189000D01*
X184428Y36428D01*
Y26684D01*
X200276Y58348D02*X203425D01*
Y51652D02*X209724D01*
X206575Y58348D02*X213152D01*
G54D15*X194316Y73428D02*X225572D01*
G54D13*X206575Y51652D02*Y45500D01*
X213152Y58348D02*X215000Y56500D01*
Y46500D01*
X209500Y41000D01*
G54D15*X205001Y20000D02*X225572Y40571D01*
X208888Y10000D02*X225572Y26684D01*
X238287Y44184D02*X225572D01*
X208944Y10056D02*X184444D01*
X142224Y52276D01*
Y61652D01*
X227000Y98500D02*Y123000D01*
Y98500D02*X248500Y77000D01*
G54D13*X223500Y97500D02*X238287Y82713D01*
Y65815D01*
G54D15*X225572Y83316D02*Y40571D01*
X248500Y77000D02*Y34500D01*
X240684Y26684D01*
X225572D01*
G54D13*X15500Y146500D02*X44500D01*
G54D15*X47000Y149000D01*
G54D13*X11000Y151000D02*X15500Y146500D01*
X9000Y150000D02*X15500Y143500D01*
X49500D02*X15500D01*
G54D15*X49500D02*X51400Y145400D01*
X64300D01*
X47000Y149000D02*X68900D01*
G54D13*X14000Y210500D02*X96500D01*
X15500Y140500D02*X54500D01*
G54D15*X57400Y137600D01*
X64300D01*
G54D13*X15500Y137500D02*X53000D01*
X11000Y207500D02*Y151000D01*
X9000Y208500D02*Y150000D01*
X7000Y209500D02*Y149000D01*
X5000Y210500D02*Y148000D01*
X7000Y149000D02*X15500Y140500D01*
X5000Y148000D02*X15500Y137500D01*
X53000D02*X59000Y131500D01*
X194500Y142000D02*Y121500D01*
X245000Y188500D02*Y151000D01*
X198500Y104500D02*X245000Y151000D01*
G54D15*X248500Y185000D02*Y149500D01*
X200500Y101500D02*X248500Y149500D01*
X227000Y123000D02*X252500Y148500D01*
G54D13*X194500Y121500D02*X191260Y118260D01*
X185000D01*
Y109500D02*Y118260D01*
G54D15*X252500Y148500D02*Y190500D01*
X240000D02*X242000Y192500D01*
X250500D01*
X252500Y190500D01*
X93500Y109500D02*Y119500D01*
X103500Y109500D02*Y119500D01*
X83500Y109500D02*Y119500D01*
X72500Y137600D02*Y108000D01*
X76000Y104500D01*
G54D13*X83500Y119500D02*Y146000D01*
G54D12*X190500Y135740D02*X185000D01*
G54D13*X146543Y132000D02*X165000D01*
G54D15*X200500Y101500D02*X57500D01*
G54D13*X139543Y111957D02*X143500Y108000D01*
X183500D02*X185000Y109500D01*
X126224Y107776D02*X129500Y104500D01*
G54D15*X76000D02*X88500D01*
X93500Y109500D01*
G54D13*X139543Y132000D02*Y111957D01*
X126224Y136652D02*Y107776D01*
X119925Y122425D02*X117000Y119500D01*
X103500D01*
X99000Y125000D02*X93500Y119500D01*
X198500Y104500D02*X129500D01*
X143500Y108000D02*X183500D01*
X170000Y120000D02*X168260Y118260D01*
X165000D01*
X180000Y120000D02*X178260Y118260D01*
X175000D01*
X111124Y143348D02*X116776D01*
X119925D02*X123075D01*
X126224Y136652D02*X123075D01*
G54D16*X59400Y141500D02*X77400D01*
G54D15*X68900Y149000D02*X72500Y145400D01*
G54D13*X65276Y58348D02*X68425D01*
Y51652D02*X74724D01*
X71575D02*Y45500D01*
X78152Y58348D02*X80000Y56500D01*
G54D15*X103287Y44184D02*X90572D01*
X119000Y55500D02*Y32500D01*
X113184Y26684D01*
X90572D01*
G54D13*X80000Y56500D02*Y46500D01*
X74500Y41000D01*
G54D15*X70001Y20000D02*X90572Y40571D01*
Y83316D02*Y40571D01*
G54D13*X71575Y58348D02*X78152D01*
G54D15*X59316Y73428D02*X90572D01*
X44500Y88244D02*X28000Y71744D01*
Y52898D01*
X36713Y44185D01*
G54D13*X65276Y51652D02*X50877D01*
X36713Y65816D01*
X74500Y41000D02*X54000D01*
X49428Y36428D01*
Y26684D01*
X132776Y68348D02*X115348D01*
X112815Y65815D01*
X103287D01*
G54D15*X142224Y61652D02*X125152D01*
X119000Y55500D01*
X53000Y98500D02*X169244D01*
G54D13*X142224Y68348D02*X150348D01*
X172000Y90000D01*
G54D15*X44500Y88244D02*X59316Y73428D01*
X53000Y98500D02*X49500Y102000D01*
X57500Y101500D02*X54500Y104500D01*
X49500Y102000D02*Y133000D01*
X54500Y104500D02*Y131000D01*
X44500Y134500D02*Y88244D01*
G54D13*X59000Y131500D02*X72500D01*
X77516Y268142D02*Y264500D01*
G54D15*X177500Y268649D02*X185685D01*
X136315Y265500D02*X144500D01*
X179500D02*X185685D01*
X136315Y268650D02*X142500D01*
G54D13*X104500Y271500D02*Y248000D01*
X136315Y256052D02*X129500D01*
X136315Y259201D02*X132799D01*
X131500Y260500D01*
X129500D01*
X136315Y262351D02*X132149D01*
X129500Y265000D01*
X233500D02*X227000Y271500D01*
X216000Y254500D02*X215500Y254000D01*
X154700Y206300D02*Y240815D01*
X151551Y205949D02*Y240815D01*
X148401Y205599D02*Y240815D01*
G54D15*X157850D02*Y215000D01*
G54D13*X167299Y240815D02*Y228701D01*
X215500Y254000D02*Y238500D01*
X216500Y237500D01*
Y234500D01*
X167299Y228701D02*X175500Y220500D01*
X164149Y227149D02*X161000Y224000D01*
Y215500D01*
X165028Y211472D01*
X175500Y220500D02*X180783D01*
X233500Y230500D02*X245000Y219000D01*
Y198500D01*
G54D15*X210000Y223500D02*X235000Y198500D01*
X240000D01*
G54D13*X164149Y240815D02*Y227149D01*
X136315Y271800D02*X122800D01*
X118000Y267000D01*
X136315Y274949D02*X119949D01*
X136315Y278099D02*X117099D01*
X136315Y281248D02*X114248D01*
X119949Y274949D02*X113500Y268500D01*
X117099Y278099D02*X109000Y270000D01*
X114248Y281248D02*X104500Y271500D01*
X247000Y286000D02*X251000Y290000D01*
G54D15*X161000Y240815D02*Y249000D01*
Y290185D02*Y282000D01*
X157850Y240815D02*Y247000D01*
X164150Y290185D02*Y284000D01*
G54D14*X144500Y249000D02*X138000Y242500D01*
G54D13*X136315Y249752D02*X132248D01*
X130500Y251500D01*
X269500Y443500D02*X244750D01*
G54D17*X228000Y453500D02*X269500D01*
G54D15*X224350Y533800D02*Y434150D01*
G54D13*X231950Y447400D02*Y453500D01*
X256500Y420500D02*X269500Y433500D01*
G54D15*X228000Y407500D02*X167500D01*
G54D12*X205650Y533800D02*Y447500D01*
G54D16*X208000Y415913D02*Y425000D01*
G54D13*X198000Y430087D02*Y504543D01*
Y504500D02*Y515500D01*
G54D12*X205650Y447500D02*Y443000D01*
G54D13*X198000Y515500D02*X181543Y531957D01*
G54D15*X224350Y434150D02*X246000Y412500D01*
G54D13*X160500Y405000D02*X227000D01*
X156000Y403000D02*X226000D01*
X138000Y401000D02*X225000D01*
X92000Y399000D02*X224000D01*
X88500Y397000D02*X223000D01*
X85500Y395000D02*X222000D01*
X83000Y393000D02*X221000D01*
X82000Y391000D02*X220000D01*
X81000Y389000D02*X219000D01*
X80000Y387000D02*X218000D01*
X79000Y385000D02*X217000D01*
X78000Y383000D02*X216000D01*
X227000Y405000D02*X241000Y391000D01*
X226000Y403000D02*X239000Y390000D01*
X225000Y401000D02*X237000Y389000D01*
X229000Y385000D02*X221000Y393000D01*
X227000Y384000D02*X220000Y391000D01*
X225000Y383000D02*X219000Y389000D01*
X218000Y387000D02*X223000Y382000D01*
X217000Y385000D02*X221000Y381000D01*
X219000Y380000D02*X216000Y383000D01*
X223000Y397000D02*X233000Y387000D01*
X222000Y395000D02*X231000Y386000D01*
X235000Y388000D02*X224000Y399000D01*
X222000Y395000D02*X222250Y394750D01*
G54D15*X243500Y392000D02*X228000Y407500D01*
G54D13*X186299Y476063D02*X151937D01*
X123063D02*X99685D01*
X151937D02*X139075Y488925D01*
G54D15*X164500Y460000D02*Y410500D01*
X167500Y407500D01*
G54D12*X112000Y460000D02*Y448500D01*
X107000Y443500D01*
G54D16*X108500Y425600D02*Y407600D01*
G54D13*X139075Y488925D02*Y494152D01*
X135925Y500848D02*Y517575D01*
X139075D02*Y500848D01*
X123063Y476063D02*X135925Y488925D01*
Y494152D02*Y488925D01*
G54D12*X73000Y523000D02*X112000D01*
G54D13*X135925Y517575D02*X114500Y539000D01*
X100543D01*
X139075Y517575D02*X160500Y539000D01*
X122000Y535000D02*X153000D01*
X160500Y539000D02*X174457D01*
X181543Y543457D02*X179000Y546000D01*
X164000D02*X179000D01*
X164000D02*X153000Y535000D01*
X181543Y543457D02*Y531957D01*
X93457Y539000D02*Y543457D01*
X96000Y546000D01*
X111000D01*
X122000Y535000D01*
G54D18*X33000Y456457D02*Y444200D01*
X5500Y463500D02*X33000D01*
G54D13*X47500Y413500D02*X5500D01*
Y433500D02*X12000D01*
X20000Y425500D01*
X21500Y427500D02*X5500Y443500D01*
Y423500D02*X40500D01*
X20000Y425500D02*X41500D01*
X42500Y427500D02*X21500D01*
X43500Y429500D02*X35600D01*
X29100Y436000D01*
X127500Y411500D02*Y431500D01*
X129652Y433652D01*
X132776D01*
G54D15*X128700Y437000D02*X112400Y420700D01*
X147500Y431500D02*X145348Y433652D01*
X142224D01*
G54D13*X132776Y440348D02*X151152D01*
X157500Y434000D01*
G54D15*X142224Y433652D02*Y436276D01*
X141500Y437000D01*
X128700D01*
X147500Y431500D02*Y411500D01*
G54D13*X157500Y434000D02*Y408000D01*
X147500Y411500D02*X156000Y403000D01*
X157500Y408000D02*X160500Y405000D01*
X40500Y423500D02*X79000Y385000D01*
X41500Y425500D02*X80000Y387000D01*
X81000Y389000D02*X42500Y427500D01*
X82000Y391000D02*X43500Y429500D01*
X67000Y420500D02*Y409000D01*
X5500Y393500D02*X10000D01*
X11500Y392000D01*
X5500Y403500D02*X11500D01*
X13500Y401500D01*
X83000Y393000D02*X67000Y409000D01*
X78000Y383000D02*X47500Y413500D01*
G54D14*X60500Y394000D02*X53000Y386500D01*
Y351000D01*
G54D12*X30600Y375100D02*X56000Y400500D01*
G54D13*X99685Y507559D02*X85059D01*
G54D14*X79500Y515500D02*X93500D01*
G54D12*X73000Y523000D02*X57000Y507000D01*
G54D13*X85059Y507559D02*X79000Y501500D01*
X88701Y499685D02*X83185D01*
X81500Y498000D01*
X88701Y452441D02*Y402299D01*
X92000Y399000D01*
X81500Y404000D02*X88500Y397000D01*
X79000Y401500D02*X85500Y395000D01*
G54D12*X93500Y412500D02*X104600D01*
X93500Y420500D02*X104600D01*
G54D13*X81500Y498000D02*Y404000D01*
X79000Y501500D02*Y401500D01*
G54D14*X74000Y407500D02*Y510000D01*
X79500Y515500D01*
G54D12*X57000Y507000D02*Y430500D01*
X67000Y420500D01*
G54D13*X185685Y256051D02*X201500D01*
X185685Y259200D02*X202800D01*
X204500Y257500D01*
X185685Y262350D02*X203500D01*
X173598Y240815D02*Y235902D01*
X175000Y234500D01*
X201000D01*
Y239000D02*X176748D01*
X185685Y249752D02*X201500D01*
X185685Y252901D02*X198500D01*
G54D15*X246350Y238200D02*Y261800D01*
G54D13*X233500Y265000D02*Y230500D01*
X259000Y195000D02*X181000D01*
X175500Y225500D02*X201500D01*
X204500Y228500D01*
X173000Y230000D02*X201000D01*
X204500Y228500D02*Y257500D01*
G54D15*X210000Y256051D02*Y223500D01*
G54D13*X206000Y281000D02*X185685D01*
X221000Y252500D02*X222500Y251000D01*
Y242000D01*
X219500Y239000D01*
X223000Y255401D02*X225500Y252901D01*
X170449Y290185D02*Y294449D01*
X172000Y296000D01*
Y300000D01*
X173599Y290185D02*Y294099D01*
X176500Y297000D01*
Y300000D01*
X176748Y290185D02*X187185D01*
X185685Y274948D02*X201552D01*
X185685Y271799D02*X199201D01*
X202000Y269000D01*
X187185Y290185D02*X189500Y292500D01*
X200500Y293000D02*Y309500D01*
X197000Y309000D02*Y296500D01*
X193500Y300000D02*Y308500D01*
X205500Y298500D02*Y293000D01*
X167300Y290185D02*Y293800D01*
G54D15*X164150Y290185D02*Y298650D01*
X169543Y304043D01*
Y316500D01*
G54D13*X167300Y293800D02*X168000Y294500D01*
Y297000D01*
X210500Y303500D02*X205500Y298500D01*
G54D15*X234500Y297100D02*Y291500D01*
G54D16*X229600Y301000D02*X247600D01*
G54D15*X239500Y290500D02*X242700Y293700D01*
Y297100D01*
G54D13*X226500Y276000D02*Y297500D01*
X225500Y298500D01*
Y303000D01*
X227400Y304900D01*
X234500D01*
X264500Y388500D02*Y200500D01*
X259000Y195000D01*
X261000Y383500D02*Y275000D01*
X258500Y272500D01*
X233500D02*X258500D01*
X231500Y277000D02*X252500D01*
X256500Y281000D01*
X237500D02*X248000D01*
X232500Y284000D02*X234500Y286000D01*
X247000D01*
X249500Y312000D02*X251000Y310500D01*
Y290000D01*
G54D15*X246000Y319500D02*X242700Y316200D01*
Y304900D01*
G54D13*X269500Y393500D02*X264500Y388500D01*
X256500Y281000D02*Y420500D01*
X248000Y281000D02*X253000Y286000D01*
Y413500D01*
X249500Y312000D02*Y403500D01*
G54D15*X246000Y319500D02*Y412500D01*
G54D13*X241000Y323000D02*Y391000D01*
X239000Y390000D02*Y324000D01*
X237000Y325000D02*Y389000D01*
X235000Y388000D02*Y327500D01*
X233000Y387000D02*Y330000D01*
X231000Y386000D02*Y331000D01*
X229000Y332000D02*Y385000D01*
X227000Y384000D02*Y333000D01*
G54D15*X243500Y322000D02*Y392000D01*
G54D13*X221000Y306000D02*Y252500D01*
X219000Y249752D02*Y307000D01*
X225000Y334000D02*Y383000D01*
X223000Y382000D02*Y335000D01*
X221000Y336000D02*Y381000D01*
X219000Y380000D02*Y337000D01*
X227000Y333000D02*X206500Y312500D01*
X200500Y309500D02*X225000Y334000D01*
X223000Y335000D02*X197000Y309000D01*
X193500Y308500D02*X221000Y336000D01*
X219000Y337000D02*X189500Y307500D01*
X206500Y312500D02*Y307000D01*
X189500Y307500D02*Y292500D01*
X220000Y312500D02*X235000Y327500D01*
X233000Y330000D02*X216000Y313000D01*
X231000Y331000D02*X213500Y313500D01*
X210500D02*X229000Y332000D01*
G54D15*X234500Y313000D02*Y304900D01*
G54D13*X210500Y313500D02*Y303500D01*
X216000Y313000D02*Y254500D01*
X223000Y255401D02*Y305000D01*
G54D15*X210000Y256051D02*Y291500D01*
X243500Y322000D02*X234500Y313000D01*
G54D13*X239000Y324000D02*X221000Y306000D01*
X219000Y307000D02*X237000Y325000D01*
X223000Y305000D02*X241000Y323000D01*
X213500Y230000D02*Y313500D01*
X92500Y214500D02*X12000D01*
X91500Y216500D02*X11000D01*
X19500Y222500D02*X88500D01*
X14000Y210500D02*X11000Y207500D01*
X13000Y212500D02*X9000Y208500D01*
X12000Y214500D02*X7000Y209500D01*
X11000Y216500D02*X5000Y210500D01*
G54D14*X99000Y242500D02*Y305000D01*
X53000Y351000D01*
G54D13*X78000Y317000D02*X58000D01*
X81500Y313500D02*X60500D01*
X5500Y383500D02*Y228500D01*
X11500Y392000D02*Y227500D01*
X13500Y401500D02*Y228500D01*
G54D12*X30600Y375100D02*Y269700D01*
G54D13*X48500Y284500D02*Y301500D01*
X58000Y317000D02*X43000Y302000D01*
Y278500D01*
X48500Y301500D02*X60500Y313500D01*
X127500Y411500D02*X138000Y401000D01*
G54D15*X112400Y412500D02*X127500D01*
G54D13*X126000Y317000D02*X96500D01*
X125000Y313500D02*X100000D01*
X141000Y292000D02*X145252D01*
X148402Y290185D02*Y296000D01*
X151552Y290185D02*Y297448D01*
G54D15*X157851Y290185D02*Y301149D01*
X155500Y303500D01*
Y307500D01*
X161000Y290185D02*Y307500D01*
G54D13*X154701Y290185D02*Y298799D01*
X151552Y297448D02*X149500Y299500D01*
X154701Y298799D02*X151000Y302500D01*
X149500Y299500D02*X139000D01*
X151000Y302500D02*X140500D01*
X125000Y313500D02*X139000Y299500D01*
X126000Y317000D02*X140500Y302500D01*
G54D19*X269500Y383500D03*
Y393500D03*
Y403500D03*
Y413500D03*
Y423500D03*
Y433500D03*
Y443500D03*
Y453500D03*
Y463500D03*
X5500Y413500D03*
Y423500D03*
Y433500D03*
Y443500D03*
Y383500D03*
Y393500D03*
Y403500D03*
G54D20*X74000Y366000D03*
G54D19*X5500Y453500D03*
Y463500D03*
G54D20*X27500Y112500D03*
X30000Y165000D03*
G54D11*G36*
X27600Y298000D02*Y292000D01*
X33600D01*
Y298000D01*
X27600D01*
G37*
G54D19*X30600Y236000D03*
G54D21*X49428Y83316D03*
X69999Y90000D03*
G54D20*X27500Y487000D03*
X247500Y112500D03*
X157000Y165000D03*
G54D21*X204999Y90000D03*
X205001Y20000D03*
X225572Y83316D03*
X238287Y65815D03*
Y44184D03*
X225572Y26684D03*
G54D22*X216500Y163000D03*
G54D23*X226343Y200000D03*
X216500D03*
X206657D03*
G54D24*X236185Y212992D03*
X196815D03*
G54D25*X227650Y238200D03*
Y261800D03*
X246350Y238200D03*
Y261800D03*
G54D20*X201000Y366000D03*
X247500Y487000D03*
G54D25*X205650Y510200D03*
Y533800D03*
X224350Y510200D03*
Y533800D03*
G54D11*G36*
X124500Y424500D02*Y418500D01*
X130500D01*
Y424500D01*
X124500D01*
G37*
G54D19*X137500Y421500D03*
X147500D03*
G54D11*G36*
X124500Y414500D02*Y408500D01*
X130500D01*
Y414500D01*
X124500D01*
G37*
G54D19*X137500Y411500D03*
X147500D03*
G54D23*X112000Y513157D03*
G54D24*X124992Y503315D03*
G54D23*X112000Y523000D03*
Y532843D03*
G54D24*X124992Y542685D03*
G54D11*G36*
X100500Y112500D02*Y106500D01*
X106500D01*
Y112500D01*
X100500D01*
G37*
G54D19*X93500Y109500D03*
X83500D03*
G54D11*G36*
X100500Y122500D02*Y116500D01*
X106500D01*
Y122500D01*
X100500D01*
G37*
G54D19*X93500Y119500D03*
X83500D03*
G54D21*X184428Y83316D03*
Y26684D03*
X171713Y44185D03*
Y65816D03*
X90572Y83316D03*
X103287Y65815D03*
X36713Y65816D03*
X103287Y44184D03*
X36713Y44185D03*
G54D26*X137500Y47300D03*
G54D21*X90572Y26684D03*
X70001Y20000D03*
X49428Y26684D03*
G54D27*X137500Y18500D03*
G54D26*Y35500D03*
G54D28*X154700Y243028D02*Y238602D01*
X157850Y243028D02*Y238602D01*
X161000Y243028D02*Y238602D01*
X164149Y243028D02*Y238602D01*
X145252Y243028D02*Y238602D01*
X148401Y243028D02*Y238602D01*
X151551Y243028D02*Y238602D01*
G54D29*X128607Y242543D02*X129393D01*
G54D28*X167299Y243028D02*Y238602D01*
G54D29*X83043Y230893D02*Y230107D01*
X75957Y230893D02*Y230107D01*
Y240893D02*Y240107D01*
X128607Y235457D02*X129393D01*
X75957Y250893D02*Y250107D01*
X83043Y250893D02*Y250107D01*
Y240893D02*Y240107D01*
X64607Y247043D02*X65393D01*
X64607Y260957D02*X65393D01*
X64607Y239957D02*X65393D01*
G54D30*X75547Y261744D02*Y259972D01*
X77516Y261744D02*Y259972D01*
X79484Y261744D02*Y259972D01*
X81453Y261744D02*Y259972D01*
G54D31*X75547Y264500D02*X81453D01*
G54D32*X75370D02*X81630D01*
G54D30*X81453Y269028D02*Y267256D01*
G54D33*X79100Y277800D02*X84700D01*
G54D11*G36*
X77956Y278950D02*X83550Y284544D01*
X85671Y282423D01*
X80077Y276829D01*
X77956Y278950D01*
G37*
G36*
X81550Y280950D02*Y276950D01*
X85550D01*
Y280950D01*
X81550D01*
G37*
G54D30*X79484Y269028D02*Y267256D01*
X77516Y269028D02*Y267256D01*
X75547Y269028D02*Y267256D01*
G54D29*X64607Y268043D02*X65393D01*
G54D33*X63300Y299200D02*Y277800D01*
X68900D01*
G54D11*G36*
X64450Y284544D02*X70044Y278950D01*
X67923Y276829D01*
X62329Y282423D01*
X64450Y284544D01*
G37*
G36*
X62450Y280950D02*Y276950D01*
X66450D01*
Y280950D01*
X62450D01*
G37*
G36*
X80077Y300171D02*X85671Y294577D01*
X83550Y292456D01*
X77956Y298050D01*
X80077Y300171D01*
G37*
G54D29*X162457Y316893D02*Y316107D01*
X155457Y307893D02*Y307107D01*
X162543Y307893D02*Y307107D01*
G54D33*X63300Y299200D02*X68900D01*
G54D11*G36*
X62329Y294577D02*X67923Y300171D01*
X70044Y298050D01*
X64450Y292456D01*
X62329Y294577D01*
G37*
G36*
X62450Y300050D02*Y296050D01*
X66450D01*
Y300050D01*
X62450D01*
G37*
G54D33*X84700Y299200D02*Y277800D01*
X79100Y299200D02*X84700D01*
G54D11*G36*
X81550Y300050D02*Y296050D01*
X85550D01*
Y300050D01*
X81550D01*
G37*
G54D34*X65276Y52587D02*Y50717D01*
Y59283D02*Y57413D01*
X68425Y52587D02*Y50717D01*
Y59283D02*Y57413D01*
X71575Y52587D02*Y50717D01*
X74724Y52587D02*Y50717D01*
Y59283D02*Y57413D01*
X71575Y59283D02*Y57413D01*
G54D35*X71700Y137600D02*X73300D01*
X63500D02*X65100D01*
X71700Y141500D02*X73300D01*
X63500D02*X65100D01*
X71700Y145400D02*X73300D01*
X63500D02*X65100D01*
G54D34*X132776Y62587D02*Y60717D01*
Y69283D02*Y67413D01*
X135925Y62587D02*Y60717D01*
Y69283D02*Y67413D01*
X139075Y62587D02*Y60717D01*
X142224Y62587D02*Y60717D01*
Y69283D02*Y67413D01*
X139075Y69283D02*Y67413D01*
G54D36*X165000Y123004D02*Y113516D01*
Y140484D02*Y130996D01*
G54D29*X139457Y122393D02*Y121607D01*
X146543Y122393D02*Y121607D01*
X139457Y132393D02*Y131607D01*
X146543Y132393D02*Y131607D01*
G54D34*X116776Y137587D02*Y135717D01*
Y144283D02*Y142413D01*
X119925Y137587D02*Y135717D01*
X123075Y137587D02*Y135717D01*
X126224Y137587D02*Y135717D01*
Y144283D02*Y142413D01*
X123075Y144283D02*Y142413D01*
X119925Y144283D02*Y142413D01*
G54D28*X170448Y243028D02*Y238602D01*
X173598Y243028D02*Y238602D01*
X176748Y243028D02*Y238602D01*
X183472Y249752D02*X187898D01*
G54D29*X179906Y220528D02*X182661D01*
X179906Y211472D02*X182661D01*
X168457Y201393D02*Y200607D01*
X165339Y220528D02*X168094D01*
X165339Y211472D02*X168094D01*
X175543Y201393D02*Y200607D01*
G54D36*X175000Y123004D02*Y113516D01*
X185000Y123004D02*Y113516D01*
Y140484D02*Y130996D01*
X175000Y140484D02*Y130996D01*
G54D28*X183472Y252901D02*X187898D01*
X183472Y256051D02*X187898D01*
X183472Y259200D02*X187898D01*
X183472Y262350D02*X187898D01*
X183472Y265500D02*X187898D01*
X183472Y268649D02*X187898D01*
X183472Y271799D02*X187898D01*
X183472Y274948D02*X187898D01*
X183472Y278098D02*X187898D01*
X183472Y281248D02*X187898D01*
G54D29*X193543Y201393D02*Y200607D01*
X186457Y201393D02*Y200607D01*
G54D28*X176748Y292398D02*Y287972D01*
X173599Y292398D02*Y287972D01*
X170449Y292398D02*Y287972D01*
X167300Y292398D02*Y287972D01*
X164150Y292398D02*Y287972D01*
X161000Y292398D02*Y287972D01*
X157851Y292398D02*Y287972D01*
G54D29*X169543Y316893D02*Y316107D01*
G54D35*X233700Y304900D02*X235300D01*
X241900D02*X243500D01*
X233700Y301000D02*X235300D01*
X233700Y297100D02*X235300D01*
X241900D02*X243500D01*
X241900Y301000D02*X243500D01*
G54D28*X154701Y292398D02*Y287972D01*
X151552Y292398D02*Y287972D01*
X148402Y292398D02*Y287972D01*
X145252Y292398D02*Y287972D01*
X134102Y281248D02*X138528D01*
X134102Y278099D02*X138528D01*
X134102Y274949D02*X138528D01*
X134102Y271800D02*X138528D01*
X134102Y268650D02*X138528D01*
X134102Y265500D02*X138528D01*
X134102Y262351D02*X138528D01*
X134102Y259201D02*X138528D01*
X134102Y256052D02*X138528D01*
X134102Y252902D02*X138528D01*
X134102Y249752D02*X138528D01*
G54D34*X132776Y434587D02*Y432717D01*
X135925Y434587D02*Y432717D01*
X139075Y434587D02*Y432717D01*
X142224Y434587D02*Y432717D01*
Y441283D02*Y439413D01*
X139075Y441283D02*Y439413D01*
X135925Y441283D02*Y439413D01*
X132776Y441283D02*Y439413D01*
G54D37*X231950Y447401D02*Y447400D01*
G54D38*X172559Y452441D02*X178071D01*
X183543Y444567D02*X189055D01*
X183543Y460315D02*X189055D01*
G54D37*X231950Y439600D02*Y439599D01*
G54D36*X198000Y433413D02*Y426760D01*
X208000Y419240D02*Y412587D01*
X218000Y433413D02*Y426760D01*
X228000Y419240D02*Y412587D01*
G54D39*X244750Y443500D02*Y443499D01*
G54D34*X200276Y52587D02*Y50717D01*
Y59283D02*Y57413D01*
X203425Y52587D02*Y50717D01*
Y59283D02*Y57413D01*
X206575Y52587D02*Y50717D01*
X209724Y52587D02*Y50717D01*
Y59283D02*Y57413D01*
X206575Y59283D02*Y57413D01*
G54D19*X216500Y179250D03*
X205010Y174490D03*
X227990D03*
X216500Y146750D03*
X205010Y151510D03*
X227990D03*
X200250Y163000D03*
X232750D03*
G54D29*X73543Y467893D02*Y467107D01*
Y477893D02*Y477107D01*
X66457Y467893D02*Y467107D01*
Y477893D02*Y477107D01*
G54D38*X85945Y499685D02*X91457D01*
X85945Y483937D02*X91457D01*
X85945Y468189D02*X91457D01*
G54D29*X93457Y539393D02*Y538607D01*
X100543Y539393D02*Y538607D01*
G54D38*X85945Y515433D02*X91457D01*
X96929Y476063D02*X102441D01*
X96929Y491811D02*X102441D01*
X96929Y507559D02*X102441D01*
G54D34*X135925Y495087D02*Y493217D01*
X139075Y495087D02*Y493217D01*
Y501783D02*Y499913D01*
X135925Y501783D02*Y499913D01*
G54D29*X181543Y539393D02*Y538607D01*
X174457Y539393D02*Y538607D01*
G54D38*X172559Y515433D02*X178071D01*
X172559Y499685D02*X178071D01*
X172559Y483937D02*X178071D01*
X172559Y468189D02*X178071D01*
X183543Y476063D02*X189055D01*
X183543Y491811D02*X189055D01*
X183543Y507559D02*X189055D01*
G54D35*X30600Y262300D02*Y260700D01*
Y270500D02*Y268900D01*
X34500Y262300D02*Y260700D01*
Y270500D02*Y268900D01*
X38400Y262300D02*Y260700D01*
Y270500D02*Y268900D01*
G54D29*X36457Y248893D02*Y248107D01*
X43543Y248893D02*Y248107D01*
G54D40*X29100Y436300D02*Y435700D01*
X36900Y436300D02*Y435700D01*
X33000Y444500D02*Y443900D01*
G54D29*X32607Y456457D02*X33393D01*
X32607Y463543D02*X33393D01*
G54D38*X85945Y452441D02*X91457D01*
X96929Y444567D02*X102441D01*
X96929Y460315D02*X102441D01*
G54D35*X104600Y413300D02*Y411700D01*
X108500Y413300D02*Y411700D01*
X112400Y413300D02*Y411700D01*
Y421500D02*Y419900D01*
X108500Y421500D02*Y419900D01*
X104600Y421500D02*Y419900D01*
G54D41*X177500Y268649D03*
X161000Y282000D03*
X172000Y300000D03*
X176500D03*
X168000Y297000D03*
X141000Y292000D03*
X148402Y296000D03*
X145252Y219000D03*
X134500Y231000D03*
X142000Y222000D03*
X133000Y221000D03*
X139000Y231000D03*
X130500Y251500D03*
X181000Y195000D03*
X201000Y230000D03*
Y234500D03*
X213500Y230000D03*
X201000Y239000D03*
X216500Y234500D03*
X219500Y239000D03*
X219000Y249752D03*
X225500Y252901D03*
X201500Y249752D03*
X198500Y252901D03*
X203500Y262350D03*
X190500Y135740D03*
X175000Y146000D03*
X176500Y206500D03*
X185500Y156500D03*
X202000Y269000D03*
X206000Y281000D03*
X206500Y275500D03*
X201552Y274948D03*
X233500Y272500D03*
X231500Y277000D03*
X237500Y281000D03*
X232500Y284000D03*
X239500Y290500D03*
X234500Y291500D03*
X238600Y301000D03*
X247600D03*
X229600D03*
X220000Y312500D03*
X242700Y316200D03*
X200500Y293000D03*
X197000Y296500D03*
X193500Y300000D03*
X206500Y307000D03*
X205500Y293000D03*
X210000Y291500D03*
X226500Y276000D03*
X227000Y271500D03*
X157850Y215000D03*
Y191500D03*
X185500Y206500D03*
X181000Y201500D03*
Y206500D03*
X248500Y185000D03*
X245000Y198500D03*
Y188500D03*
X240000Y198500D03*
Y190500D03*
X161000Y249000D03*
X151500Y222000D03*
X175500Y225500D03*
X129500Y256052D03*
X201500Y256051D03*
X210000D03*
X129500Y260500D03*
Y265000D03*
X144500Y265500D03*
X134500Y235500D03*
X139000D03*
X97500Y440000D03*
X102500D03*
X97500Y435500D03*
X102500D03*
X107500Y440000D03*
Y435500D03*
X93500Y412500D03*
X67000Y420500D03*
X93500D03*
X42000Y433500D03*
Y438000D03*
X261000Y383500D03*
X249500Y403500D03*
X253000Y413500D03*
X232500Y453500D03*
X232000Y434000D03*
X236500D03*
X205650Y447500D03*
Y443000D03*
X208000Y425000D03*
X228000Y453500D03*
X164500Y460000D03*
X74000Y407500D03*
X56000Y400500D03*
X60500Y394000D03*
X74000Y412000D03*
X57000Y390500D03*
X112000Y460000D03*
X108500Y407600D03*
Y425600D03*
Y416600D03*
X63000Y435000D03*
X66500Y438000D03*
Y444000D03*
X63000Y441000D03*
Y447000D03*
X71575Y45500D03*
X206575D03*
X172000Y90000D03*
X179500Y97500D03*
X49500Y133000D03*
Y143500D03*
X54500Y131000D03*
X152000Y124500D03*
Y119500D03*
X54500Y140500D03*
X44500Y134500D03*
Y146500D03*
X59400Y141500D03*
X68000Y254000D03*
X64500Y256000D03*
Y252000D03*
X71000Y230500D03*
X67000D03*
X87000Y268500D03*
Y260500D03*
Y264500D03*
X104500Y248000D03*
X113500D03*
Y224500D03*
X118000Y248000D03*
Y227500D03*
X43000Y271700D03*
Y267000D03*
X48500Y284500D03*
Y272500D03*
X109000Y248000D03*
X111124Y143348D03*
X109000Y221500D03*
X104500Y218500D03*
X77400Y141500D03*
X68400D03*
X78000Y317000D03*
X96500D03*
X81500Y313500D03*
X100000D03*
G54D12*G54D42*G54D43*G54D42*G54D43*G54D17*G54D44*G54D43*G54D44*G54D45*G54D46*G54D47*G54D16*G54D43*G54D16*G54D17*G54D46*G54D47*G54D46*G54D47*G54D17*G54D44*G54D17*G54D44*G54D48*G54D17*M02*
