G04 start of page 10 for group -4015 idx -4015 *
G04 Title: (unknown), toppaste *
G04 Creator: pcb 20110918 *
G04 CreationDate: Tue 28 Jun 2016 03:12:40 AM GMT UTC *
G04 For: railfan *
G04 Format: Gerber/RS-274X *
G04 PCB-Dimensions: 275000 550000 *
G04 PCB-Coordinate-Origin: lower left *
%MOIN*%
%FSLAX25Y25*%
%LNTOPPASTE*%
%ADD121R,0.0500X0.0500*%
%ADD120R,0.0787X0.0787*%
%ADD119R,0.0340X0.0340*%
%ADD118C,0.0001*%
%ADD117R,0.0230X0.0230*%
%ADD116R,0.0197X0.0197*%
%ADD115R,0.0098X0.0098*%
%ADD114R,0.0512X0.0512*%
%ADD113R,0.0350X0.0350*%
%ADD112R,0.0630X0.0630*%
%ADD111R,0.0470X0.0470*%
%ADD110R,0.0240X0.0240*%
%ADD109R,0.0167X0.0167*%
%ADD108R,0.0157X0.0157*%
G54D108*X145252Y243028D02*Y238602D01*
X148401Y243028D02*Y238602D01*
X151551Y243028D02*Y238602D01*
X154700Y243028D02*Y238602D01*
X157850Y243028D02*Y238602D01*
X161000Y243028D02*Y238602D01*
X164149Y243028D02*Y238602D01*
X167299Y243028D02*Y238602D01*
X170448Y243028D02*Y238602D01*
X173598Y243028D02*Y238602D01*
X176748Y243028D02*Y238602D01*
X183472Y249752D02*X187898D01*
X183472Y252901D02*X187898D01*
X183472Y256051D02*X187898D01*
X183472Y259200D02*X187898D01*
X183472Y262350D02*X187898D01*
X183472Y265500D02*X187898D01*
X183472Y268649D02*X187898D01*
X183472Y271799D02*X187898D01*
X183472Y274948D02*X187898D01*
X183472Y278098D02*X187898D01*
X183472Y281248D02*X187898D01*
X176748Y292398D02*Y287972D01*
X173599Y292398D02*Y287972D01*
X170449Y292398D02*Y287972D01*
X167300Y292398D02*Y287972D01*
X164150Y292398D02*Y287972D01*
X161000Y292398D02*Y287972D01*
X157851Y292398D02*Y287972D01*
X154701Y292398D02*Y287972D01*
X151552Y292398D02*Y287972D01*
X148402Y292398D02*Y287972D01*
X145252Y292398D02*Y287972D01*
X134102Y281248D02*X138528D01*
X134102Y278099D02*X138528D01*
X134102Y274949D02*X138528D01*
X134102Y271800D02*X138528D01*
X134102Y268650D02*X138528D01*
X134102Y265500D02*X138528D01*
X134102Y262351D02*X138528D01*
X134102Y259201D02*X138528D01*
X134102Y256052D02*X138528D01*
X134102Y252902D02*X138528D01*
X134102Y249752D02*X138528D01*
G54D109*X132776Y434587D02*Y432717D01*
X135925Y434587D02*Y432717D01*
X139075Y434587D02*Y432717D01*
X142224Y434587D02*Y432717D01*
Y441283D02*Y439413D01*
X139075Y441283D02*Y439413D01*
X135925Y441283D02*Y439413D01*
X132776Y441283D02*Y439413D01*
G54D110*X104600Y413300D02*Y411700D01*
X108500Y413300D02*Y411700D01*
X112400Y413300D02*Y411700D01*
Y421500D02*Y419900D01*
X108500Y421500D02*Y419900D01*
X104600Y421500D02*Y419900D01*
G54D111*X231950Y447401D02*Y447400D01*
Y439600D02*Y439599D01*
G54D112*X244750Y443500D02*Y443499D01*
G54D113*X85945Y515433D02*X91457D01*
X85945Y499685D02*X91457D01*
X85945Y483937D02*X91457D01*
X85945Y468189D02*X91457D01*
X85945Y452441D02*X91457D01*
X96929Y444567D02*X102441D01*
X96929Y460315D02*X102441D01*
X96929Y476063D02*X102441D01*
X96929Y491811D02*X102441D01*
X96929Y507559D02*X102441D01*
X172559Y515433D02*X178071D01*
X172559Y499685D02*X178071D01*
X172559Y483937D02*X178071D01*
X172559Y468189D02*X178071D01*
X172559Y452441D02*X178071D01*
X183543Y444567D02*X189055D01*
X183543Y460315D02*X189055D01*
X183543Y476063D02*X189055D01*
X183543Y491811D02*X189055D01*
X183543Y507559D02*X189055D01*
G54D109*X65276Y52587D02*Y50717D01*
X68425Y52587D02*Y50717D01*
X71575Y52587D02*Y50717D01*
X74724Y52587D02*Y50717D01*
Y59283D02*Y57413D01*
X71575Y59283D02*Y57413D01*
X68425Y59283D02*Y57413D01*
X65276Y59283D02*Y57413D01*
X200276Y52587D02*Y50717D01*
X203425Y52587D02*Y50717D01*
X206575Y52587D02*Y50717D01*
X209724Y52587D02*Y50717D01*
Y59283D02*Y57413D01*
X206575Y59283D02*Y57413D01*
X203425Y59283D02*Y57413D01*
X200276Y59283D02*Y57413D01*
X88776Y131587D02*Y129717D01*
X91925Y131587D02*Y129717D01*
X95075Y131587D02*Y129717D01*
X98224Y131587D02*Y129717D01*
Y138283D02*Y136413D01*
X95075Y138283D02*Y136413D01*
X91925Y138283D02*Y136413D01*
X88776Y138283D02*Y136413D01*
G54D110*X30600Y262300D02*Y260700D01*
X34500Y262300D02*Y260700D01*
X38400Y262300D02*Y260700D01*
Y270500D02*Y268900D01*
X34500Y270500D02*Y268900D01*
X30600Y270500D02*Y268900D01*
G54D114*X49607Y269043D02*X50393D01*
X49607Y261957D02*X50393D01*
X75957Y250893D02*Y250107D01*
X83043Y250893D02*Y250107D01*
Y230893D02*Y230107D01*
X75957Y230893D02*Y230107D01*
X83043Y240893D02*Y240107D01*
X75957Y240893D02*Y240107D01*
X64607Y247043D02*X65393D01*
X64607Y239957D02*X65393D01*
G54D115*X75547Y261744D02*Y259972D01*
X77516Y261744D02*Y259972D01*
X79484Y261744D02*Y259972D01*
X81453Y261744D02*Y259972D01*
Y269028D02*Y267256D01*
X79484Y269028D02*Y267256D01*
X77516Y269028D02*Y267256D01*
X75547Y269028D02*Y267256D01*
G54D116*Y264500D02*X81453D01*
G54D114*X64607Y268043D02*X65393D01*
X64607Y260957D02*X65393D01*
G54D117*X63300Y299200D02*Y277800D01*
X68900D01*
X63300Y299200D02*X68900D01*
X84700D02*Y277800D01*
X79100D02*X84700D01*
X79100Y299200D02*X84700D01*
G54D118*G36*
X64450Y284544D02*X70044Y278950D01*
X67923Y276829D01*
X62329Y282423D01*
X64450Y284544D01*
G37*
G36*
X62329Y294577D02*X67923Y300171D01*
X70044Y298050D01*
X64450Y292456D01*
X62329Y294577D01*
G37*
G36*
X77956Y278950D02*X83550Y284544D01*
X85671Y282423D01*
X80077Y276829D01*
X77956Y278950D01*
G37*
G36*
X80077Y300171D02*X85671Y294577D01*
X83550Y292456D01*
X77956Y298050D01*
X80077Y300171D01*
G37*
G36*
X62650Y280750D02*Y277150D01*
X66250D01*
Y280750D01*
X62650D01*
G37*
G36*
Y299850D02*Y296250D01*
X66250D01*
Y299850D01*
X62650D01*
G37*
G36*
X81750Y280750D02*Y277150D01*
X85350D01*
Y280750D01*
X81750D01*
G37*
G36*
Y299850D02*Y296250D01*
X85350D01*
Y299850D01*
X81750D01*
G37*
G54D119*X29100Y436300D02*Y435700D01*
X36900Y436300D02*Y435700D01*
X33000Y444500D02*Y443900D01*
G54D114*X32607Y456457D02*X33393D01*
X32607Y463543D02*X33393D01*
G54D120*X216500Y188991D02*Y173243D01*
Y153557D02*Y137809D01*
G54D114*X197107Y176043D02*X197893D01*
X197107Y168957D02*X197893D01*
X197107Y150957D02*X197893D01*
X197107Y158043D02*X197893D01*
X128607Y242543D02*X129393D01*
X128607Y235457D02*X129393D01*
X163957Y306893D02*Y306107D01*
X171043Y306893D02*Y306107D01*
X163957Y315893D02*Y315107D01*
X171043Y315893D02*Y315107D01*
G54D109*X132776Y62587D02*Y60717D01*
X135925Y62587D02*Y60717D01*
X139075Y62587D02*Y60717D01*
X142224Y62587D02*Y60717D01*
Y69283D02*Y67413D01*
X139075Y69283D02*Y67413D01*
X135925Y69283D02*Y67413D01*
X132776Y69283D02*Y67413D01*
G54D114*X117457Y485893D02*Y485107D01*
X124543Y485893D02*Y485107D01*
X117457Y474893D02*Y474107D01*
X124543Y474893D02*Y474107D01*
G54D110*X75200Y137600D02*X76800D01*
X75200Y141500D02*X76800D01*
X75200Y145400D02*X76800D01*
X67000D02*X68600D01*
X67000Y141500D02*X68600D01*
X67000Y137600D02*X68600D01*
G54D121*X165000Y123004D02*Y113516D01*
X175000Y123004D02*Y113516D01*
X185000Y123004D02*Y113516D01*
Y140484D02*Y130996D01*
X175000Y140484D02*Y130996D01*
X165000Y140484D02*Y130996D01*
G54D114*X139457Y122393D02*Y121607D01*
X146543Y122393D02*Y121607D01*
X139457Y132393D02*Y131607D01*
X146543Y132393D02*Y131607D01*
G54D110*X231200Y304900D02*X232800D01*
X231200Y301000D02*X232800D01*
X231200Y297100D02*X232800D01*
X239400D02*X241000D01*
X239400Y301000D02*X241000D01*
X239400Y304900D02*X241000D01*
M02*
