M48
INCH
T73C0.020
T72C0.073
T71C0.087
T70C0.039
T69C0.040
T68C0.035
T67C0.129
T66C0.038
%
T73
X009750Y044000
X009750Y043550
X004300Y043600
X005065Y044750
X007400Y040750
X005650Y040000
X006700Y042050
X006050Y039400
X010250Y044000
X010250Y043550
X010750Y044000
X010750Y043550
X025300Y041350
X024950Y040350
X023200Y045350
X020565Y044750
X010850Y041650
X009350Y041250
X009350Y042050
X023195Y043350
X019750Y016350
X009822Y014300
X019050Y013574
X017500Y014600
X015300Y012200
X007158Y004550
X020658Y004550
X005100Y014650
X005600Y014350
X006100Y014050
X007200Y014150
X005100Y013100
X005600Y013100
X007600Y011450
X006100Y013100
X015785Y021500
X018400Y019500
X022850Y018800
X023350Y018800
X023350Y020000
X015785Y019150
X023800Y020000
X022500Y018250
X010600Y021050
X011050Y021350
X011500Y021650
X014525Y021900
X016100Y024900
X015150Y022200
X017050Y022650
X013450Y023550
X013450Y023100
X012950Y025605
X013050Y025150
X012950Y026050
X012350Y023550
X010600Y024800
X011050Y024800
X011500Y024800
X011950Y024800
X012350Y023100
X014200Y022200
X014200Y022650
X011950Y021950
X008700Y026850
X008700Y026050
X008700Y026450
X009400Y024850
X003450Y025600
X007100Y023050
X006700Y023050
X001700Y022400
X000800Y022400
X006800Y025400
X006450Y025600
X006450Y025200
X005400Y024850
X017750Y026865
X014450Y026550
X012950Y026500
X016100Y028200
X013650Y029600
X009950Y029100
X009950Y030450
X020150Y025605
X021000Y025605
X020150Y024975
X019850Y025290
X020350Y026235
X021300Y023000
X021600Y023450
X021900Y023900
X021900Y024975
X022550Y025290
X020100Y023000
X020100Y023450
X020100Y023900
X026100Y038350
X023250Y027250
X022650Y027600
X023150Y027700
X023250Y028200
X022750Y028400
X024050Y029150
X022000Y031250
X023600Y030100
X024020Y031300
X020350Y026850
X020700Y028100
X020700Y027550
X020050Y029300
X019700Y029650
X019350Y030000
X021000Y029300
X020650Y030700
X014840Y030350
X015470Y029950
X013950Y029950
X014350Y030350
X015155Y029600
X016730Y030000
X017200Y030000
X017650Y030000
X017650Y031300
X018100Y031300
X017650Y031750
X018100Y031750
T68
X020565Y051020
X020565Y053380
X022435Y051020
X022435Y053380
X005065Y051020
X005065Y053380
X006935Y051020
X006935Y053380
X022765Y023820
X022765Y026180
X024635Y023820
X024635Y026180
T66
X026950Y038350
X026950Y039350
X026950Y040350
X026950Y041350
X026950Y042350
X026950Y043350
X026950Y044350
X026950Y045350
X026950Y046350
X000550Y041350
X000550Y042350
X000550Y043350
X000550Y044350
X000550Y038350
X000550Y039350
X000550Y040350
X000550Y045350
X000550Y046350
T70
X022634Y020000
X021650Y020000
X020666Y020000
T69
X003060Y029500
X012750Y042150
X013750Y042150
X014750Y042150
X012750Y041150
X013750Y041150
X014750Y041150
X003060Y023600
X010350Y010950
X009350Y010950
X008350Y010950
X010350Y011950
X009350Y011950
X008350Y011950
T72
X004168Y003443
X003500Y005500
X004168Y007557
X005918Y002171
X005918Y008829
X008082Y008829
X009832Y007557
X019418Y008829
X021582Y008829
X023332Y007557
X024000Y005500
X023332Y003443
X021582Y002171
X019418Y002171
X010500Y005500
X017000Y005500
X017668Y007557
X009832Y003443
X008082Y002171
X017668Y003443
T71
X023618Y021299
X019682Y021299
T67
X020100Y036600
X024750Y048700
X007400Y036600
X002750Y048700
X015700Y016500
X002750Y011250
X003000Y016500
X024750Y011250
M30
