G04 start of page 12 for group -3984 idx -3984 *
G04 Title: (unknown), fab *
G04 Creator: pcb 20110918 *
G04 CreationDate: Tue 28 Jun 2016 03:12:40 AM GMT UTC *
G04 For: railfan *
G04 Format: Gerber/RS-274X *
G04 PCB-Dimensions: 275000 550000 *
G04 PCB-Coordinate-Origin: lower left *
%MOIN*%
%FSLAX25Y25*%
%LNFAB*%
%ADD128C,0.0050*%
%ADD127C,0.0040*%
%ADD126C,0.0100*%
%ADD125C,0.0075*%
%ADD124C,0.0060*%
%ADD123R,0.0080X0.0080*%
%ADD122C,0.0001*%
G54D122*G36*
X245100Y115466D02*X250466Y110100D01*
X249900Y109534D01*
X244534Y114900D01*
X245100Y115466D01*
G37*
G36*
X244534Y110100D02*X249900Y115466D01*
X250466Y114900D01*
X245100Y109534D01*
X244534Y110100D01*
G37*
G54D123*X245900Y114100D02*X249100D01*
X245900D02*Y110900D01*
X249100D01*
Y114100D02*Y110900D01*
G54D122*G36*
X25100Y115466D02*X30466Y110100D01*
X29900Y109534D01*
X24534Y114900D01*
X25100Y115466D01*
G37*
G36*
X24534Y110100D02*X29900Y115466D01*
X30466Y114900D01*
X25100Y109534D01*
X24534Y110100D01*
G37*
G54D123*X25900Y114100D02*X29100D01*
X25900D02*Y110900D01*
X29100D01*
Y114100D02*Y110900D01*
G54D122*G36*
X245100Y489966D02*X250466Y484600D01*
X249900Y484034D01*
X244534Y489400D01*
X245100Y489966D01*
G37*
G36*
X244534Y484600D02*X249900Y489966D01*
X250466Y489400D01*
X245100Y484034D01*
X244534Y484600D01*
G37*
G54D123*X245900Y488600D02*X249100D01*
X245900D02*Y485400D01*
X249100D01*
Y488600D02*Y485400D01*
G54D122*G36*
X25100Y489966D02*X30466Y484600D01*
X29900Y484034D01*
X24534Y489400D01*
X25100Y489966D01*
G37*
G36*
X24534Y484600D02*X29900Y489966D01*
X30466Y489400D01*
X25100Y484034D01*
X24534Y484600D01*
G37*
G54D123*X25900Y488600D02*X29100D01*
X25900D02*Y485400D01*
X29100D01*
Y488600D02*Y485400D01*
G54D122*G36*
X154600Y167966D02*X159966Y162600D01*
X159400Y162034D01*
X154034Y167400D01*
X154600Y167966D01*
G37*
G36*
X154034Y162600D02*X159400Y167966D01*
X159966Y167400D01*
X154600Y162034D01*
X154034Y162600D01*
G37*
G54D123*X155400Y166600D02*X158600D01*
X155400D02*Y163400D01*
X158600D01*
Y166600D02*Y163400D01*
G54D122*G36*
X27600Y167966D02*X32966Y162600D01*
X32400Y162034D01*
X27034Y167400D01*
X27600Y167966D01*
G37*
G36*
X27034Y162600D02*X32400Y167966D01*
X32966Y167400D01*
X27600Y162034D01*
X27034Y162600D01*
G37*
G54D123*X28400Y166600D02*X31600D01*
X28400D02*Y163400D01*
X31600D01*
Y166600D02*Y163400D01*
G54D122*G36*
X71600Y368966D02*X76966Y363600D01*
X76400Y363034D01*
X71034Y368400D01*
X71600Y368966D01*
G37*
G36*
X71034Y363600D02*X76400Y368966D01*
X76966Y368400D01*
X71600Y363034D01*
X71034Y363600D01*
G37*
G54D123*X72400Y367600D02*X75600D01*
X72400D02*Y364400D01*
X75600D01*
Y367600D02*Y364400D01*
G54D122*G36*
X198600Y368966D02*X203966Y363600D01*
X203400Y363034D01*
X198034Y368400D01*
X198600Y368966D01*
G37*
G36*
X198034Y363600D02*X203400Y368966D01*
X203966Y368400D01*
X198600Y363034D01*
X198034Y363600D01*
G37*
G54D123*X199400Y367600D02*X202600D01*
X199400D02*Y364400D01*
X202600D01*
Y367600D02*Y364400D01*
G54D122*G36*
X12600Y564216D02*X17966Y558850D01*
X17400Y558284D01*
X12034Y563650D01*
X12600Y564216D01*
G37*
G36*
X12034Y558850D02*X17400Y564216D01*
X17966Y563650D01*
X12600Y558284D01*
X12034Y558850D01*
G37*
G54D123*X13400Y562850D02*X16600D01*
X13400D02*Y559650D01*
X16600D01*
Y562850D02*Y559650D01*
G54D124*X135000Y563500D02*X136500Y560500D01*
X138000Y563500D01*
X136500Y560500D02*Y557500D01*
X139800Y560800D02*X142050D01*
X139800Y557500D02*X142800D01*
X139800Y563500D02*Y557500D01*
Y563500D02*X142800D01*
X147600D02*X148350Y562750D01*
X145350Y563500D02*X147600D01*
X144600Y562750D02*X145350Y563500D01*
X144600Y562750D02*Y561250D01*
X145350Y560500D01*
X147600D01*
X148350Y559750D01*
Y558250D01*
X147600Y557500D02*X148350Y558250D01*
X145350Y557500D02*X147600D01*
X144600Y558250D02*X145350Y557500D01*
X98000Y558250D02*X98750Y557500D01*
X98000Y559450D02*Y558250D01*
Y559450D02*X99050Y560500D01*
X99950D01*
X101000Y559450D01*
Y558250D01*
X100250Y557500D02*X101000Y558250D01*
X98750Y557500D02*X100250D01*
X98000Y561550D02*X99050Y560500D01*
X98000Y562750D02*Y561550D01*
Y562750D02*X98750Y563500D01*
X100250D01*
X101000Y562750D01*
Y561550D01*
X99950Y560500D02*X101000Y561550D01*
X45000Y558250D02*X45750Y557500D01*
X45000Y562750D02*Y558250D01*
Y562750D02*X45750Y563500D01*
X47250D01*
X48000Y562750D01*
Y558250D01*
X47250Y557500D02*X48000Y558250D01*
X45750Y557500D02*X47250D01*
X45000Y559000D02*X48000Y562000D01*
X49800Y557500D02*X50550D01*
X52350Y562300D02*X53550Y563500D01*
Y557500D01*
X52350D02*X54600D01*
X56400Y562750D02*X57150Y563500D01*
X59400D01*
X60150Y562750D01*
Y561250D01*
X56400Y557500D02*X60150Y561250D01*
X56400Y557500D02*X60150D01*
X62700D02*X64950Y560500D01*
Y562750D02*Y560500D01*
X64200Y563500D02*X64950Y562750D01*
X62700Y563500D02*X64200D01*
X61950Y562750D02*X62700Y563500D01*
X61950Y562750D02*Y561250D01*
X62700Y560500D01*
X64950D01*
X236185Y216192D02*Y209792D01*
X232985Y212992D02*X239385D01*
X234585Y214592D02*X237785D01*
X234585D02*Y211392D01*
X237785D01*
Y214592D02*Y211392D01*
X196815Y216192D02*Y209792D01*
X193615Y212992D02*X200015D01*
X195215Y214592D02*X198415D01*
X195215D02*Y211392D01*
X198415D01*
Y214592D02*Y211392D01*
X15000Y579450D02*Y573050D01*
X11800Y576250D02*X18200D01*
X13400Y577850D02*X16600D01*
X13400D02*Y574650D01*
X16600D01*
Y577850D02*Y574650D01*
X135000Y578500D02*X136500Y575500D01*
X138000Y578500D01*
X136500Y575500D02*Y572500D01*
X139800Y575800D02*X142050D01*
X139800Y572500D02*X142800D01*
X139800Y578500D02*Y572500D01*
Y578500D02*X142800D01*
X147600D02*X148350Y577750D01*
X145350Y578500D02*X147600D01*
X144600Y577750D02*X145350Y578500D01*
X144600Y577750D02*Y576250D01*
X145350Y575500D01*
X147600D01*
X148350Y574750D01*
Y573250D01*
X147600Y572500D02*X148350Y573250D01*
X145350Y572500D02*X147600D01*
X144600Y573250D02*X145350Y572500D01*
X98000Y577750D02*X98750Y578500D01*
X101000D01*
X101750Y577750D01*
Y576250D01*
X98000Y572500D02*X101750Y576250D01*
X98000Y572500D02*X101750D01*
X45000Y573250D02*X45750Y572500D01*
X45000Y577750D02*Y573250D01*
Y577750D02*X45750Y578500D01*
X47250D01*
X48000Y577750D01*
Y573250D01*
X47250Y572500D02*X48000Y573250D01*
X45750Y572500D02*X47250D01*
X45000Y574000D02*X48000Y577000D01*
X49800Y572500D02*X50550D01*
X52350Y573250D02*X53100Y572500D01*
X52350Y577750D02*Y573250D01*
Y577750D02*X53100Y578500D01*
X54600D01*
X55350Y577750D01*
Y573250D01*
X54600Y572500D02*X55350Y573250D01*
X53100Y572500D02*X54600D01*
X52350Y574000D02*X55350Y577000D01*
X57150Y573250D02*X57900Y572500D01*
X57150Y574450D02*Y573250D01*
Y574450D02*X58200Y575500D01*
X59100D01*
X60150Y574450D01*
Y573250D01*
X59400Y572500D02*X60150Y573250D01*
X57900Y572500D02*X59400D01*
X57150Y576550D02*X58200Y575500D01*
X57150Y577750D02*Y576550D01*
Y577750D02*X57900Y578500D01*
X59400D01*
X60150Y577750D01*
Y576550D01*
X59100Y575500D02*X60150Y576550D01*
X62700Y572500D02*X65700Y578500D01*
X61950D02*X65700D01*
X41684Y34428D02*Y31228D01*
Y34428D02*X44457Y36028D01*
X41684Y34428D02*X38911Y36028D01*
X40084Y34428D02*G75*G03X43284Y34428I1600J0D01*G01*
G75*G03X40084Y34428I-1600J0D01*G01*
X35000Y54999D02*Y51799D01*
Y54999D02*X37773Y56599D01*
X35000Y54999D02*X32227Y56599D01*
X33400Y54999D02*G75*G03X36600Y54999I1600J0D01*G01*
G75*G03X33400Y54999I-1600J0D01*G01*
X41684Y75572D02*Y72372D01*
Y75572D02*X44457Y77172D01*
X41684Y75572D02*X38911Y77172D01*
X40084Y75572D02*G75*G03X43284Y75572I1600J0D01*G01*
G75*G03X40084Y75572I-1600J0D01*G01*
X59185Y88287D02*Y85087D01*
Y88287D02*X61958Y89887D01*
X59185Y88287D02*X56412Y89887D01*
X57585Y88287D02*G75*G03X60785Y88287I1600J0D01*G01*
G75*G03X57585Y88287I-1600J0D01*G01*
X80816D02*Y85087D01*
Y88287D02*X83589Y89887D01*
X80816Y88287D02*X78043Y89887D01*
X79216Y88287D02*G75*G03X82416Y88287I1600J0D01*G01*
G75*G03X79216Y88287I-1600J0D01*G01*
X98316Y75572D02*Y72372D01*
Y75572D02*X101089Y77172D01*
X98316Y75572D02*X95543Y77172D01*
X96716Y75572D02*G75*G03X99916Y75572I1600J0D01*G01*
G75*G03X96716Y75572I-1600J0D01*G01*
X105000Y55001D02*Y51801D01*
Y55001D02*X107773Y56601D01*
X105000Y55001D02*X102227Y56601D01*
X103400Y55001D02*G75*G03X106600Y55001I1600J0D01*G01*
G75*G03X103400Y55001I-1600J0D01*G01*
X98316Y34428D02*Y31228D01*
Y34428D02*X101089Y36028D01*
X98316Y34428D02*X95543Y36028D01*
X96716Y34428D02*G75*G03X99916Y34428I1600J0D01*G01*
G75*G03X96716Y34428I-1600J0D01*G01*
X80815Y21713D02*Y18513D01*
Y21713D02*X83588Y23313D01*
X80815Y21713D02*X78042Y23313D01*
X79215Y21713D02*G75*G03X82415Y21713I1600J0D01*G01*
G75*G03X79215Y21713I-1600J0D01*G01*
X59184D02*Y18513D01*
Y21713D02*X61957Y23313D01*
X59184Y21713D02*X56411Y23313D01*
X57584Y21713D02*G75*G03X60784Y21713I1600J0D01*G01*
G75*G03X57584Y21713I-1600J0D01*G01*
X176684Y34428D02*Y31228D01*
Y34428D02*X179457Y36028D01*
X176684Y34428D02*X173911Y36028D01*
X175084Y34428D02*G75*G03X178284Y34428I1600J0D01*G01*
G75*G03X175084Y34428I-1600J0D01*G01*
X170000Y54999D02*Y51799D01*
Y54999D02*X172773Y56599D01*
X170000Y54999D02*X167227Y56599D01*
X168400Y54999D02*G75*G03X171600Y54999I1600J0D01*G01*
G75*G03X168400Y54999I-1600J0D01*G01*
X176684Y75572D02*Y72372D01*
Y75572D02*X179457Y77172D01*
X176684Y75572D02*X173911Y77172D01*
X175084Y75572D02*G75*G03X178284Y75572I1600J0D01*G01*
G75*G03X175084Y75572I-1600J0D01*G01*
X194185Y88287D02*Y85087D01*
Y88287D02*X196958Y89887D01*
X194185Y88287D02*X191412Y89887D01*
X192585Y88287D02*G75*G03X195785Y88287I1600J0D01*G01*
G75*G03X192585Y88287I-1600J0D01*G01*
X215816D02*Y85087D01*
Y88287D02*X218589Y89887D01*
X215816Y88287D02*X213043Y89887D01*
X214216Y88287D02*G75*G03X217416Y88287I1600J0D01*G01*
G75*G03X214216Y88287I-1600J0D01*G01*
X233316Y75572D02*Y72372D01*
Y75572D02*X236089Y77172D01*
X233316Y75572D02*X230543Y77172D01*
X231716Y75572D02*G75*G03X234916Y75572I1600J0D01*G01*
G75*G03X231716Y75572I-1600J0D01*G01*
X240000Y55001D02*Y51801D01*
Y55001D02*X242773Y56601D01*
X240000Y55001D02*X237227Y56601D01*
X238400Y55001D02*G75*G03X241600Y55001I1600J0D01*G01*
G75*G03X238400Y55001I-1600J0D01*G01*
X233316Y34428D02*Y31228D01*
Y34428D02*X236089Y36028D01*
X233316Y34428D02*X230543Y36028D01*
X231716Y34428D02*G75*G03X234916Y34428I1600J0D01*G01*
G75*G03X231716Y34428I-1600J0D01*G01*
X215815Y21713D02*Y18513D01*
Y21713D02*X218588Y23313D01*
X215815Y21713D02*X213042Y23313D01*
X214215Y21713D02*G75*G03X217415Y21713I1600J0D01*G01*
G75*G03X214215Y21713I-1600J0D01*G01*
X194184D02*Y18513D01*
Y21713D02*X196957Y23313D01*
X194184Y21713D02*X191411Y23313D01*
X192584Y21713D02*G75*G03X195784Y21713I1600J0D01*G01*
G75*G03X192584Y21713I-1600J0D01*G01*
X15000Y591250D02*Y588050D01*
Y591250D02*X17773Y592850D01*
X15000Y591250D02*X12227Y592850D01*
X13400Y591250D02*G75*G03X16600Y591250I1600J0D01*G01*
G75*G03X13400Y591250I-1600J0D01*G01*
X135000Y593500D02*X136500Y590500D01*
X138000Y593500D01*
X136500Y590500D02*Y587500D01*
X139800Y590800D02*X142050D01*
X139800Y587500D02*X142800D01*
X139800Y593500D02*Y587500D01*
Y593500D02*X142800D01*
X147600D02*X148350Y592750D01*
X145350Y593500D02*X147600D01*
X144600Y592750D02*X145350Y593500D01*
X144600Y592750D02*Y591250D01*
X145350Y590500D01*
X147600D01*
X148350Y589750D01*
Y588250D01*
X147600Y587500D02*X148350Y588250D01*
X145350Y587500D02*X147600D01*
X144600Y588250D02*X145350Y587500D01*
X98000Y592750D02*X98750Y593500D01*
X101000D01*
X101750Y592750D01*
Y591250D01*
X98000Y587500D02*X101750Y591250D01*
X98000Y587500D02*X101750D01*
X103550Y588250D02*X104300Y587500D01*
X103550Y592750D02*Y588250D01*
Y592750D02*X104300Y593500D01*
X105800D01*
X106550Y592750D01*
Y588250D01*
X105800Y587500D02*X106550Y588250D01*
X104300Y587500D02*X105800D01*
X103550Y589000D02*X106550Y592000D01*
X45000Y588250D02*X45750Y587500D01*
X45000Y592750D02*Y588250D01*
Y592750D02*X45750Y593500D01*
X47250D01*
X48000Y592750D01*
Y588250D01*
X47250Y587500D02*X48000Y588250D01*
X45750Y587500D02*X47250D01*
X45000Y589000D02*X48000Y592000D01*
X49800Y587500D02*X50550D01*
X52350Y588250D02*X53100Y587500D01*
X52350Y592750D02*Y588250D01*
Y592750D02*X53100Y593500D01*
X54600D01*
X55350Y592750D01*
Y588250D01*
X54600Y587500D02*X55350Y588250D01*
X53100Y587500D02*X54600D01*
X52350Y589000D02*X55350Y592000D01*
X57900Y587500D02*X60900Y593500D01*
X57150D02*X60900D01*
X62700Y592750D02*X63450Y593500D01*
X64950D01*
X65700Y592750D01*
X64950Y587500D02*X65700Y588250D01*
X63450Y587500D02*X64950D01*
X62700Y588250D02*X63450Y587500D01*
Y590800D02*X64950D01*
X65700Y592750D02*Y591550D01*
Y590050D02*Y588250D01*
Y590050D02*X64950Y590800D01*
X65700Y591550D02*X64950Y590800D01*
X101900Y111100D02*X105100D01*
X101900D02*Y107900D01*
X105100D01*
Y111100D02*Y107900D01*
X91900Y111100D02*X95100D01*
X91900D02*Y107900D01*
X95100D01*
Y111100D02*Y107900D01*
X81900Y111100D02*X85100D01*
X81900D02*Y107900D01*
X85100D01*
Y111100D02*Y107900D01*
X101900Y121100D02*X105100D01*
X101900D02*Y117900D01*
X105100D01*
Y121100D02*Y117900D01*
X91900Y121100D02*X95100D01*
X91900D02*Y117900D01*
X95100D01*
Y121100D02*Y117900D01*
X81900Y121100D02*X85100D01*
X81900D02*Y117900D01*
X85100D01*
Y121100D02*Y117900D01*
X125900Y423100D02*X129100D01*
X125900D02*Y419900D01*
X129100D01*
Y423100D02*Y419900D01*
X135900Y423100D02*X139100D01*
X135900D02*Y419900D01*
X139100D01*
Y423100D02*Y419900D01*
X145900Y423100D02*X149100D01*
X145900D02*Y419900D01*
X149100D01*
Y423100D02*Y419900D01*
X125900Y413100D02*X129100D01*
X125900D02*Y409900D01*
X129100D01*
Y413100D02*Y409900D01*
X135900Y413100D02*X139100D01*
X135900D02*Y409900D01*
X139100D01*
Y413100D02*Y409900D01*
X145900Y413100D02*X149100D01*
X145900D02*Y409900D01*
X149100D01*
Y413100D02*Y409900D01*
X29000Y296600D02*X32200D01*
X29000D02*Y293400D01*
X32200D01*
Y296600D02*Y293400D01*
X29000Y237600D02*X32200D01*
X29000D02*Y234400D01*
X32200D01*
Y237600D02*Y234400D01*
X13400Y607850D02*X16600D01*
X13400D02*Y604650D01*
X16600D01*
Y607850D02*Y604650D01*
X135000Y608500D02*X136500Y605500D01*
X138000Y608500D01*
X136500Y605500D02*Y602500D01*
X139800Y605800D02*X142050D01*
X139800Y602500D02*X142800D01*
X139800Y608500D02*Y602500D01*
Y608500D02*X142800D01*
X147600D02*X148350Y607750D01*
X145350Y608500D02*X147600D01*
X144600Y607750D02*X145350Y608500D01*
X144600Y607750D02*Y606250D01*
X145350Y605500D01*
X147600D01*
X148350Y604750D01*
Y603250D01*
X147600Y602500D02*X148350Y603250D01*
X145350Y602500D02*X147600D01*
X144600Y603250D02*X145350Y602500D01*
X98000Y607300D02*X99200Y608500D01*
Y602500D01*
X98000D02*X100250D01*
X102050Y604750D02*X105050Y608500D01*
X102050Y604750D02*X105800D01*
X105050Y608500D02*Y602500D01*
X45000Y603250D02*X45750Y602500D01*
X45000Y607750D02*Y603250D01*
Y607750D02*X45750Y608500D01*
X47250D01*
X48000Y607750D01*
Y603250D01*
X47250Y602500D02*X48000Y603250D01*
X45750Y602500D02*X47250D01*
X45000Y604000D02*X48000Y607000D01*
X49800Y602500D02*X50550D01*
X52350Y603250D02*X53100Y602500D01*
X52350Y607750D02*Y603250D01*
Y607750D02*X53100Y608500D01*
X54600D01*
X55350Y607750D01*
Y603250D01*
X54600Y602500D02*X55350Y603250D01*
X53100Y602500D02*X54600D01*
X52350Y604000D02*X55350Y607000D01*
X57150Y604750D02*X60150Y608500D01*
X57150Y604750D02*X60900D01*
X60150Y608500D02*Y602500D01*
X62700Y603250D02*X63450Y602500D01*
X62700Y607750D02*Y603250D01*
Y607750D02*X63450Y608500D01*
X64950D01*
X65700Y607750D01*
Y603250D01*
X64950Y602500D02*X65700Y603250D01*
X63450Y602500D02*X64950D01*
X62700Y604000D02*X65700Y607000D01*
X225543Y200000D02*G75*G03X227143Y200000I800J0D01*G01*
G75*G03X225543Y200000I-800J0D01*G01*
X215700D02*G75*G03X217300Y200000I800J0D01*G01*
G75*G03X215700Y200000I-800J0D01*G01*
X205857D02*G75*G03X207457Y200000I800J0D01*G01*
G75*G03X205857Y200000I-800J0D01*G01*
X14200Y621250D02*G75*G03X15800Y621250I800J0D01*G01*
G75*G03X14200Y621250I-800J0D01*G01*
X135000Y623500D02*X136500Y620500D01*
X138000Y623500D01*
X136500Y620500D02*Y617500D01*
X139800Y620800D02*X142050D01*
X139800Y617500D02*X142800D01*
X139800Y623500D02*Y617500D01*
Y623500D02*X142800D01*
X147600D02*X148350Y622750D01*
X145350Y623500D02*X147600D01*
X144600Y622750D02*X145350Y623500D01*
X144600Y622750D02*Y621250D01*
X145350Y620500D01*
X147600D01*
X148350Y619750D01*
Y618250D01*
X147600Y617500D02*X148350Y618250D01*
X145350Y617500D02*X147600D01*
X144600Y618250D02*X145350Y617500D01*
X98000Y622750D02*X98750Y623500D01*
X100250D01*
X101000Y622750D01*
X100250Y617500D02*X101000Y618250D01*
X98750Y617500D02*X100250D01*
X98000Y618250D02*X98750Y617500D01*
Y620800D02*X100250D01*
X101000Y622750D02*Y621550D01*
Y620050D02*Y618250D01*
Y620050D02*X100250Y620800D01*
X101000Y621550D02*X100250Y620800D01*
X45000Y618250D02*X45750Y617500D01*
X45000Y622750D02*Y618250D01*
Y622750D02*X45750Y623500D01*
X47250D01*
X48000Y622750D01*
Y618250D01*
X47250Y617500D02*X48000Y618250D01*
X45750Y617500D02*X47250D01*
X45000Y619000D02*X48000Y622000D01*
X49800Y617500D02*X50550D01*
X52350Y618250D02*X53100Y617500D01*
X52350Y622750D02*Y618250D01*
Y622750D02*X53100Y623500D01*
X54600D01*
X55350Y622750D01*
Y618250D01*
X54600Y617500D02*X55350Y618250D01*
X53100Y617500D02*X54600D01*
X52350Y619000D02*X55350Y622000D01*
X57150Y622750D02*X57900Y623500D01*
X59400D01*
X60150Y622750D01*
X59400Y617500D02*X60150Y618250D01*
X57900Y617500D02*X59400D01*
X57150Y618250D02*X57900Y617500D01*
Y620800D02*X59400D01*
X60150Y622750D02*Y621550D01*
Y620050D02*Y618250D01*
Y620050D02*X59400Y620800D01*
X60150Y621550D02*X59400Y620800D01*
X62700Y617500D02*X64950Y620500D01*
Y622750D02*Y620500D01*
X64200Y623500D02*X64950Y622750D01*
X62700Y623500D02*X64200D01*
X61950Y622750D02*X62700Y623500D01*
X61950Y622750D02*Y621250D01*
X62700Y620500D01*
X64950D01*
X4300Y384700D02*X6700Y382300D01*
X4300D02*X6700Y384700D01*
X4300Y394700D02*X6700Y392300D01*
X4300D02*X6700Y394700D01*
X4300Y404700D02*X6700Y402300D01*
X4300D02*X6700Y404700D01*
X4300Y414700D02*X6700Y412300D01*
X4300D02*X6700Y414700D01*
X4300Y424700D02*X6700Y422300D01*
X4300D02*X6700Y424700D01*
X4300Y434700D02*X6700Y432300D01*
X4300D02*X6700Y434700D01*
X4300Y444700D02*X6700Y442300D01*
X4300D02*X6700Y444700D01*
X4300Y454700D02*X6700Y452300D01*
X4300D02*X6700Y454700D01*
X4300Y464700D02*X6700Y462300D01*
X4300D02*X6700Y464700D01*
X268300Y384700D02*X270700Y382300D01*
X268300D02*X270700Y384700D01*
X268300Y394700D02*X270700Y392300D01*
X268300D02*X270700Y394700D01*
X268300Y404700D02*X270700Y402300D01*
X268300D02*X270700Y404700D01*
X268300Y414700D02*X270700Y412300D01*
X268300D02*X270700Y414700D01*
X268300Y424700D02*X270700Y422300D01*
X268300D02*X270700Y424700D01*
X268300Y434700D02*X270700Y432300D01*
X268300D02*X270700Y434700D01*
X268300Y444700D02*X270700Y442300D01*
X268300D02*X270700Y444700D01*
X268300Y454700D02*X270700Y452300D01*
X268300D02*X270700Y454700D01*
X268300Y464700D02*X270700Y462300D01*
X268300D02*X270700Y464700D01*
X13800Y637450D02*X16200Y635050D01*
X13800D02*X16200Y637450D01*
X135000Y638500D02*X136500Y635500D01*
X138000Y638500D01*
X136500Y635500D02*Y632500D01*
X139800Y635800D02*X142050D01*
X139800Y632500D02*X142800D01*
X139800Y638500D02*Y632500D01*
Y638500D02*X142800D01*
X147600D02*X148350Y637750D01*
X145350Y638500D02*X147600D01*
X144600Y637750D02*X145350Y638500D01*
X144600Y637750D02*Y636250D01*
X145350Y635500D01*
X147600D01*
X148350Y634750D01*
Y633250D01*
X147600Y632500D02*X148350Y633250D01*
X145350Y632500D02*X147600D01*
X144600Y633250D02*X145350Y632500D01*
X98000Y637300D02*X99200Y638500D01*
Y632500D01*
X98000D02*X100250D01*
X102050Y633250D02*X102800Y632500D01*
X102050Y634450D02*Y633250D01*
Y634450D02*X103100Y635500D01*
X104000D01*
X105050Y634450D01*
Y633250D01*
X104300Y632500D02*X105050Y633250D01*
X102800Y632500D02*X104300D01*
X102050Y636550D02*X103100Y635500D01*
X102050Y637750D02*Y636550D01*
Y637750D02*X102800Y638500D01*
X104300D01*
X105050Y637750D01*
Y636550D01*
X104000Y635500D02*X105050Y636550D01*
X45000Y633250D02*X45750Y632500D01*
X45000Y637750D02*Y633250D01*
Y637750D02*X45750Y638500D01*
X47250D01*
X48000Y637750D01*
Y633250D01*
X47250Y632500D02*X48000Y633250D01*
X45750Y632500D02*X47250D01*
X45000Y634000D02*X48000Y637000D01*
X49800Y632500D02*X50550D01*
X52350Y633250D02*X53100Y632500D01*
X52350Y637750D02*Y633250D01*
Y637750D02*X53100Y638500D01*
X54600D01*
X55350Y637750D01*
Y633250D01*
X54600Y632500D02*X55350Y633250D01*
X53100Y632500D02*X54600D01*
X52350Y634000D02*X55350Y637000D01*
X57150Y637750D02*X57900Y638500D01*
X59400D01*
X60150Y637750D01*
X59400Y632500D02*X60150Y633250D01*
X57900Y632500D02*X59400D01*
X57150Y633250D02*X57900Y632500D01*
Y635800D02*X59400D01*
X60150Y637750D02*Y636550D01*
Y635050D02*Y633250D01*
Y635050D02*X59400Y635800D01*
X60150Y636550D02*X59400Y635800D01*
X61950Y633250D02*X62700Y632500D01*
X61950Y634450D02*Y633250D01*
Y634450D02*X63000Y635500D01*
X63900D01*
X64950Y634450D01*
Y633250D01*
X64200Y632500D02*X64950Y633250D01*
X62700Y632500D02*X64200D01*
X61950Y636550D02*X63000Y635500D01*
X61950Y637750D02*Y636550D01*
Y637750D02*X62700Y638500D01*
X64200D01*
X64950Y637750D01*
Y636550D01*
X63900Y635500D02*X64950Y636550D01*
X227650Y239800D02*Y236600D01*
X226050Y238200D02*X229250D01*
X227650Y263400D02*Y260200D01*
X226050Y261800D02*X229250D01*
X246350Y239800D02*Y236600D01*
X244750Y238200D02*X247950D01*
X246350Y263400D02*Y260200D01*
X244750Y261800D02*X247950D01*
X50650Y511800D02*Y508600D01*
X49050Y510200D02*X52250D01*
X50650Y535400D02*Y532200D01*
X49050Y533800D02*X52250D01*
X69350Y511800D02*Y508600D01*
X67750Y510200D02*X70950D01*
X69350Y535400D02*Y532200D01*
X67750Y533800D02*X70950D01*
X205650Y511800D02*Y508600D01*
X204050Y510200D02*X207250D01*
X205650Y535400D02*Y532200D01*
X204050Y533800D02*X207250D01*
X224350Y511800D02*Y508600D01*
X222750Y510200D02*X225950D01*
X224350Y535400D02*Y532200D01*
X222750Y533800D02*X225950D01*
X15000Y652850D02*Y649650D01*
X13400Y651250D02*X16600D01*
X135000Y653500D02*X136500Y650500D01*
X138000Y653500D01*
X136500Y650500D02*Y647500D01*
X139800Y650800D02*X142050D01*
X139800Y647500D02*X142800D01*
X139800Y653500D02*Y647500D01*
Y653500D02*X142800D01*
X147600D02*X148350Y652750D01*
X145350Y653500D02*X147600D01*
X144600Y652750D02*X145350Y653500D01*
X144600Y652750D02*Y651250D01*
X145350Y650500D01*
X147600D01*
X148350Y649750D01*
Y648250D01*
X147600Y647500D02*X148350Y648250D01*
X145350Y647500D02*X147600D01*
X144600Y648250D02*X145350Y647500D01*
X98000Y652300D02*X99200Y653500D01*
Y647500D01*
X98000D02*X100250D01*
X102050Y652750D02*X102800Y653500D01*
X105050D01*
X105800Y652750D01*
Y651250D01*
X102050Y647500D02*X105800Y651250D01*
X102050Y647500D02*X105800D01*
X45000Y648250D02*X45750Y647500D01*
X45000Y652750D02*Y648250D01*
Y652750D02*X45750Y653500D01*
X47250D01*
X48000Y652750D01*
Y648250D01*
X47250Y647500D02*X48000Y648250D01*
X45750Y647500D02*X47250D01*
X45000Y649000D02*X48000Y652000D01*
X49800Y647500D02*X50550D01*
X52350Y648250D02*X53100Y647500D01*
X52350Y652750D02*Y648250D01*
Y652750D02*X53100Y653500D01*
X54600D01*
X55350Y652750D01*
Y648250D01*
X54600Y647500D02*X55350Y648250D01*
X53100Y647500D02*X54600D01*
X52350Y649000D02*X55350Y652000D01*
X57150Y652750D02*X57900Y653500D01*
X59400D01*
X60150Y652750D01*
X59400Y647500D02*X60150Y648250D01*
X57900Y647500D02*X59400D01*
X57150Y648250D02*X57900Y647500D01*
Y650800D02*X59400D01*
X60150Y652750D02*Y651550D01*
Y650050D02*Y648250D01*
Y650050D02*X59400Y650800D01*
X60150Y651550D02*X59400Y650800D01*
X61950Y653500D02*X64950D01*
X61950D02*Y650500D01*
X62700Y651250D01*
X64200D01*
X64950Y650500D01*
Y648250D01*
X64200Y647500D02*X64950Y648250D01*
X62700Y647500D02*X64200D01*
X61950Y648250D02*X62700Y647500D01*
X34500Y256000D02*Y254400D01*
Y256000D02*X35887Y256800D01*
X34500Y256000D02*X33113Y256800D01*
X87000Y268500D02*Y266900D01*
Y268500D02*X88387Y269300D01*
X87000Y268500D02*X85613Y269300D01*
X87000Y260500D02*Y258900D01*
Y260500D02*X88387Y261300D01*
X87000Y260500D02*X85613Y261300D01*
X87000Y264500D02*Y262900D01*
Y264500D02*X88387Y265300D01*
X87000Y264500D02*X85613Y265300D01*
X68000Y254000D02*Y252400D01*
Y254000D02*X69387Y254800D01*
X68000Y254000D02*X66613Y254800D01*
X64500Y256000D02*Y254400D01*
Y256000D02*X65887Y256800D01*
X64500Y256000D02*X63113Y256800D01*
X64500Y252000D02*Y250400D01*
Y252000D02*X65887Y252800D01*
X64500Y252000D02*X63113Y252800D01*
X71000Y230500D02*Y228900D01*
Y230500D02*X72387Y231300D01*
X71000Y230500D02*X69613Y231300D01*
X67000Y230500D02*Y228900D01*
Y230500D02*X68387Y231300D01*
X67000Y230500D02*X65613Y231300D01*
X197500Y163500D02*Y161900D01*
Y163500D02*X198887Y164300D01*
X197500Y163500D02*X196113Y164300D01*
X145252Y219000D02*Y217400D01*
Y219000D02*X146639Y219800D01*
X145252Y219000D02*X143865Y219800D01*
X161000Y249000D02*Y247400D01*
Y249000D02*X162387Y249800D01*
X161000Y249000D02*X159613Y249800D01*
X177500Y268649D02*Y267049D01*
Y268649D02*X178887Y269449D01*
X177500Y268649D02*X176113Y269449D01*
X161000Y282000D02*Y280400D01*
Y282000D02*X162387Y282800D01*
X161000Y282000D02*X159613Y282800D01*
X144500Y265500D02*Y263900D01*
Y265500D02*X145887Y266300D01*
X144500Y265500D02*X143113Y266300D01*
X167300Y300000D02*Y298400D01*
Y300000D02*X168687Y300800D01*
X167300Y300000D02*X165913Y300800D01*
X172000Y300000D02*Y298400D01*
Y300000D02*X173387Y300800D01*
X172000Y300000D02*X170613Y300800D01*
X176500Y300000D02*Y298400D01*
Y300000D02*X177887Y300800D01*
X176500Y300000D02*X175113Y300800D01*
X134500Y235500D02*Y233900D01*
Y235500D02*X135887Y236300D01*
X134500Y235500D02*X133113Y236300D01*
X123500Y235500D02*Y233900D01*
Y235500D02*X124887Y236300D01*
X123500Y235500D02*X122113Y236300D01*
X123500Y231000D02*Y229400D01*
Y231000D02*X124887Y231800D01*
X123500Y231000D02*X122113Y231800D01*
X134500Y231000D02*Y229400D01*
Y231000D02*X135887Y231800D01*
X134500Y231000D02*X133113Y231800D01*
X98224Y143000D02*Y141400D01*
Y143000D02*X99611Y143800D01*
X98224Y143000D02*X96837Y143800D01*
X97500Y440000D02*Y438400D01*
Y440000D02*X98887Y440800D01*
X97500Y440000D02*X96113Y440800D01*
X102500Y440000D02*Y438400D01*
Y440000D02*X103887Y440800D01*
X102500Y440000D02*X101113Y440800D01*
X97500Y435500D02*Y433900D01*
Y435500D02*X98887Y436300D01*
X97500Y435500D02*X96113Y436300D01*
X102500Y435500D02*Y433900D01*
Y435500D02*X103887Y436300D01*
X102500Y435500D02*X101113Y436300D01*
X107500Y440000D02*Y438400D01*
Y440000D02*X108887Y440800D01*
X107500Y440000D02*X106113Y440800D01*
X107500Y435500D02*Y433900D01*
Y435500D02*X108887Y436300D01*
X107500Y435500D02*X106113Y436300D01*
X43000Y436000D02*Y434400D01*
Y436000D02*X44387Y436800D01*
X43000Y436000D02*X41613Y436800D01*
X148402Y303500D02*Y301900D01*
Y303500D02*X149789Y304300D01*
X148402Y303500D02*X147015Y304300D01*
X50650Y447500D02*Y445900D01*
Y447500D02*X52037Y448300D01*
X50650Y447500D02*X49263Y448300D01*
X129500Y256052D02*Y254452D01*
Y256052D02*X130887Y256852D01*
X129500Y256052D02*X128113Y256852D01*
X71575Y45500D02*Y43900D01*
Y45500D02*X72962Y46300D01*
X71575Y45500D02*X70188Y46300D01*
X206575Y45500D02*Y43900D01*
Y45500D02*X207962Y46300D01*
X206575Y45500D02*X205188Y46300D01*
X154701Y299500D02*Y297900D01*
Y299500D02*X156088Y300300D01*
X154701Y299500D02*X153314Y300300D01*
X139500Y299500D02*Y297900D01*
Y299500D02*X140887Y300300D01*
X139500Y299500D02*X138113Y300300D01*
X151552Y296000D02*Y294400D01*
Y296000D02*X152939Y296800D01*
X151552Y296000D02*X150165Y296800D01*
X136500Y296000D02*Y294400D01*
Y296000D02*X137887Y296800D01*
X136500Y296000D02*X135113Y296800D01*
X157850Y215000D02*Y213400D01*
Y215000D02*X159237Y215800D01*
X157850Y215000D02*X156463Y215800D01*
X151500Y222000D02*Y220400D01*
Y222000D02*X152887Y222800D01*
X151500Y222000D02*X150113Y222800D01*
X142000Y222000D02*Y220400D01*
Y222000D02*X143387Y222800D01*
X142000Y222000D02*X140613Y222800D01*
X94000Y248500D02*Y246900D01*
Y248500D02*X95387Y249300D01*
X94000Y248500D02*X92613Y249300D01*
X184000Y195000D02*Y193400D01*
Y195000D02*X185387Y195800D01*
X184000Y195000D02*X182613Y195800D01*
X54000Y248500D02*Y246900D01*
Y248500D02*X55387Y249300D01*
X54000Y248500D02*X52613Y249300D01*
X51000Y146500D02*Y144900D01*
Y146500D02*X52387Y147300D01*
X51000Y146500D02*X49613Y147300D01*
X51000Y131000D02*Y129400D01*
Y131000D02*X52387Y131800D01*
X51000Y131000D02*X49613Y131800D01*
X56000Y131000D02*Y129400D01*
Y131000D02*X57387Y131800D01*
X56000Y131000D02*X54613Y131800D01*
X56000Y143500D02*Y141900D01*
Y143500D02*X57387Y144300D01*
X56000Y143500D02*X54613Y144300D01*
X76000Y114500D02*Y112900D01*
Y114500D02*X77387Y115300D01*
X76000Y114500D02*X74613Y115300D01*
X61000Y131000D02*Y129400D01*
Y131000D02*X62387Y131800D01*
X61000Y131000D02*X59613Y131800D01*
X61000Y140500D02*Y138900D01*
Y140500D02*X62387Y141300D01*
X61000Y140500D02*X59613Y141300D01*
X228500Y188000D02*Y186400D01*
Y188000D02*X229887Y188800D01*
X228500Y188000D02*X227113Y188800D01*
X233500Y188000D02*Y186400D01*
Y188000D02*X234887Y188800D01*
X233500Y188000D02*X232113Y188800D01*
X233500Y200000D02*Y198400D01*
Y200000D02*X234887Y200800D01*
X233500Y200000D02*X232113Y200800D01*
X201500Y256051D02*Y254451D01*
Y256051D02*X202887Y256851D01*
X201500Y256051D02*X200113Y256851D01*
X210000Y256051D02*Y254451D01*
Y256051D02*X211387Y256851D01*
X210000Y256051D02*X208613Y256851D01*
X99500Y291000D02*Y289400D01*
Y291000D02*X100887Y291800D01*
X99500Y291000D02*X98113Y291800D01*
X99500Y304500D02*Y302900D01*
Y304500D02*X100887Y305300D01*
X99500Y304500D02*X98113Y305300D01*
X74000Y407500D02*Y405900D01*
Y407500D02*X75387Y408300D01*
X74000Y407500D02*X72613Y408300D01*
X17000Y224000D02*Y222400D01*
Y224000D02*X18387Y224800D01*
X17000Y224000D02*X15613Y224800D01*
X142000Y226500D02*Y224900D01*
Y226500D02*X143387Y227300D01*
X142000Y226500D02*X140613Y227300D01*
X170500Y226500D02*Y224900D01*
Y226500D02*X171887Y227300D01*
X170500Y226500D02*X169113Y227300D01*
X201000Y230000D02*Y228400D01*
Y230000D02*X202387Y230800D01*
X201000Y230000D02*X199613Y230800D01*
X201000Y234500D02*Y232900D01*
Y234500D02*X202387Y235300D01*
X201000Y234500D02*X199613Y235300D01*
X213000Y230000D02*Y228400D01*
Y230000D02*X214387Y230800D01*
X213000Y230000D02*X211613Y230800D01*
X216000Y234500D02*Y232900D01*
Y234500D02*X217387Y235300D01*
X216000Y234500D02*X214613Y235300D01*
X201000Y239000D02*Y237400D01*
Y239000D02*X202387Y239800D01*
X201000Y239000D02*X199613Y239800D01*
X219000Y239000D02*Y237400D01*
Y239000D02*X220387Y239800D01*
X219000Y239000D02*X217613Y239800D01*
X201500Y249752D02*Y248152D01*
Y249752D02*X202887Y250552D01*
X201500Y249752D02*X200113Y250552D01*
X219000Y249752D02*Y248152D01*
Y249752D02*X220387Y250552D01*
X219000Y249752D02*X217613Y250552D01*
X198500Y252901D02*Y251301D01*
Y252901D02*X199887Y253701D01*
X198500Y252901D02*X197113Y253701D01*
X225500Y252901D02*Y251301D01*
Y252901D02*X226887Y253701D01*
X225500Y252901D02*X224113Y253701D01*
X203500Y262350D02*Y260750D01*
Y262350D02*X204887Y263150D01*
X203500Y262350D02*X202113Y263150D01*
X261000Y383500D02*Y381900D01*
Y383500D02*X262387Y384300D01*
X261000Y383500D02*X259613Y384300D01*
X203500Y268500D02*Y266900D01*
Y268500D02*X204887Y269300D01*
X203500Y268500D02*X202113Y269300D01*
X232500Y272500D02*Y270900D01*
Y272500D02*X233887Y273300D01*
X232500Y272500D02*X231113Y273300D01*
X226500Y276000D02*Y274400D01*
Y276000D02*X227887Y276800D01*
X226500Y276000D02*X225113Y276800D01*
X238000Y200000D02*Y198400D01*
Y200000D02*X239387Y200800D01*
X238000Y200000D02*X236613Y200800D01*
X225000Y182500D02*Y180900D01*
Y182500D02*X226387Y183300D01*
X225000Y182500D02*X223613Y183300D01*
X231500Y277000D02*Y275400D01*
Y277000D02*X232887Y277800D01*
X231500Y277000D02*X230113Y277800D01*
X232500Y282000D02*Y280400D01*
Y282000D02*X233887Y282800D01*
X232500Y282000D02*X231113Y282800D01*
X227500Y284000D02*Y282400D01*
Y284000D02*X228887Y284800D01*
X227500Y284000D02*X226113Y284800D01*
X207000Y281000D02*Y279400D01*
Y281000D02*X208387Y281800D01*
X207000Y281000D02*X205613Y281800D01*
X207000Y275500D02*Y273900D01*
Y275500D02*X208387Y276300D01*
X207000Y275500D02*X205613Y276300D01*
X253000Y413500D02*Y411900D01*
Y413500D02*X254387Y414300D01*
X253000Y413500D02*X251613Y414300D01*
X249500Y403500D02*Y401900D01*
Y403500D02*X250887Y404300D01*
X249500Y403500D02*X248113Y404300D01*
X232000Y453500D02*Y451900D01*
Y453500D02*X233387Y454300D01*
X232000Y453500D02*X230613Y454300D01*
X108500Y416500D02*Y414900D01*
Y416500D02*X109887Y417300D01*
X108500Y416500D02*X107113Y417300D01*
X56500Y400000D02*Y398400D01*
Y400000D02*X57887Y400800D01*
X56500Y400000D02*X55113Y400800D01*
X93500Y412500D02*Y410900D01*
Y412500D02*X94887Y413300D01*
X93500Y412500D02*X92113Y413300D01*
X240500Y291500D02*Y289900D01*
Y291500D02*X241887Y292300D01*
X240500Y291500D02*X239113Y292300D01*
X67000Y420500D02*Y418900D01*
Y420500D02*X68387Y421300D01*
X67000Y420500D02*X65613Y421300D01*
X93500Y420500D02*Y418900D01*
Y420500D02*X94887Y421300D01*
X93500Y420500D02*X92113Y421300D01*
X72000Y141500D02*Y139900D01*
Y141500D02*X73387Y142300D01*
X72000Y141500D02*X70613Y142300D01*
X190500Y135740D02*Y134140D01*
Y135740D02*X191887Y136540D01*
X190500Y135740D02*X189113Y136540D01*
X157850Y191500D02*Y189900D01*
Y191500D02*X159237Y192300D01*
X157850Y191500D02*X156463Y192300D01*
X175000Y146000D02*Y144400D01*
Y146000D02*X176387Y146800D01*
X175000Y146000D02*X173613Y146800D01*
X220000Y312500D02*Y310900D01*
Y312500D02*X221387Y313300D01*
X220000Y312500D02*X218613Y313300D01*
X200500Y293000D02*Y291400D01*
Y293000D02*X201887Y293800D01*
X200500Y293000D02*X199113Y293800D01*
X197000Y296500D02*Y294900D01*
Y296500D02*X198387Y297300D01*
X197000Y296500D02*X195613Y297300D01*
X193500Y300000D02*Y298400D01*
Y300000D02*X194887Y300800D01*
X193500Y300000D02*X192113Y300800D01*
X236000Y301000D02*Y299400D01*
Y301000D02*X237387Y301800D01*
X236000Y301000D02*X234613Y301800D01*
X231950Y433499D02*Y431899D01*
Y433499D02*X233337Y434299D01*
X231950Y433499D02*X230563Y434299D01*
X60500Y394000D02*Y392400D01*
Y394000D02*X61887Y394800D01*
X60500Y394000D02*X59113Y394800D01*
X210000Y293000D02*Y291400D01*
Y293000D02*X211387Y293800D01*
X210000Y293000D02*X208613Y293800D01*
X206500Y307000D02*Y305400D01*
Y307000D02*X207887Y307800D01*
X206500Y307000D02*X205113Y307800D01*
X153000Y122000D02*Y120400D01*
Y122000D02*X154387Y122800D01*
X153000Y122000D02*X151613Y122800D01*
X106000Y210500D02*Y208900D01*
Y210500D02*X107387Y211300D01*
X106000Y210500D02*X104613Y211300D01*
X110500Y213500D02*Y211900D01*
Y213500D02*X111887Y214300D01*
X110500Y213500D02*X109113Y214300D01*
X115000Y216500D02*Y214900D01*
Y216500D02*X116387Y217300D01*
X115000Y216500D02*X113613Y217300D01*
X119500Y219500D02*Y217900D01*
Y219500D02*X120887Y220300D01*
X119500Y219500D02*X118113Y220300D01*
X106000Y248000D02*Y246400D01*
Y248000D02*X107387Y248800D01*
X106000Y248000D02*X104613Y248800D01*
X110500Y248000D02*Y246400D01*
Y248000D02*X111887Y248800D01*
X110500Y248000D02*X109113Y248800D01*
X115000Y248000D02*Y246400D01*
Y248000D02*X116387Y248800D01*
X115000Y248000D02*X113613Y248800D01*
X119500Y248000D02*Y246400D01*
Y248000D02*X120887Y248800D01*
X119500Y248000D02*X118113Y248800D01*
X130500Y251500D02*Y249900D01*
Y251500D02*X131887Y252300D01*
X130500Y251500D02*X129113Y252300D01*
X129500Y260500D02*Y258900D01*
Y260500D02*X130887Y261300D01*
X129500Y260500D02*X128113Y261300D01*
X129500Y265000D02*Y263400D01*
Y265000D02*X130887Y265800D01*
X129500Y265000D02*X128113Y265800D01*
X143500Y303500D02*Y301900D01*
Y303500D02*X144887Y304300D01*
X143500Y303500D02*X142113Y304300D01*
X205650Y447500D02*Y445900D01*
Y447500D02*X207037Y448300D01*
X205650Y447500D02*X204263Y448300D01*
X8000Y224000D02*Y222400D01*
Y224000D02*X9387Y224800D01*
X8000Y224000D02*X6613Y224800D01*
X240200Y313000D02*Y311400D01*
Y313000D02*X241587Y313800D01*
X240200Y313000D02*X238813Y313800D01*
X176500Y313000D02*Y311400D01*
Y313000D02*X177887Y313800D01*
X176500Y313000D02*X175113Y313800D01*
X181000Y313000D02*Y311400D01*
Y313000D02*X182387Y313800D01*
X181000Y313000D02*X179613Y313800D01*
X176500Y317500D02*Y315900D01*
Y317500D02*X177887Y318300D01*
X176500Y317500D02*X175113Y318300D01*
X181000Y317500D02*Y315900D01*
Y317500D02*X182387Y318300D01*
X181000Y317500D02*X179613Y318300D01*
X15000Y666250D02*Y664650D01*
Y666250D02*X16387Y667050D01*
X15000Y666250D02*X13613Y667050D01*
X135000Y668500D02*X136500Y665500D01*
X138000Y668500D01*
X136500Y665500D02*Y662500D01*
X139800Y665800D02*X142050D01*
X139800Y662500D02*X142800D01*
X139800Y668500D02*Y662500D01*
Y668500D02*X142800D01*
X147600D02*X148350Y667750D01*
X145350Y668500D02*X147600D01*
X144600Y667750D02*X145350Y668500D01*
X144600Y667750D02*Y666250D01*
X145350Y665500D01*
X147600D01*
X148350Y664750D01*
Y663250D01*
X147600Y662500D02*X148350Y663250D01*
X145350Y662500D02*X147600D01*
X144600Y663250D02*X145350Y662500D01*
X98000Y667300D02*X99200Y668500D01*
Y662500D01*
X98000D02*X100250D01*
X102050Y667750D02*X102800Y668500D01*
X105050D01*
X105800Y667750D01*
Y666250D01*
X102050Y662500D02*X105800Y666250D01*
X102050Y662500D02*X105800D01*
X108350D02*X111350Y668500D01*
X107600D02*X111350D01*
X45000Y663250D02*X45750Y662500D01*
X45000Y667750D02*Y663250D01*
Y667750D02*X45750Y668500D01*
X47250D01*
X48000Y667750D01*
Y663250D01*
X47250Y662500D02*X48000Y663250D01*
X45750Y662500D02*X47250D01*
X45000Y664000D02*X48000Y667000D01*
X49800Y662500D02*X50550D01*
X52350Y663250D02*X53100Y662500D01*
X52350Y667750D02*Y663250D01*
Y667750D02*X53100Y668500D01*
X54600D01*
X55350Y667750D01*
Y663250D01*
X54600Y662500D02*X55350Y663250D01*
X53100Y662500D02*X54600D01*
X52350Y664000D02*X55350Y667000D01*
X57150Y667750D02*X57900Y668500D01*
X60150D01*
X60900Y667750D01*
Y666250D01*
X57150Y662500D02*X60900Y666250D01*
X57150Y662500D02*X60900D01*
X62700Y663250D02*X63450Y662500D01*
X62700Y667750D02*Y663250D01*
Y667750D02*X63450Y668500D01*
X64950D01*
X65700Y667750D01*
Y663250D01*
X64950Y662500D02*X65700Y663250D01*
X63450Y662500D02*X64950D01*
X62700Y664000D02*X65700Y667000D01*
X3000Y683500D02*X3750Y682750D01*
X750Y683500D02*X3000D01*
X0Y682750D02*X750Y683500D01*
X0Y682750D02*Y681250D01*
X750Y680500D01*
X3000D01*
X3750Y679750D01*
Y678250D01*
X3000Y677500D02*X3750Y678250D01*
X750Y677500D02*X3000D01*
X0Y678250D02*X750Y677500D01*
X5550Y680500D02*Y678250D01*
X6300Y677500D01*
X8550Y680500D02*Y676000D01*
X7800Y675250D02*X8550Y676000D01*
X6300Y675250D02*X7800D01*
X5550Y676000D02*X6300Y675250D01*
Y677500D02*X7800D01*
X8550Y678250D01*
X11100Y679750D02*Y677500D01*
Y679750D02*X11850Y680500D01*
X12600D01*
X13350Y679750D01*
Y677500D01*
Y679750D02*X14100Y680500D01*
X14850D01*
X15600Y679750D01*
Y677500D01*
X10350Y680500D02*X11100Y679750D01*
X17400Y683500D02*Y677500D01*
Y678250D02*X18150Y677500D01*
X19650D01*
X20400Y678250D01*
Y679750D02*Y678250D01*
X19650Y680500D02*X20400Y679750D01*
X18150Y680500D02*X19650D01*
X17400Y679750D02*X18150Y680500D01*
X22200Y679750D02*Y678250D01*
Y679750D02*X22950Y680500D01*
X24450D01*
X25200Y679750D01*
Y678250D01*
X24450Y677500D02*X25200Y678250D01*
X22950Y677500D02*X24450D01*
X22200Y678250D02*X22950Y677500D01*
X27000Y683500D02*Y678250D01*
X27750Y677500D01*
X0Y674250D02*X29250D01*
X41750Y683500D02*Y677500D01*
X43700Y683500D02*X44750Y682450D01*
Y678550D01*
X43700Y677500D02*X44750Y678550D01*
X41000Y677500D02*X43700D01*
X41000Y683500D02*X43700D01*
G54D125*X46550Y682000D02*Y681850D01*
G54D124*Y679750D02*Y677500D01*
X50300Y680500D02*X51050Y679750D01*
X48800Y680500D02*X50300D01*
X48050Y679750D02*X48800Y680500D01*
X48050Y679750D02*Y678250D01*
X48800Y677500D01*
X51050Y680500D02*Y678250D01*
X51800Y677500D01*
X48800D02*X50300D01*
X51050Y678250D01*
X54350Y679750D02*Y677500D01*
Y679750D02*X55100Y680500D01*
X55850D01*
X56600Y679750D01*
Y677500D01*
Y679750D02*X57350Y680500D01*
X58100D01*
X58850Y679750D01*
Y677500D01*
X53600Y680500D02*X54350Y679750D01*
X60650Y677500D02*X61400D01*
X65900Y678250D02*X66650Y677500D01*
X65900Y682750D02*X66650Y683500D01*
X65900Y682750D02*Y678250D01*
X68450Y683500D02*X69950D01*
X69200D02*Y677500D01*
X68450D02*X69950D01*
X72500Y679750D02*Y677500D01*
Y679750D02*X73250Y680500D01*
X74000D01*
X74750Y679750D01*
Y677500D01*
X71750Y680500D02*X72500Y679750D01*
X77300Y680500D02*X79550D01*
X76550Y679750D02*X77300Y680500D01*
X76550Y679750D02*Y678250D01*
X77300Y677500D01*
X79550D01*
X81350Y683500D02*Y677500D01*
Y679750D02*X82100Y680500D01*
X83600D01*
X84350Y679750D01*
Y677500D01*
X86150Y683500D02*X86900Y682750D01*
Y678250D01*
X86150Y677500D02*X86900Y678250D01*
X41000Y674250D02*X88700D01*
X96050Y677500D02*X98000D01*
X95000Y678550D02*X96050Y677500D01*
X95000Y682450D02*Y678550D01*
Y682450D02*X96050Y683500D01*
X98000D01*
X99800Y679750D02*Y678250D01*
Y679750D02*X100550Y680500D01*
X102050D01*
X102800Y679750D01*
Y678250D01*
X102050Y677500D02*X102800Y678250D01*
X100550Y677500D02*X102050D01*
X99800Y678250D02*X100550Y677500D01*
X104600Y680500D02*Y678250D01*
X105350Y677500D01*
X106850D01*
X107600Y678250D01*
Y680500D02*Y678250D01*
X110150Y679750D02*Y677500D01*
Y679750D02*X110900Y680500D01*
X111650D01*
X112400Y679750D01*
Y677500D01*
X109400Y680500D02*X110150Y679750D01*
X114950Y683500D02*Y678250D01*
X115700Y677500D01*
X114200Y681250D02*X115700D01*
X95000Y674250D02*X117200D01*
X130750Y683500D02*Y677500D01*
X130000Y683500D02*X133000D01*
X133750Y682750D01*
Y681250D01*
X133000Y680500D02*X133750Y681250D01*
X130750Y680500D02*X133000D01*
X135550Y683500D02*Y678250D01*
X136300Y677500D01*
X140050Y680500D02*X140800Y679750D01*
X138550Y680500D02*X140050D01*
X137800Y679750D02*X138550Y680500D01*
X137800Y679750D02*Y678250D01*
X138550Y677500D01*
X140800Y680500D02*Y678250D01*
X141550Y677500D01*
X138550D02*X140050D01*
X140800Y678250D01*
X144100Y683500D02*Y678250D01*
X144850Y677500D01*
X143350Y681250D02*X144850D01*
X147100Y677500D02*X149350D01*
X146350Y678250D02*X147100Y677500D01*
X146350Y679750D02*Y678250D01*
Y679750D02*X147100Y680500D01*
X148600D01*
X149350Y679750D01*
X146350Y679000D02*X149350D01*
Y679750D02*Y679000D01*
X154150Y683500D02*Y677500D01*
X153400D02*X154150Y678250D01*
X151900Y677500D02*X153400D01*
X151150Y678250D02*X151900Y677500D01*
X151150Y679750D02*Y678250D01*
Y679750D02*X151900Y680500D01*
X153400D01*
X154150Y679750D01*
X157450Y680500D02*Y679750D01*
Y678250D02*Y677500D01*
X155950Y682750D02*Y682000D01*
Y682750D02*X156700Y683500D01*
X158200D01*
X158950Y682750D01*
Y682000D01*
X157450Y680500D02*X158950Y682000D01*
X130000Y674250D02*X160750D01*
X0Y698500D02*X3000D01*
X1500D02*Y692500D01*
X4800Y698500D02*Y692500D01*
Y694750D02*X5550Y695500D01*
X7050D01*
X7800Y694750D01*
Y692500D01*
X10350D02*X12600D01*
X9600Y693250D02*X10350Y692500D01*
X9600Y694750D02*Y693250D01*
Y694750D02*X10350Y695500D01*
X11850D01*
X12600Y694750D01*
X9600Y694000D02*X12600D01*
Y694750D02*Y694000D01*
X15150Y694750D02*Y692500D01*
Y694750D02*X15900Y695500D01*
X17400D01*
X14400D02*X15150Y694750D01*
X19950Y692500D02*X22200D01*
X19200Y693250D02*X19950Y692500D01*
X19200Y694750D02*Y693250D01*
Y694750D02*X19950Y695500D01*
X21450D01*
X22200Y694750D01*
X19200Y694000D02*X22200D01*
Y694750D02*Y694000D01*
X28950Y695500D02*X29700Y694750D01*
X27450Y695500D02*X28950D01*
X26700Y694750D02*X27450Y695500D01*
X26700Y694750D02*Y693250D01*
X27450Y692500D01*
X29700Y695500D02*Y693250D01*
X30450Y692500D01*
X27450D02*X28950D01*
X29700Y693250D01*
X33000Y694750D02*Y692500D01*
Y694750D02*X33750Y695500D01*
X35250D01*
X32250D02*X33000Y694750D01*
X37800Y692500D02*X40050D01*
X37050Y693250D02*X37800Y692500D01*
X37050Y694750D02*Y693250D01*
Y694750D02*X37800Y695500D01*
X39300D01*
X40050Y694750D01*
X37050Y694000D02*X40050D01*
Y694750D02*Y694000D01*
X44550Y693250D02*X45300Y692500D01*
X44550Y694450D02*Y693250D01*
Y694450D02*X45600Y695500D01*
X46500D01*
X47550Y694450D01*
Y693250D01*
X46800Y692500D02*X47550Y693250D01*
X45300Y692500D02*X46800D01*
X44550Y696550D02*X45600Y695500D01*
X44550Y697750D02*Y696550D01*
Y697750D02*X45300Y698500D01*
X46800D01*
X47550Y697750D01*
Y696550D01*
X46500Y695500D02*X47550Y696550D01*
X55050Y698500D02*Y692500D01*
X54300D02*X55050Y693250D01*
X52800Y692500D02*X54300D01*
X52050Y693250D02*X52800Y692500D01*
X52050Y694750D02*Y693250D01*
Y694750D02*X52800Y695500D01*
X54300D01*
X55050Y694750D01*
G54D125*X56850Y697000D02*Y696850D01*
G54D124*Y694750D02*Y692500D01*
X59100Y697750D02*Y692500D01*
Y697750D02*X59850Y698500D01*
X60600D01*
X58350Y695500D02*X59850D01*
X62850Y697750D02*Y692500D01*
Y697750D02*X63600Y698500D01*
X64350D01*
X62100Y695500D02*X63600D01*
X66600Y692500D02*X68850D01*
X65850Y693250D02*X66600Y692500D01*
X65850Y694750D02*Y693250D01*
Y694750D02*X66600Y695500D01*
X68100D01*
X68850Y694750D01*
X65850Y694000D02*X68850D01*
Y694750D02*Y694000D01*
X71400Y694750D02*Y692500D01*
Y694750D02*X72150Y695500D01*
X73650D01*
X70650D02*X71400Y694750D01*
X76200Y692500D02*X78450D01*
X75450Y693250D02*X76200Y692500D01*
X75450Y694750D02*Y693250D01*
Y694750D02*X76200Y695500D01*
X77700D01*
X78450Y694750D01*
X75450Y694000D02*X78450D01*
Y694750D02*Y694000D01*
X81000Y694750D02*Y692500D01*
Y694750D02*X81750Y695500D01*
X82500D01*
X83250Y694750D01*
Y692500D01*
X80250Y695500D02*X81000Y694750D01*
X85800Y698500D02*Y693250D01*
X86550Y692500D01*
X85050Y696250D02*X86550D01*
X93750Y698500D02*Y692500D01*
X93000D02*X93750Y693250D01*
X91500Y692500D02*X93000D01*
X90750Y693250D02*X91500Y692500D01*
X90750Y694750D02*Y693250D01*
Y694750D02*X91500Y695500D01*
X93000D01*
X93750Y694750D01*
X96300D02*Y692500D01*
Y694750D02*X97050Y695500D01*
X98550D01*
X95550D02*X96300Y694750D01*
G54D125*X100350Y697000D02*Y696850D01*
G54D124*Y694750D02*Y692500D01*
X101850Y698500D02*Y693250D01*
X102600Y692500D01*
X104100Y698500D02*Y693250D01*
X104850Y692500D01*
X109800D02*X112050D01*
X112800Y693250D01*
X112050Y694000D02*X112800Y693250D01*
X109800Y694000D02*X112050D01*
X109050Y694750D02*X109800Y694000D01*
X109050Y694750D02*X109800Y695500D01*
X112050D01*
X112800Y694750D01*
X109050Y693250D02*X109800Y692500D01*
G54D125*X114600Y697000D02*Y696850D01*
G54D124*Y694750D02*Y692500D01*
X116100Y695500D02*X119100D01*
X116100Y692500D02*X119100Y695500D01*
X116100Y692500D02*X119100D01*
X121650D02*X123900D01*
X120900Y693250D02*X121650Y692500D01*
X120900Y694750D02*Y693250D01*
Y694750D02*X121650Y695500D01*
X123150D01*
X123900Y694750D01*
X120900Y694000D02*X123900D01*
Y694750D02*Y694000D01*
X126450Y692500D02*X128700D01*
X129450Y693250D01*
X128700Y694000D02*X129450Y693250D01*
X126450Y694000D02*X128700D01*
X125700Y694750D02*X126450Y694000D01*
X125700Y694750D02*X126450Y695500D01*
X128700D01*
X129450Y694750D01*
X125700Y693250D02*X126450Y692500D01*
X133950Y695500D02*Y693250D01*
X134700Y692500D01*
X136200D01*
X136950Y693250D01*
Y695500D02*Y693250D01*
X139500Y692500D02*X141750D01*
X142500Y693250D01*
X141750Y694000D02*X142500Y693250D01*
X139500Y694000D02*X141750D01*
X138750Y694750D02*X139500Y694000D01*
X138750Y694750D02*X139500Y695500D01*
X141750D01*
X142500Y694750D01*
X138750Y693250D02*X139500Y692500D01*
X145050D02*X147300D01*
X144300Y693250D02*X145050Y692500D01*
X144300Y694750D02*Y693250D01*
Y694750D02*X145050Y695500D01*
X146550D01*
X147300Y694750D01*
X144300Y694000D02*X147300D01*
Y694750D02*Y694000D01*
X152100Y698500D02*Y692500D01*
X151350D02*X152100Y693250D01*
X149850Y692500D02*X151350D01*
X149100Y693250D02*X149850Y692500D01*
X149100Y694750D02*Y693250D01*
Y694750D02*X149850Y695500D01*
X151350D01*
X152100Y694750D01*
G54D125*X156600Y697000D02*Y696850D01*
G54D124*Y694750D02*Y692500D01*
X158850Y694750D02*Y692500D01*
Y694750D02*X159600Y695500D01*
X160350D01*
X161100Y694750D01*
Y692500D01*
X158100Y695500D02*X158850Y694750D01*
X166350Y698500D02*Y693250D01*
X167100Y692500D01*
X165600Y696250D02*X167100D01*
X168600Y698500D02*Y692500D01*
Y694750D02*X169350Y695500D01*
X170850D01*
X171600Y694750D01*
Y692500D01*
G54D125*X173400Y697000D02*Y696850D01*
G54D124*Y694750D02*Y692500D01*
X175650D02*X177900D01*
X178650Y693250D01*
X177900Y694000D02*X178650Y693250D01*
X175650Y694000D02*X177900D01*
X174900Y694750D02*X175650Y694000D01*
X174900Y694750D02*X175650Y695500D01*
X177900D01*
X178650Y694750D01*
X174900Y693250D02*X175650Y692500D01*
X183150Y698500D02*Y693250D01*
X183900Y692500D01*
X187650Y695500D02*X188400Y694750D01*
X186150Y695500D02*X187650D01*
X185400Y694750D02*X186150Y695500D01*
X185400Y694750D02*Y693250D01*
X186150Y692500D01*
X188400Y695500D02*Y693250D01*
X189150Y692500D01*
X186150D02*X187650D01*
X188400Y693250D01*
X190950Y695500D02*Y693250D01*
X191700Y692500D01*
X193950Y695500D02*Y691000D01*
X193200Y690250D02*X193950Y691000D01*
X191700Y690250D02*X193200D01*
X190950Y691000D02*X191700Y690250D01*
Y692500D02*X193200D01*
X193950Y693250D01*
X195750Y694750D02*Y693250D01*
Y694750D02*X196500Y695500D01*
X198000D01*
X198750Y694750D01*
Y693250D01*
X198000Y692500D02*X198750Y693250D01*
X196500Y692500D02*X198000D01*
X195750Y693250D02*X196500Y692500D01*
X200550Y695500D02*Y693250D01*
X201300Y692500D01*
X202800D01*
X203550Y693250D01*
Y695500D02*Y693250D01*
X206100Y698500D02*Y693250D01*
X206850Y692500D01*
X205350Y696250D02*X206850D01*
X208350Y691000D02*X209850Y692500D01*
X214350Y697750D02*X215100Y698500D01*
X217350D01*
X218100Y697750D01*
Y696250D01*
X214350Y692500D02*X218100Y696250D01*
X214350Y692500D02*X218100D01*
X219900Y693250D02*X220650Y692500D01*
X219900Y697750D02*Y693250D01*
Y697750D02*X220650Y698500D01*
X222150D01*
X222900Y697750D01*
Y693250D01*
X222150Y692500D02*X222900Y693250D01*
X220650Y692500D02*X222150D01*
X219900Y694000D02*X222900Y697000D01*
X224700Y694750D02*X227700Y698500D01*
X224700Y694750D02*X228450D01*
X227700Y698500D02*Y692500D01*
X232950Y698500D02*Y692500D01*
Y694750D02*X233700Y695500D01*
X235200D01*
X235950Y694750D01*
Y692500D01*
X237750Y694750D02*Y693250D01*
Y694750D02*X238500Y695500D01*
X240000D01*
X240750Y694750D01*
Y693250D01*
X240000Y692500D02*X240750Y693250D01*
X238500Y692500D02*X240000D01*
X237750Y693250D02*X238500Y692500D01*
X242550Y698500D02*Y693250D01*
X243300Y692500D01*
X245550D02*X247800D01*
X244800Y693250D02*X245550Y692500D01*
X244800Y694750D02*Y693250D01*
Y694750D02*X245550Y695500D01*
X247050D01*
X247800Y694750D01*
X244800Y694000D02*X247800D01*
Y694750D02*Y694000D01*
X250350Y692500D02*X252600D01*
X253350Y693250D01*
X252600Y694000D02*X253350Y693250D01*
X250350Y694000D02*X252600D01*
X249600Y694750D02*X250350Y694000D01*
X249600Y694750D02*X250350Y695500D01*
X252600D01*
X253350Y694750D01*
X249600Y693250D02*X250350Y692500D01*
X258600Y698500D02*Y693250D01*
X259350Y692500D01*
X257850Y696250D02*X259350D01*
X260850Y694750D02*Y693250D01*
Y694750D02*X261600Y695500D01*
X263100D01*
X263850Y694750D01*
Y693250D01*
X263100Y692500D02*X263850Y693250D01*
X261600Y692500D02*X263100D01*
X260850Y693250D02*X261600Y692500D01*
X266400Y698500D02*Y693250D01*
X267150Y692500D01*
X265650Y696250D02*X267150D01*
X270900Y695500D02*X271650Y694750D01*
X269400Y695500D02*X270900D01*
X268650Y694750D02*X269400Y695500D01*
X268650Y694750D02*Y693250D01*
X269400Y692500D01*
X271650Y695500D02*Y693250D01*
X272400Y692500D01*
X269400D02*X270900D01*
X271650Y693250D01*
X274200Y698500D02*Y693250D01*
X274950Y692500D01*
G54D126*X7000Y523000D02*X0D01*
X27000Y543000D02*Y550000D01*
X248000D01*
Y543000D01*
X268000Y523000D02*X275000D01*
Y27000D01*
X268000D01*
X248000Y7000D02*Y0D01*
X27000D01*
Y7000D01*
X7000Y27000D02*X0D01*
Y523000D01*
X183500Y376000D02*Y325000D01*
X91500D01*
Y376000D01*
X183500D01*
X47500Y206000D02*Y155000D01*
Y206000D02*X139500D01*
Y155000D01*
X47500D02*X139500D01*
X27000Y543000D02*G75*G02X7000Y523000I-20000J0D01*G01*
X268000D02*G75*G02X248000Y543000I0J20000D01*G01*
Y7000D02*G75*G02X268000Y27000I20000J0D01*G01*
X7000D02*G75*G02X27000Y7000I0J-20000D01*G01*
G54D127*X119500Y351500D02*X120500D01*
X120000D02*Y347500D01*
X119500D02*X120500D01*
X122200Y349000D02*Y347500D01*
Y349000D02*X122700Y349500D01*
X123200D01*
X123700Y349000D01*
Y347500D01*
X121700Y349500D02*X122200Y349000D01*
X125400Y351500D02*Y348000D01*
X125900Y347500D01*
X124900Y350000D02*X125900D01*
X127400Y347500D02*X128900D01*
X126900Y348000D02*X127400Y347500D01*
X126900Y349000D02*Y348000D01*
Y349000D02*X127400Y349500D01*
X128400D01*
X128900Y349000D01*
X126900Y348500D02*X128900D01*
Y349000D02*Y348500D01*
X130600Y349000D02*Y347500D01*
Y349000D02*X131100Y349500D01*
X132100D01*
X130100D02*X130600Y349000D01*
G54D128*X133300Y350500D02*Y350400D01*
G54D127*Y349000D02*Y347500D01*
X134300Y349000D02*Y348000D01*
Y349000D02*X134800Y349500D01*
X135800D01*
X136300Y349000D01*
Y348000D01*
X135800Y347500D02*X136300Y348000D01*
X134800Y347500D02*X135800D01*
X134300Y348000D02*X134800Y347500D01*
X138000Y349000D02*Y347500D01*
Y349000D02*X138500Y349500D01*
X139500D01*
X137500D02*X138000Y349000D01*
X143200Y347500D02*X144500D01*
X142500Y348200D02*X143200Y347500D01*
X142500Y350800D02*Y348200D01*
Y350800D02*X143200Y351500D01*
X144500D01*
X145700Y349500D02*Y348000D01*
X146200Y347500D01*
X147200D01*
X147700Y348000D01*
Y349500D02*Y348000D01*
X149400Y351500D02*Y348000D01*
X149900Y347500D01*
X148900Y350000D02*X149900D01*
X150900Y349000D02*Y348000D01*
Y349000D02*X151400Y349500D01*
X152400D01*
X152900Y349000D01*
Y348000D01*
X152400Y347500D02*X152900Y348000D01*
X151400Y347500D02*X152400D01*
X150900Y348000D02*X151400Y347500D01*
X154100Y349500D02*Y348000D01*
X154600Y347500D01*
X155600D01*
X156100Y348000D01*
Y349500D02*Y348000D01*
X157800Y351500D02*Y348000D01*
X158300Y347500D01*
X157300Y350000D02*X158300D01*
X75500Y183000D02*X76500D01*
X76000D02*Y179000D01*
X75500D02*X76500D01*
X78200Y180500D02*Y179000D01*
Y180500D02*X78700Y181000D01*
X79200D01*
X79700Y180500D01*
Y179000D01*
X77700Y181000D02*X78200Y180500D01*
X81400Y183000D02*Y179500D01*
X81900Y179000D01*
X80900Y181500D02*X81900D01*
X83400Y179000D02*X84900D01*
X82900Y179500D02*X83400Y179000D01*
X82900Y180500D02*Y179500D01*
Y180500D02*X83400Y181000D01*
X84400D01*
X84900Y180500D01*
X82900Y180000D02*X84900D01*
Y180500D02*Y180000D01*
X86600Y180500D02*Y179000D01*
Y180500D02*X87100Y181000D01*
X88100D01*
X86100D02*X86600Y180500D01*
G54D128*X89300Y182000D02*Y181900D01*
G54D127*Y180500D02*Y179000D01*
X90300Y180500D02*Y179500D01*
Y180500D02*X90800Y181000D01*
X91800D01*
X92300Y180500D01*
Y179500D01*
X91800Y179000D02*X92300Y179500D01*
X90800Y179000D02*X91800D01*
X90300Y179500D02*X90800Y179000D01*
X94000Y180500D02*Y179000D01*
Y180500D02*X94500Y181000D01*
X95500D01*
X93500D02*X94000Y180500D01*
X99200Y179000D02*X100500D01*
X98500Y179700D02*X99200Y179000D01*
X98500Y182300D02*Y179700D01*
Y182300D02*X99200Y183000D01*
X100500D01*
X101700Y181000D02*Y179500D01*
X102200Y179000D01*
X103200D01*
X103700Y179500D01*
Y181000D02*Y179500D01*
X105400Y183000D02*Y179500D01*
X105900Y179000D01*
X104900Y181500D02*X105900D01*
X106900Y180500D02*Y179500D01*
Y180500D02*X107400Y181000D01*
X108400D01*
X108900Y180500D01*
Y179500D01*
X108400Y179000D02*X108900Y179500D01*
X107400Y179000D02*X108400D01*
X106900Y179500D02*X107400Y179000D01*
X110100Y181000D02*Y179500D01*
X110600Y179000D01*
X111600D01*
X112100Y179500D01*
Y181000D02*Y179500D01*
X113800Y183000D02*Y179500D01*
X114300Y179000D01*
X113300Y181500D02*X114300D01*
G54D124*X51175Y-9500D02*X54175D01*
X54925Y-8750D01*
Y-6950D02*Y-8750D01*
X54175Y-6200D02*X54925Y-6950D01*
X51925Y-6200D02*X54175D01*
X51925Y-3500D02*Y-9500D01*
X51175Y-3500D02*X54175D01*
X54925Y-4250D01*
Y-5450D01*
X54175Y-6200D02*X54925Y-5450D01*
X56725Y-7250D02*Y-8750D01*
Y-7250D02*X57475Y-6500D01*
X58975D01*
X59725Y-7250D01*
Y-8750D01*
X58975Y-9500D02*X59725Y-8750D01*
X57475Y-9500D02*X58975D01*
X56725Y-8750D02*X57475Y-9500D01*
X63775Y-6500D02*X64525Y-7250D01*
X62275Y-6500D02*X63775D01*
X61525Y-7250D02*X62275Y-6500D01*
X61525Y-7250D02*Y-8750D01*
X62275Y-9500D01*
X64525Y-6500D02*Y-8750D01*
X65275Y-9500D01*
X62275D02*X63775D01*
X64525Y-8750D01*
X67825Y-7250D02*Y-9500D01*
Y-7250D02*X68575Y-6500D01*
X70075D01*
X67075D02*X67825Y-7250D01*
X74875Y-3500D02*Y-9500D01*
X74125D02*X74875Y-8750D01*
X72625Y-9500D02*X74125D01*
X71875Y-8750D02*X72625Y-9500D01*
X71875Y-7250D02*Y-8750D01*
Y-7250D02*X72625Y-6500D01*
X74125D01*
X74875Y-7250D01*
X79375D02*Y-8750D01*
Y-7250D02*X80125Y-6500D01*
X81625D01*
X82375Y-7250D01*
Y-8750D01*
X81625Y-9500D02*X82375Y-8750D01*
X80125Y-9500D02*X81625D01*
X79375Y-8750D02*X80125Y-9500D01*
X84175Y-6500D02*Y-8750D01*
X84925Y-9500D01*
X86425D01*
X87175Y-8750D01*
Y-6500D02*Y-8750D01*
X89725Y-3500D02*Y-8750D01*
X90475Y-9500D01*
X88975Y-5750D02*X90475D01*
X91975Y-3500D02*Y-8750D01*
X92725Y-9500D01*
G54D125*X94225Y-5000D02*Y-5150D01*
G54D124*Y-7250D02*Y-9500D01*
X96475Y-7250D02*Y-9500D01*
Y-7250D02*X97225Y-6500D01*
X97975D01*
X98725Y-7250D01*
Y-9500D01*
X95725Y-6500D02*X96475Y-7250D01*
X101275Y-9500D02*X103525D01*
X100525Y-8750D02*X101275Y-9500D01*
X100525Y-7250D02*Y-8750D01*
Y-7250D02*X101275Y-6500D01*
X102775D01*
X103525Y-7250D01*
X100525Y-8000D02*X103525D01*
Y-7250D02*Y-8000D01*
G54D125*X108025Y-5000D02*Y-5150D01*
G54D124*Y-7250D02*Y-9500D01*
X110275D02*X112525D01*
X113275Y-8750D01*
X112525Y-8000D02*X113275Y-8750D01*
X110275Y-8000D02*X112525D01*
X109525Y-7250D02*X110275Y-8000D01*
X109525Y-7250D02*X110275Y-6500D01*
X112525D01*
X113275Y-7250D01*
X109525Y-8750D02*X110275Y-9500D01*
X118525Y-3500D02*Y-8750D01*
X119275Y-9500D01*
X117775Y-5750D02*X119275D01*
X120775Y-3500D02*Y-9500D01*
Y-7250D02*X121525Y-6500D01*
X123025D01*
X123775Y-7250D01*
Y-9500D01*
X126325D02*X128575D01*
X125575Y-8750D02*X126325Y-9500D01*
X125575Y-7250D02*Y-8750D01*
Y-7250D02*X126325Y-6500D01*
X127825D01*
X128575Y-7250D01*
X125575Y-8000D02*X128575D01*
Y-7250D02*Y-8000D01*
X133825Y-6500D02*X136075D01*
X133075Y-7250D02*X133825Y-6500D01*
X133075Y-7250D02*Y-8750D01*
X133825Y-9500D01*
X136075D01*
X138625D02*X140875D01*
X137875Y-8750D02*X138625Y-9500D01*
X137875Y-7250D02*Y-8750D01*
Y-7250D02*X138625Y-6500D01*
X140125D01*
X140875Y-7250D01*
X137875Y-8000D02*X140875D01*
Y-7250D02*Y-8000D01*
X143425Y-7250D02*Y-9500D01*
Y-7250D02*X144175Y-6500D01*
X144925D01*
X145675Y-7250D01*
Y-9500D01*
X142675Y-6500D02*X143425Y-7250D01*
X148225Y-3500D02*Y-8750D01*
X148975Y-9500D01*
X147475Y-5750D02*X148975D01*
X151225Y-9500D02*X153475D01*
X150475Y-8750D02*X151225Y-9500D01*
X150475Y-7250D02*Y-8750D01*
Y-7250D02*X151225Y-6500D01*
X152725D01*
X153475Y-7250D01*
X150475Y-8000D02*X153475D01*
Y-7250D02*Y-8000D01*
X156025Y-7250D02*Y-9500D01*
Y-7250D02*X156775Y-6500D01*
X158275D01*
X155275D02*X156025Y-7250D01*
X160075Y-3500D02*Y-8750D01*
X160825Y-9500D01*
G54D125*X162325Y-5000D02*Y-5150D01*
G54D124*Y-7250D02*Y-9500D01*
X164575Y-7250D02*Y-9500D01*
Y-7250D02*X165325Y-6500D01*
X166075D01*
X166825Y-7250D01*
Y-9500D01*
X163825Y-6500D02*X164575Y-7250D01*
X169375Y-9500D02*X171625D01*
X168625Y-8750D02*X169375Y-9500D01*
X168625Y-7250D02*Y-8750D01*
Y-7250D02*X169375Y-6500D01*
X170875D01*
X171625Y-7250D01*
X168625Y-8000D02*X171625D01*
Y-7250D02*Y-8000D01*
X176125Y-7250D02*Y-8750D01*
Y-7250D02*X176875Y-6500D01*
X178375D01*
X179125Y-7250D01*
Y-8750D01*
X178375Y-9500D02*X179125Y-8750D01*
X176875Y-9500D02*X178375D01*
X176125Y-8750D02*X176875Y-9500D01*
X181675Y-4250D02*Y-9500D01*
Y-4250D02*X182425Y-3500D01*
X183175D01*
X180925Y-6500D02*X182425D01*
X188125Y-3500D02*Y-8750D01*
X188875Y-9500D01*
X187375Y-5750D02*X188875D01*
X190375Y-3500D02*Y-9500D01*
Y-7250D02*X191125Y-6500D01*
X192625D01*
X193375Y-7250D01*
Y-9500D01*
G54D125*X195175Y-5000D02*Y-5150D01*
G54D124*Y-7250D02*Y-9500D01*
X197425D02*X199675D01*
X200425Y-8750D01*
X199675Y-8000D02*X200425Y-8750D01*
X197425Y-8000D02*X199675D01*
X196675Y-7250D02*X197425Y-8000D01*
X196675Y-7250D02*X197425Y-6500D01*
X199675D01*
X200425Y-7250D01*
X196675Y-8750D02*X197425Y-9500D01*
X205675Y-7250D02*Y-11750D01*
X204925Y-6500D02*X205675Y-7250D01*
X206425Y-6500D01*
X207925D01*
X208675Y-7250D01*
Y-8750D01*
X207925Y-9500D02*X208675Y-8750D01*
X206425Y-9500D02*X207925D01*
X205675Y-8750D02*X206425Y-9500D01*
X212725Y-6500D02*X213475Y-7250D01*
X211225Y-6500D02*X212725D01*
X210475Y-7250D02*X211225Y-6500D01*
X210475Y-7250D02*Y-8750D01*
X211225Y-9500D01*
X213475Y-6500D02*Y-8750D01*
X214225Y-9500D01*
X211225D02*X212725D01*
X213475Y-8750D01*
X216775Y-3500D02*Y-8750D01*
X217525Y-9500D01*
X216025Y-5750D02*X217525D01*
X219025Y-3500D02*Y-9500D01*
Y-7250D02*X219775Y-6500D01*
X221275D01*
X222025Y-7250D01*
Y-9500D01*
X200750Y578500D02*Y572500D01*
X202700Y578500D02*X203750Y577450D01*
Y573550D01*
X202700Y572500D02*X203750Y573550D01*
X200000Y572500D02*X202700D01*
X200000Y578500D02*X202700D01*
X207800Y575500D02*X208550Y574750D01*
X206300Y575500D02*X207800D01*
X205550Y574750D02*X206300Y575500D01*
X205550Y574750D02*Y573250D01*
X206300Y572500D01*
X208550Y575500D02*Y573250D01*
X209300Y572500D01*
X206300D02*X207800D01*
X208550Y573250D01*
X211850Y578500D02*Y573250D01*
X212600Y572500D01*
X211100Y576250D02*X212600D01*
X214850Y572500D02*X217100D01*
X214100Y573250D02*X214850Y572500D01*
X214100Y574750D02*Y573250D01*
Y574750D02*X214850Y575500D01*
X216350D01*
X217100Y574750D01*
X214100Y574000D02*X217100D01*
Y574750D02*Y574000D01*
X218900Y576250D02*X219650D01*
X218900Y574750D02*X219650D01*
X224150Y578500D02*X227150D01*
X225650D02*Y572500D01*
X228950Y575500D02*Y573250D01*
X229700Y572500D01*
X231200D01*
X231950Y573250D01*
Y575500D02*Y573250D01*
X234500Y572500D02*X236750D01*
X233750Y573250D02*X234500Y572500D01*
X233750Y574750D02*Y573250D01*
Y574750D02*X234500Y575500D01*
X236000D01*
X236750Y574750D01*
X233750Y574000D02*X236750D01*
Y574750D02*Y574000D01*
X241250Y577750D02*X242000Y578500D01*
X244250D01*
X245000Y577750D01*
Y576250D01*
X241250Y572500D02*X245000Y576250D01*
X241250Y572500D02*X245000D01*
X246800Y573250D02*X247550Y572500D01*
X246800Y574450D02*Y573250D01*
Y574450D02*X247850Y575500D01*
X248750D01*
X249800Y574450D01*
Y573250D01*
X249050Y572500D02*X249800Y573250D01*
X247550Y572500D02*X249050D01*
X246800Y576550D02*X247850Y575500D01*
X246800Y577750D02*Y576550D01*
Y577750D02*X247550Y578500D01*
X249050D01*
X249800Y577750D01*
Y576550D01*
X248750Y575500D02*X249800Y576550D01*
X255350Y578500D02*X256550D01*
Y573250D01*
X255800Y572500D02*X256550Y573250D01*
X255050Y572500D02*X255800D01*
X254300Y573250D02*X255050Y572500D01*
X254300Y574000D02*Y573250D01*
X258350Y575500D02*Y573250D01*
X259100Y572500D01*
X260600D01*
X261350Y573250D01*
Y575500D02*Y573250D01*
X263900Y574750D02*Y572500D01*
Y574750D02*X264650Y575500D01*
X265400D01*
X266150Y574750D01*
Y572500D01*
X263150Y575500D02*X263900Y574750D01*
X270650Y577750D02*X271400Y578500D01*
X273650D01*
X274400Y577750D01*
Y576250D01*
X270650Y572500D02*X274400Y576250D01*
X270650Y572500D02*X274400D01*
X276200Y573250D02*X276950Y572500D01*
X276200Y577750D02*Y573250D01*
Y577750D02*X276950Y578500D01*
X278450D01*
X279200Y577750D01*
Y573250D01*
X278450Y572500D02*X279200Y573250D01*
X276950Y572500D02*X278450D01*
X276200Y574000D02*X279200Y577000D01*
X281000Y577300D02*X282200Y578500D01*
Y572500D01*
X281000D02*X283250D01*
X287300Y578500D02*X288050Y577750D01*
X285800Y578500D02*X287300D01*
X285050Y577750D02*X285800Y578500D01*
X285050Y577750D02*Y573250D01*
X285800Y572500D01*
X287300Y575800D02*X288050Y575050D01*
X285050Y575800D02*X287300D01*
X285800Y572500D02*X287300D01*
X288050Y573250D01*
Y575050D02*Y573250D01*
X292550D02*X293300Y572500D01*
X292550Y577750D02*Y573250D01*
Y577750D02*X293300Y578500D01*
X294800D01*
X295550Y577750D01*
Y573250D01*
X294800Y572500D02*X295550Y573250D01*
X293300Y572500D02*X294800D01*
X292550Y574000D02*X295550Y577000D01*
X297350Y577750D02*X298100Y578500D01*
X299600D01*
X300350Y577750D01*
X299600Y572500D02*X300350Y573250D01*
X298100Y572500D02*X299600D01*
X297350Y573250D02*X298100Y572500D01*
Y575800D02*X299600D01*
X300350Y577750D02*Y576550D01*
Y575050D02*Y573250D01*
Y575050D02*X299600Y575800D01*
X300350Y576550D02*X299600Y575800D01*
X302150Y576250D02*X302900D01*
X302150Y574750D02*X302900D01*
X304700Y577300D02*X305900Y578500D01*
Y572500D01*
X304700D02*X306950D01*
X308750Y577750D02*X309500Y578500D01*
X311750D01*
X312500Y577750D01*
Y576250D01*
X308750Y572500D02*X312500Y576250D01*
X308750Y572500D02*X312500D01*
X314300Y576250D02*X315050D01*
X314300Y574750D02*X315050D01*
X316850D02*X319850Y578500D01*
X316850Y574750D02*X320600D01*
X319850Y578500D02*Y572500D01*
X322400Y573250D02*X323150Y572500D01*
X322400Y577750D02*Y573250D01*
Y577750D02*X323150Y578500D01*
X324650D01*
X325400Y577750D01*
Y573250D01*
X324650Y572500D02*X325400Y573250D01*
X323150Y572500D02*X324650D01*
X322400Y574000D02*X325400Y577000D01*
X329900D02*Y572500D01*
Y577000D02*X330950Y578500D01*
X332600D01*
X333650Y577000D01*
Y572500D01*
X329900Y575500D02*X333650D01*
X335450Y578500D02*Y572500D01*
Y578500D02*X337700Y575500D01*
X339950Y578500D01*
Y572500D01*
X347450Y578500D02*X348200Y577750D01*
X345200Y578500D02*X347450D01*
X344450Y577750D02*X345200Y578500D01*
X344450Y577750D02*Y573250D01*
X345200Y572500D01*
X347450D01*
X348200Y573250D01*
Y574750D02*Y573250D01*
X347450Y575500D02*X348200Y574750D01*
X345950Y575500D02*X347450D01*
X350000Y578500D02*Y572500D01*
Y578500D02*X352250Y575500D01*
X354500Y578500D01*
Y572500D01*
X356300Y578500D02*X359300D01*
X357800D02*Y572500D01*
X363800Y578500D02*Y573250D01*
X364550Y572500D01*
X366050D01*
X366800Y573250D01*
Y578500D02*Y573250D01*
X368600Y578500D02*X371600D01*
X370100D02*Y572500D01*
X374450D02*X376400D01*
X373400Y573550D02*X374450Y572500D01*
X373400Y577450D02*Y573550D01*
Y577450D02*X374450Y578500D01*
X376400D01*
X200000Y592000D02*Y587500D01*
Y592000D02*X201050Y593500D01*
X202700D01*
X203750Y592000D01*
Y587500D01*
X200000Y590500D02*X203750D01*
X205550D02*Y588250D01*
X206300Y587500D01*
X207800D01*
X208550Y588250D01*
Y590500D02*Y588250D01*
X211100Y593500D02*Y588250D01*
X211850Y587500D01*
X210350Y591250D02*X211850D01*
X213350Y593500D02*Y587500D01*
Y589750D02*X214100Y590500D01*
X215600D01*
X216350Y589750D01*
Y587500D01*
X218150Y589750D02*Y588250D01*
Y589750D02*X218900Y590500D01*
X220400D01*
X221150Y589750D01*
Y588250D01*
X220400Y587500D02*X221150Y588250D01*
X218900Y587500D02*X220400D01*
X218150Y588250D02*X218900Y587500D01*
X223700Y589750D02*Y587500D01*
Y589750D02*X224450Y590500D01*
X225950D01*
X222950D02*X223700Y589750D01*
X227750Y591250D02*X228500D01*
X227750Y589750D02*X228500D01*
X233000Y593500D02*Y587500D01*
Y593500D02*X235250Y590500D01*
X237500Y593500D01*
Y587500D01*
G54D125*X239300Y592000D02*Y591850D01*
G54D124*Y589750D02*Y587500D01*
X241550Y590500D02*X243800D01*
X240800Y589750D02*X241550Y590500D01*
X240800Y589750D02*Y588250D01*
X241550Y587500D01*
X243800D01*
X245600Y593500D02*Y587500D01*
Y589750D02*X246350Y590500D01*
X247850D01*
X248600Y589750D01*
Y587500D01*
X252650Y590500D02*X253400Y589750D01*
X251150Y590500D02*X252650D01*
X250400Y589750D02*X251150Y590500D01*
X250400Y589750D02*Y588250D01*
X251150Y587500D01*
X253400Y590500D02*Y588250D01*
X254150Y587500D01*
X251150D02*X252650D01*
X253400Y588250D01*
X256700Y587500D02*X258950D01*
X255950Y588250D02*X256700Y587500D01*
X255950Y589750D02*Y588250D01*
Y589750D02*X256700Y590500D01*
X258200D01*
X258950Y589750D01*
X255950Y589000D02*X258950D01*
Y589750D02*Y589000D01*
X260750Y593500D02*Y588250D01*
X261500Y587500D01*
X266450Y593500D02*Y587500D01*
X265700Y593500D02*X268700D01*
X269450Y592750D01*
Y591250D01*
X268700Y590500D02*X269450Y591250D01*
X266450Y590500D02*X268700D01*
X272000Y587500D02*X274250D01*
X271250Y588250D02*X272000Y587500D01*
X271250Y589750D02*Y588250D01*
Y589750D02*X272000Y590500D01*
X273500D01*
X274250Y589750D01*
X271250Y589000D02*X274250D01*
Y589750D02*Y589000D01*
X276800Y593500D02*Y588250D01*
X277550Y587500D01*
X276050Y591250D02*X277550D01*
X279800Y587500D02*X282050D01*
X279050Y588250D02*X279800Y587500D01*
X279050Y589750D02*Y588250D01*
Y589750D02*X279800Y590500D01*
X281300D01*
X282050Y589750D01*
X279050Y589000D02*X282050D01*
Y589750D02*Y589000D01*
X284600Y589750D02*Y587500D01*
Y589750D02*X285350Y590500D01*
X286850D01*
X283850D02*X284600Y589750D01*
X289400Y587500D02*X291650D01*
X292400Y588250D01*
X291650Y589000D02*X292400Y588250D01*
X289400Y589000D02*X291650D01*
X288650Y589750D02*X289400Y589000D01*
X288650Y589750D02*X289400Y590500D01*
X291650D01*
X292400Y589750D01*
X288650Y588250D02*X289400Y587500D01*
X294950D02*X297200D01*
X294200Y588250D02*X294950Y587500D01*
X294200Y589750D02*Y588250D01*
Y589750D02*X294950Y590500D01*
X296450D01*
X297200Y589750D01*
X294200Y589000D02*X297200D01*
Y589750D02*Y589000D01*
X299750Y589750D02*Y587500D01*
Y589750D02*X300500Y590500D01*
X301250D01*
X302000Y589750D01*
Y587500D01*
X299000Y590500D02*X299750Y589750D01*
X200000Y608500D02*X203000D01*
X201500D02*Y602500D01*
G54D125*X204800Y607000D02*Y606850D01*
G54D124*Y604750D02*Y602500D01*
X207050Y608500D02*Y603250D01*
X207800Y602500D01*
X206300Y606250D02*X207800D01*
X209300Y608500D02*Y603250D01*
X210050Y602500D01*
X212300D02*X214550D01*
X211550Y603250D02*X212300Y602500D01*
X211550Y604750D02*Y603250D01*
Y604750D02*X212300Y605500D01*
X213800D01*
X214550Y604750D01*
X211550Y604000D02*X214550D01*
Y604750D02*Y604000D01*
X216350Y606250D02*X217100D01*
X216350Y604750D02*X217100D01*
X221600Y603250D02*X222350Y602500D01*
X221600Y607750D02*X222350Y608500D01*
X221600Y607750D02*Y603250D01*
X224150Y605500D02*Y603250D01*
X224900Y602500D01*
X226400D01*
X227150Y603250D01*
Y605500D02*Y603250D01*
X229700Y604750D02*Y602500D01*
Y604750D02*X230450Y605500D01*
X231200D01*
X231950Y604750D01*
Y602500D01*
X228950Y605500D02*X229700Y604750D01*
X233750Y608500D02*Y602500D01*
Y604750D02*X236000Y602500D01*
X233750Y604750D02*X235250Y606250D01*
X238550Y604750D02*Y602500D01*
Y604750D02*X239300Y605500D01*
X240050D01*
X240800Y604750D01*
Y602500D01*
X237800Y605500D02*X238550Y604750D01*
X242600D02*Y603250D01*
Y604750D02*X243350Y605500D01*
X244850D01*
X245600Y604750D01*
Y603250D01*
X244850Y602500D02*X245600Y603250D01*
X243350Y602500D02*X244850D01*
X242600Y603250D02*X243350Y602500D01*
X247400Y605500D02*Y603250D01*
X248150Y602500D01*
X248900D01*
X249650Y603250D01*
Y605500D02*Y603250D01*
X250400Y602500D01*
X251150D01*
X251900Y603250D01*
Y605500D02*Y603250D01*
X254450Y604750D02*Y602500D01*
Y604750D02*X255200Y605500D01*
X255950D01*
X256700Y604750D01*
Y602500D01*
X253700Y605500D02*X254450Y604750D01*
X258500Y608500D02*X259250Y607750D01*
Y603250D01*
X258500Y602500D02*X259250Y603250D01*
X263750Y605500D02*X266750D01*
X271250Y608500D02*Y602500D01*
Y608500D02*X274250D01*
X271250Y605800D02*X273500D01*
X278300Y605500D02*X279050Y604750D01*
X276800Y605500D02*X278300D01*
X276050Y604750D02*X276800Y605500D01*
X276050Y604750D02*Y603250D01*
X276800Y602500D01*
X279050Y605500D02*Y603250D01*
X279800Y602500D01*
X276800D02*X278300D01*
X279050Y603250D01*
X281600Y608500D02*Y602500D01*
Y603250D02*X282350Y602500D01*
X283850D01*
X284600Y603250D01*
Y604750D02*Y603250D01*
X283850Y605500D02*X284600Y604750D01*
X282350Y605500D02*X283850D01*
X281600Y604750D02*X282350Y605500D01*
X287150Y604750D02*Y602500D01*
Y604750D02*X287900Y605500D01*
X289400D01*
X286400D02*X287150Y604750D01*
G54D125*X291200Y607000D02*Y606850D01*
G54D124*Y604750D02*Y602500D01*
X293450Y605500D02*X295700D01*
X292700Y604750D02*X293450Y605500D01*
X292700Y604750D02*Y603250D01*
X293450Y602500D01*
X295700D01*
X299750Y605500D02*X300500Y604750D01*
X298250Y605500D02*X299750D01*
X297500Y604750D02*X298250Y605500D01*
X297500Y604750D02*Y603250D01*
X298250Y602500D01*
X300500Y605500D02*Y603250D01*
X301250Y602500D01*
X298250D02*X299750D01*
X300500Y603250D01*
X303800Y608500D02*Y603250D01*
X304550Y602500D01*
X303050Y606250D02*X304550D01*
G54D125*X306050Y607000D02*Y606850D01*
G54D124*Y604750D02*Y602500D01*
X307550Y604750D02*Y603250D01*
Y604750D02*X308300Y605500D01*
X309800D01*
X310550Y604750D01*
Y603250D01*
X309800Y602500D02*X310550Y603250D01*
X308300Y602500D02*X309800D01*
X307550Y603250D02*X308300Y602500D01*
X313100Y604750D02*Y602500D01*
Y604750D02*X313850Y605500D01*
X314600D01*
X315350Y604750D01*
Y602500D01*
X312350Y605500D02*X313100Y604750D01*
X320600Y608500D02*Y602500D01*
X322550Y608500D02*X323600Y607450D01*
Y603550D01*
X322550Y602500D02*X323600Y603550D01*
X319850Y602500D02*X322550D01*
X319850Y608500D02*X322550D01*
X326150Y604750D02*Y602500D01*
Y604750D02*X326900Y605500D01*
X328400D01*
X325400D02*X326150Y604750D01*
X332450Y605500D02*X333200Y604750D01*
X330950Y605500D02*X332450D01*
X330200Y604750D02*X330950Y605500D01*
X330200Y604750D02*Y603250D01*
X330950Y602500D01*
X333200Y605500D02*Y603250D01*
X333950Y602500D01*
X330950D02*X332450D01*
X333200Y603250D01*
X335750Y605500D02*Y603250D01*
X336500Y602500D01*
X337250D01*
X338000Y603250D01*
Y605500D02*Y603250D01*
X338750Y602500D01*
X339500D01*
X340250Y603250D01*
Y605500D02*Y603250D01*
G54D125*X342050Y607000D02*Y606850D01*
G54D124*Y604750D02*Y602500D01*
X344300Y604750D02*Y602500D01*
Y604750D02*X345050Y605500D01*
X345800D01*
X346550Y604750D01*
Y602500D01*
X343550Y605500D02*X344300Y604750D01*
X350600Y605500D02*X351350Y604750D01*
X349100Y605500D02*X350600D01*
X348350Y604750D02*X349100Y605500D01*
X348350Y604750D02*Y603250D01*
X349100Y602500D01*
X350600D01*
X351350Y603250D01*
X348350Y601000D02*X349100Y600250D01*
X350600D01*
X351350Y601000D01*
Y605500D02*Y601000D01*
M02*
