G04 start of page 3 for group 1 idx 1 *
G04 Title: (unknown), bottom *
G04 Creator: pcb 20140316 *
G04 CreationDate: Thu 02 Jul 2020 08:53:44 PM GMT UTC *
G04 For: railfan *
G04 Format: Gerber/RS-274X *
G04 PCB-Dimensions (mil): 2750.00 2500.00 *
G04 PCB-Coordinate-Origin: lower left *
%MOIN*%
%FSLAX25Y25*%
%LNBOTTOM*%
%ADD32C,0.0315*%
%ADD31C,0.0960*%
%ADD30C,0.0420*%
%ADD29C,0.0200*%
%ADD28C,0.0360*%
%ADD27C,0.0800*%
%ADD26C,0.1360*%
%ADD25C,0.0600*%
%ADD24C,0.0300*%
%ADD23C,0.0001*%
G54D23*G36*
X249988Y173000D02*X273000D01*
Y89916D01*
X272965Y89931D01*
X272735Y89986D01*
X272500Y90000D01*
X266265Y89986D01*
X266035Y89931D01*
X265817Y89841D01*
X265616Y89717D01*
X265436Y89564D01*
X265283Y89384D01*
X265159Y89183D01*
X265069Y88965D01*
X265014Y88735D01*
X265000Y88500D01*
X265014Y82265D01*
X265069Y82035D01*
X265159Y81817D01*
X265283Y81616D01*
X265436Y81436D01*
X265616Y81283D01*
X265817Y81159D01*
X266035Y81069D01*
X266265Y81014D01*
X266500Y81000D01*
X272735Y81014D01*
X272965Y81069D01*
X273000Y81084D01*
Y78331D01*
X272692Y78692D01*
X272153Y79152D01*
X271549Y79522D01*
X270895Y79793D01*
X270206Y79958D01*
X269500Y80014D01*
X268794Y79958D01*
X268105Y79793D01*
X267451Y79522D01*
X266847Y79152D01*
X266308Y78692D01*
X265848Y78153D01*
X265478Y77549D01*
X265207Y76895D01*
X265042Y76206D01*
X264986Y75500D01*
X265042Y74794D01*
X265207Y74105D01*
X265478Y73451D01*
X265848Y72847D01*
X266308Y72308D01*
X266847Y71848D01*
X267451Y71478D01*
X268105Y71207D01*
X268794Y71042D01*
X269500Y70986D01*
X270206Y71042D01*
X270895Y71207D01*
X271549Y71478D01*
X272153Y71848D01*
X272692Y72308D01*
X273000Y72669D01*
Y68331D01*
X272692Y68692D01*
X272153Y69152D01*
X271549Y69522D01*
X270895Y69793D01*
X270206Y69958D01*
X269500Y70014D01*
X268794Y69958D01*
X268105Y69793D01*
X267451Y69522D01*
X266847Y69152D01*
X266308Y68692D01*
X265848Y68153D01*
X265478Y67549D01*
X265207Y66895D01*
X265042Y66206D01*
X264986Y65500D01*
X265042Y64794D01*
X265207Y64105D01*
X265478Y63451D01*
X265848Y62847D01*
X266308Y62308D01*
X266847Y61848D01*
X267451Y61478D01*
X268105Y61207D01*
X268794Y61042D01*
X269500Y60986D01*
X270206Y61042D01*
X270895Y61207D01*
X271549Y61478D01*
X272153Y61848D01*
X272692Y62308D01*
X273000Y62669D01*
Y58331D01*
X272692Y58692D01*
X272153Y59152D01*
X271549Y59522D01*
X270895Y59793D01*
X270206Y59958D01*
X269500Y60014D01*
X268794Y59958D01*
X268105Y59793D01*
X267451Y59522D01*
X266847Y59152D01*
X266308Y58692D01*
X265848Y58153D01*
X265478Y57549D01*
X265207Y56895D01*
X265042Y56206D01*
X264986Y55500D01*
X265042Y54794D01*
X265207Y54105D01*
X265478Y53451D01*
X265848Y52847D01*
X266308Y52308D01*
X266847Y51848D01*
X267451Y51478D01*
X268105Y51207D01*
X268794Y51042D01*
X269500Y50986D01*
X270206Y51042D01*
X270895Y51207D01*
X271549Y51478D01*
X272153Y51848D01*
X272692Y52308D01*
X273000Y52669D01*
Y48331D01*
X272692Y48692D01*
X272153Y49152D01*
X271549Y49522D01*
X270895Y49793D01*
X270206Y49958D01*
X269500Y50014D01*
X268794Y49958D01*
X268105Y49793D01*
X267451Y49522D01*
X266847Y49152D01*
X266308Y48692D01*
X265848Y48153D01*
X265478Y47549D01*
X265207Y46895D01*
X265042Y46206D01*
X264986Y45500D01*
X265042Y44794D01*
X265207Y44105D01*
X265478Y43451D01*
X265848Y42847D01*
X266308Y42308D01*
X266847Y41848D01*
X267451Y41478D01*
X268105Y41207D01*
X268794Y41042D01*
X269500Y40986D01*
X270206Y41042D01*
X270895Y41207D01*
X271549Y41478D01*
X272153Y41848D01*
X272692Y42308D01*
X273000Y42669D01*
Y38331D01*
X272692Y38692D01*
X272153Y39152D01*
X271549Y39522D01*
X270895Y39793D01*
X270206Y39958D01*
X269500Y40014D01*
X268794Y39958D01*
X268105Y39793D01*
X267451Y39522D01*
X266847Y39152D01*
X266308Y38692D01*
X265848Y38153D01*
X265478Y37549D01*
X265207Y36895D01*
X265042Y36206D01*
X264986Y35500D01*
X265042Y34794D01*
X265207Y34105D01*
X265478Y33451D01*
X265848Y32847D01*
X266308Y32308D01*
X266847Y31848D01*
X267451Y31478D01*
X268105Y31207D01*
X268794Y31042D01*
X269500Y30986D01*
X270206Y31042D01*
X270895Y31207D01*
X271549Y31478D01*
X272153Y31848D01*
X272692Y32308D01*
X273000Y32669D01*
Y28331D01*
X272692Y28692D01*
X272153Y29152D01*
X271549Y29522D01*
X270895Y29793D01*
X270206Y29958D01*
X269500Y30014D01*
X268794Y29958D01*
X268105Y29793D01*
X267451Y29522D01*
X266847Y29152D01*
X266308Y28692D01*
X265848Y28153D01*
X265754Y28000D01*
X255279D01*
X255275Y28003D01*
X254868Y28171D01*
X254439Y28274D01*
X254000Y28309D01*
X253561Y28274D01*
X253132Y28171D01*
X252725Y28003D01*
X252349Y27772D01*
X252014Y27486D01*
X251728Y27151D01*
X251497Y26775D01*
X251329Y26368D01*
X251226Y25939D01*
X251191Y25500D01*
X251226Y25061D01*
X251329Y24632D01*
X251497Y24225D01*
X251728Y23849D01*
X252014Y23514D01*
X252349Y23228D01*
X252725Y22997D01*
X253132Y22829D01*
X253561Y22726D01*
X254000Y22691D01*
X254439Y22726D01*
X254868Y22829D01*
X255275Y22997D01*
X255279Y23000D01*
X265754D01*
X265848Y22847D01*
X266308Y22308D01*
X266847Y21848D01*
X267451Y21478D01*
X268105Y21207D01*
X268794Y21042D01*
X269500Y20986D01*
X270206Y21042D01*
X270895Y21207D01*
X271549Y21478D01*
X272153Y21848D01*
X272692Y22308D01*
X273000Y22669D01*
Y18331D01*
X272692Y18692D01*
X272153Y19152D01*
X271549Y19522D01*
X270895Y19793D01*
X270206Y19958D01*
X269500Y20014D01*
X268794Y19958D01*
X268105Y19793D01*
X267451Y19522D01*
X266847Y19152D01*
X266308Y18692D01*
X265848Y18153D01*
X265478Y17549D01*
X265207Y16895D01*
X265042Y16206D01*
X264986Y15500D01*
X265042Y14794D01*
X265207Y14105D01*
X265478Y13451D01*
X265848Y12847D01*
X266308Y12308D01*
X266847Y11848D01*
X267451Y11478D01*
X268105Y11207D01*
X268794Y11042D01*
X269500Y10986D01*
X270206Y11042D01*
X270895Y11207D01*
X271549Y11478D01*
X272153Y11848D01*
X272692Y12308D01*
X273000Y12669D01*
Y8331D01*
X272692Y8692D01*
X272153Y9152D01*
X271549Y9522D01*
X270895Y9793D01*
X270206Y9958D01*
X269500Y10014D01*
X268794Y9958D01*
X268105Y9793D01*
X267451Y9522D01*
X266847Y9152D01*
X266308Y8692D01*
X265848Y8153D01*
X265478Y7549D01*
X265207Y6895D01*
X265042Y6206D01*
X264986Y5500D01*
X265042Y4794D01*
X265207Y4105D01*
X265478Y3451D01*
X265848Y2847D01*
X266308Y2308D01*
X266669Y2000D01*
X249988D01*
Y142177D01*
X250000Y142176D01*
X251224Y142272D01*
X252418Y142559D01*
X253552Y143029D01*
X254599Y143670D01*
X255532Y144468D01*
X256330Y145401D01*
X256971Y146448D01*
X257441Y147582D01*
X257728Y148776D01*
X257800Y150000D01*
X257728Y151224D01*
X257441Y152418D01*
X256971Y153552D01*
X256330Y154599D01*
X255532Y155532D01*
X254599Y156330D01*
X253552Y156971D01*
X252418Y157441D01*
X251224Y157728D01*
X250000Y157824D01*
X249988Y157823D01*
Y173000D01*
G37*
G36*
X216559Y151781D02*X216684Y151253D01*
X216771Y150629D01*
X216800Y150000D01*
X216771Y149371D01*
X216684Y148747D01*
X216559Y148219D01*
Y151781D01*
G37*
G36*
Y173000D02*X249988D01*
Y157823D01*
X248776Y157728D01*
X247582Y157441D01*
X246448Y156971D01*
X245401Y156330D01*
X244468Y155532D01*
X243670Y154599D01*
X243029Y153552D01*
X242559Y152418D01*
X242272Y151224D01*
X242176Y150000D01*
X242272Y148776D01*
X242559Y147582D01*
X243029Y146448D01*
X243670Y145401D01*
X244468Y144468D01*
X245401Y143670D01*
X246448Y143029D01*
X247582Y142559D01*
X248776Y142272D01*
X249988Y142177D01*
Y2000D01*
X216559D01*
Y145775D01*
X216633Y145880D01*
X216986Y146511D01*
X217278Y147173D01*
X217509Y147858D01*
X217675Y148562D01*
X217775Y149278D01*
X217808Y150000D01*
X217775Y150722D01*
X217675Y151438D01*
X217509Y152142D01*
X217278Y152827D01*
X216986Y153489D01*
X216633Y154120D01*
X216559Y154228D01*
Y173000D01*
G37*
G36*
X210004D02*X216559D01*
Y154228D01*
X216224Y154716D01*
X216171Y154776D01*
X216109Y154826D01*
X216040Y154867D01*
X215966Y154896D01*
X215888Y154913D01*
X215808Y154917D01*
X215729Y154910D01*
X215651Y154889D01*
X215578Y154857D01*
X215511Y154814D01*
X215451Y154761D01*
X215401Y154699D01*
X215360Y154630D01*
X215331Y154556D01*
X215314Y154478D01*
X215310Y154398D01*
X215318Y154319D01*
X215338Y154242D01*
X215370Y154169D01*
X215414Y154102D01*
X215777Y153588D01*
X216084Y153038D01*
X216339Y152462D01*
X216539Y151865D01*
X216559Y151781D01*
Y148219D01*
X216539Y148135D01*
X216339Y147538D01*
X216084Y146962D01*
X215777Y146412D01*
X215420Y145893D01*
X215376Y145828D01*
X215345Y145756D01*
X215325Y145680D01*
X215317Y145601D01*
X215322Y145523D01*
X215338Y145446D01*
X215367Y145373D01*
X215407Y145305D01*
X215457Y145244D01*
X215516Y145192D01*
X215582Y145149D01*
X215654Y145118D01*
X215730Y145098D01*
X215808Y145090D01*
X215887Y145095D01*
X215964Y145111D01*
X216037Y145140D01*
X216105Y145180D01*
X216166Y145230D01*
X216217Y145289D01*
X216559Y145775D01*
Y2000D01*
X210004D01*
Y142192D01*
X210722Y142225D01*
X211438Y142325D01*
X212142Y142491D01*
X212827Y142722D01*
X213489Y143014D01*
X214120Y143367D01*
X214716Y143776D01*
X214776Y143829D01*
X214826Y143891D01*
X214867Y143960D01*
X214896Y144034D01*
X214913Y144112D01*
X214917Y144192D01*
X214910Y144271D01*
X214889Y144349D01*
X214857Y144422D01*
X214814Y144489D01*
X214761Y144549D01*
X214699Y144599D01*
X214630Y144640D01*
X214556Y144669D01*
X214478Y144686D01*
X214398Y144690D01*
X214319Y144682D01*
X214242Y144662D01*
X214169Y144630D01*
X214102Y144586D01*
X213588Y144223D01*
X213038Y143916D01*
X212462Y143661D01*
X211865Y143461D01*
X211253Y143316D01*
X210629Y143229D01*
X210004Y143200D01*
Y156800D01*
X210629Y156771D01*
X211253Y156684D01*
X211865Y156539D01*
X212462Y156339D01*
X213038Y156084D01*
X213588Y155777D01*
X214107Y155420D01*
X214172Y155376D01*
X214244Y155345D01*
X214320Y155325D01*
X214399Y155317D01*
X214477Y155322D01*
X214554Y155338D01*
X214627Y155367D01*
X214695Y155407D01*
X214756Y155457D01*
X214808Y155516D01*
X214851Y155582D01*
X214882Y155654D01*
X214902Y155730D01*
X214910Y155808D01*
X214905Y155887D01*
X214889Y155964D01*
X214860Y156037D01*
X214820Y156105D01*
X214770Y156166D01*
X214711Y156217D01*
X214120Y156633D01*
X213489Y156986D01*
X212827Y157278D01*
X212142Y157509D01*
X211438Y157675D01*
X210722Y157775D01*
X210004Y157808D01*
Y173000D01*
G37*
G36*
X203441D02*X210004D01*
Y157808D01*
X210000Y157808D01*
X209278Y157775D01*
X208562Y157675D01*
X207858Y157509D01*
X207173Y157278D01*
X206511Y156986D01*
X205880Y156633D01*
X205284Y156224D01*
X205224Y156171D01*
X205174Y156109D01*
X205133Y156040D01*
X205104Y155966D01*
X205087Y155888D01*
X205083Y155808D01*
X205090Y155729D01*
X205111Y155651D01*
X205143Y155578D01*
X205186Y155511D01*
X205239Y155451D01*
X205301Y155401D01*
X205370Y155360D01*
X205444Y155331D01*
X205522Y155314D01*
X205602Y155310D01*
X205681Y155318D01*
X205758Y155338D01*
X205831Y155370D01*
X205898Y155414D01*
X206412Y155777D01*
X206962Y156084D01*
X207538Y156339D01*
X208135Y156539D01*
X208747Y156684D01*
X209371Y156771D01*
X210000Y156800D01*
X210004Y156800D01*
Y143200D01*
X210000Y143200D01*
X209371Y143229D01*
X208747Y143316D01*
X208135Y143461D01*
X207538Y143661D01*
X206962Y143916D01*
X206412Y144223D01*
X205893Y144580D01*
X205828Y144624D01*
X205756Y144655D01*
X205680Y144675D01*
X205601Y144683D01*
X205523Y144678D01*
X205446Y144662D01*
X205373Y144633D01*
X205305Y144593D01*
X205244Y144543D01*
X205192Y144484D01*
X205149Y144418D01*
X205118Y144346D01*
X205098Y144270D01*
X205090Y144192D01*
X205095Y144113D01*
X205111Y144036D01*
X205140Y143963D01*
X205180Y143895D01*
X205230Y143834D01*
X205289Y143783D01*
X205880Y143367D01*
X206511Y143014D01*
X207173Y142722D01*
X207858Y142491D01*
X208562Y142325D01*
X209278Y142225D01*
X210000Y142192D01*
X210004Y142192D01*
Y2000D01*
X203441D01*
Y145772D01*
X203776Y145284D01*
X203829Y145224D01*
X203891Y145174D01*
X203960Y145133D01*
X204034Y145104D01*
X204112Y145087D01*
X204192Y145083D01*
X204271Y145090D01*
X204349Y145111D01*
X204422Y145143D01*
X204489Y145186D01*
X204549Y145239D01*
X204599Y145301D01*
X204640Y145370D01*
X204669Y145444D01*
X204686Y145522D01*
X204690Y145602D01*
X204682Y145681D01*
X204662Y145758D01*
X204630Y145831D01*
X204586Y145898D01*
X204223Y146412D01*
X203916Y146962D01*
X203661Y147538D01*
X203461Y148135D01*
X203441Y148219D01*
Y151781D01*
X203461Y151865D01*
X203661Y152462D01*
X203916Y153038D01*
X204223Y153588D01*
X204580Y154107D01*
X204624Y154172D01*
X204655Y154244D01*
X204675Y154320D01*
X204683Y154399D01*
X204678Y154477D01*
X204662Y154554D01*
X204633Y154627D01*
X204593Y154695D01*
X204543Y154756D01*
X204484Y154808D01*
X204418Y154851D01*
X204346Y154882D01*
X204270Y154902D01*
X204192Y154910D01*
X204113Y154905D01*
X204036Y154889D01*
X203963Y154860D01*
X203895Y154820D01*
X203834Y154770D01*
X203783Y154711D01*
X203441Y154225D01*
Y173000D01*
G37*
G36*
Y148219D02*X203316Y148747D01*
X203229Y149371D01*
X203200Y150000D01*
X203229Y150629D01*
X203316Y151253D01*
X203441Y151781D01*
Y148219D01*
G37*
G36*
X147492Y173000D02*X203441D01*
Y154225D01*
X203367Y154120D01*
X203014Y153489D01*
X202722Y152827D01*
X202491Y152142D01*
X202325Y151438D01*
X202225Y150722D01*
X202192Y150000D01*
X202225Y149278D01*
X202325Y148562D01*
X202491Y147858D01*
X202722Y147173D01*
X203014Y146511D01*
X203367Y145880D01*
X203441Y145772D01*
Y2000D01*
X147492D01*
Y40485D01*
X147500Y40485D01*
X148285Y40546D01*
X149050Y40730D01*
X149777Y41031D01*
X150448Y41442D01*
X151046Y41954D01*
X151558Y42552D01*
X151969Y43223D01*
X152270Y43950D01*
X152454Y44715D01*
X152500Y45500D01*
X152454Y46285D01*
X152270Y47050D01*
X151969Y47777D01*
X151558Y48448D01*
X151046Y49046D01*
X150448Y49558D01*
X149777Y49969D01*
X149050Y50270D01*
X148285Y50454D01*
X147500Y50515D01*
X147492Y50515D01*
Y173000D01*
G37*
G36*
X127492D02*X147492D01*
Y50515D01*
X146715Y50454D01*
X145950Y50270D01*
X145223Y49969D01*
X144552Y49558D01*
X143954Y49046D01*
X143442Y48448D01*
X143031Y47777D01*
X142730Y47050D01*
X142546Y46285D01*
X142485Y45500D01*
X142546Y44715D01*
X142730Y43950D01*
X143031Y43223D01*
X143442Y42552D01*
X143954Y41954D01*
X144552Y41442D01*
X145223Y41031D01*
X145950Y40730D01*
X146715Y40546D01*
X147492Y40485D01*
Y2000D01*
X127492D01*
Y40485D01*
X127500Y40485D01*
X128285Y40546D01*
X129050Y40730D01*
X129777Y41031D01*
X130448Y41442D01*
X131046Y41954D01*
X131558Y42552D01*
X131969Y43223D01*
X132270Y43950D01*
X132454Y44715D01*
X132500Y45500D01*
X132454Y46285D01*
X132270Y47050D01*
X131969Y47777D01*
X131558Y48448D01*
X131046Y49046D01*
X130448Y49558D01*
X129777Y49969D01*
X129050Y50270D01*
X128285Y50454D01*
X127500Y50515D01*
X127492Y50515D01*
Y173000D01*
G37*
G36*
X9250Y23000D02*X19721D01*
X19725Y22997D01*
X20132Y22829D01*
X20561Y22726D01*
X21000Y22691D01*
X21439Y22726D01*
X21868Y22829D01*
X22275Y22997D01*
X22651Y23228D01*
X22986Y23514D01*
X23272Y23849D01*
X23503Y24225D01*
X23671Y24632D01*
X23774Y25061D01*
X23800Y25500D01*
X23774Y25939D01*
X23671Y26368D01*
X23503Y26775D01*
X23272Y27151D01*
X22986Y27486D01*
X22651Y27772D01*
X22275Y28003D01*
X21868Y28171D01*
X21439Y28274D01*
X21000Y28309D01*
X20561Y28274D01*
X20132Y28171D01*
X19725Y28003D01*
X19721Y28000D01*
X9250D01*
Y33007D01*
X9522Y33451D01*
X9793Y34105D01*
X9958Y34794D01*
X10000Y35500D01*
X9958Y36206D01*
X9793Y36895D01*
X9522Y37549D01*
X9250Y37993D01*
Y43007D01*
X9522Y43451D01*
X9793Y44105D01*
X9958Y44794D01*
X10000Y45500D01*
X9958Y46206D01*
X9793Y46895D01*
X9522Y47549D01*
X9250Y47993D01*
Y53007D01*
X9522Y53451D01*
X9793Y54105D01*
X9958Y54794D01*
X10000Y55500D01*
X9958Y56206D01*
X9793Y56895D01*
X9522Y57549D01*
X9250Y57993D01*
Y63007D01*
X9522Y63451D01*
X9793Y64105D01*
X9958Y64794D01*
X10000Y65500D01*
X9958Y66206D01*
X9793Y66895D01*
X9522Y67549D01*
X9250Y67993D01*
Y73007D01*
X9522Y73451D01*
X9793Y74105D01*
X9958Y74794D01*
X10000Y75500D01*
X9958Y76206D01*
X9793Y76895D01*
X9522Y77549D01*
X9250Y77993D01*
Y83248D01*
X9368Y83257D01*
X9482Y83285D01*
X9592Y83330D01*
X9692Y83391D01*
X9782Y83468D01*
X9859Y83558D01*
X9920Y83658D01*
X9965Y83768D01*
X9993Y83882D01*
X10000Y84000D01*
Y87000D01*
X9993Y87118D01*
X9965Y87232D01*
X9920Y87342D01*
X9859Y87442D01*
X9782Y87532D01*
X9692Y87609D01*
X9592Y87670D01*
X9482Y87715D01*
X9368Y87743D01*
X9250Y87752D01*
Y173000D01*
X127492D01*
Y50515D01*
X126715Y50454D01*
X125950Y50270D01*
X125223Y49969D01*
X124552Y49558D01*
X123954Y49046D01*
X123442Y48448D01*
X123031Y47777D01*
X122730Y47050D01*
X122546Y46285D01*
X122485Y45500D01*
X122546Y44715D01*
X122730Y43950D01*
X123031Y43223D01*
X123442Y42552D01*
X123954Y41954D01*
X124552Y41442D01*
X125223Y41031D01*
X125950Y40730D01*
X126715Y40546D01*
X127492Y40485D01*
Y2000D01*
X9250D01*
Y3007D01*
X9522Y3451D01*
X9793Y4105D01*
X9958Y4794D01*
X10000Y5500D01*
X9958Y6206D01*
X9793Y6895D01*
X9522Y7549D01*
X9250Y7993D01*
Y13007D01*
X9522Y13451D01*
X9793Y14105D01*
X9958Y14794D01*
X10000Y15500D01*
X9958Y16206D01*
X9793Y16895D01*
X9522Y17549D01*
X9250Y17993D01*
Y23000D01*
G37*
G36*
Y7993D02*X9152Y8153D01*
X8692Y8692D01*
X8153Y9152D01*
X7549Y9522D01*
X6895Y9793D01*
X6206Y9958D01*
X5500Y10014D01*
Y10986D01*
X6206Y11042D01*
X6895Y11207D01*
X7549Y11478D01*
X8153Y11848D01*
X8692Y12308D01*
X9152Y12847D01*
X9250Y13007D01*
Y7993D01*
G37*
G36*
Y2000D02*X8331D01*
X8692Y2308D01*
X9152Y2847D01*
X9250Y3007D01*
Y2000D01*
G37*
G36*
Y77993D02*X9152Y78153D01*
X8692Y78692D01*
X8153Y79152D01*
X7549Y79522D01*
X6895Y79793D01*
X6206Y79958D01*
X5500Y80014D01*
Y81000D01*
X7000D01*
X7118Y81007D01*
X7232Y81035D01*
X7342Y81080D01*
X7442Y81141D01*
X7532Y81218D01*
X7609Y81308D01*
X7670Y81408D01*
X7715Y81518D01*
X7743Y81632D01*
X7752Y81750D01*
X7743Y81868D01*
X7715Y81982D01*
X7670Y82092D01*
X7609Y82192D01*
X7532Y82282D01*
X7442Y82359D01*
X7342Y82420D01*
X7232Y82465D01*
X7118Y82493D01*
X7000Y82500D01*
X5500D01*
Y88500D01*
X7000D01*
X7118Y88507D01*
X7232Y88535D01*
X7342Y88580D01*
X7442Y88641D01*
X7532Y88718D01*
X7609Y88808D01*
X7670Y88908D01*
X7715Y89018D01*
X7743Y89132D01*
X7752Y89250D01*
X7743Y89368D01*
X7715Y89482D01*
X7670Y89592D01*
X7609Y89692D01*
X7532Y89782D01*
X7442Y89859D01*
X7342Y89920D01*
X7232Y89965D01*
X7118Y89993D01*
X7000Y90000D01*
X5500D01*
Y173000D01*
X9250D01*
Y87752D01*
X9132Y87743D01*
X9018Y87715D01*
X8908Y87670D01*
X8808Y87609D01*
X8718Y87532D01*
X8641Y87442D01*
X8580Y87342D01*
X8535Y87232D01*
X8507Y87118D01*
X8500Y87000D01*
Y84000D01*
X8507Y83882D01*
X8535Y83768D01*
X8580Y83658D01*
X8641Y83558D01*
X8718Y83468D01*
X8808Y83391D01*
X8908Y83330D01*
X9018Y83285D01*
X9132Y83257D01*
X9250Y83248D01*
Y77993D01*
G37*
G36*
Y67993D02*X9152Y68153D01*
X8692Y68692D01*
X8153Y69152D01*
X7549Y69522D01*
X6895Y69793D01*
X6206Y69958D01*
X5500Y70014D01*
Y70986D01*
X6206Y71042D01*
X6895Y71207D01*
X7549Y71478D01*
X8153Y71848D01*
X8692Y72308D01*
X9152Y72847D01*
X9250Y73007D01*
Y67993D01*
G37*
G36*
Y57993D02*X9152Y58153D01*
X8692Y58692D01*
X8153Y59152D01*
X7549Y59522D01*
X6895Y59793D01*
X6206Y59958D01*
X5500Y60014D01*
Y60986D01*
X6206Y61042D01*
X6895Y61207D01*
X7549Y61478D01*
X8153Y61848D01*
X8692Y62308D01*
X9152Y62847D01*
X9250Y63007D01*
Y57993D01*
G37*
G36*
Y47993D02*X9152Y48153D01*
X8692Y48692D01*
X8153Y49152D01*
X7549Y49522D01*
X6895Y49793D01*
X6206Y49958D01*
X5500Y50014D01*
Y50986D01*
X6206Y51042D01*
X6895Y51207D01*
X7549Y51478D01*
X8153Y51848D01*
X8692Y52308D01*
X9152Y52847D01*
X9250Y53007D01*
Y47993D01*
G37*
G36*
Y37993D02*X9152Y38153D01*
X8692Y38692D01*
X8153Y39152D01*
X7549Y39522D01*
X6895Y39793D01*
X6206Y39958D01*
X5500Y40014D01*
Y40986D01*
X6206Y41042D01*
X6895Y41207D01*
X7549Y41478D01*
X8153Y41848D01*
X8692Y42308D01*
X9152Y42847D01*
X9250Y43007D01*
Y37993D01*
G37*
G36*
Y28000D02*X9246D01*
X9152Y28153D01*
X8692Y28692D01*
X8153Y29152D01*
X7549Y29522D01*
X6895Y29793D01*
X6206Y29958D01*
X5500Y30014D01*
Y30986D01*
X6206Y31042D01*
X6895Y31207D01*
X7549Y31478D01*
X8153Y31848D01*
X8692Y32308D01*
X9152Y32847D01*
X9250Y33007D01*
Y28000D01*
G37*
G36*
X9246Y23000D02*X9250D01*
Y17993D01*
X9152Y18153D01*
X8692Y18692D01*
X8153Y19152D01*
X7549Y19522D01*
X6895Y19793D01*
X6206Y19958D01*
X5500Y20014D01*
Y20986D01*
X6206Y21042D01*
X6895Y21207D01*
X7549Y21478D01*
X8153Y21848D01*
X8692Y22308D01*
X9152Y22847D01*
X9246Y23000D01*
G37*
G36*
X5500Y20014D02*X5500D01*
X4794Y19958D01*
X4105Y19793D01*
X3451Y19522D01*
X2847Y19152D01*
X2308Y18692D01*
X2000Y18331D01*
Y22669D01*
X2308Y22308D01*
X2847Y21848D01*
X3451Y21478D01*
X4105Y21207D01*
X4794Y21042D01*
X5500Y20986D01*
X5500D01*
Y20014D01*
G37*
G36*
Y10014D02*X5500D01*
X4794Y9958D01*
X4105Y9793D01*
X3451Y9522D01*
X2847Y9152D01*
X2308Y8692D01*
X2000Y8331D01*
Y12669D01*
X2308Y12308D01*
X2847Y11848D01*
X3451Y11478D01*
X4105Y11207D01*
X4794Y11042D01*
X5500Y10986D01*
X5500D01*
Y10014D01*
G37*
G36*
Y80014D02*X5500D01*
X4794Y79958D01*
X4105Y79793D01*
X3451Y79522D01*
X2847Y79152D01*
X2308Y78692D01*
X2000Y78331D01*
Y83292D01*
X2092Y83330D01*
X2192Y83391D01*
X2282Y83468D01*
X2359Y83558D01*
X2420Y83658D01*
X2465Y83768D01*
X2493Y83882D01*
X2500Y84000D01*
Y87000D01*
X2493Y87118D01*
X2465Y87232D01*
X2420Y87342D01*
X2359Y87442D01*
X2282Y87532D01*
X2192Y87609D01*
X2092Y87670D01*
X2000Y87708D01*
Y173000D01*
X5500D01*
Y90000D01*
X4000D01*
X3882Y89993D01*
X3768Y89965D01*
X3658Y89920D01*
X3558Y89859D01*
X3468Y89782D01*
X3391Y89692D01*
X3330Y89592D01*
X3285Y89482D01*
X3257Y89368D01*
X3248Y89250D01*
X3257Y89132D01*
X3285Y89018D01*
X3330Y88908D01*
X3391Y88808D01*
X3468Y88718D01*
X3558Y88641D01*
X3658Y88580D01*
X3768Y88535D01*
X3882Y88507D01*
X4000Y88500D01*
X5500D01*
Y82500D01*
X4000D01*
X3882Y82493D01*
X3768Y82465D01*
X3658Y82420D01*
X3558Y82359D01*
X3468Y82282D01*
X3391Y82192D01*
X3330Y82092D01*
X3285Y81982D01*
X3257Y81868D01*
X3248Y81750D01*
X3257Y81632D01*
X3285Y81518D01*
X3330Y81408D01*
X3391Y81308D01*
X3468Y81218D01*
X3558Y81141D01*
X3658Y81080D01*
X3768Y81035D01*
X3882Y81007D01*
X4000Y81000D01*
X5500D01*
Y80014D01*
G37*
G36*
Y70014D02*X5500D01*
X4794Y69958D01*
X4105Y69793D01*
X3451Y69522D01*
X2847Y69152D01*
X2308Y68692D01*
X2000Y68331D01*
Y72669D01*
X2308Y72308D01*
X2847Y71848D01*
X3451Y71478D01*
X4105Y71207D01*
X4794Y71042D01*
X5500Y70986D01*
X5500D01*
Y70014D01*
G37*
G36*
Y60014D02*X5500D01*
X4794Y59958D01*
X4105Y59793D01*
X3451Y59522D01*
X2847Y59152D01*
X2308Y58692D01*
X2000Y58331D01*
Y62669D01*
X2308Y62308D01*
X2847Y61848D01*
X3451Y61478D01*
X4105Y61207D01*
X4794Y61042D01*
X5500Y60986D01*
X5500D01*
Y60014D01*
G37*
G36*
Y50014D02*X5500D01*
X4794Y49958D01*
X4105Y49793D01*
X3451Y49522D01*
X2847Y49152D01*
X2308Y48692D01*
X2000Y48331D01*
Y52669D01*
X2308Y52308D01*
X2847Y51848D01*
X3451Y51478D01*
X4105Y51207D01*
X4794Y51042D01*
X5500Y50986D01*
X5500D01*
Y50014D01*
G37*
G36*
Y40014D02*X5500D01*
X4794Y39958D01*
X4105Y39793D01*
X3451Y39522D01*
X2847Y39152D01*
X2308Y38692D01*
X2000Y38331D01*
Y42669D01*
X2308Y42308D01*
X2847Y41848D01*
X3451Y41478D01*
X4105Y41207D01*
X4794Y41042D01*
X5500Y40986D01*
X5500D01*
Y40014D01*
G37*
G36*
Y30014D02*X5500D01*
X4794Y29958D01*
X4105Y29793D01*
X3451Y29522D01*
X2847Y29152D01*
X2308Y28692D01*
X2000Y28331D01*
Y32669D01*
X2308Y32308D01*
X2847Y31848D01*
X3451Y31478D01*
X4105Y31207D01*
X4794Y31042D01*
X5500Y30986D01*
X5500D01*
Y30014D01*
G37*
G54D24*X269500Y25500D02*X254000D01*
X5500D02*X21000D01*
G54D23*G36*
X266500Y88500D02*Y82500D01*
X272500D01*
Y88500D01*
X266500D01*
G37*
G54D25*X269500Y75500D03*
Y65500D03*
Y55500D03*
Y45500D03*
Y35500D03*
Y25500D03*
Y15500D03*
Y5500D03*
G54D26*X250000Y150000D03*
X210000D03*
G54D25*X5500Y55500D03*
Y45500D03*
Y35500D03*
Y25500D03*
G54D23*G36*
X2500Y88500D02*Y82500D01*
X8500D01*
Y88500D01*
X2500D01*
G37*
G54D25*X5500Y75500D03*
Y65500D03*
Y15500D03*
Y5500D03*
G54D27*X127500Y45500D03*
X147500D03*
G54D28*X254000Y25500D03*
X21000D03*
G54D29*G54D30*G54D31*G54D30*G54D32*M02*
