G04 start of page 8 for group -4079 idx -4079 *
G04 Title: (unknown), topsilk *
G04 Creator: pcb 20140316 *
G04 CreationDate: Thu 02 Jul 2020 08:53:44 PM GMT UTC *
G04 For: railfan *
G04 Format: Gerber/RS-274X *
G04 PCB-Dimensions (mil): 2750.00 2500.00 *
G04 PCB-Coordinate-Origin: lower left *
%MOIN*%
%FSLAX25Y25*%
%LNTOPSILK*%
%ADD49C,0.0116*%
%ADD48C,0.0093*%
%ADD47C,0.0100*%
G54D47*X118000Y159500D02*Y123000D01*
X157000Y159500D02*Y123000D01*
X118000Y159500D02*X157000D01*
X217000Y123000D02*Y91000D01*
X157000Y123000D02*X217000D01*
X0Y91000D02*X58000D01*
Y123000D01*
X118000D01*
X275000Y91000D02*X217000D01*
X147500Y38500D02*Y35500D01*
X146000Y37000D02*X149000D01*
G54D48*X203140Y140180D02*X204300Y139020D01*
X199660Y140180D02*X203140D01*
X198500Y139020D02*X199660Y140180D01*
X198500Y139020D02*Y132060D01*
X199660Y130900D01*
X203140D01*
X204300Y132060D01*
Y134380D02*Y132060D01*
X203140Y135540D02*X204300Y134380D01*
X200820Y135540D02*X203140D01*
X207084Y140180D02*Y130900D01*
Y140180D02*X212884Y130900D01*
Y140180D02*Y130900D01*
X216828Y140180D02*Y130900D01*
X219844Y140180D02*X221468Y138556D01*
Y132524D01*
X219844Y130900D02*X221468Y132524D01*
X215668Y130900D02*X219844D01*
X215668Y140180D02*X219844D01*
X238500Y135540D02*X243140D01*
X240820Y137860D02*Y133220D01*
X245924Y140180D02*X250564D01*
X245924D02*Y135540D01*
X247084Y136700D01*
X249404D01*
X250564Y135540D01*
Y132060D01*
X249404Y130900D02*X250564Y132060D01*
X247084Y130900D02*X249404D01*
X245924Y132060D02*X247084Y130900D01*
X253348Y140180D02*X255668Y130900D01*
X257988Y140180D01*
X63500Y109680D02*Y100400D01*
Y109680D02*X66980Y105040D01*
X70460Y109680D01*
Y100400D01*
X73244Y109680D02*X77884D01*
X79044Y108520D01*
Y106200D01*
X77884Y105040D02*X79044Y106200D01*
X74404Y105040D02*X77884D01*
X74404Y109680D02*Y100400D01*
X76260Y105040D02*X79044Y100400D01*
X81828D02*X86468D01*
X87628Y101560D01*
Y104344D02*Y101560D01*
X86468Y105504D02*X87628Y104344D01*
X82988Y105504D02*X86468D01*
X82988Y109680D02*Y100400D01*
X81828Y109680D02*X86468D01*
X87628Y108520D01*
Y106664D01*
X86468Y105504D02*X87628Y106664D01*
X90412Y109680D02*Y105040D01*
X91572Y100400D01*
X93892Y105040D01*
X96212Y100400D01*
X97372Y105040D01*
Y109680D02*Y105040D01*
X100156D02*X104796D01*
X109204Y100400D02*X112220D01*
X107580Y102024D02*X109204Y100400D01*
X107580Y108056D02*Y102024D01*
Y108056D02*X109204Y109680D01*
X112220D01*
X119644D02*X120804Y108520D01*
X116164Y109680D02*X119644D01*
X115004Y108520D02*X116164Y109680D01*
X115004Y108520D02*Y106200D01*
X116164Y105040D01*
X119644D01*
X120804Y103880D01*
Y101560D01*
X119644Y100400D02*X120804Y101560D01*
X116164Y100400D02*X119644D01*
X115004Y101560D02*X116164Y100400D01*
X123588Y109680D02*X128228D01*
X125908D02*Y100400D01*
X131012Y105040D02*X135652D01*
X138436Y109680D02*Y100400D01*
X143076D01*
X147484D02*X150500D01*
X145860Y102024D02*X147484Y100400D01*
X145860Y108056D02*Y102024D01*
Y108056D02*X147484Y109680D01*
X150500D01*
X154444D02*Y100400D01*
X157460Y109680D02*X159084Y108056D01*
Y102024D01*
X157460Y100400D02*X159084Y102024D01*
X153284Y100400D02*X157460D01*
X153284Y109680D02*X157460D01*
X166044D02*X170684D01*
X168364D02*Y100400D01*
X174628D02*X178108D01*
X173468Y101560D02*X174628Y100400D01*
X173468Y103880D02*Y101560D01*
Y103880D02*X174628Y105040D01*
X176948D01*
X178108Y103880D01*
X173468Y102720D02*X178108D01*
Y103880D02*Y102720D01*
X182052Y100400D02*X185532D01*
X186692Y101560D01*
X185532Y102720D02*X186692Y101560D01*
X182052Y102720D02*X185532D01*
X180892Y103880D02*X182052Y102720D01*
X180892Y103880D02*X182052Y105040D01*
X185532D01*
X186692Y103880D01*
X180892Y101560D02*X182052Y100400D01*
X190636Y109680D02*Y101560D01*
X191796Y100400D01*
X189476Y106200D02*X191796D01*
X199916Y109680D02*X201772D01*
Y101560D01*
X200612Y100400D02*X201772Y101560D01*
X199452Y100400D02*X200612D01*
X198292Y101560D02*X199452Y100400D01*
X198292Y102720D02*Y101560D01*
G54D49*X204556Y107360D02*Y107128D01*
G54D48*Y103880D02*Y100400D01*
X210356Y105040D02*X211516Y103880D01*
X208036Y105040D02*X210356D01*
X206876Y103880D02*X208036Y105040D01*
X206876Y103880D02*Y101560D01*
X208036Y100400D01*
X210356D01*
X211516Y101560D01*
X206876Y98080D02*X208036Y96920D01*
X210356D01*
X211516Y98080D01*
Y105040D02*Y98080D01*
X124500Y89540D02*X126820Y84900D01*
X129140Y89540D02*X126820Y84900D01*
X131924Y92324D02*X133780Y94180D01*
Y84900D01*
X131924D02*X135404D01*
X138188D02*X139348D01*
X142132Y86060D02*X143292Y84900D01*
X142132Y93020D02*Y86060D01*
Y93020D02*X143292Y94180D01*
X145612D01*
X146772Y93020D01*
Y86060D01*
X145612Y84900D02*X146772Y86060D01*
X143292Y84900D02*X145612D01*
X142132Y87220D02*X146772Y91860D01*
G54D47*X264500Y90500D02*Y500D01*
X274500D01*
Y90500D01*
X264500D01*
Y80500D02*X274500D01*
Y90500D01*
X500D02*Y500D01*
X10500D01*
Y90500D01*
X500D01*
Y80500D02*X10500D01*
Y90500D01*
X7300Y149600D02*Y135400D01*
Y149600D02*X11300D01*
X7300Y135400D02*X11300D01*
X42700Y149600D02*Y135400D01*
Y149600D02*X38700D01*
X42700Y135400D02*X38700D01*
M02*
