M48
INCH
T37C0.020
T36C0.031
T35C0.096
T34C0.042
%
T37
X002100Y002550
X025400Y002550
T36
X012750Y004550
X014750Y004550
T34
X000550Y008550
X000550Y007550
X000550Y006550
X000550Y005550
X000550Y004550
X000550Y003550
X000550Y002550
X000550Y001550
X000550Y000550
X026950Y008550
X026950Y007550
X026950Y006550
X026950Y005550
X026950Y004550
X026950Y003550
X026950Y002550
X026950Y001550
X026950Y000550
T35
X021000Y015000
X025000Y015000
M30
