G04 start of page 2 for group 0 idx 0 *
G04 Title: (unknown), top *
G04 Creator: pcb 20140316 *
G04 CreationDate: Thu 02 Jul 2020 08:53:44 PM GMT UTC *
G04 For: railfan *
G04 Format: Gerber/RS-274X *
G04 PCB-Dimensions (mil): 2750.00 2500.00 *
G04 PCB-Coordinate-Origin: lower left *
%MOIN*%
%FSLAX25Y25*%
%LNTOP*%
%ADD22C,0.0315*%
%ADD21C,0.0960*%
%ADD20C,0.0420*%
%ADD19C,0.0200*%
%ADD18C,0.0360*%
%ADD17R,0.0470X0.0470*%
%ADD16C,0.0800*%
%ADD15C,0.1360*%
%ADD14C,0.0600*%
%ADD13C,0.0001*%
%ADD12C,0.0100*%
%ADD11C,0.0300*%
G54D11*X250000Y150000D02*X222000Y122000D01*
G54D12*X195825Y153325D02*X201500Y159000D01*
X257500D01*
X261000Y155500D01*
Y14000D01*
G54D11*X222000Y122000D02*X27000D01*
G54D12*X15200Y15200D02*Y153325D01*
X34800Y131675D02*Y153325D01*
X195825D01*
G54D11*X27000Y122000D02*X25000Y124000D01*
Y153325D01*
X127500Y45500D02*Y25500D01*
X254000D02*X21000D01*
G54D12*X15200Y15200D02*X5500Y5500D01*
G54D11*X147500Y45500D02*Y122000D01*
G54D12*X261000Y14000D02*X269500Y5500D01*
G54D11*X5500Y15500D02*Y25500D01*
X269500Y15500D02*Y25500D01*
G54D13*G36*
X266500Y88500D02*Y82500D01*
X272500D01*
Y88500D01*
X266500D01*
G37*
G54D14*X269500Y75500D03*
Y65500D03*
Y55500D03*
Y45500D03*
Y35500D03*
Y25500D03*
Y15500D03*
Y5500D03*
G54D15*X250000Y150000D03*
X210000D03*
G54D14*X5500Y55500D03*
Y45500D03*
Y35500D03*
Y25500D03*
G54D13*G36*
X2500Y88500D02*Y82500D01*
X8500D01*
Y88500D01*
X2500D01*
G37*
G54D14*X5500Y75500D03*
Y65500D03*
Y15500D03*
Y5500D03*
G54D16*X127500Y45500D03*
X147500D03*
G54D17*X15200Y155900D02*Y150750D01*
X25000Y155900D02*Y150750D01*
X34800Y155900D02*Y150750D01*
X15200Y134250D02*Y129100D01*
X25000Y134250D02*Y129100D01*
X34800Y134250D02*Y129100D01*
G54D18*X254000Y25500D03*
X21000D03*
G54D19*G54D20*G54D21*G54D20*G54D22*M02*
