G04 start of page 9 for group -4078 idx -4078 *
G04 Title: (unknown), bottomsilk *
G04 Creator: pcb 20140316 *
G04 CreationDate: Tue 22 Aug 2017 02:05:26 AM GMT UTC *
G04 For: railfan *
G04 Format: Gerber/RS-274X *
G04 PCB-Dimensions (mil): 2750.00 5500.00 *
G04 PCB-Coordinate-Origin: lower left *
%MOIN*%
%FSLAX25Y25*%
%LNBOTTOMSILK*%
%ADD128C,0.0080*%
%ADD127C,0.0100*%
G54D127*X201500Y55000D02*X208500D01*
X205000Y58500D02*Y51500D01*
X66500Y55000D02*X73500D01*
X70000Y58500D02*Y51500D01*
G54D128*X211060Y66280D02*X213500D01*
X211060D02*X210450Y65670D01*
Y64450D02*Y65670D01*
X211060Y63840D02*X210450Y64450D01*
X211060Y63840D02*X212890D01*
Y61400D02*Y66280D01*
X211914Y63840D02*X210450Y61400D01*
X207156Y64084D02*X208986D01*
X206546Y61400D02*X208986D01*
Y66280D01*
X206546D02*X208986D01*
X205082Y61400D02*Y65060D01*
X204228Y66280D01*
X202886D02*X204228D01*
X202886D02*X202032Y65060D01*
Y61400D02*Y65060D01*
Y63840D02*X205082D01*
X198128Y66280D02*X200568D01*
X198128D02*X197518Y65670D01*
Y64450D02*Y65670D01*
X198128Y63840D02*X197518Y64450D01*
X198128Y63840D02*X199958D01*
Y61400D02*Y66280D01*
X198982Y63840D02*X197518Y61400D01*
X79500D02*Y66280D01*
X77060D02*X79500D01*
X77670Y64084D02*X79500D01*
X73156Y66280D02*X75596D01*
X73156D02*X72546Y65670D01*
Y64450D02*Y65670D01*
X73156Y63840D02*X72546Y64450D01*
X73156Y63840D02*X74986D01*
Y61400D02*Y66280D01*
X74010Y63840D02*X72546Y61400D01*
X71082Y62010D02*Y65670D01*
X70472Y66280D01*
X69252D02*X70472D01*
X69252D02*X68642Y65670D01*
Y62010D02*Y65670D01*
X69252Y61400D02*X68642Y62010D01*
X69252Y61400D02*X70472D01*
X71082Y62010D02*X70472Y61400D01*
X67178D02*Y66280D01*
X64128Y61400D01*
Y66280D01*
X60224D02*X62664D01*
X61444Y61400D02*Y66280D01*
G54D127*X197406Y222441D02*X235594D01*
X197406Y186220D02*X235594D01*
X204689Y182283D02*X228311D01*
Y186220D02*Y182283D01*
X204689Y186220D02*Y182283D01*
X253100Y268100D02*Y231900D01*
X220900Y268100D02*X253100D01*
X220900D02*Y231900D01*
X253100D01*
X256700Y260600D02*Y239400D01*
X217300Y260600D02*Y239400D01*
X253100D02*X256700D01*
X253100Y260600D02*X256700D01*
X217300Y239400D02*X220900D01*
X217300Y260600D02*X220900D01*
X231100Y540100D02*Y503900D01*
X198900Y540100D02*X231100D01*
X198900D02*Y503900D01*
X231100D01*
X234700Y532600D02*Y511400D01*
X195300Y532600D02*Y511400D01*
X231100D02*X234700D01*
X231100Y532600D02*X234700D01*
X195300Y511400D02*X198900D01*
X195300Y532600D02*X198900D01*
X129441Y503906D02*Y542094D01*
X93220Y503906D02*Y542094D01*
X89283Y511189D02*Y534811D01*
Y511189D02*X93220D01*
X89283Y534811D02*X93220D01*
X500Y468500D02*Y458500D01*
X10500D01*
X500Y468500D02*X10500D01*
X500D02*Y378500D01*
X10500Y468500D02*Y378500D01*
X264500Y468500D02*Y458500D01*
X274500D01*
X264500Y468500D02*X274500D01*
X264500D02*Y378500D01*
X274500Y468500D02*Y378500D01*
X500Y468500D02*X58000D01*
X500Y378500D02*X274500D01*
X58000Y501000D02*X118500D01*
X58000D02*Y468500D01*
X156500Y501000D02*X217000D01*
X118500Y537000D02*X156500D01*
X118500D02*Y501000D01*
X156500Y537000D02*Y501000D01*
X217000D02*Y468500D01*
X274500D01*
X110000Y300000D02*X120000D01*
Y290000D02*Y300000D01*
X110000Y290000D02*X120000D01*
X110000D02*Y300000D01*
X205000Y3819D02*G75*G03X205000Y3819I0J51181D01*G01*
X70000D02*G75*G03X70000Y3819I0J51181D01*G01*
G54D128*X240000Y252000D02*X239500Y251500D01*
X240000Y252000D02*X241500D01*
X242000Y251500D02*X241500Y252000D01*
X242000Y250500D02*Y251500D01*
Y250500D02*X241500Y250000D01*
X240000D02*X241500D01*
X240000D02*X239500Y249500D01*
Y248500D02*Y249500D01*
X240000Y248000D02*X239500Y248500D01*
X240000Y248000D02*X241500D01*
X242000Y248500D02*X241500Y248000D01*
X238300Y250000D02*Y252000D01*
Y250000D02*X237800Y248000D01*
X236800Y250000D01*
X235800Y248000D01*
X235300Y250000D01*
Y252000D01*
X234100Y251500D02*X233600Y252000D01*
X232100D02*X233600D01*
X232100D02*X231600Y251500D01*
Y250500D02*Y251500D01*
X234100Y248000D02*X231600Y250500D01*
Y248000D02*X234100D01*
X140500Y405500D02*X140000Y405000D01*
X140500Y405500D02*X142000D01*
X142500Y405000D02*X142000Y405500D01*
X142500Y404000D02*Y405000D01*
Y404000D02*X142000Y403500D01*
X140500D02*X142000D01*
X140500D02*X140000Y403000D01*
Y402000D02*Y403000D01*
X140500Y401500D02*X140000Y402000D01*
X140500Y401500D02*X142000D01*
X142500Y402000D02*X142000Y401500D01*
X138800Y403500D02*Y405500D01*
Y403500D02*X138300Y401500D01*
X137300Y403500D01*
X136300Y401500D01*
X135800Y403500D01*
Y405500D01*
X134600Y403000D02*X132600Y405500D01*
X132100Y403000D02*X134600D01*
X132600Y401500D02*Y405500D01*
X117000Y306000D02*X119000D01*
X118000Y302000D02*Y306000D01*
X115300Y302000D02*Y306000D01*
X113800D02*X115800D01*
X113800D02*X113300Y305500D01*
Y304500D02*Y305500D01*
X113800Y304000D02*X113300Y304500D01*
X113800Y304000D02*X115300D01*
X112100Y305200D02*X111300Y306000D01*
Y302000D02*Y306000D01*
X110600Y302000D02*X112100D01*
X272000Y470500D02*X269500Y474500D01*
X272000D02*X269500Y470500D01*
X268300Y473700D02*X267500Y474500D01*
Y470500D02*Y474500D01*
X266800Y470500D02*X268300D01*
X218000Y524000D02*X217500Y523500D01*
X218000Y524000D02*X219500D01*
X220000Y523500D02*X219500Y524000D01*
X220000Y522500D02*Y523500D01*
Y522500D02*X219500Y522000D01*
X218000D02*X219500D01*
X218000D02*X217500Y521500D01*
Y520500D02*Y521500D01*
X218000Y520000D02*X217500Y520500D01*
X218000Y520000D02*X219500D01*
X220000Y520500D02*X219500Y520000D01*
X216300Y522000D02*Y524000D01*
Y522000D02*X215800Y520000D01*
X214800Y522000D01*
X213800Y520000D01*
X213300Y522000D01*
Y524000D01*
X212100Y523500D02*X211600Y524000D01*
X210600D02*X211600D01*
X210600D02*X210100Y523500D01*
X210600Y520000D02*X210100Y520500D01*
X210600Y520000D02*X211600D01*
X212100Y520500D02*X211600Y520000D01*
X210600Y522200D02*X211600D01*
X210100Y522700D02*Y523500D01*
Y520500D02*Y521700D01*
X210600Y522200D01*
X210100Y522700D02*X210600Y522200D01*
X96000Y130000D02*X95500Y129500D01*
X96000Y130000D02*X97500D01*
X98000Y129500D02*X97500Y130000D01*
X98000Y128500D02*Y129500D01*
Y128500D02*X97500Y128000D01*
X96000D02*X97500D01*
X96000D02*X95500Y127500D01*
Y126500D02*Y127500D01*
X96000Y126000D02*X95500Y126500D01*
X96000Y126000D02*X97500D01*
X98000Y126500D02*X97500Y126000D01*
X94300Y128000D02*Y130000D01*
Y128000D02*X93800Y126000D01*
X92800Y128000D01*
X91800Y126000D01*
X91300Y128000D01*
Y130000D01*
X88100D02*X90100D01*
Y128000D02*Y130000D01*
Y128000D02*X89600Y128500D01*
X88600D02*X89600D01*
X88600D02*X88100Y128000D01*
Y126500D02*Y128000D01*
X88600Y126000D02*X88100Y126500D01*
X88600Y126000D02*X89600D01*
X90100Y126500D02*X89600Y126000D01*
X218500Y210000D02*Y214000D01*
X217000D02*X219000D01*
X217000D02*X216500Y213500D01*
Y212500D02*Y213500D01*
X217000Y212000D02*X216500Y212500D01*
X217000Y212000D02*X218500D01*
X215300Y213200D02*X214500Y214000D01*
Y210000D02*Y214000D01*
X213800Y210000D02*X215300D01*
X196000Y57500D02*X195500Y57000D01*
X196000Y57500D02*X197500D01*
X198000Y57000D02*X197500Y57500D01*
X198000Y56000D02*Y57000D01*
Y56000D02*X197500Y55500D01*
X196000D02*X197500D01*
X196000D02*X195500Y55000D01*
Y54000D02*Y55000D01*
X196000Y53500D02*X195500Y54000D01*
X196000Y53500D02*X197500D01*
X198000Y54000D02*X197500Y53500D01*
X194300Y55500D02*Y57500D01*
Y55500D02*X193800Y53500D01*
X192800Y55500D01*
X191800Y53500D01*
X191300Y55500D01*
Y57500D01*
X189600Y53500D02*X187600Y57500D01*
X190100D01*
X61000D02*X60500Y57000D01*
X61000Y57500D02*X62500D01*
X63000Y57000D02*X62500Y57500D01*
X63000Y56000D02*Y57000D01*
Y56000D02*X62500Y55500D01*
X61000D02*X62500D01*
X61000D02*X60500Y55000D01*
Y54000D02*Y55000D01*
X61000Y53500D02*X60500Y54000D01*
X61000Y53500D02*X62500D01*
X63000Y54000D02*X62500Y53500D01*
X59300Y55500D02*Y57500D01*
Y55500D02*X58800Y53500D01*
X57800Y55500D01*
X56800Y53500D01*
X56300Y55500D01*
Y57500D01*
X53600D02*X53100Y57000D01*
X53600Y57500D02*X54600D01*
X55100Y57000D02*X54600Y57500D01*
X55100Y54000D02*Y57000D01*
Y54000D02*X54600Y53500D01*
X53600Y55700D02*X53100Y55200D01*
X53600Y55700D02*X55100D01*
X53600Y53500D02*X54600D01*
X53600D02*X53100Y54000D01*
Y55200D01*
X101500Y521000D02*Y525000D01*
X100000D02*X102000D01*
X100000D02*X99500Y524500D01*
Y523500D02*Y524500D01*
X100000Y523000D02*X99500Y523500D01*
X100000Y523000D02*X101500D01*
X98300Y524500D02*X97800Y525000D01*
X96300D02*X97800D01*
X96300D02*X95800Y524500D01*
Y523500D02*Y524500D01*
X98300Y521000D02*X95800Y523500D01*
Y521000D02*X98300D01*
M02*
