M48
INCH
T88C0.050
T87C0.020
T86C0.038
T85C0.040
T84C0.118
T83C0.035
T82C0.055
T81C0.087
T80C0.250
T79C0.039
T78C0.129
%
T87
X004200Y043800
X004200Y043350
X004300Y027170
X004300Y026700
X004450Y014650
X004450Y013450
X004850Y028450
X004850Y027250
X004950Y014350
X004950Y013300
X005450Y014050
X005450Y013100
X005600Y040050
X005700Y039050
X005940Y014150
X006050Y039400
X006300Y044700
X006300Y044100
X006300Y043500
X006450Y025600
X006450Y025200
X006650Y044400
X006650Y043800
X006700Y042050
X006700Y023050
X006800Y025400
X006840Y014150
X007100Y023050
X007400Y041200
X007400Y040750
X007740Y014150
X007800Y031700
X008150Y031350
X008700Y026850
X008700Y026450
X008700Y026050
X009350Y042050
X009350Y041250
X009450Y003950
X009650Y031700
X009750Y044000
X009750Y043550
X010000Y031350
X010250Y044000
X010250Y043550
X010450Y024800
X010450Y021850
X010750Y044000
X010750Y043550
X010850Y042560
X010850Y041660
X010850Y040760
X010900Y024800
X010900Y022150
X011112Y014335
X011200Y046000
X011350Y024800
X011350Y022450
X011550Y005550
X011800Y024800
X011800Y022750
X012300Y026750
X012800Y006835
X012950Y026500
X012950Y026050
X012950Y025605
X013050Y024975
X013300Y022100
X013450Y023550
X013450Y023100
X013500Y005550
X013850Y008200
X013900Y023550
X013900Y023100
X014000Y005550
X014100Y029200
X014200Y022200
X014450Y026550
X014525Y021900
X014600Y008200
X014840Y029600
X015150Y022200
X015200Y012450
X015200Y011950
X015785Y021500
X015785Y019150
X015950Y005550
X016100Y028200
X016100Y024900
X016450Y046000
X016800Y029700
X017200Y030000
X017500Y014600
X017550Y022550
X017650Y030000
X017650Y020650
X017750Y026865
X018050Y003950
X018100Y020650
X018100Y020150
X018100Y019500
X018550Y020650
X018550Y015650
X019050Y013574
X019350Y030000
X019700Y029650
X019850Y025290
X020050Y029300
X020100Y023900
X020100Y023450
X020100Y023000
X020150Y025605
X020150Y024975
X020155Y027495
X020200Y026900
X020350Y026235
X020550Y029300
X020565Y044750
X020565Y044300
X020600Y028100
X020650Y030700
X020650Y027550
X020800Y042500
X021000Y029150
X021000Y025605
X021350Y023000
X021650Y023450
X021900Y024975
X021950Y023900
X022000Y031250
X022550Y025290
X022650Y027600
X022700Y027150
X022800Y045350
X022960Y030100
X023150Y027700
X023200Y043400
X023250Y045350
X023250Y028400
X023350Y027250
X023450Y029150
X023650Y043400
X023750Y028100
X023860Y030100
X023950Y029050
X024000Y019850
X024000Y019050
X024270Y031620
X024500Y019850
X024500Y018850
X024760Y030100
X024850Y018500
X024950Y040350
X025300Y041350
X026100Y038350
T83
X020565Y053380
X020565Y051020
X022435Y053380
X022435Y051020
X022765Y026180
X022765Y023820
X024635Y026180
X024635Y023820
T86
X000550Y046350
X000550Y045350
X000550Y044350
X000550Y043350
X000550Y042350
X000550Y041350
X000550Y040350
X000550Y039350
X000550Y038350
X011500Y029500
X026950Y046350
X026950Y045350
X026950Y044350
X026950Y043350
X026950Y042350
X026950Y041350
X026950Y040350
X026950Y039350
X026950Y038350
T79
X010700Y053284
X010700Y052300
X010700Y051316
X020666Y020000
X021650Y020000
X022634Y020000
T85
X003060Y029500
X003060Y023600
X008350Y011950
X008350Y010950
X009350Y011950
X009350Y010950
X010350Y011950
X010350Y010950
X012750Y042150
X012750Y041150
X013750Y042150
X013750Y041150
X013750Y004730
X013750Y003550
X014750Y042150
X014750Y041150
T88
X008400Y053900
T82
X004835Y009251
X004835Y001750
X007000Y003925
X007000Y001169
X009165Y001750
X010750Y003335
X018335Y009251
X018335Y001750
X020500Y003925
X020500Y001169
X022665Y001750
X024250Y003335
T81
X011999Y054269
X011999Y050331
X019682Y021299
X023618Y021299
T84
X013750Y001850
T78
X002750Y048700
X002750Y011250
X003000Y016500
X007400Y036600
X015700Y016500
X020100Y036600
X024750Y048700
X024750Y011250
T80
X021650Y016300
M30
