G04 start of page 10 for group -4015 idx -4015 *
G04 Title: (unknown), toppaste *
G04 Creator: pcb 20140316 *
G04 CreationDate: Tue 22 Aug 2017 02:05:26 AM GMT UTC *
G04 For: railfan *
G04 Format: Gerber/RS-274X *
G04 PCB-Dimensions (mil): 2750.00 5500.00 *
G04 PCB-Coordinate-Origin: lower left *
%MOIN*%
%FSLAX25Y25*%
%LNTOPPASTE*%
%ADD142R,0.0350X0.0350*%
%ADD141C,0.0600*%
%ADD140R,0.0500X0.0500*%
%ADD139R,0.0340X0.0340*%
%ADD138C,0.0001*%
%ADD137R,0.0230X0.0230*%
%ADD136R,0.0197X0.0197*%
%ADD135R,0.0098X0.0098*%
%ADD134R,0.0512X0.0512*%
%ADD133R,0.0240X0.0240*%
%ADD132R,0.0630X0.0630*%
%ADD131R,0.0470X0.0470*%
%ADD130R,0.0167X0.0167*%
%ADD129R,0.0157X0.0157*%
G54D129*X145252Y243028D02*Y238602D01*
X148401Y243028D02*Y238602D01*
X151551Y243028D02*Y238602D01*
X154700Y243028D02*Y238602D01*
X157850Y243028D02*Y238602D01*
X161000Y243028D02*Y238602D01*
X164149Y243028D02*Y238602D01*
X167299Y243028D02*Y238602D01*
X170448Y243028D02*Y238602D01*
X173598Y243028D02*Y238602D01*
X176748Y243028D02*Y238602D01*
X183472Y249752D02*X187898D01*
X183472Y252901D02*X187898D01*
X183472Y256051D02*X187898D01*
X183472Y259200D02*X187898D01*
X183472Y262350D02*X187898D01*
X183472Y265500D02*X187898D01*
X183472Y268649D02*X187898D01*
X183472Y271799D02*X187898D01*
X183472Y274948D02*X187898D01*
X183472Y278098D02*X187898D01*
X183472Y281248D02*X187898D01*
X176748Y292398D02*Y287972D01*
X173599Y292398D02*Y287972D01*
X170449Y292398D02*Y287972D01*
X167300Y292398D02*Y287972D01*
X164150Y292398D02*Y287972D01*
X161000Y292398D02*Y287972D01*
X157851Y292398D02*Y287972D01*
X154701Y292398D02*Y287972D01*
X151552Y292398D02*Y287972D01*
X148402Y292398D02*Y287972D01*
X145252Y292398D02*Y287972D01*
X134102Y281248D02*X138528D01*
X134102Y278099D02*X138528D01*
X134102Y274949D02*X138528D01*
X134102Y271800D02*X138528D01*
X134102Y268650D02*X138528D01*
X134102Y265500D02*X138528D01*
X134102Y262351D02*X138528D01*
X134102Y259201D02*X138528D01*
X134102Y256052D02*X138528D01*
X134102Y252902D02*X138528D01*
X134102Y249752D02*X138528D01*
G54D130*X132776Y434587D02*Y432717D01*
X135925Y434587D02*Y432717D01*
X139075Y434587D02*Y432717D01*
X142224Y434587D02*Y432717D01*
Y441283D02*Y439413D01*
X139075Y441283D02*Y439413D01*
X135925Y441283D02*Y439413D01*
X132776Y441283D02*Y439413D01*
G54D131*X231950Y447401D02*Y447400D01*
Y439600D02*Y439599D01*
G54D132*X244750Y443500D02*Y443499D01*
G54D133*X30600Y262300D02*Y260700D01*
X34500Y262300D02*Y260700D01*
X38400Y262300D02*Y260700D01*
Y270500D02*Y268900D01*
X34500Y270500D02*Y268900D01*
X30600Y270500D02*Y268900D01*
G54D134*X36457Y248893D02*Y248107D01*
X43543Y248893D02*Y248107D01*
X75957Y250893D02*Y250107D01*
X83043Y250893D02*Y250107D01*
Y230893D02*Y230107D01*
X75957Y230893D02*Y230107D01*
X83043Y240893D02*Y240107D01*
X75957Y240893D02*Y240107D01*
X64607Y247043D02*X65393D01*
X64607Y239957D02*X65393D01*
G54D135*X75547Y261744D02*Y259972D01*
X77516Y261744D02*Y259972D01*
X79484Y261744D02*Y259972D01*
X81453Y261744D02*Y259972D01*
Y269028D02*Y267256D01*
X79484Y269028D02*Y267256D01*
X77516Y269028D02*Y267256D01*
X75547Y269028D02*Y267256D01*
G54D136*Y264500D02*X81453D01*
G54D134*X64607Y268043D02*X65393D01*
X64607Y260957D02*X65393D01*
G54D137*X63300Y299200D02*Y277800D01*
X68900D01*
X63300Y299200D02*X68900D01*
X84700D02*Y277800D01*
X79100D02*X84700D01*
X79100Y299200D02*X84700D01*
G54D138*G36*
X64450Y284544D02*X70044Y278950D01*
X67923Y276829D01*
X62329Y282423D01*
X64450Y284544D01*
G37*
G36*
X62329Y294577D02*X67923Y300171D01*
X70044Y298050D01*
X64450Y292456D01*
X62329Y294577D01*
G37*
G36*
X77956Y278950D02*X83550Y284544D01*
X85671Y282423D01*
X80077Y276829D01*
X77956Y278950D01*
G37*
G36*
X80077Y300171D02*X85671Y294577D01*
X83550Y292456D01*
X77956Y298050D01*
X80077Y300171D01*
G37*
G36*
X62650Y280750D02*Y277150D01*
X66250D01*
Y280750D01*
X62650D01*
G37*
G36*
Y299850D02*Y296250D01*
X66250D01*
Y299850D01*
X62650D01*
G37*
G36*
X81750Y280750D02*Y277150D01*
X85350D01*
Y280750D01*
X81750D01*
G37*
G36*
Y299850D02*Y296250D01*
X85350D01*
Y299850D01*
X81750D01*
G37*
G54D139*X29100Y436300D02*Y435700D01*
X36900Y436300D02*Y435700D01*
X33000Y444500D02*Y443900D01*
G54D134*X32607Y456457D02*X33393D01*
X32607Y463543D02*X33393D01*
X193543Y201393D02*Y200607D01*
X186457Y201393D02*Y200607D01*
X168457Y201393D02*Y200607D01*
X175543Y201393D02*Y200607D01*
X128607Y242543D02*X129393D01*
X128607Y235457D02*X129393D01*
X169543Y316893D02*Y316107D01*
X162457Y316893D02*Y316107D01*
X155457Y307893D02*Y307107D01*
X162543Y307893D02*Y307107D01*
X73543Y467893D02*Y467107D01*
X66457Y467893D02*Y467107D01*
X73543Y477893D02*Y477107D01*
X66457Y477893D02*Y477107D01*
G54D140*X165000Y123004D02*Y113516D01*
X175000Y123004D02*Y113516D01*
X185000Y123004D02*Y113516D01*
Y140484D02*Y130996D01*
X175000Y140484D02*Y130996D01*
X165000Y140484D02*Y130996D01*
G54D134*X139457Y122393D02*Y121607D01*
X146543Y122393D02*Y121607D01*
X139457Y132393D02*Y131607D01*
X146543Y132393D02*Y131607D01*
G54D130*X116776Y137587D02*Y135717D01*
X119925Y137587D02*Y135717D01*
X123075Y137587D02*Y135717D01*
X126224Y137587D02*Y135717D01*
Y144283D02*Y142413D01*
X123075Y144283D02*Y142413D01*
X119925Y144283D02*Y142413D01*
X116776Y144283D02*Y142413D01*
X135925Y495087D02*Y493217D01*
X139075Y495087D02*Y493217D01*
Y501783D02*Y499913D01*
X135925Y501783D02*Y499913D01*
G54D140*X198000Y433413D02*Y426760D01*
X208000Y419240D02*Y412587D01*
X218000Y433413D02*Y426760D01*
X228000Y419240D02*Y412587D01*
G54D134*X179906Y220528D02*X182661D01*
X165339D02*X168094D01*
X165339Y211472D02*X168094D01*
X179906D02*X182661D01*
X93457Y539393D02*Y538607D01*
X100543Y539393D02*Y538607D01*
X181543Y539393D02*Y538607D01*
X174457Y539393D02*Y538607D01*
G54D141*X216500Y179250D03*
Y146750D03*
X200250Y163000D03*
X232750D03*
X205010Y151510D03*
X227990D03*
X205010Y174490D03*
X227990D03*
G54D142*X85945Y515433D02*X91457D01*
X85945Y499685D02*X91457D01*
X85945Y483937D02*X91457D01*
X85945Y468189D02*X91457D01*
X85945Y452441D02*X91457D01*
X96929Y444567D02*X102441D01*
X96929Y460315D02*X102441D01*
X96929Y476063D02*X102441D01*
X96929Y491811D02*X102441D01*
X96929Y507559D02*X102441D01*
X172559Y515433D02*X178071D01*
X172559Y499685D02*X178071D01*
X172559Y483937D02*X178071D01*
X172559Y468189D02*X178071D01*
X172559Y452441D02*X178071D01*
X183543Y444567D02*X189055D01*
X183543Y460315D02*X189055D01*
X183543Y476063D02*X189055D01*
X183543Y491811D02*X189055D01*
X183543Y507559D02*X189055D01*
G54D133*X104600Y413300D02*Y411700D01*
X108500Y413300D02*Y411700D01*
X112400Y413300D02*Y411700D01*
Y421500D02*Y419900D01*
X108500Y421500D02*Y419900D01*
X104600Y421500D02*Y419900D01*
X233700Y304900D02*X235300D01*
X233700Y301000D02*X235300D01*
X233700Y297100D02*X235300D01*
X241900D02*X243500D01*
X241900Y301000D02*X243500D01*
X241900Y304900D02*X243500D01*
X71700Y137600D02*X73300D01*
X71700Y141500D02*X73300D01*
X71700Y145400D02*X73300D01*
X63500D02*X65100D01*
X63500Y141500D02*X65100D01*
X63500Y137600D02*X65100D01*
G54D134*X82043Y39893D02*Y39107D01*
X89129Y39893D02*Y39107D01*
G54D130*X142224Y69283D02*Y67413D01*
X139075Y69283D02*Y67413D01*
X135925Y69283D02*Y67413D01*
X132776Y69283D02*Y67413D01*
Y62587D02*Y60717D01*
X135925Y62587D02*Y60717D01*
X139075Y62587D02*Y60717D01*
X142224Y62587D02*Y60717D01*
G54D134*X192957Y39897D02*Y39111D01*
X185871Y39897D02*Y39111D01*
M02*
