G04 start of page 3 for group 1 idx 1 *
G04 Title: (unknown), bottom *
G04 Creator: pcb 20140316 *
G04 CreationDate: Tue 22 Aug 2017 02:05:26 AM GMT UTC *
G04 For: railfan *
G04 Format: Gerber/RS-274X *
G04 PCB-Dimensions (mil): 2750.00 5500.00 *
G04 PCB-Coordinate-Origin: lower left *
%MOIN*%
%FSLAX25Y25*%
%LNBOTTOM*%
%ADD75C,0.0380*%
%ADD74C,0.1180*%
%ADD73C,0.0350*%
%ADD72C,0.0550*%
%ADD71C,0.0870*%
%ADD70C,0.2500*%
%ADD69C,0.0390*%
%ADD68C,0.1285*%
%ADD67C,0.0660*%
%ADD66C,0.0360*%
%ADD65C,0.0700*%
%ADD64C,0.1380*%
%ADD63C,0.0650*%
%ADD62C,0.0850*%
%ADD61C,0.1070*%
%ADD60C,0.4000*%
%ADD59C,0.0590*%
%ADD58C,0.2937*%
%ADD57C,0.0600*%
%ADD56C,0.0800*%
%ADD55C,0.0500*%
%ADD54C,0.0200*%
%ADD53C,0.0400*%
%ADD52C,0.0150*%
%ADD51C,0.0100*%
%ADD50C,0.0001*%
G54D50*G36*
X89500Y225000D02*X60500D01*
Y302000D01*
X89500D01*
Y225000D01*
G37*
G36*
X197500Y450500D02*Y424500D01*
X150146D01*
X149858Y424746D01*
X149322Y425075D01*
X148740Y425316D01*
X148128Y425463D01*
X147500Y425512D01*
X146872Y425463D01*
X146260Y425316D01*
X145678Y425075D01*
X145142Y424746D01*
X144854Y424500D01*
X139672D01*
X139678Y424558D01*
X139674Y424636D01*
X139658Y424713D01*
X139630Y424787D01*
X139591Y424855D01*
X139542Y424916D01*
X139483Y424969D01*
X139417Y425011D01*
X139092Y425174D01*
X138752Y425303D01*
X138402Y425401D01*
X138044Y425467D01*
X137682Y425500D01*
X137318D01*
X136956Y425467D01*
X136598Y425401D01*
X136248Y425303D01*
X135908Y425174D01*
X135581Y425015D01*
X135515Y424972D01*
X135456Y424919D01*
X135406Y424857D01*
X135367Y424788D01*
X135339Y424714D01*
X135323Y424637D01*
X135319Y424558D01*
X135325Y424500D01*
X131491D01*
X131491Y424657D01*
X131454Y424810D01*
X131394Y424955D01*
X131312Y425090D01*
X131209Y425209D01*
X131090Y425312D01*
X130955Y425394D01*
X130810Y425454D01*
X130657Y425491D01*
X130500Y425500D01*
X124343Y425491D01*
X124190Y425454D01*
X124045Y425394D01*
X123910Y425312D01*
X123791Y425209D01*
X123688Y425090D01*
X123606Y424955D01*
X123546Y424810D01*
X123509Y424657D01*
X123500Y424500D01*
X77500D01*
Y450500D01*
X197500D01*
G37*
G36*
X269502Y448986D02*X270206Y449042D01*
X270895Y449207D01*
X271549Y449478D01*
X272153Y449848D01*
X272500Y450144D01*
Y447500D01*
X271585D01*
X271549Y447522D01*
X270895Y447793D01*
X270206Y447958D01*
X269502Y448014D01*
Y448986D01*
G37*
G36*
X272500Y469500D02*Y465496D01*
X272488Y465488D01*
X272404Y465405D01*
X272333Y465309D01*
X272279Y465204D01*
X272241Y465092D01*
X272222Y464975D01*
X272221Y464856D01*
X272239Y464739D01*
X272277Y464626D01*
X272376Y464355D01*
X272444Y464075D01*
X272486Y463789D01*
X272500Y463500D01*
X272486Y463211D01*
X272444Y462925D01*
X272376Y462645D01*
X272280Y462372D01*
X272242Y462261D01*
X272225Y462144D01*
X272225Y462026D01*
X272245Y461909D01*
X272282Y461797D01*
X272336Y461693D01*
X272406Y461598D01*
X272491Y461515D01*
X272500Y461508D01*
Y456856D01*
X272153Y457152D01*
X271549Y457522D01*
X270895Y457793D01*
X270206Y457958D01*
X269502Y458014D01*
Y458995D01*
X269933Y459016D01*
X270363Y459078D01*
X270784Y459182D01*
X271194Y459325D01*
X271300Y459378D01*
X271396Y459447D01*
X271481Y459530D01*
X271551Y459625D01*
X271606Y459731D01*
X271643Y459843D01*
X271663Y459960D01*
X271664Y460079D01*
X271646Y460196D01*
X271610Y460309D01*
X271557Y460415D01*
X271488Y460512D01*
X271405Y460596D01*
X271309Y460667D01*
X271204Y460721D01*
X271092Y460759D01*
X270975Y460778D01*
X270856Y460779D01*
X270739Y460761D01*
X270626Y460723D01*
X270355Y460624D01*
X270075Y460556D01*
X269789Y460514D01*
X269502Y460500D01*
Y466500D01*
X269789Y466486D01*
X270075Y466444D01*
X270355Y466376D01*
X270628Y466280D01*
X270739Y466242D01*
X270856Y466225D01*
X270974Y466225D01*
X271091Y466245D01*
X271203Y466282D01*
X271307Y466336D01*
X271402Y466406D01*
X271485Y466491D01*
X271554Y466587D01*
X271607Y466692D01*
X271643Y466805D01*
X271660Y466921D01*
X271659Y467039D01*
X271640Y467156D01*
X271603Y467268D01*
X271548Y467373D01*
X271478Y467468D01*
X271394Y467551D01*
X271298Y467619D01*
X271192Y467670D01*
X270784Y467818D01*
X270363Y467922D01*
X269933Y467984D01*
X269502Y468005D01*
Y469500D01*
X272500D01*
G37*
G36*
X265887Y450802D02*X266308Y450308D01*
X266847Y449848D01*
X267451Y449478D01*
X268105Y449207D01*
X268794Y449042D01*
X269500Y448986D01*
X269502Y448986D01*
Y448014D01*
X269500Y448014D01*
X268794Y447958D01*
X268105Y447793D01*
X267451Y447522D01*
X267415Y447500D01*
X265887D01*
Y450802D01*
G37*
G36*
X269502Y458014D02*X269500Y458014D01*
X268794Y457958D01*
X268105Y457793D01*
X267451Y457522D01*
X266847Y457152D01*
X266308Y456692D01*
X265887Y456198D01*
Y461349D01*
X265960Y461337D01*
X266079Y461336D01*
X266196Y461354D01*
X266309Y461390D01*
X266415Y461443D01*
X266512Y461512D01*
X266596Y461595D01*
X266667Y461691D01*
X266721Y461796D01*
X266759Y461908D01*
X266778Y462025D01*
X266779Y462144D01*
X266761Y462261D01*
X266723Y462374D01*
X266624Y462645D01*
X266556Y462925D01*
X266514Y463211D01*
X266500Y463500D01*
X266514Y463789D01*
X266556Y464075D01*
X266624Y464355D01*
X266720Y464628D01*
X266758Y464739D01*
X266775Y464856D01*
X266775Y464974D01*
X266755Y465091D01*
X266718Y465203D01*
X266664Y465307D01*
X266594Y465402D01*
X266509Y465485D01*
X266413Y465554D01*
X266308Y465607D01*
X266195Y465643D01*
X266079Y465660D01*
X265961Y465659D01*
X265887Y465647D01*
Y469500D01*
X269502D01*
Y468005D01*
X269500Y468005D01*
X269067Y467984D01*
X268637Y467922D01*
X268216Y467818D01*
X267806Y467675D01*
X267700Y467622D01*
X267604Y467553D01*
X267519Y467470D01*
X267449Y467375D01*
X267394Y467269D01*
X267357Y467157D01*
X267337Y467040D01*
X267336Y466921D01*
X267354Y466804D01*
X267390Y466691D01*
X267443Y466585D01*
X267512Y466488D01*
X267595Y466404D01*
X267691Y466333D01*
X267796Y466279D01*
X267908Y466241D01*
X268025Y466222D01*
X268144Y466221D01*
X268261Y466239D01*
X268374Y466277D01*
X268645Y466376D01*
X268925Y466444D01*
X269211Y466486D01*
X269500Y466500D01*
X269502Y466500D01*
Y460500D01*
X269500Y460500D01*
X269211Y460514D01*
X268925Y460556D01*
X268645Y460624D01*
X268372Y460720D01*
X268261Y460758D01*
X268144Y460775D01*
X268026Y460775D01*
X267909Y460755D01*
X267797Y460718D01*
X267693Y460664D01*
X267598Y460594D01*
X267515Y460509D01*
X267446Y460413D01*
X267393Y460308D01*
X267357Y460195D01*
X267340Y460079D01*
X267341Y459961D01*
X267360Y459844D01*
X267397Y459732D01*
X267452Y459627D01*
X267522Y459532D01*
X267606Y459449D01*
X267702Y459381D01*
X267808Y459330D01*
X268216Y459182D01*
X268637Y459078D01*
X269067Y459016D01*
X269500Y458995D01*
X269502Y458995D01*
Y458014D01*
G37*
G36*
X265887Y456198D02*X265848Y456153D01*
X265478Y455549D01*
X265207Y454895D01*
X265042Y454206D01*
X264986Y453500D01*
X265042Y452794D01*
X265207Y452105D01*
X265478Y451451D01*
X265848Y450847D01*
X265887Y450802D01*
Y447500D01*
X235000D01*
Y451838D01*
X235181Y452134D01*
X235362Y452570D01*
X235472Y453029D01*
X235509Y453500D01*
X235472Y453971D01*
X235362Y454430D01*
X235181Y454866D01*
X235000Y455162D01*
Y469500D01*
X265887D01*
Y465647D01*
X265844Y465640D01*
X265732Y465603D01*
X265627Y465548D01*
X265532Y465478D01*
X265449Y465394D01*
X265381Y465298D01*
X265330Y465192D01*
X265182Y464784D01*
X265078Y464363D01*
X265016Y463933D01*
X264995Y463500D01*
X265016Y463067D01*
X265078Y462637D01*
X265182Y462216D01*
X265325Y461806D01*
X265378Y461700D01*
X265447Y461604D01*
X265530Y461519D01*
X265625Y461449D01*
X265731Y461394D01*
X265843Y461357D01*
X265887Y461349D01*
Y456198D01*
G37*
G36*
X111246Y35360D02*X111262Y35333D01*
X111423Y34994D01*
X111553Y34641D01*
X111651Y34279D01*
X111717Y33909D01*
X111751Y33534D01*
Y33159D01*
X111717Y32784D01*
X111651Y32414D01*
X111553Y32052D01*
X111423Y31699D01*
X111262Y31360D01*
X111246Y31332D01*
Y35360D01*
G37*
G36*
X211996Y267500D02*X224379D01*
X220729Y263850D01*
X211996D01*
Y267500D01*
G37*
G36*
X242507Y282018D02*X244600Y279925D01*
Y265675D01*
X244415Y265598D01*
X243844Y265249D01*
X243336Y264814D01*
X242901Y264306D01*
X242552Y263735D01*
X242507Y263627D01*
Y282018D01*
G37*
G36*
X269502Y408986D02*X270206Y409042D01*
X270895Y409207D01*
X271549Y409478D01*
X272153Y409848D01*
X272500Y410144D01*
Y406856D01*
X272153Y407152D01*
X271549Y407522D01*
X270895Y407793D01*
X270206Y407958D01*
X269502Y408014D01*
Y408986D01*
G37*
G36*
Y428986D02*X270206Y429042D01*
X270895Y429207D01*
X271549Y429478D01*
X272153Y429848D01*
X272500Y430144D01*
Y425496D01*
X272488Y425488D01*
X272404Y425405D01*
X272333Y425309D01*
X272279Y425204D01*
X272241Y425092D01*
X272222Y424975D01*
X272221Y424856D01*
X272239Y424739D01*
X272277Y424626D01*
X272376Y424355D01*
X272444Y424075D01*
X272486Y423789D01*
X272500Y423500D01*
X272486Y423211D01*
X272444Y422925D01*
X272376Y422645D01*
X272280Y422372D01*
X272242Y422261D01*
X272225Y422144D01*
X272225Y422026D01*
X272245Y421909D01*
X272282Y421797D01*
X272336Y421693D01*
X272406Y421598D01*
X272491Y421515D01*
X272500Y421508D01*
Y416856D01*
X272153Y417152D01*
X271549Y417522D01*
X270895Y417793D01*
X270206Y417958D01*
X269502Y418014D01*
Y418995D01*
X269933Y419016D01*
X270363Y419078D01*
X270784Y419182D01*
X271194Y419325D01*
X271300Y419378D01*
X271396Y419447D01*
X271481Y419530D01*
X271551Y419625D01*
X271606Y419731D01*
X271643Y419843D01*
X271663Y419960D01*
X271664Y420079D01*
X271646Y420196D01*
X271610Y420309D01*
X271557Y420415D01*
X271488Y420512D01*
X271405Y420596D01*
X271309Y420667D01*
X271204Y420721D01*
X271092Y420759D01*
X270975Y420778D01*
X270856Y420779D01*
X270739Y420761D01*
X270626Y420723D01*
X270355Y420624D01*
X270075Y420556D01*
X269789Y420514D01*
X269502Y420500D01*
Y426500D01*
X269789Y426486D01*
X270075Y426444D01*
X270355Y426376D01*
X270628Y426280D01*
X270739Y426242D01*
X270856Y426225D01*
X270974Y426225D01*
X271091Y426245D01*
X271203Y426282D01*
X271307Y426336D01*
X271402Y426406D01*
X271485Y426491D01*
X271554Y426587D01*
X271607Y426692D01*
X271643Y426805D01*
X271660Y426921D01*
X271659Y427039D01*
X271640Y427156D01*
X271603Y427268D01*
X271548Y427373D01*
X271478Y427468D01*
X271394Y427551D01*
X271298Y427619D01*
X271192Y427670D01*
X270784Y427818D01*
X270363Y427922D01*
X269933Y427984D01*
X269502Y428005D01*
Y428986D01*
G37*
G36*
Y438986D02*X270206Y439042D01*
X270895Y439207D01*
X271549Y439478D01*
X272153Y439848D01*
X272500Y440144D01*
Y436856D01*
X272153Y437152D01*
X271549Y437522D01*
X270895Y437793D01*
X270206Y437958D01*
X269502Y438014D01*
Y438986D01*
G37*
G36*
Y448986D02*X270206Y449042D01*
X270895Y449207D01*
X271549Y449478D01*
X272153Y449848D01*
X272500Y450144D01*
Y446856D01*
X272153Y447152D01*
X271549Y447522D01*
X270895Y447793D01*
X270206Y447958D01*
X269502Y448014D01*
Y448986D01*
G37*
G36*
X265887Y410802D02*X266308Y410308D01*
X266847Y409848D01*
X267451Y409478D01*
X268105Y409207D01*
X268794Y409042D01*
X269500Y408986D01*
X269502Y408986D01*
Y408014D01*
X269500Y408014D01*
X268794Y407958D01*
X268105Y407793D01*
X267451Y407522D01*
X266847Y407152D01*
X266308Y406692D01*
X265887Y406198D01*
Y410802D01*
G37*
G36*
Y430802D02*X266308Y430308D01*
X266847Y429848D01*
X267451Y429478D01*
X268105Y429207D01*
X268794Y429042D01*
X269500Y428986D01*
X269502Y428986D01*
Y428005D01*
X269500Y428005D01*
X269067Y427984D01*
X268637Y427922D01*
X268216Y427818D01*
X267806Y427675D01*
X267700Y427622D01*
X267604Y427553D01*
X267519Y427470D01*
X267449Y427375D01*
X267394Y427269D01*
X267357Y427157D01*
X267337Y427040D01*
X267336Y426921D01*
X267354Y426804D01*
X267390Y426691D01*
X267443Y426585D01*
X267512Y426488D01*
X267595Y426404D01*
X267691Y426333D01*
X267796Y426279D01*
X267908Y426241D01*
X268025Y426222D01*
X268144Y426221D01*
X268261Y426239D01*
X268374Y426277D01*
X268645Y426376D01*
X268925Y426444D01*
X269211Y426486D01*
X269500Y426500D01*
X269502Y426500D01*
Y420500D01*
X269500Y420500D01*
X269211Y420514D01*
X268925Y420556D01*
X268645Y420624D01*
X268372Y420720D01*
X268261Y420758D01*
X268144Y420775D01*
X268026Y420775D01*
X267909Y420755D01*
X267797Y420718D01*
X267693Y420664D01*
X267598Y420594D01*
X267515Y420509D01*
X267446Y420413D01*
X267393Y420308D01*
X267357Y420195D01*
X267340Y420079D01*
X267341Y419961D01*
X267360Y419844D01*
X267397Y419732D01*
X267452Y419627D01*
X267522Y419532D01*
X267606Y419449D01*
X267702Y419381D01*
X267808Y419330D01*
X268216Y419182D01*
X268637Y419078D01*
X269067Y419016D01*
X269500Y418995D01*
X269502Y418995D01*
Y418014D01*
X269500Y418014D01*
X268794Y417958D01*
X268105Y417793D01*
X267451Y417522D01*
X266847Y417152D01*
X266308Y416692D01*
X265887Y416198D01*
Y421349D01*
X265960Y421337D01*
X266079Y421336D01*
X266196Y421354D01*
X266309Y421390D01*
X266415Y421443D01*
X266512Y421512D01*
X266596Y421595D01*
X266667Y421691D01*
X266721Y421796D01*
X266759Y421908D01*
X266778Y422025D01*
X266779Y422144D01*
X266761Y422261D01*
X266723Y422374D01*
X266624Y422645D01*
X266556Y422925D01*
X266514Y423211D01*
X266500Y423500D01*
X266514Y423789D01*
X266556Y424075D01*
X266624Y424355D01*
X266720Y424628D01*
X266758Y424739D01*
X266775Y424856D01*
X266775Y424974D01*
X266755Y425091D01*
X266718Y425203D01*
X266664Y425307D01*
X266594Y425402D01*
X266509Y425485D01*
X266413Y425554D01*
X266308Y425607D01*
X266195Y425643D01*
X266079Y425660D01*
X265961Y425659D01*
X265887Y425647D01*
Y430802D01*
G37*
G36*
Y440802D02*X266308Y440308D01*
X266847Y439848D01*
X267451Y439478D01*
X268105Y439207D01*
X268794Y439042D01*
X269500Y438986D01*
X269502Y438986D01*
Y438014D01*
X269500Y438014D01*
X268794Y437958D01*
X268105Y437793D01*
X267451Y437522D01*
X266847Y437152D01*
X266308Y436692D01*
X265887Y436198D01*
Y440802D01*
G37*
G36*
Y450500D02*X266144D01*
X266308Y450308D01*
X266847Y449848D01*
X267451Y449478D01*
X268105Y449207D01*
X268794Y449042D01*
X269500Y448986D01*
X269502Y448986D01*
Y448014D01*
X269500Y448014D01*
X268794Y447958D01*
X268105Y447793D01*
X267451Y447522D01*
X266847Y447152D01*
X266308Y446692D01*
X265887Y446198D01*
Y450500D01*
G37*
G36*
X246870D02*X265887D01*
Y446198D01*
X265848Y446153D01*
X265478Y445549D01*
X265207Y444895D01*
X265042Y444206D01*
X264986Y443500D01*
X265042Y442794D01*
X265207Y442105D01*
X265478Y441451D01*
X265848Y440847D01*
X265887Y440802D01*
Y436198D01*
X265848Y436153D01*
X265478Y435549D01*
X265207Y434895D01*
X265042Y434206D01*
X264986Y433500D01*
X265042Y432794D01*
X265207Y432105D01*
X265478Y431451D01*
X265848Y430847D01*
X265887Y430802D01*
Y425647D01*
X265844Y425640D01*
X265732Y425603D01*
X265627Y425548D01*
X265532Y425478D01*
X265449Y425394D01*
X265381Y425298D01*
X265330Y425192D01*
X265182Y424784D01*
X265078Y424363D01*
X265016Y423933D01*
X264995Y423500D01*
X265016Y423067D01*
X265078Y422637D01*
X265182Y422216D01*
X265325Y421806D01*
X265378Y421700D01*
X265447Y421604D01*
X265530Y421519D01*
X265625Y421449D01*
X265731Y421394D01*
X265843Y421357D01*
X265887Y421349D01*
Y416198D01*
X265848Y416153D01*
X265478Y415549D01*
X265251Y415000D01*
X255365D01*
X255272Y415151D01*
X254986Y415486D01*
X254651Y415772D01*
X254275Y416003D01*
X253868Y416171D01*
X253439Y416274D01*
X253000Y416309D01*
X252561Y416274D01*
X252132Y416171D01*
X251725Y416003D01*
X251349Y415772D01*
X251014Y415486D01*
X250728Y415151D01*
X250497Y414775D01*
X250329Y414368D01*
X250226Y413939D01*
X250191Y413500D01*
X250226Y413061D01*
X250329Y412632D01*
X250497Y412225D01*
X250728Y411849D01*
X251014Y411514D01*
X251349Y411228D01*
X251725Y410997D01*
X252132Y410829D01*
X252561Y410726D01*
X253000Y410691D01*
X253439Y410726D01*
X253868Y410829D01*
X254275Y410997D01*
X254651Y411228D01*
X254986Y411514D01*
X255272Y411849D01*
X255365Y412000D01*
X265251D01*
X265478Y411451D01*
X265848Y410847D01*
X265887Y410802D01*
Y406198D01*
X265848Y406153D01*
X265478Y405549D01*
X265251Y405000D01*
X251865D01*
X251772Y405151D01*
X251486Y405486D01*
X251151Y405772D01*
X250775Y406003D01*
X250368Y406171D01*
X249939Y406274D01*
X249500Y406309D01*
X249061Y406274D01*
X248632Y406171D01*
X248225Y406003D01*
X247849Y405772D01*
X247514Y405486D01*
X247228Y405151D01*
X246997Y404775D01*
X246870Y404468D01*
Y450500D01*
G37*
G36*
X265251Y385000D02*X263365D01*
X263272Y385151D01*
X262986Y385486D01*
X262651Y385772D01*
X262275Y386003D01*
X261868Y386171D01*
X261439Y386274D01*
X261000Y386309D01*
X260561Y386274D01*
X260132Y386171D01*
X259725Y386003D01*
X259349Y385772D01*
X259014Y385486D01*
X258728Y385151D01*
X258497Y384775D01*
X258329Y384368D01*
X258226Y383939D01*
X258191Y383500D01*
X258226Y383061D01*
X258329Y382632D01*
X258497Y382225D01*
X258728Y381849D01*
X259014Y381514D01*
X259349Y381228D01*
X259725Y380997D01*
X260132Y380829D01*
X260561Y380726D01*
X261000Y380691D01*
X261439Y380726D01*
X261868Y380829D01*
X262275Y380997D01*
X262651Y381228D01*
X262986Y381514D01*
X263272Y381849D01*
X263365Y382000D01*
X265251D01*
X265478Y381451D01*
X265848Y380847D01*
X266308Y380308D01*
X266847Y379848D01*
X267451Y379478D01*
X268105Y379207D01*
X268794Y379042D01*
X269500Y378986D01*
X270206Y379042D01*
X270895Y379207D01*
X271549Y379478D01*
X272153Y379848D01*
X272500Y380144D01*
Y29500D01*
X255000D01*
X246870Y21370D01*
Y30437D01*
X246911Y30492D01*
X247150Y30890D01*
X247349Y31310D01*
X247510Y31746D01*
X247632Y32194D01*
X247714Y32651D01*
X247755Y33114D01*
Y33579D01*
X247714Y34042D01*
X247632Y34499D01*
X247510Y34947D01*
X247349Y35383D01*
X247150Y35803D01*
X246915Y36204D01*
X246870Y36263D01*
Y96817D01*
X247500Y96768D01*
X249961Y96961D01*
X252362Y97538D01*
X254642Y98482D01*
X256747Y99772D01*
X258624Y101376D01*
X260228Y103253D01*
X261518Y105358D01*
X262462Y107638D01*
X263039Y110039D01*
X263184Y112500D01*
X263039Y114961D01*
X262462Y117362D01*
X261518Y119642D01*
X260228Y121747D01*
X258624Y123624D01*
X256747Y125228D01*
X254642Y126518D01*
X252362Y127462D01*
X249961Y128039D01*
X247500Y128232D01*
X246870Y128183D01*
Y182715D01*
X247225Y182497D01*
X247632Y182329D01*
X248061Y182226D01*
X248500Y182191D01*
X248939Y182226D01*
X249368Y182329D01*
X249775Y182497D01*
X250151Y182728D01*
X250486Y183014D01*
X250772Y183349D01*
X251003Y183725D01*
X251171Y184132D01*
X251274Y184561D01*
X251300Y185000D01*
X251274Y185439D01*
X251171Y185868D01*
X251003Y186275D01*
X250772Y186651D01*
X250486Y186986D01*
X250151Y187272D01*
X249775Y187503D01*
X249368Y187671D01*
X248939Y187774D01*
X248500Y187809D01*
X248061Y187774D01*
X247684Y187684D01*
X247774Y188061D01*
X247800Y188500D01*
X247774Y188939D01*
X247671Y189368D01*
X247503Y189775D01*
X247272Y190151D01*
X246986Y190486D01*
X246870Y190585D01*
Y196415D01*
X246986Y196514D01*
X247272Y196849D01*
X247503Y197225D01*
X247671Y197632D01*
X247774Y198061D01*
X247800Y198500D01*
X247774Y198939D01*
X247671Y199368D01*
X247503Y199775D01*
X247272Y200151D01*
X246986Y200486D01*
X246870Y200585D01*
Y233978D01*
X247017Y233989D01*
X247667Y234146D01*
X248285Y234402D01*
X248856Y234751D01*
X249364Y235186D01*
X249799Y235694D01*
X250148Y236265D01*
X250404Y236883D01*
X250561Y237533D01*
X250600Y238200D01*
X250561Y238867D01*
X250404Y239517D01*
X250148Y240135D01*
X249799Y240706D01*
X249364Y241214D01*
X248856Y241649D01*
X248285Y241998D01*
X247667Y242254D01*
X247017Y242411D01*
X246870Y242422D01*
Y257578D01*
X247017Y257589D01*
X247667Y257746D01*
X248285Y258002D01*
X248856Y258351D01*
X249364Y258786D01*
X249799Y259294D01*
X250148Y259865D01*
X250404Y260483D01*
X250561Y261133D01*
X250600Y261800D01*
X250561Y262467D01*
X250404Y263117D01*
X250148Y263735D01*
X249799Y264306D01*
X249364Y264814D01*
X248856Y265249D01*
X248285Y265598D01*
X248100Y265675D01*
Y280581D01*
X248105Y280650D01*
X248084Y280924D01*
X248084Y280925D01*
X248019Y281192D01*
X247914Y281447D01*
X247770Y281682D01*
X247591Y281891D01*
X247539Y281936D01*
X246870Y282604D01*
Y402532D01*
X246997Y402225D01*
X247228Y401849D01*
X247514Y401514D01*
X247849Y401228D01*
X248225Y400997D01*
X248632Y400829D01*
X249061Y400726D01*
X249500Y400691D01*
X249939Y400726D01*
X250368Y400829D01*
X250775Y400997D01*
X251151Y401228D01*
X251486Y401514D01*
X251772Y401849D01*
X251865Y402000D01*
X265251D01*
X265478Y401451D01*
X265848Y400847D01*
X266308Y400308D01*
X266847Y399848D01*
X267451Y399478D01*
X268105Y399207D01*
X268794Y399042D01*
X269500Y398986D01*
X270206Y399042D01*
X270895Y399207D01*
X271549Y399478D01*
X272153Y399848D01*
X272500Y400144D01*
Y396856D01*
X272153Y397152D01*
X271549Y397522D01*
X270895Y397793D01*
X270206Y397958D01*
X269500Y398014D01*
X268794Y397958D01*
X268105Y397793D01*
X267451Y397522D01*
X266847Y397152D01*
X266308Y396692D01*
X265848Y396153D01*
X265478Y395549D01*
X265207Y394895D01*
X265042Y394206D01*
X264986Y393500D01*
X265042Y392794D01*
X265207Y392105D01*
X265478Y391451D01*
X265848Y390847D01*
X266308Y390308D01*
X266847Y389848D01*
X267451Y389478D01*
X268105Y389207D01*
X268794Y389042D01*
X269500Y388986D01*
X270206Y389042D01*
X270895Y389207D01*
X271549Y389478D01*
X272153Y389848D01*
X272500Y390144D01*
Y386856D01*
X272153Y387152D01*
X271549Y387522D01*
X270895Y387793D01*
X270206Y387958D01*
X269500Y388014D01*
X268794Y387958D01*
X268105Y387793D01*
X267451Y387522D01*
X266847Y387152D01*
X266308Y386692D01*
X265848Y386153D01*
X265478Y385549D01*
X265251Y385000D01*
G37*
G36*
X246870Y282604D02*X242507Y286968D01*
Y313407D01*
X242700Y313391D01*
X243139Y313426D01*
X243568Y313529D01*
X243975Y313697D01*
X244351Y313928D01*
X244686Y314214D01*
X244972Y314549D01*
X245203Y314925D01*
X245371Y315332D01*
X245474Y315761D01*
X245500Y316200D01*
X245474Y316639D01*
X245371Y317068D01*
X245203Y317475D01*
X244972Y317851D01*
X244686Y318186D01*
X244351Y318472D01*
X243975Y318703D01*
X243568Y318871D01*
X243139Y318974D01*
X242700Y319009D01*
X242507Y318993D01*
Y450500D01*
X246870D01*
Y404468D01*
X246829Y404368D01*
X246726Y403939D01*
X246691Y403500D01*
X246726Y403061D01*
X246829Y402632D01*
X246870Y402532D01*
Y282604D01*
G37*
G36*
Y242422D02*X246350Y242463D01*
X245683Y242411D01*
X245033Y242254D01*
X244415Y241998D01*
X243844Y241649D01*
X243336Y241214D01*
X242901Y240706D01*
X242552Y240135D01*
X242507Y240027D01*
Y259973D01*
X242552Y259865D01*
X242901Y259294D01*
X243336Y258786D01*
X243844Y258351D01*
X244415Y258002D01*
X245033Y257746D01*
X245683Y257589D01*
X246350Y257537D01*
X246870Y257578D01*
Y242422D01*
G37*
G36*
Y200585D02*X246651Y200772D01*
X246275Y201003D01*
X245868Y201171D01*
X245439Y201274D01*
X245000Y201309D01*
X244561Y201274D01*
X244132Y201171D01*
X243725Y201003D01*
X243349Y200772D01*
X243014Y200486D01*
X242728Y200151D01*
X242507Y199790D01*
Y212515D01*
X242535Y212992D01*
X242507Y213469D01*
Y236373D01*
X242552Y236265D01*
X242901Y235694D01*
X243336Y235186D01*
X243844Y234751D01*
X244415Y234402D01*
X245033Y234146D01*
X245683Y233989D01*
X246350Y233937D01*
X246870Y233978D01*
Y200585D01*
G37*
G36*
Y190585D02*X246651Y190772D01*
X246500Y190865D01*
Y196135D01*
X246651Y196228D01*
X246870Y196415D01*
Y190585D01*
G37*
G36*
Y128183D02*X245039Y128039D01*
X242638Y127462D01*
X242507Y127408D01*
Y183250D01*
X246312D01*
X246514Y183014D01*
X246849Y182728D01*
X246870Y182715D01*
Y128183D01*
G37*
G36*
Y21370D02*X245500Y20000D01*
Y2500D01*
X242507D01*
Y28096D01*
X242737D01*
X243200Y28138D01*
X243657Y28219D01*
X244106Y28341D01*
X244541Y28502D01*
X244961Y28701D01*
X245362Y28936D01*
X245425Y28984D01*
X245480Y29041D01*
X245525Y29107D01*
X245559Y29178D01*
X245582Y29254D01*
X245592Y29333D01*
X245590Y29412D01*
X245576Y29490D01*
X245550Y29565D01*
X245512Y29635D01*
X245464Y29698D01*
X245406Y29753D01*
X245341Y29798D01*
X245269Y29832D01*
X245193Y29855D01*
X245114Y29865D01*
X245035Y29863D01*
X244957Y29849D01*
X244882Y29822D01*
X244813Y29783D01*
X244491Y29589D01*
X244152Y29429D01*
X243799Y29298D01*
X243437Y29200D01*
X243067Y29134D01*
X242693Y29101D01*
X242507D01*
Y37592D01*
X242693D01*
X243067Y37559D01*
X243437Y37493D01*
X243799Y37394D01*
X244152Y37264D01*
X244491Y37103D01*
X244816Y36913D01*
X244884Y36875D01*
X244958Y36848D01*
X245036Y36834D01*
X245114Y36832D01*
X245192Y36842D01*
X245268Y36865D01*
X245339Y36899D01*
X245403Y36944D01*
X245461Y36998D01*
X245508Y37060D01*
X245546Y37129D01*
X245572Y37204D01*
X245586Y37281D01*
X245588Y37360D01*
X245578Y37438D01*
X245555Y37513D01*
X245521Y37584D01*
X245477Y37649D01*
X245423Y37706D01*
X245359Y37753D01*
X244961Y37992D01*
X244541Y38191D01*
X244106Y38352D01*
X243657Y38474D01*
X243200Y38555D01*
X242737Y38596D01*
X242507D01*
Y97592D01*
X242638Y97538D01*
X245039Y96961D01*
X246870Y96817D01*
Y36263D01*
X246867Y36267D01*
X246810Y36322D01*
X246745Y36367D01*
X246673Y36401D01*
X246597Y36424D01*
X246518Y36434D01*
X246439Y36432D01*
X246361Y36418D01*
X246286Y36391D01*
X246216Y36354D01*
X246153Y36305D01*
X246099Y36248D01*
X246054Y36182D01*
X246019Y36111D01*
X245997Y36035D01*
X245986Y35956D01*
X245988Y35877D01*
X246003Y35799D01*
X246029Y35724D01*
X246068Y35655D01*
X246262Y35333D01*
X246423Y34994D01*
X246553Y34641D01*
X246651Y34279D01*
X246717Y33909D01*
X246751Y33534D01*
Y33159D01*
X246717Y32784D01*
X246651Y32414D01*
X246553Y32052D01*
X246423Y31699D01*
X246262Y31360D01*
X246072Y31036D01*
X246033Y30967D01*
X246007Y30893D01*
X245992Y30816D01*
X245990Y30737D01*
X246001Y30659D01*
X246023Y30584D01*
X246057Y30513D01*
X246102Y30448D01*
X246156Y30391D01*
X246219Y30343D01*
X246288Y30305D01*
X246362Y30279D01*
X246439Y30265D01*
X246518Y30263D01*
X246596Y30273D01*
X246671Y30296D01*
X246742Y30330D01*
X246807Y30374D01*
X246864Y30429D01*
X246870Y30437D01*
Y21370D01*
G37*
G36*
X242507Y318993D02*X242261Y318974D01*
X241832Y318871D01*
X241425Y318703D01*
X241049Y318472D01*
X240714Y318186D01*
X240428Y317851D01*
X240335Y317700D01*
X231919D01*
Y450500D01*
X242507D01*
Y318993D01*
G37*
G36*
Y286968D02*X241250Y288225D01*
Y288312D01*
X241486Y288514D01*
X241772Y288849D01*
X242003Y289225D01*
X242171Y289632D01*
X242274Y290061D01*
X242300Y290500D01*
X242274Y290939D01*
X242171Y291368D01*
X242003Y291775D01*
X241772Y292151D01*
X241486Y292486D01*
X241151Y292772D01*
X240775Y293003D01*
X240368Y293171D01*
X239939Y293274D01*
X239500Y293309D01*
X239061Y293274D01*
X238632Y293171D01*
X238225Y293003D01*
X237849Y292772D01*
X237514Y292486D01*
X237228Y292151D01*
X237225Y292146D01*
X237171Y292368D01*
X237003Y292775D01*
X236772Y293151D01*
X236486Y293486D01*
X236151Y293772D01*
X235775Y294003D01*
X235368Y294171D01*
X234939Y294274D01*
X234500Y294309D01*
X234061Y294274D01*
X233632Y294171D01*
X233225Y294003D01*
X232849Y293772D01*
X232514Y293486D01*
X232312Y293250D01*
X231919D01*
Y314700D01*
X240335D01*
X240428Y314549D01*
X240714Y314214D01*
X241049Y313928D01*
X241425Y313697D01*
X241832Y313529D01*
X242261Y313426D01*
X242507Y313407D01*
Y286968D01*
G37*
G36*
Y213469D02*X242476Y213988D01*
X242243Y214960D01*
X241860Y215884D01*
X241338Y216736D01*
X240689Y217496D01*
X239929Y218145D01*
X239077Y218667D01*
X238153Y219050D01*
X237181Y219283D01*
X236185Y219362D01*
X235189Y219283D01*
X234217Y219050D01*
X233293Y218667D01*
X232441Y218145D01*
X231919Y217699D01*
Y268798D01*
X232889Y269767D01*
X233061Y269726D01*
X233500Y269691D01*
X233939Y269726D01*
X234368Y269829D01*
X234775Y269997D01*
X235151Y270228D01*
X235486Y270514D01*
X235772Y270849D01*
X236003Y271225D01*
X236171Y271632D01*
X236274Y272061D01*
X236300Y272500D01*
X236274Y272939D01*
X236171Y273368D01*
X236003Y273775D01*
X235772Y274151D01*
X235486Y274486D01*
X235151Y274772D01*
X234775Y275003D01*
X234368Y275171D01*
X233939Y275274D01*
X233723Y275291D01*
X233772Y275349D01*
X234003Y275725D01*
X234171Y276132D01*
X234274Y276561D01*
X234300Y277000D01*
X234274Y277439D01*
X234171Y277868D01*
X234003Y278275D01*
X233772Y278651D01*
X233486Y278986D01*
X233151Y279272D01*
X232779Y279500D01*
X235135D01*
X235228Y279349D01*
X235514Y279014D01*
X235849Y278728D01*
X236225Y278497D01*
X236632Y278329D01*
X237061Y278226D01*
X237500Y278191D01*
X237939Y278226D01*
X238368Y278329D01*
X238775Y278497D01*
X239151Y278728D01*
X239486Y279014D01*
X239772Y279349D01*
X240003Y279725D01*
X240171Y280132D01*
X240274Y280561D01*
X240300Y281000D01*
X240274Y281439D01*
X240171Y281868D01*
X240003Y282275D01*
X239772Y282651D01*
X239486Y282986D01*
X239151Y283272D01*
X238775Y283503D01*
X238368Y283671D01*
X237939Y283774D01*
X237500Y283809D01*
X237061Y283774D01*
X236632Y283671D01*
X236225Y283503D01*
X235849Y283272D01*
X235514Y282986D01*
X235228Y282651D01*
X235135Y282500D01*
X234865D01*
X235003Y282725D01*
X235171Y283132D01*
X235274Y283561D01*
X235300Y284000D01*
X235274Y284439D01*
X235171Y284868D01*
X235003Y285275D01*
X234772Y285651D01*
X234486Y285986D01*
X234470Y286000D01*
X238525D01*
X242507Y282018D01*
Y263627D01*
X242296Y263117D01*
X242139Y262467D01*
X242087Y261800D01*
X242139Y261133D01*
X242296Y260483D01*
X242507Y259973D01*
Y240027D01*
X242296Y239517D01*
X242139Y238867D01*
X242087Y238200D01*
X242139Y237533D01*
X242296Y236883D01*
X242507Y236373D01*
Y213469D01*
G37*
G36*
Y199790D02*X242500Y199779D01*
X242272Y200151D01*
X241986Y200486D01*
X241651Y200772D01*
X241275Y201003D01*
X240868Y201171D01*
X240439Y201274D01*
X240000Y201309D01*
X239561Y201274D01*
X239132Y201171D01*
X238725Y201003D01*
X238349Y200772D01*
X238014Y200486D01*
X237728Y200151D01*
X237497Y199775D01*
X237329Y199368D01*
X237226Y198939D01*
X237191Y198500D01*
X237226Y198061D01*
X237329Y197632D01*
X237497Y197225D01*
X237728Y196849D01*
X238014Y196514D01*
X238250Y196312D01*
Y192688D01*
X238014Y192486D01*
X237728Y192151D01*
X237497Y191775D01*
X237329Y191368D01*
X237226Y190939D01*
X237212Y190763D01*
X233786Y194189D01*
X233741Y194241D01*
X233532Y194420D01*
X233297Y194564D01*
X233042Y194669D01*
X232775Y194734D01*
X232774Y194734D01*
X232500Y194755D01*
X232431Y194750D01*
X231919D01*
Y208285D01*
X232441Y207839D01*
X233293Y207317D01*
X234217Y206934D01*
X235189Y206701D01*
X236185Y206622D01*
X237181Y206701D01*
X238153Y206934D01*
X239077Y207317D01*
X239929Y207839D01*
X240689Y208488D01*
X241338Y209248D01*
X241860Y210100D01*
X242243Y211024D01*
X242476Y211996D01*
X242507Y212515D01*
Y199790D01*
G37*
G36*
Y127408D02*X240358Y126518D01*
X238253Y125228D01*
X236376Y123624D01*
X234772Y121747D01*
X233482Y119642D01*
X232538Y117362D01*
X231961Y114961D01*
X231919Y114422D01*
Y148718D01*
X233542Y150618D01*
X235269Y153437D01*
X236534Y156491D01*
X237305Y159705D01*
X237500Y163000D01*
X237305Y166295D01*
X236534Y169509D01*
X235269Y172563D01*
X233542Y175382D01*
X231919Y177282D01*
Y191106D01*
X239214Y183811D01*
X239259Y183759D01*
X239468Y183580D01*
X239468Y183580D01*
X239703Y183436D01*
X239958Y183331D01*
X240225Y183266D01*
X240500Y183245D01*
X240569Y183250D01*
X242507D01*
Y127408D01*
G37*
G36*
Y2500D02*X238139D01*
Y30430D01*
X238142Y30426D01*
X238200Y30371D01*
X238265Y30326D01*
X238336Y30292D01*
X238413Y30269D01*
X238491Y30259D01*
X238571Y30261D01*
X238649Y30275D01*
X238723Y30302D01*
X238793Y30339D01*
X238856Y30388D01*
X238911Y30445D01*
X238956Y30510D01*
X238990Y30582D01*
X239013Y30658D01*
X239023Y30737D01*
X239021Y30816D01*
X239007Y30894D01*
X238980Y30969D01*
X238941Y31038D01*
X238748Y31360D01*
X238587Y31699D01*
X238457Y32052D01*
X238358Y32414D01*
X238292Y32784D01*
X238259Y33159D01*
Y33534D01*
X238292Y33909D01*
X238358Y34279D01*
X238457Y34641D01*
X238587Y34994D01*
X238748Y35333D01*
X238938Y35657D01*
X238977Y35726D01*
X239003Y35800D01*
X239017Y35877D01*
X239019Y35956D01*
X239009Y36034D01*
X238986Y36109D01*
X238952Y36180D01*
X238908Y36245D01*
X238853Y36302D01*
X238791Y36350D01*
X238722Y36388D01*
X238648Y36414D01*
X238570Y36428D01*
X238491Y36430D01*
X238413Y36420D01*
X238338Y36397D01*
X238267Y36363D01*
X238202Y36319D01*
X238145Y36264D01*
X238139Y36256D01*
Y99869D01*
X238253Y99772D01*
X240358Y98482D01*
X242507Y97592D01*
Y38596D01*
X242272D01*
X241810Y38555D01*
X241352Y38474D01*
X240904Y38352D01*
X240468Y38191D01*
X240048Y37992D01*
X239647Y37757D01*
X239584Y37709D01*
X239529Y37652D01*
X239484Y37586D01*
X239450Y37515D01*
X239427Y37439D01*
X239417Y37360D01*
X239419Y37281D01*
X239433Y37203D01*
X239460Y37128D01*
X239498Y37058D01*
X239546Y36995D01*
X239603Y36940D01*
X239669Y36895D01*
X239740Y36861D01*
X239816Y36838D01*
X239895Y36828D01*
X239974Y36830D01*
X240052Y36844D01*
X240127Y36871D01*
X240196Y36910D01*
X240518Y37103D01*
X240858Y37264D01*
X241210Y37394D01*
X241573Y37493D01*
X241943Y37559D01*
X242317Y37592D01*
X242507D01*
Y29101D01*
X242317D01*
X241943Y29134D01*
X241573Y29200D01*
X241210Y29298D01*
X240858Y29429D01*
X240518Y29589D01*
X240194Y29780D01*
X240126Y29818D01*
X240051Y29845D01*
X239974Y29859D01*
X239895Y29861D01*
X239817Y29850D01*
X239742Y29828D01*
X239671Y29794D01*
X239606Y29749D01*
X239549Y29695D01*
X239501Y29633D01*
X239464Y29563D01*
X239437Y29489D01*
X239423Y29412D01*
X239421Y29333D01*
X239432Y29255D01*
X239454Y29180D01*
X239488Y29109D01*
X239533Y29044D01*
X239587Y28987D01*
X239650Y28940D01*
X240048Y28701D01*
X240468Y28502D01*
X240904Y28341D01*
X241352Y28219D01*
X241810Y28138D01*
X242272Y28096D01*
X242507D01*
Y2500D01*
G37*
G36*
X238139D02*X231919D01*
Y110578D01*
X231961Y110039D01*
X232538Y107638D01*
X233482Y105358D01*
X234772Y103253D01*
X236376Y101376D01*
X238139Y99869D01*
Y36256D01*
X238099Y36201D01*
X237859Y35803D01*
X237660Y35383D01*
X237499Y34947D01*
X237378Y34499D01*
X237296Y34042D01*
X237255Y33579D01*
Y33114D01*
X237296Y32651D01*
X237378Y32194D01*
X237499Y31746D01*
X237660Y31310D01*
X237859Y30890D01*
X238094Y30489D01*
X238139Y30430D01*
Y2500D01*
G37*
G36*
X231919Y317700D02*X211996D01*
Y354766D01*
X212124Y354876D01*
X213728Y356753D01*
X215018Y358858D01*
X215962Y361138D01*
X216539Y363539D01*
X216684Y366000D01*
X216539Y368461D01*
X215962Y370862D01*
X215018Y373142D01*
X213728Y375247D01*
X212124Y377124D01*
X211996Y377234D01*
Y450500D01*
X231919D01*
Y317700D01*
G37*
G36*
Y293250D02*X212188D01*
X211996Y293475D01*
Y311000D01*
X217635D01*
X217728Y310849D01*
X218014Y310514D01*
X218349Y310228D01*
X218725Y309997D01*
X219132Y309829D01*
X219561Y309726D01*
X220000Y309691D01*
X220439Y309726D01*
X220868Y309829D01*
X221275Y309997D01*
X221651Y310228D01*
X221986Y310514D01*
X222272Y310849D01*
X222503Y311225D01*
X222671Y311632D01*
X222774Y312061D01*
X222800Y312500D01*
X222774Y312939D01*
X222671Y313368D01*
X222503Y313775D01*
X222272Y314151D01*
X221986Y314486D01*
X221735Y314700D01*
X231919D01*
Y293250D01*
G37*
G36*
X231151Y209109D02*X231681Y208488D01*
X231919Y208285D01*
Y194750D01*
X231151D01*
Y209109D01*
G37*
G36*
Y268030D02*X231919Y268798D01*
Y217699D01*
X231681Y217496D01*
X231151Y216875D01*
Y235905D01*
X231182Y235922D01*
X231244Y235970D01*
X231298Y236027D01*
X231341Y236093D01*
X231527Y236448D01*
X231675Y236821D01*
X231787Y237206D01*
X231862Y237600D01*
X231900Y237999D01*
Y238401D01*
X231862Y238800D01*
X231787Y239194D01*
X231675Y239579D01*
X231527Y239952D01*
X231345Y240309D01*
X231301Y240375D01*
X231247Y240433D01*
X231184Y240481D01*
X231151Y240500D01*
Y259505D01*
X231182Y259522D01*
X231244Y259570D01*
X231298Y259627D01*
X231341Y259693D01*
X231527Y260048D01*
X231675Y260421D01*
X231787Y260806D01*
X231862Y261200D01*
X231900Y261599D01*
Y262001D01*
X231862Y262400D01*
X231787Y262794D01*
X231675Y263179D01*
X231527Y263552D01*
X231345Y263909D01*
X231301Y263975D01*
X231247Y264033D01*
X231184Y264081D01*
X231151Y264100D01*
Y268030D01*
G37*
G36*
X229583Y258015D02*X229759Y258105D01*
X229825Y258149D01*
X229883Y258203D01*
X229931Y258266D01*
X229970Y258336D01*
X229996Y258410D01*
X230011Y258488D01*
X230014Y258567D01*
X230004Y258646D01*
X229982Y258722D01*
X229948Y258794D01*
X229903Y258859D01*
X229849Y258917D01*
X229786Y258966D01*
X229717Y259004D01*
X229642Y259031D01*
X229583Y259042D01*
Y264562D01*
X229641Y264573D01*
X229715Y264600D01*
X229784Y264637D01*
X229847Y264686D01*
X229900Y264743D01*
X229945Y264808D01*
X229978Y264879D01*
X230000Y264955D01*
X230010Y265033D01*
X230008Y265112D01*
X229993Y265189D01*
X229966Y265263D01*
X229928Y265332D01*
X229880Y265394D01*
X229823Y265448D01*
X229757Y265491D01*
X229583Y265582D01*
Y266459D01*
X229602Y266481D01*
X231151Y268030D01*
Y264100D01*
X231114Y264120D01*
X231040Y264146D01*
X230962Y264161D01*
X230883Y264164D01*
X230804Y264154D01*
X230728Y264132D01*
X230656Y264098D01*
X230591Y264053D01*
X230533Y263999D01*
X230484Y263936D01*
X230446Y263867D01*
X230419Y263792D01*
X230405Y263714D01*
X230402Y263635D01*
X230412Y263557D01*
X230434Y263480D01*
X230469Y263409D01*
X230612Y263138D01*
X230725Y262853D01*
X230810Y262559D01*
X230868Y262258D01*
X230896Y261953D01*
Y261647D01*
X230868Y261342D01*
X230810Y261041D01*
X230725Y260747D01*
X230612Y260462D01*
X230472Y260189D01*
X230438Y260118D01*
X230416Y260043D01*
X230406Y259965D01*
X230408Y259886D01*
X230423Y259809D01*
X230450Y259735D01*
X230487Y259666D01*
X230536Y259603D01*
X230593Y259550D01*
X230658Y259505D01*
X230729Y259472D01*
X230805Y259450D01*
X230883Y259440D01*
X230962Y259442D01*
X231039Y259457D01*
X231113Y259484D01*
X231151Y259505D01*
Y240500D01*
X231114Y240520D01*
X231040Y240546D01*
X230962Y240561D01*
X230883Y240564D01*
X230804Y240554D01*
X230728Y240532D01*
X230656Y240498D01*
X230591Y240453D01*
X230533Y240399D01*
X230484Y240336D01*
X230446Y240267D01*
X230419Y240192D01*
X230405Y240114D01*
X230402Y240035D01*
X230412Y239957D01*
X230434Y239880D01*
X230469Y239809D01*
X230612Y239538D01*
X230725Y239253D01*
X230810Y238959D01*
X230868Y238658D01*
X230896Y238353D01*
Y238047D01*
X230868Y237742D01*
X230810Y237441D01*
X230725Y237147D01*
X230612Y236862D01*
X230472Y236589D01*
X230438Y236518D01*
X230416Y236443D01*
X230406Y236365D01*
X230408Y236286D01*
X230423Y236209D01*
X230450Y236135D01*
X230487Y236066D01*
X230536Y236003D01*
X230593Y235950D01*
X230658Y235905D01*
X230729Y235872D01*
X230805Y235850D01*
X230883Y235840D01*
X230962Y235842D01*
X231039Y235857D01*
X231113Y235884D01*
X231151Y235905D01*
Y216875D01*
X231032Y216736D01*
X230510Y215884D01*
X230127Y214960D01*
X229894Y213988D01*
X229815Y212992D01*
X229894Y211996D01*
X230127Y211024D01*
X230510Y210100D01*
X231032Y209248D01*
X231151Y209109D01*
Y194750D01*
X229583D01*
Y197903D01*
X229595Y197907D01*
X229663Y197947D01*
X229724Y197996D01*
X229776Y198055D01*
X229818Y198122D01*
X229976Y198440D01*
X230102Y198774D01*
X230197Y199117D01*
X230261Y199467D01*
X230293Y199822D01*
Y200178D01*
X230261Y200533D01*
X230197Y200883D01*
X230102Y201226D01*
X229976Y201560D01*
X229821Y201880D01*
X229779Y201947D01*
X229726Y202006D01*
X229665Y202056D01*
X229596Y202095D01*
X229583Y202100D01*
Y234415D01*
X229759Y234505D01*
X229825Y234549D01*
X229883Y234603D01*
X229931Y234666D01*
X229970Y234736D01*
X229996Y234810D01*
X230011Y234888D01*
X230014Y234967D01*
X230004Y235046D01*
X229982Y235122D01*
X229948Y235194D01*
X229903Y235259D01*
X229849Y235317D01*
X229786Y235366D01*
X229717Y235404D01*
X229642Y235431D01*
X229583Y235442D01*
Y240962D01*
X229641Y240973D01*
X229715Y241000D01*
X229784Y241037D01*
X229847Y241086D01*
X229900Y241143D01*
X229945Y241208D01*
X229978Y241279D01*
X230000Y241355D01*
X230010Y241433D01*
X230008Y241512D01*
X229993Y241589D01*
X229966Y241663D01*
X229928Y241732D01*
X229880Y241794D01*
X229823Y241848D01*
X229757Y241891D01*
X229583Y241982D01*
Y258015D01*
G37*
G36*
Y235442D02*X229564Y235445D01*
X229485Y235448D01*
X229407Y235438D01*
X229330Y235416D01*
X229259Y235381D01*
X228988Y235238D01*
X228703Y235125D01*
X228409Y235040D01*
X228108Y234982D01*
X227803Y234954D01*
X227497D01*
X227192Y234982D01*
X226891Y235040D01*
X226597Y235125D01*
X226345Y235225D01*
Y241175D01*
X226597Y241275D01*
X226891Y241360D01*
X227192Y241418D01*
X227497Y241446D01*
X227803D01*
X228108Y241418D01*
X228409Y241360D01*
X228703Y241275D01*
X228988Y241162D01*
X229261Y241022D01*
X229332Y240988D01*
X229407Y240966D01*
X229485Y240956D01*
X229564Y240958D01*
X229583Y240962D01*
Y235442D01*
G37*
G36*
Y194750D02*X226345D01*
Y196050D01*
X226521D01*
X226876Y196082D01*
X227226Y196146D01*
X227569Y196241D01*
X227903Y196367D01*
X228223Y196522D01*
X228290Y196564D01*
X228349Y196617D01*
X228399Y196678D01*
X228438Y196747D01*
X228467Y196821D01*
X228484Y196898D01*
X228488Y196977D01*
X228480Y197056D01*
X228459Y197133D01*
X228427Y197205D01*
X228384Y197271D01*
X228331Y197330D01*
X228270Y197380D01*
X228202Y197420D01*
X228128Y197448D01*
X228050Y197465D01*
X227971Y197469D01*
X227892Y197461D01*
X227816Y197441D01*
X227744Y197407D01*
X227507Y197289D01*
X227258Y197195D01*
X227002Y197125D01*
X226740Y197077D01*
X226476Y197053D01*
X226345D01*
Y202947D01*
X226476D01*
X226740Y202923D01*
X227002Y202875D01*
X227258Y202805D01*
X227507Y202711D01*
X227746Y202595D01*
X227817Y202562D01*
X227893Y202542D01*
X227971Y202534D01*
X228050Y202538D01*
X228127Y202554D01*
X228200Y202583D01*
X228268Y202622D01*
X228329Y202672D01*
X228382Y202730D01*
X228425Y202797D01*
X228457Y202868D01*
X228477Y202945D01*
X228485Y203023D01*
X228481Y203101D01*
X228464Y203178D01*
X228436Y203252D01*
X228396Y203320D01*
X228347Y203381D01*
X228288Y203433D01*
X228221Y203475D01*
X227903Y203633D01*
X227569Y203759D01*
X227226Y203854D01*
X226876Y203918D01*
X226521Y203950D01*
X226345D01*
Y234154D01*
X226656Y234063D01*
X227050Y233988D01*
X227449Y233950D01*
X227851D01*
X228250Y233988D01*
X228644Y234063D01*
X229029Y234175D01*
X229402Y234323D01*
X229583Y234415D01*
Y202100D01*
X229522Y202124D01*
X229445Y202141D01*
X229366Y202145D01*
X229287Y202137D01*
X229210Y202116D01*
X229138Y202084D01*
X229072Y202041D01*
X229013Y201988D01*
X228963Y201927D01*
X228923Y201859D01*
X228895Y201785D01*
X228878Y201707D01*
X228874Y201628D01*
X228882Y201549D01*
X228902Y201473D01*
X228936Y201401D01*
X229054Y201164D01*
X229148Y200915D01*
X229218Y200659D01*
X229266Y200397D01*
X229290Y200133D01*
Y199867D01*
X229266Y199603D01*
X229218Y199341D01*
X229148Y199085D01*
X229054Y198836D01*
X228938Y198597D01*
X228905Y198526D01*
X228885Y198450D01*
X228877Y198372D01*
X228881Y198293D01*
X228897Y198216D01*
X228926Y198143D01*
X228965Y198075D01*
X229015Y198014D01*
X229073Y197961D01*
X229140Y197918D01*
X229211Y197886D01*
X229288Y197866D01*
X229366Y197858D01*
X229444Y197862D01*
X229521Y197879D01*
X229583Y197903D01*
Y194750D01*
G37*
G36*
Y265582D02*X229402Y265677D01*
X229029Y265825D01*
X228644Y265937D01*
X228314Y266000D01*
X228441D01*
X228500Y265995D01*
X228735Y266014D01*
X228735Y266014D01*
X228965Y266069D01*
X229183Y266159D01*
X229384Y266283D01*
X229564Y266436D01*
X229583Y266459D01*
Y265582D01*
G37*
G36*
Y259042D02*X229564Y259045D01*
X229485Y259048D01*
X229407Y259038D01*
X229330Y259016D01*
X229259Y258981D01*
X228988Y258838D01*
X228703Y258725D01*
X228409Y258640D01*
X228108Y258582D01*
X227803Y258554D01*
X227497D01*
X227192Y258582D01*
X226891Y258640D01*
X226597Y258725D01*
X226345Y258825D01*
Y264775D01*
X226597Y264875D01*
X226891Y264960D01*
X227192Y265018D01*
X227497Y265046D01*
X227803D01*
X228108Y265018D01*
X228409Y264960D01*
X228703Y264875D01*
X228988Y264762D01*
X229261Y264622D01*
X229332Y264588D01*
X229407Y264566D01*
X229485Y264556D01*
X229564Y264558D01*
X229583Y264562D01*
Y259042D01*
G37*
G36*
X226345Y250224D02*X226368Y250230D01*
X226775Y250399D01*
X227151Y250629D01*
X227486Y250915D01*
X227772Y251250D01*
X228003Y251626D01*
X228171Y252033D01*
X228274Y252462D01*
X228300Y252901D01*
X228274Y253341D01*
X228171Y253769D01*
X228003Y254176D01*
X227772Y254552D01*
X227486Y254887D01*
X227151Y255173D01*
X226775Y255404D01*
X226368Y255572D01*
X226345Y255578D01*
Y257754D01*
X226656Y257663D01*
X227050Y257588D01*
X227449Y257550D01*
X227851D01*
X228250Y257588D01*
X228644Y257663D01*
X229029Y257775D01*
X229402Y257923D01*
X229583Y258015D01*
Y241982D01*
X229402Y242077D01*
X229029Y242225D01*
X228644Y242337D01*
X228250Y242412D01*
X227851Y242450D01*
X227449D01*
X227050Y242412D01*
X226656Y242337D01*
X226345Y242246D01*
Y250224D01*
G37*
G36*
X231919Y177282D02*X231395Y177895D01*
X228882Y180042D01*
X226345Y181596D01*
Y191250D01*
X231775D01*
X231919Y191106D01*
Y177282D01*
G37*
G36*
X226345Y255578D02*X225939Y255675D01*
X225500Y255710D01*
X225061Y255675D01*
X224632Y255572D01*
X224225Y255404D01*
X223849Y255173D01*
X223514Y254887D01*
X223228Y254552D01*
X223135Y254401D01*
X212273D01*
X212503Y254776D01*
X212671Y255183D01*
X212774Y255612D01*
X212800Y256051D01*
X212774Y256491D01*
X212671Y256919D01*
X212503Y257326D01*
X212272Y257702D01*
X211996Y258026D01*
Y260850D01*
X221291D01*
X221350Y260845D01*
X221585Y260864D01*
X221585Y260864D01*
X221815Y260919D01*
X222033Y261009D01*
X222234Y261133D01*
X222414Y261286D01*
X222452Y261331D01*
X223429Y262308D01*
X223400Y262001D01*
Y261599D01*
X223438Y261200D01*
X223513Y260806D01*
X223625Y260421D01*
X223773Y260048D01*
X223955Y259691D01*
X223999Y259625D01*
X224053Y259567D01*
X224116Y259519D01*
X224186Y259480D01*
X224260Y259454D01*
X224338Y259439D01*
X224417Y259436D01*
X224496Y259446D01*
X224572Y259468D01*
X224644Y259502D01*
X224709Y259547D01*
X224767Y259601D01*
X224816Y259664D01*
X224854Y259733D01*
X224881Y259808D01*
X224895Y259886D01*
X224898Y259965D01*
X224888Y260043D01*
X224866Y260120D01*
X224831Y260191D01*
X224688Y260462D01*
X224575Y260747D01*
X224490Y261041D01*
X224432Y261342D01*
X224404Y261647D01*
Y261953D01*
X224432Y262258D01*
X224490Y262559D01*
X224575Y262853D01*
X224688Y263138D01*
X224828Y263411D01*
X224862Y263482D01*
X224884Y263557D01*
X224894Y263635D01*
X224892Y263714D01*
X224883Y263761D01*
X225685Y264564D01*
X225736Y264555D01*
X225815Y264552D01*
X225893Y264562D01*
X225970Y264584D01*
X226041Y264619D01*
X226312Y264762D01*
X226345Y264775D01*
Y258825D01*
X226312Y258838D01*
X226039Y258978D01*
X225968Y259012D01*
X225893Y259034D01*
X225815Y259044D01*
X225736Y259042D01*
X225659Y259027D01*
X225585Y259000D01*
X225516Y258963D01*
X225453Y258914D01*
X225400Y258857D01*
X225355Y258792D01*
X225322Y258721D01*
X225300Y258645D01*
X225290Y258567D01*
X225292Y258488D01*
X225307Y258411D01*
X225334Y258337D01*
X225372Y258268D01*
X225420Y258206D01*
X225477Y258152D01*
X225543Y258109D01*
X225898Y257923D01*
X226271Y257775D01*
X226345Y257754D01*
Y255578D01*
G37*
G36*
X224149Y250445D02*X224225Y250399D01*
X224632Y250230D01*
X225061Y250127D01*
X225500Y250093D01*
X225939Y250127D01*
X226345Y250224D01*
Y242246D01*
X226271Y242225D01*
X225898Y242077D01*
X225541Y241895D01*
X225475Y241851D01*
X225417Y241797D01*
X225369Y241734D01*
X225330Y241664D01*
X225304Y241590D01*
X225289Y241512D01*
X225286Y241433D01*
X225296Y241354D01*
X225318Y241278D01*
X225352Y241206D01*
X225397Y241141D01*
X225451Y241083D01*
X225514Y241034D01*
X225583Y240996D01*
X225658Y240969D01*
X225736Y240955D01*
X225815Y240952D01*
X225893Y240962D01*
X225970Y240984D01*
X226041Y241019D01*
X226312Y241162D01*
X226345Y241175D01*
Y235225D01*
X226312Y235238D01*
X226039Y235378D01*
X225968Y235412D01*
X225893Y235434D01*
X225815Y235444D01*
X225736Y235442D01*
X225659Y235427D01*
X225585Y235400D01*
X225516Y235363D01*
X225453Y235314D01*
X225400Y235257D01*
X225355Y235192D01*
X225322Y235121D01*
X225300Y235045D01*
X225290Y234967D01*
X225292Y234888D01*
X225307Y234811D01*
X225334Y234737D01*
X225372Y234668D01*
X225420Y234606D01*
X225477Y234552D01*
X225543Y234509D01*
X225898Y234323D01*
X226271Y234175D01*
X226345Y234154D01*
Y203950D01*
X226165D01*
X225810Y203918D01*
X225460Y203854D01*
X225117Y203759D01*
X224783Y203633D01*
X224463Y203478D01*
X224396Y203436D01*
X224337Y203383D01*
X224287Y203322D01*
X224248Y203253D01*
X224219Y203179D01*
X224202Y203102D01*
X224198Y203023D01*
X224206Y202944D01*
X224227Y202867D01*
X224259Y202795D01*
X224302Y202729D01*
X224354Y202670D01*
X224416Y202620D01*
X224484Y202580D01*
X224558Y202552D01*
X224636Y202535D01*
X224715Y202531D01*
X224794Y202539D01*
X224870Y202559D01*
X224942Y202593D01*
X225179Y202711D01*
X225428Y202805D01*
X225684Y202875D01*
X225946Y202923D01*
X226210Y202947D01*
X226345D01*
Y197053D01*
X226210D01*
X225946Y197077D01*
X225684Y197125D01*
X225428Y197195D01*
X225179Y197289D01*
X224940Y197405D01*
X224869Y197438D01*
X224793Y197458D01*
X224715Y197466D01*
X224636Y197462D01*
X224559Y197446D01*
X224486Y197417D01*
X224418Y197378D01*
X224357Y197328D01*
X224304Y197270D01*
X224261Y197203D01*
X224229Y197132D01*
X224209Y197055D01*
X224201Y196977D01*
X224205Y196899D01*
X224222Y196822D01*
X224250Y196748D01*
X224290Y196680D01*
X224339Y196619D01*
X224398Y196567D01*
X224465Y196525D01*
X224783Y196367D01*
X225117Y196241D01*
X225460Y196146D01*
X225810Y196082D01*
X226165Y196050D01*
X226345D01*
Y194750D01*
X224225D01*
X224149Y194826D01*
Y235900D01*
X224186Y235880D01*
X224260Y235854D01*
X224338Y235839D01*
X224417Y235836D01*
X224496Y235846D01*
X224572Y235868D01*
X224644Y235902D01*
X224709Y235947D01*
X224767Y236001D01*
X224816Y236064D01*
X224854Y236133D01*
X224881Y236208D01*
X224895Y236286D01*
X224898Y236365D01*
X224888Y236443D01*
X224866Y236520D01*
X224831Y236591D01*
X224688Y236862D01*
X224575Y237147D01*
X224490Y237441D01*
X224432Y237742D01*
X224404Y238047D01*
Y238353D01*
X224432Y238658D01*
X224490Y238959D01*
X224575Y239253D01*
X224688Y239538D01*
X224828Y239811D01*
X224862Y239882D01*
X224884Y239957D01*
X224894Y240035D01*
X224892Y240114D01*
X224877Y240191D01*
X224850Y240265D01*
X224813Y240334D01*
X224764Y240397D01*
X224707Y240450D01*
X224642Y240495D01*
X224571Y240528D01*
X224495Y240550D01*
X224417Y240560D01*
X224338Y240558D01*
X224261Y240543D01*
X224187Y240516D01*
X224149Y240495D01*
Y250445D01*
G37*
G36*
X223103Y251401D02*X223135D01*
X223228Y251250D01*
X223514Y250915D01*
X223849Y250629D01*
X224149Y250445D01*
Y240495D01*
X224118Y240478D01*
X224056Y240430D01*
X224002Y240373D01*
X223959Y240307D01*
X223773Y239952D01*
X223625Y239579D01*
X223513Y239194D01*
X223438Y238800D01*
X223400Y238401D01*
Y237999D01*
X223438Y237600D01*
X223513Y237206D01*
X223625Y236821D01*
X223773Y236448D01*
X223955Y236091D01*
X223999Y236025D01*
X224053Y235967D01*
X224116Y235919D01*
X224149Y235900D01*
Y194826D01*
X223103Y195872D01*
Y197900D01*
X223164Y197876D01*
X223241Y197859D01*
X223320Y197855D01*
X223399Y197863D01*
X223476Y197884D01*
X223548Y197916D01*
X223614Y197959D01*
X223673Y198012D01*
X223723Y198073D01*
X223763Y198141D01*
X223791Y198215D01*
X223808Y198293D01*
X223812Y198372D01*
X223804Y198451D01*
X223784Y198527D01*
X223750Y198599D01*
X223632Y198836D01*
X223538Y199085D01*
X223468Y199341D01*
X223420Y199603D01*
X223396Y199867D01*
Y200133D01*
X223420Y200397D01*
X223468Y200659D01*
X223538Y200915D01*
X223632Y201164D01*
X223748Y201403D01*
X223781Y201474D01*
X223801Y201550D01*
X223809Y201628D01*
X223805Y201707D01*
X223789Y201784D01*
X223760Y201857D01*
X223721Y201925D01*
X223671Y201986D01*
X223613Y202039D01*
X223546Y202082D01*
X223475Y202114D01*
X223398Y202134D01*
X223320Y202142D01*
X223242Y202138D01*
X223165Y202121D01*
X223103Y202097D01*
Y251401D01*
G37*
G36*
X226345Y181596D02*X226063Y181769D01*
X223103Y182995D01*
Y191296D01*
X223225Y191266D01*
X223500Y191245D01*
X223569Y191250D01*
X226345D01*
Y181596D01*
G37*
G36*
X223103Y182995D02*X223009Y183034D01*
X219795Y183805D01*
X216500Y184065D01*
X213205Y183805D01*
X211996Y183515D01*
Y227638D01*
X212225Y227497D01*
X212632Y227329D01*
X213061Y227226D01*
X213500Y227191D01*
X213939Y227226D01*
X214368Y227329D01*
X214775Y227497D01*
X215151Y227728D01*
X215486Y228014D01*
X215772Y228349D01*
X216003Y228725D01*
X216171Y229132D01*
X216274Y229561D01*
X216300Y230000D01*
X216274Y230439D01*
X216171Y230868D01*
X216003Y231275D01*
X215772Y231651D01*
X215614Y231836D01*
X215632Y231829D01*
X216061Y231726D01*
X216500Y231691D01*
X216939Y231726D01*
X217368Y231829D01*
X217775Y231997D01*
X218151Y232228D01*
X218486Y232514D01*
X218772Y232849D01*
X219003Y233225D01*
X219171Y233632D01*
X219274Y234061D01*
X219300Y234500D01*
X219274Y234939D01*
X219171Y235368D01*
X219003Y235775D01*
X218772Y236151D01*
X218614Y236336D01*
X218632Y236329D01*
X219061Y236226D01*
X219500Y236191D01*
X219939Y236226D01*
X220368Y236329D01*
X220775Y236497D01*
X221151Y236728D01*
X221486Y237014D01*
X221772Y237349D01*
X222003Y237725D01*
X222171Y238132D01*
X222274Y238561D01*
X222300Y239000D01*
X222274Y239439D01*
X222171Y239868D01*
X222003Y240275D01*
X221772Y240651D01*
X221486Y240986D01*
X221151Y241272D01*
X220775Y241503D01*
X220368Y241671D01*
X219939Y241774D01*
X219500Y241809D01*
X219061Y241774D01*
X218632Y241671D01*
X218225Y241503D01*
X217849Y241272D01*
X217514Y240986D01*
X217228Y240651D01*
X217135Y240500D01*
X211996D01*
Y248252D01*
X216635D01*
X216728Y248101D01*
X217014Y247766D01*
X217349Y247480D01*
X217725Y247249D01*
X218132Y247081D01*
X218561Y246978D01*
X219000Y246943D01*
X219439Y246978D01*
X219868Y247081D01*
X220275Y247249D01*
X220651Y247480D01*
X220986Y247766D01*
X221272Y248101D01*
X221503Y248477D01*
X221671Y248884D01*
X221774Y249313D01*
X221800Y249752D01*
X221774Y250191D01*
X221671Y250620D01*
X221503Y251027D01*
X221273Y251401D01*
X223103D01*
Y202097D01*
X223091Y202093D01*
X223023Y202053D01*
X222962Y202004D01*
X222910Y201945D01*
X222868Y201878D01*
X222710Y201560D01*
X222584Y201226D01*
X222489Y200883D01*
X222425Y200533D01*
X222393Y200178D01*
Y199822D01*
X222425Y199467D01*
X222489Y199117D01*
X222584Y198774D01*
X222710Y198440D01*
X222865Y198120D01*
X222907Y198053D01*
X222960Y197994D01*
X223021Y197944D01*
X223090Y197905D01*
X223103Y197900D01*
Y195872D01*
X220248Y198727D01*
X220268Y198776D01*
X220413Y199380D01*
X220450Y200000D01*
X220413Y200620D01*
X220268Y201224D01*
X220030Y201799D01*
X219705Y202329D01*
X219302Y202802D01*
X218829Y203205D01*
X218299Y203530D01*
X217724Y203768D01*
X217120Y203913D01*
X216500Y203962D01*
X215880Y203913D01*
X215276Y203768D01*
X214701Y203530D01*
X214171Y203205D01*
X213698Y202802D01*
X213295Y202329D01*
X212970Y201799D01*
X212732Y201224D01*
X212587Y200620D01*
X212538Y200000D01*
X212587Y199380D01*
X212732Y198776D01*
X212970Y198201D01*
X213295Y197671D01*
X213698Y197198D01*
X214171Y196795D01*
X214701Y196470D01*
X215276Y196232D01*
X215880Y196087D01*
X216500Y196038D01*
X217120Y196087D01*
X217724Y196232D01*
X217773Y196252D01*
X222214Y191811D01*
X222259Y191759D01*
X222468Y191580D01*
X222468Y191580D01*
X222703Y191436D01*
X222958Y191331D01*
X223103Y191296D01*
Y182995D01*
G37*
G36*
X231919Y2500D02*X226645D01*
Y12230D01*
X226654Y12229D01*
X227477Y12294D01*
X228281Y12487D01*
X229044Y12803D01*
X229749Y13235D01*
X230377Y13772D01*
X230914Y14400D01*
X231346Y15104D01*
X231662Y15868D01*
X231855Y16671D01*
X231904Y17495D01*
X231855Y18319D01*
X231662Y19123D01*
X231346Y19886D01*
X230914Y20591D01*
X230377Y21219D01*
X229749Y21756D01*
X229044Y22187D01*
X228281Y22504D01*
X227477Y22697D01*
X226654Y22761D01*
X226645Y22761D01*
Y144588D01*
X228882Y145958D01*
X231395Y148105D01*
X231919Y148718D01*
Y114422D01*
X231768Y112500D01*
X231919Y110578D01*
Y2500D01*
G37*
G36*
X226645D02*X211996D01*
Y142485D01*
X213205Y142195D01*
X216500Y141935D01*
X219795Y142195D01*
X223009Y142966D01*
X226063Y144231D01*
X226645Y144588D01*
Y22761D01*
X225830Y22697D01*
X225026Y22504D01*
X224263Y22187D01*
X223558Y21756D01*
X222930Y21219D01*
X222393Y20591D01*
X221961Y19886D01*
X221645Y19123D01*
X221452Y18319D01*
X221387Y17495D01*
X221452Y16671D01*
X221645Y15868D01*
X221961Y15104D01*
X222393Y14400D01*
X222930Y13772D01*
X223558Y13235D01*
X224263Y12803D01*
X225026Y12487D01*
X225830Y12294D01*
X226645Y12230D01*
Y2500D01*
G37*
G36*
X211996Y377234D02*X210247Y378728D01*
X208142Y380018D01*
X205862Y380962D01*
X203461Y381539D01*
X201000Y381732D01*
X198539Y381539D01*
X196138Y380962D01*
X193858Y380018D01*
X191753Y378728D01*
X189876Y377124D01*
X188272Y375247D01*
X186982Y373142D01*
X186038Y370862D01*
X186000Y370705D01*
Y378500D01*
X180246D01*
Y427000D01*
X195000D01*
Y450500D01*
X211996D01*
Y377234D01*
G37*
G36*
Y317700D02*X206259D01*
X206200Y317705D01*
X205965Y317686D01*
X205735Y317631D01*
X205517Y317541D01*
X205316Y317417D01*
X205315Y317417D01*
X205136Y317264D01*
X205098Y317219D01*
X198379Y310500D01*
X180246D01*
Y322500D01*
X186000D01*
Y361295D01*
X186038Y361138D01*
X186982Y358858D01*
X188272Y356753D01*
X189876Y354876D01*
X191753Y353272D01*
X193858Y351982D01*
X196138Y351038D01*
X198539Y350461D01*
X201000Y350268D01*
X203461Y350461D01*
X205862Y351038D01*
X208142Y351982D01*
X210247Y353272D01*
X211996Y354766D01*
Y317700D01*
G37*
G36*
Y293475D02*X211986Y293486D01*
X211651Y293772D01*
X211275Y294003D01*
X210868Y294171D01*
X210439Y294274D01*
X210000Y294309D01*
X209561Y294274D01*
X209132Y294171D01*
X208725Y294003D01*
X208349Y293772D01*
X208221Y293662D01*
X208171Y293868D01*
X208003Y294275D01*
X207772Y294651D01*
X207486Y294986D01*
X207151Y295272D01*
X206775Y295503D01*
X206368Y295671D01*
X205939Y295774D01*
X205500Y295809D01*
X205061Y295774D01*
X204632Y295671D01*
X204225Y295503D01*
X203849Y295272D01*
X203514Y294986D01*
X203228Y294651D01*
X203000Y294279D01*
X202772Y294651D01*
X202486Y294986D01*
X202151Y295272D01*
X201775Y295503D01*
X201368Y295671D01*
X200939Y295774D01*
X200500Y295809D01*
X200061Y295774D01*
X199684Y295684D01*
X199774Y296061D01*
X199800Y296500D01*
X199774Y296939D01*
X199671Y297368D01*
X199503Y297775D01*
X199272Y298151D01*
X198986Y298486D01*
X198651Y298772D01*
X198275Y299003D01*
X197868Y299171D01*
X197439Y299274D01*
X197000Y299309D01*
X196561Y299274D01*
X196184Y299184D01*
X196274Y299561D01*
X196300Y300000D01*
X196274Y300439D01*
X196171Y300868D01*
X196003Y301275D01*
X195772Y301651D01*
X195486Y301986D01*
X195470Y302000D01*
X202941D01*
X203000Y301995D01*
X203235Y302014D01*
X203235Y302014D01*
X203465Y302069D01*
X203683Y302159D01*
X203884Y302283D01*
X204064Y302436D01*
X204102Y302481D01*
X205889Y304267D01*
X206061Y304226D01*
X206500Y304191D01*
X206939Y304226D01*
X207368Y304329D01*
X207775Y304497D01*
X208151Y304728D01*
X208486Y305014D01*
X208772Y305349D01*
X209003Y305725D01*
X209171Y306132D01*
X209274Y306561D01*
X209300Y307000D01*
X209274Y307439D01*
X209171Y307868D01*
X209003Y308275D01*
X208772Y308651D01*
X208486Y308986D01*
X208151Y309272D01*
X207775Y309503D01*
X207368Y309671D01*
X206939Y309774D01*
X206500Y309809D01*
X206061Y309774D01*
X205843Y309722D01*
X207121Y311000D01*
X211996D01*
Y293475D01*
G37*
G36*
X206651Y228500D02*X211135D01*
X211228Y228349D01*
X211514Y228014D01*
X211849Y227728D01*
X211996Y227638D01*
Y183515D01*
X209991Y183034D01*
X206937Y181769D01*
X206651Y181594D01*
Y196038D01*
X206657Y196038D01*
X207277Y196087D01*
X207881Y196232D01*
X208456Y196470D01*
X208986Y196795D01*
X209459Y197198D01*
X209862Y197671D01*
X210187Y198201D01*
X210425Y198776D01*
X210570Y199380D01*
X210607Y200000D01*
X210570Y200620D01*
X210425Y201224D01*
X210187Y201799D01*
X209862Y202329D01*
X209459Y202802D01*
X208986Y203205D01*
X208456Y203530D01*
X207881Y203768D01*
X207277Y203913D01*
X206657Y203962D01*
X206651Y203962D01*
Y228500D01*
G37*
G36*
Y248252D02*X211996D01*
Y240500D01*
X206651D01*
Y248252D01*
G37*
G36*
Y260850D02*X211996D01*
Y258026D01*
X211986Y258037D01*
X211651Y258323D01*
X211275Y258554D01*
X210868Y258722D01*
X210439Y258825D01*
X210000Y258860D01*
X209561Y258825D01*
X209132Y258722D01*
X208725Y258554D01*
X208349Y258323D01*
X208014Y258037D01*
X207728Y257702D01*
X207635Y257551D01*
X206651D01*
Y260850D01*
G37*
G36*
Y267500D02*X211996D01*
Y263850D01*
X206651D01*
Y267500D01*
G37*
G36*
X211996Y2500D02*X206651D01*
Y6694D01*
X207391Y7001D01*
X208095Y7432D01*
X208724Y7969D01*
X209260Y8598D01*
X209692Y9302D01*
X210008Y10066D01*
X210201Y10869D01*
X210250Y11693D01*
X210201Y12517D01*
X210008Y13320D01*
X209692Y14084D01*
X209260Y14788D01*
X208724Y15417D01*
X208095Y15953D01*
X207391Y16385D01*
X206651Y16692D01*
Y34253D01*
X207391Y34560D01*
X208095Y34992D01*
X208724Y35528D01*
X209260Y36157D01*
X209692Y36861D01*
X210008Y37625D01*
X210201Y38428D01*
X210250Y39252D01*
X210201Y40076D01*
X210008Y40879D01*
X209692Y41643D01*
X209260Y42347D01*
X208724Y42976D01*
X208095Y43512D01*
X207391Y43944D01*
X206651Y44251D01*
Y144406D01*
X206937Y144231D01*
X209991Y142966D01*
X211996Y142485D01*
Y2500D01*
G37*
G36*
X196805Y250666D02*X196849Y250629D01*
X197225Y250399D01*
X197632Y250230D01*
X198061Y250127D01*
X198500Y250093D01*
X198720Y250110D01*
X198691Y249752D01*
X198726Y249313D01*
X198829Y248884D01*
X198997Y248477D01*
X199228Y248101D01*
X199514Y247766D01*
X199849Y247480D01*
X200225Y247249D01*
X200632Y247081D01*
X201061Y246978D01*
X201500Y246943D01*
X201939Y246978D01*
X202368Y247081D01*
X202775Y247249D01*
X203151Y247480D01*
X203486Y247766D01*
X203772Y248101D01*
X203865Y248252D01*
X206651D01*
Y240500D01*
X203365D01*
X203272Y240651D01*
X202986Y240986D01*
X202651Y241272D01*
X202275Y241503D01*
X201868Y241671D01*
X201439Y241774D01*
X201000Y241809D01*
X200561Y241774D01*
X200132Y241671D01*
X199725Y241503D01*
X199349Y241272D01*
X199014Y240986D01*
X198728Y240651D01*
X198497Y240275D01*
X198329Y239868D01*
X198226Y239439D01*
X198191Y239000D01*
X198226Y238561D01*
X198329Y238132D01*
X198497Y237725D01*
X198728Y237349D01*
X199014Y237014D01*
X199323Y236750D01*
X199014Y236486D01*
X198728Y236151D01*
X198497Y235775D01*
X198329Y235368D01*
X198226Y234939D01*
X198191Y234500D01*
X198226Y234061D01*
X198329Y233632D01*
X198497Y233225D01*
X198728Y232849D01*
X199014Y232514D01*
X199323Y232250D01*
X199014Y231986D01*
X198728Y231651D01*
X198497Y231275D01*
X198329Y230868D01*
X198226Y230439D01*
X198191Y230000D01*
X198226Y229561D01*
X198329Y229132D01*
X198497Y228725D01*
X198728Y228349D01*
X199014Y228014D01*
X199349Y227728D01*
X199725Y227497D01*
X200132Y227329D01*
X200561Y227226D01*
X201000Y227191D01*
X201439Y227226D01*
X201868Y227329D01*
X202275Y227497D01*
X202651Y227728D01*
X202986Y228014D01*
X203272Y228349D01*
X203365Y228500D01*
X206651D01*
Y203962D01*
X206037Y203913D01*
X205433Y203768D01*
X204858Y203530D01*
X204328Y203205D01*
X203855Y202802D01*
X203452Y202329D01*
X203127Y201799D01*
X202889Y201224D01*
X202744Y200620D01*
X202695Y200000D01*
X202744Y199380D01*
X202889Y198776D01*
X203127Y198201D01*
X203452Y197671D01*
X203855Y197198D01*
X204328Y196795D01*
X204858Y196470D01*
X205433Y196232D01*
X206037Y196087D01*
X206651Y196038D01*
Y181594D01*
X204118Y180042D01*
X201605Y177895D01*
X199458Y175382D01*
X197731Y172563D01*
X196805Y170328D01*
Y206623D01*
X196815Y206622D01*
X197811Y206701D01*
X198783Y206934D01*
X199707Y207317D01*
X200559Y207839D01*
X201319Y208488D01*
X201968Y209248D01*
X202490Y210100D01*
X202873Y211024D01*
X203106Y211996D01*
X203165Y212992D01*
X203106Y213988D01*
X202873Y214960D01*
X202490Y215884D01*
X201968Y216736D01*
X201319Y217496D01*
X200559Y218145D01*
X199707Y218667D01*
X198783Y219050D01*
X197811Y219283D01*
X196815Y219362D01*
X196805Y219361D01*
Y250666D01*
G37*
G36*
Y284000D02*X205882D01*
X205529Y283972D01*
X205070Y283862D01*
X204634Y283681D01*
X204231Y283435D01*
X203872Y283128D01*
X203565Y282769D01*
X203319Y282366D01*
X203138Y281930D01*
X203028Y281471D01*
X202991Y281000D01*
X203028Y280529D01*
X203138Y280070D01*
X203319Y279634D01*
X203565Y279231D01*
X203872Y278872D01*
X204231Y278565D01*
X204634Y278319D01*
X205070Y278138D01*
X205375Y278065D01*
X205225Y278003D01*
X204849Y277772D01*
X204514Y277486D01*
X204228Y277151D01*
X203997Y276775D01*
X203884Y276501D01*
X203824Y276599D01*
X203538Y276934D01*
X203203Y277220D01*
X202827Y277451D01*
X202420Y277619D01*
X201991Y277722D01*
X201552Y277757D01*
X201113Y277722D01*
X200684Y277619D01*
X200277Y277451D01*
X199901Y277220D01*
X199566Y276934D01*
X199280Y276599D01*
X199049Y276223D01*
X198881Y275816D01*
X198778Y275387D01*
X198743Y274948D01*
X198778Y274509D01*
X198881Y274080D01*
X199049Y273673D01*
X199280Y273297D01*
X199566Y272962D01*
X199901Y272676D01*
X200277Y272446D01*
X200684Y272277D01*
X201113Y272174D01*
X201552Y272139D01*
X201991Y272174D01*
X202163Y272215D01*
X202657Y271722D01*
X202439Y271774D01*
X202000Y271809D01*
X201561Y271774D01*
X201132Y271671D01*
X200725Y271503D01*
X200349Y271272D01*
X200014Y270986D01*
X199728Y270651D01*
X199497Y270275D01*
X199329Y269868D01*
X199226Y269439D01*
X199191Y269000D01*
X199226Y268561D01*
X199329Y268132D01*
X199497Y267725D01*
X199728Y267349D01*
X200014Y267014D01*
X200349Y266728D01*
X200725Y266497D01*
X201132Y266329D01*
X201561Y266226D01*
X202000Y266191D01*
X202439Y266226D01*
X202868Y266329D01*
X203275Y266497D01*
X203651Y266728D01*
X203986Y267014D01*
X204272Y267349D01*
X204365Y267500D01*
X206651D01*
Y263850D01*
X205865D01*
X205772Y264001D01*
X205486Y264336D01*
X205151Y264622D01*
X204775Y264853D01*
X204368Y265021D01*
X203939Y265124D01*
X203500Y265159D01*
X203061Y265124D01*
X202632Y265021D01*
X202225Y264853D01*
X201849Y264622D01*
X201514Y264336D01*
X201228Y264001D01*
X200997Y263625D01*
X200829Y263218D01*
X200726Y262789D01*
X200691Y262350D01*
X200726Y261911D01*
X200829Y261482D01*
X200997Y261075D01*
X201228Y260699D01*
X201514Y260364D01*
X201849Y260078D01*
X202225Y259847D01*
X202632Y259679D01*
X203061Y259576D01*
X203500Y259541D01*
X203939Y259576D01*
X204368Y259679D01*
X204775Y259847D01*
X205151Y260078D01*
X205486Y260364D01*
X205772Y260699D01*
X205865Y260850D01*
X206651D01*
Y257551D01*
X203865D01*
X203772Y257702D01*
X203486Y258037D01*
X203151Y258323D01*
X202775Y258554D01*
X202368Y258722D01*
X201939Y258825D01*
X201500Y258860D01*
X201061Y258825D01*
X200632Y258722D01*
X200225Y258554D01*
X199849Y258323D01*
X199514Y258037D01*
X199228Y257702D01*
X198997Y257326D01*
X198829Y256919D01*
X198726Y256491D01*
X198691Y256051D01*
X198720Y255693D01*
X198500Y255710D01*
X198061Y255675D01*
X197632Y255572D01*
X197225Y255404D01*
X196849Y255173D01*
X196805Y255136D01*
Y284000D01*
G37*
G36*
X206651Y2500D02*X196805D01*
Y155672D01*
X197731Y153437D01*
X199458Y150618D01*
X201605Y148105D01*
X204118Y145958D01*
X206651Y144406D01*
Y44251D01*
X206627Y44260D01*
X205824Y44453D01*
X205000Y44518D01*
X204176Y44453D01*
X203373Y44260D01*
X202609Y43944D01*
X201905Y43512D01*
X201276Y42976D01*
X200740Y42347D01*
X200308Y41643D01*
X199992Y40879D01*
X199799Y40076D01*
X199734Y39252D01*
X199799Y38428D01*
X199992Y37625D01*
X200308Y36861D01*
X200740Y36157D01*
X201276Y35528D01*
X201905Y34992D01*
X202609Y34560D01*
X203373Y34244D01*
X204176Y34051D01*
X205000Y33986D01*
X205824Y34051D01*
X206627Y34244D01*
X206651Y34253D01*
Y16692D01*
X206627Y16701D01*
X205824Y16894D01*
X205000Y16959D01*
X204176Y16894D01*
X203373Y16701D01*
X202609Y16385D01*
X201905Y15953D01*
X201276Y15417D01*
X200740Y14788D01*
X200308Y14084D01*
X199992Y13320D01*
X199799Y12517D01*
X199734Y11693D01*
X199799Y10869D01*
X199992Y10066D01*
X200308Y9302D01*
X200740Y8598D01*
X201276Y7969D01*
X201905Y7432D01*
X202609Y7001D01*
X203373Y6684D01*
X204176Y6492D01*
X205000Y6427D01*
X205824Y6492D01*
X206627Y6684D01*
X206651Y6694D01*
Y2500D01*
G37*
G36*
X196805D02*X180246D01*
Y13239D01*
X180251Y13235D01*
X180956Y12803D01*
X181719Y12487D01*
X182523Y12294D01*
X183346Y12229D01*
X184170Y12294D01*
X184974Y12487D01*
X185737Y12803D01*
X186442Y13235D01*
X187070Y13772D01*
X187607Y14400D01*
X188039Y15104D01*
X188355Y15868D01*
X188548Y16671D01*
X188596Y17495D01*
X188548Y18319D01*
X188355Y19123D01*
X188039Y19886D01*
X187607Y20591D01*
X187070Y21219D01*
X186442Y21756D01*
X185737Y22187D01*
X184974Y22504D01*
X184170Y22697D01*
X183346Y22761D01*
X182523Y22697D01*
X181719Y22504D01*
X180956Y22187D01*
X180251Y21756D01*
X180246Y21751D01*
Y88249D01*
X180251Y88245D01*
X180956Y87813D01*
X181719Y87497D01*
X182523Y87304D01*
X183346Y87239D01*
X184170Y87304D01*
X184974Y87497D01*
X185737Y87813D01*
X186442Y88245D01*
X187070Y88781D01*
X187607Y89410D01*
X188039Y90114D01*
X188355Y90878D01*
X188548Y91681D01*
X188596Y92505D01*
X188548Y93329D01*
X188355Y94132D01*
X188039Y94896D01*
X187607Y95601D01*
X187070Y96229D01*
X186442Y96766D01*
X185737Y97197D01*
X184974Y97514D01*
X184170Y97706D01*
X183346Y97771D01*
X182523Y97706D01*
X181719Y97514D01*
X180956Y97197D01*
X180251Y96766D01*
X180246Y96761D01*
Y149124D01*
X184889Y153767D01*
X185061Y153726D01*
X185500Y153691D01*
X185939Y153726D01*
X186368Y153829D01*
X186775Y153997D01*
X187151Y154228D01*
X187486Y154514D01*
X187772Y154849D01*
X188003Y155225D01*
X188171Y155632D01*
X188274Y156061D01*
X188300Y156500D01*
X188274Y156939D01*
X188171Y157368D01*
X188003Y157775D01*
X187772Y158151D01*
X187486Y158486D01*
X187151Y158772D01*
X186775Y159003D01*
X186368Y159171D01*
X185939Y159274D01*
X185500Y159309D01*
X185061Y159274D01*
X184632Y159171D01*
X184225Y159003D01*
X183849Y158772D01*
X183514Y158486D01*
X183228Y158151D01*
X182997Y157775D01*
X182829Y157368D01*
X182726Y156939D01*
X182691Y156500D01*
X182726Y156061D01*
X182767Y155889D01*
X180246Y153367D01*
Y192302D01*
X180561Y192226D01*
X181000Y192191D01*
X181439Y192226D01*
X181868Y192329D01*
X182275Y192497D01*
X182651Y192728D01*
X182986Y193014D01*
X183272Y193349D01*
X183503Y193725D01*
X183671Y194132D01*
X183774Y194561D01*
X183800Y195000D01*
X183774Y195439D01*
X183671Y195868D01*
X183503Y196275D01*
X183272Y196651D01*
X182986Y196986D01*
X182651Y197272D01*
X182275Y197503D01*
X181868Y197671D01*
X181439Y197774D01*
X181000Y197809D01*
X180561Y197774D01*
X180246Y197698D01*
Y284000D01*
X196805D01*
Y255136D01*
X196514Y254887D01*
X196228Y254552D01*
X195997Y254176D01*
X195829Y253769D01*
X195726Y253341D01*
X195691Y252901D01*
X195726Y252462D01*
X195829Y252033D01*
X195997Y251626D01*
X196228Y251250D01*
X196514Y250915D01*
X196805Y250666D01*
Y219361D01*
X195819Y219283D01*
X194847Y219050D01*
X193923Y218667D01*
X193071Y218145D01*
X192311Y217496D01*
X191662Y216736D01*
X191140Y215884D01*
X190757Y214960D01*
X190524Y213988D01*
X190445Y212992D01*
X190524Y211996D01*
X190757Y211024D01*
X191140Y210100D01*
X191662Y209248D01*
X192311Y208488D01*
X193071Y207839D01*
X193923Y207317D01*
X194847Y206934D01*
X195819Y206701D01*
X196805Y206623D01*
Y170328D01*
X196466Y169509D01*
X195695Y166295D01*
X195435Y163000D01*
X195695Y159705D01*
X196466Y156491D01*
X196805Y155672D01*
Y2500D01*
G37*
G36*
X180246Y378500D02*X147494D01*
Y407488D01*
X147500Y407488D01*
X148128Y407537D01*
X148740Y407684D01*
X149322Y407925D01*
X149858Y408254D01*
X150337Y408663D01*
X150746Y409142D01*
X151075Y409678D01*
X151316Y410260D01*
X151463Y410872D01*
X151500Y411500D01*
X151463Y412128D01*
X151316Y412740D01*
X151075Y413322D01*
X150746Y413858D01*
X150337Y414337D01*
X149858Y414746D01*
X149322Y415075D01*
X148740Y415316D01*
X148128Y415463D01*
X147500Y415512D01*
X147494Y415512D01*
Y417488D01*
X147500Y417488D01*
X148128Y417537D01*
X148740Y417684D01*
X149322Y417925D01*
X149858Y418254D01*
X150337Y418663D01*
X150746Y419142D01*
X151075Y419678D01*
X151316Y420260D01*
X151463Y420872D01*
X151500Y421500D01*
X151463Y422128D01*
X151316Y422740D01*
X151075Y423322D01*
X150746Y423858D01*
X150337Y424337D01*
X149858Y424746D01*
X149322Y425075D01*
X148740Y425316D01*
X148128Y425463D01*
X147500Y425512D01*
X147494Y425512D01*
Y427000D01*
X180246D01*
Y378500D01*
G37*
G36*
X147494D02*X142246D01*
Y427000D01*
X147494D01*
Y425512D01*
X146872Y425463D01*
X146260Y425316D01*
X145678Y425075D01*
X145142Y424746D01*
X144663Y424337D01*
X144254Y423858D01*
X143925Y423322D01*
X143684Y422740D01*
X143537Y422128D01*
X143488Y421500D01*
X143537Y420872D01*
X143684Y420260D01*
X143925Y419678D01*
X144254Y419142D01*
X144663Y418663D01*
X145142Y418254D01*
X145678Y417925D01*
X146260Y417684D01*
X146872Y417537D01*
X147494Y417488D01*
Y415512D01*
X146872Y415463D01*
X146260Y415316D01*
X145678Y415075D01*
X145142Y414746D01*
X144663Y414337D01*
X144254Y413858D01*
X143925Y413322D01*
X143684Y412740D01*
X143537Y412128D01*
X143488Y411500D01*
X143537Y410872D01*
X143684Y410260D01*
X143925Y409678D01*
X144254Y409142D01*
X144663Y408663D01*
X145142Y408254D01*
X145678Y407925D01*
X146260Y407684D01*
X146872Y407537D01*
X147494Y407488D01*
Y378500D01*
G37*
G36*
X180246Y310500D02*X142246D01*
Y322500D01*
X180246D01*
Y310500D01*
G37*
G36*
Y197698D02*X180132Y197671D01*
X179725Y197503D01*
X179349Y197272D01*
X179014Y196986D01*
X178728Y196651D01*
X178635Y196500D01*
X170621D01*
X163500Y203621D01*
Y216941D01*
X163505Y217000D01*
X163486Y217235D01*
X163486Y217235D01*
X163431Y217465D01*
X163341Y217683D01*
X163217Y217884D01*
X163064Y218064D01*
X163019Y218102D01*
X161102Y220019D01*
X161064Y220064D01*
X160884Y220217D01*
X160683Y220341D01*
X160465Y220431D01*
X160235Y220486D01*
X160235Y220486D01*
X160000Y220505D01*
X159941Y220500D01*
X154099D01*
X154181Y220634D01*
X154362Y221070D01*
X154472Y221529D01*
X154500Y222000D01*
X154472Y222471D01*
X154362Y222930D01*
X154181Y223366D01*
X153935Y223769D01*
X153737Y224000D01*
X173135D01*
X173228Y223849D01*
X173514Y223514D01*
X173849Y223228D01*
X174225Y222997D01*
X174632Y222829D01*
X175061Y222726D01*
X175500Y222691D01*
X175939Y222726D01*
X176368Y222829D01*
X176775Y222997D01*
X177151Y223228D01*
X177486Y223514D01*
X177772Y223849D01*
X178003Y224225D01*
X178171Y224632D01*
X178274Y225061D01*
X178300Y225500D01*
X178274Y225939D01*
X178171Y226368D01*
X178003Y226775D01*
X177772Y227151D01*
X177486Y227486D01*
X177151Y227772D01*
X176775Y228003D01*
X176368Y228171D01*
X175939Y228274D01*
X175500Y228309D01*
X175061Y228274D01*
X174632Y228171D01*
X174225Y228003D01*
X173849Y227772D01*
X173514Y227486D01*
X173228Y227151D01*
X173135Y227000D01*
X142246D01*
Y284000D01*
X180246D01*
Y197698D01*
G37*
G36*
Y2500D02*X142246D01*
Y12164D01*
X143103Y12897D01*
X143911Y13842D01*
X144561Y14902D01*
X145037Y16051D01*
X145327Y17260D01*
X145400Y18500D01*
X145327Y19740D01*
X145037Y20949D01*
X144561Y22098D01*
X143911Y23158D01*
X143103Y24103D01*
X142246Y24836D01*
Y53818D01*
X142272Y53849D01*
X142503Y54225D01*
X142671Y54632D01*
X142774Y55061D01*
X142800Y55500D01*
X142774Y55939D01*
X142671Y56368D01*
X142503Y56775D01*
X142365Y57000D01*
X155879D01*
X156767Y56111D01*
X156726Y55939D01*
X156691Y55500D01*
X156726Y55061D01*
X156829Y54632D01*
X156997Y54225D01*
X157228Y53849D01*
X157514Y53514D01*
X157849Y53228D01*
X158225Y52997D01*
X158632Y52829D01*
X159061Y52726D01*
X159500Y52691D01*
X159939Y52726D01*
X160368Y52829D01*
X160775Y52997D01*
X161151Y53228D01*
X161486Y53514D01*
X161772Y53849D01*
X162003Y54225D01*
X162171Y54632D01*
X162274Y55061D01*
X162300Y55500D01*
X162274Y55939D01*
X162171Y56368D01*
X162003Y56775D01*
X161772Y57151D01*
X161486Y57486D01*
X161151Y57772D01*
X160775Y58003D01*
X160368Y58171D01*
X159939Y58274D01*
X159500Y58309D01*
X159061Y58274D01*
X158889Y58233D01*
X157602Y59519D01*
X157564Y59564D01*
X157384Y59717D01*
X157183Y59841D01*
X156965Y59931D01*
X156735Y59986D01*
X156735Y59986D01*
X156500Y60005D01*
X156441Y60000D01*
X142246D01*
Y80250D01*
X143812D01*
X144014Y80014D01*
X144349Y79728D01*
X144725Y79497D01*
X145132Y79329D01*
X145561Y79226D01*
X146000Y79191D01*
X146439Y79226D01*
X146868Y79329D01*
X147275Y79497D01*
X147651Y79728D01*
X147986Y80014D01*
X148272Y80349D01*
X148503Y80725D01*
X148671Y81132D01*
X148774Y81561D01*
X148800Y82000D01*
X148774Y82439D01*
X148671Y82868D01*
X148503Y83275D01*
X148272Y83651D01*
X147986Y83986D01*
X147651Y84272D01*
X147275Y84503D01*
X146868Y84671D01*
X146439Y84774D01*
X146000Y84809D01*
X145561Y84774D01*
X145132Y84671D01*
X144725Y84503D01*
X144349Y84272D01*
X144014Y83986D01*
X143812Y83750D01*
X142246D01*
Y159636D01*
X142982Y157858D01*
X144272Y155753D01*
X145876Y153876D01*
X147753Y152272D01*
X149858Y150982D01*
X152138Y150038D01*
X154539Y149461D01*
X157000Y149268D01*
X159461Y149461D01*
X161862Y150038D01*
X164142Y150982D01*
X166247Y152272D01*
X168124Y153876D01*
X169728Y155753D01*
X171018Y157858D01*
X171962Y160138D01*
X172539Y162539D01*
X172684Y165000D01*
X172539Y167461D01*
X171962Y169862D01*
X171018Y172142D01*
X169728Y174247D01*
X168124Y176124D01*
X166247Y177728D01*
X164142Y179018D01*
X161862Y179962D01*
X159461Y180539D01*
X157000Y180732D01*
X154539Y180539D01*
X152138Y179962D01*
X149858Y179018D01*
X147753Y177728D01*
X145876Y176124D01*
X144272Y174247D01*
X142982Y172142D01*
X142246Y170364D01*
Y219211D01*
X142439Y219226D01*
X142462Y219231D01*
X142443Y219000D01*
X142478Y218561D01*
X142581Y218132D01*
X142749Y217725D01*
X142980Y217349D01*
X143266Y217014D01*
X143601Y216728D01*
X143977Y216497D01*
X144384Y216329D01*
X144813Y216226D01*
X145252Y216191D01*
X145691Y216226D01*
X146120Y216329D01*
X146527Y216497D01*
X146903Y216728D01*
X147238Y217014D01*
X147524Y217349D01*
X147617Y217500D01*
X156188D01*
X156081Y217435D01*
X155722Y217128D01*
X155415Y216769D01*
X155169Y216366D01*
X154988Y215930D01*
X154878Y215471D01*
X154841Y215000D01*
X154878Y214529D01*
X154988Y214070D01*
X155169Y213634D01*
X155415Y213231D01*
X155722Y212872D01*
X156081Y212565D01*
X156100Y212554D01*
Y193688D01*
X155864Y193486D01*
X155578Y193151D01*
X155347Y192775D01*
X155179Y192368D01*
X155076Y191939D01*
X155041Y191500D01*
X155076Y191061D01*
X155179Y190632D01*
X155347Y190225D01*
X155578Y189849D01*
X155864Y189514D01*
X156199Y189228D01*
X156575Y188997D01*
X156982Y188829D01*
X157411Y188726D01*
X157850Y188691D01*
X158289Y188726D01*
X158718Y188829D01*
X159125Y188997D01*
X159501Y189228D01*
X159836Y189514D01*
X160122Y189849D01*
X160353Y190225D01*
X160521Y190632D01*
X160624Y191061D01*
X160650Y191500D01*
X160624Y191939D01*
X160521Y192368D01*
X160353Y192775D01*
X160122Y193151D01*
X159836Y193486D01*
X159600Y193688D01*
Y212554D01*
X159619Y212565D01*
X159978Y212872D01*
X160285Y213231D01*
X160500Y213583D01*
Y203059D01*
X160495Y203000D01*
X160514Y202765D01*
X160569Y202535D01*
X160659Y202317D01*
X160783Y202116D01*
X160936Y201936D01*
X160981Y201898D01*
X168898Y193981D01*
X168936Y193936D01*
X169116Y193783D01*
X169317Y193659D01*
X169535Y193569D01*
X169765Y193514D01*
X170000Y193495D01*
X170059Y193500D01*
X178635D01*
X178728Y193349D01*
X179014Y193014D01*
X179349Y192728D01*
X179725Y192497D01*
X180132Y192329D01*
X180246Y192302D01*
Y153367D01*
X175611Y148733D01*
X175439Y148774D01*
X175000Y148809D01*
X174561Y148774D01*
X174132Y148671D01*
X173725Y148503D01*
X173349Y148272D01*
X173014Y147986D01*
X172728Y147651D01*
X172497Y147275D01*
X172329Y146868D01*
X172226Y146439D01*
X172191Y146000D01*
X172226Y145561D01*
X172329Y145132D01*
X172497Y144725D01*
X172728Y144349D01*
X173014Y144014D01*
X173349Y143728D01*
X173725Y143497D01*
X174132Y143329D01*
X174561Y143226D01*
X175000Y143191D01*
X175439Y143226D01*
X175868Y143329D01*
X176275Y143497D01*
X176651Y143728D01*
X176986Y144014D01*
X177272Y144349D01*
X177503Y144725D01*
X177671Y145132D01*
X177774Y145561D01*
X177800Y146000D01*
X177774Y146439D01*
X177733Y146611D01*
X180246Y149124D01*
Y96761D01*
X179623Y96229D01*
X179086Y95601D01*
X178654Y94896D01*
X178338Y94132D01*
X178145Y93329D01*
X178080Y92505D01*
X178145Y91681D01*
X178338Y90878D01*
X178654Y90114D01*
X179086Y89410D01*
X179623Y88781D01*
X180246Y88249D01*
Y21751D01*
X179623Y21219D01*
X179086Y20591D01*
X178654Y19886D01*
X178338Y19123D01*
X178145Y18319D01*
X178080Y17495D01*
X178145Y16671D01*
X178338Y15868D01*
X178654Y15104D01*
X179086Y14400D01*
X179623Y13772D01*
X180246Y13239D01*
Y2500D01*
G37*
G36*
X142246Y378500D02*X140784D01*
Y409369D01*
X140787Y409370D01*
X140855Y409409D01*
X140916Y409458D01*
X140969Y409517D01*
X141011Y409583D01*
X141174Y409908D01*
X141303Y410248D01*
X141401Y410598D01*
X141467Y410956D01*
X141500Y411318D01*
Y411682D01*
X141467Y412044D01*
X141401Y412402D01*
X141303Y412752D01*
X141174Y413092D01*
X141015Y413419D01*
X140972Y413485D01*
X140919Y413544D01*
X140857Y413594D01*
X140788Y413633D01*
X140784Y413635D01*
Y419369D01*
X140787Y419370D01*
X140855Y419409D01*
X140916Y419458D01*
X140969Y419517D01*
X141011Y419583D01*
X141174Y419908D01*
X141303Y420248D01*
X141401Y420598D01*
X141467Y420956D01*
X141500Y421318D01*
Y421682D01*
X141467Y422044D01*
X141401Y422402D01*
X141303Y422752D01*
X141174Y423092D01*
X141015Y423419D01*
X140972Y423485D01*
X140919Y423544D01*
X140857Y423594D01*
X140788Y423633D01*
X140784Y423635D01*
Y427000D01*
X142246D01*
Y378500D01*
G37*
G36*
X140784D02*X137502D01*
Y407500D01*
X137682D01*
X138044Y407533D01*
X138402Y407599D01*
X138752Y407697D01*
X139092Y407826D01*
X139419Y407985D01*
X139485Y408028D01*
X139544Y408081D01*
X139594Y408143D01*
X139633Y408212D01*
X139661Y408286D01*
X139677Y408363D01*
X139681Y408442D01*
X139673Y408521D01*
X139652Y408597D01*
X139620Y408670D01*
X139577Y408736D01*
X139524Y408795D01*
X139462Y408844D01*
X139393Y408884D01*
X139319Y408912D01*
X139242Y408928D01*
X139163Y408932D01*
X139084Y408924D01*
X139007Y408903D01*
X138936Y408870D01*
X138693Y408747D01*
X138438Y408650D01*
X138176Y408577D01*
X137908Y408528D01*
X137636Y408503D01*
X137502D01*
Y414497D01*
X137636D01*
X137908Y414472D01*
X138176Y414423D01*
X138438Y414350D01*
X138693Y414253D01*
X138937Y414133D01*
X139009Y414100D01*
X139084Y414079D01*
X139163Y414071D01*
X139241Y414075D01*
X139318Y414091D01*
X139392Y414119D01*
X139460Y414158D01*
X139521Y414207D01*
X139574Y414266D01*
X139617Y414332D01*
X139649Y414404D01*
X139670Y414480D01*
X139678Y414558D01*
X139674Y414636D01*
X139658Y414713D01*
X139630Y414787D01*
X139591Y414855D01*
X139542Y414916D01*
X139483Y414969D01*
X139417Y415011D01*
X139092Y415174D01*
X138752Y415303D01*
X138402Y415401D01*
X138044Y415467D01*
X137682Y415500D01*
X137502D01*
Y417500D01*
X137682D01*
X138044Y417533D01*
X138402Y417599D01*
X138752Y417697D01*
X139092Y417826D01*
X139419Y417985D01*
X139485Y418028D01*
X139544Y418081D01*
X139594Y418143D01*
X139633Y418212D01*
X139661Y418286D01*
X139677Y418363D01*
X139681Y418442D01*
X139673Y418521D01*
X139652Y418597D01*
X139620Y418670D01*
X139577Y418736D01*
X139524Y418795D01*
X139462Y418844D01*
X139393Y418884D01*
X139319Y418912D01*
X139242Y418928D01*
X139163Y418932D01*
X139084Y418924D01*
X139007Y418903D01*
X138936Y418870D01*
X138693Y418747D01*
X138438Y418650D01*
X138176Y418577D01*
X137908Y418528D01*
X137636Y418503D01*
X137502D01*
Y424497D01*
X137636D01*
X137908Y424472D01*
X138176Y424423D01*
X138438Y424350D01*
X138693Y424253D01*
X138937Y424133D01*
X139009Y424100D01*
X139084Y424079D01*
X139163Y424071D01*
X139241Y424075D01*
X139318Y424091D01*
X139392Y424119D01*
X139460Y424158D01*
X139521Y424207D01*
X139574Y424266D01*
X139617Y424332D01*
X139649Y424404D01*
X139670Y424480D01*
X139678Y424558D01*
X139674Y424636D01*
X139658Y424713D01*
X139630Y424787D01*
X139591Y424855D01*
X139542Y424916D01*
X139483Y424969D01*
X139417Y425011D01*
X139092Y425174D01*
X138752Y425303D01*
X138402Y425401D01*
X138044Y425467D01*
X137682Y425500D01*
X137502D01*
Y427000D01*
X140784D01*
Y423635D01*
X140714Y423661D01*
X140637Y423677D01*
X140558Y423681D01*
X140479Y423673D01*
X140403Y423652D01*
X140330Y423620D01*
X140264Y423577D01*
X140205Y423524D01*
X140156Y423462D01*
X140116Y423393D01*
X140088Y423319D01*
X140072Y423242D01*
X140068Y423163D01*
X140076Y423084D01*
X140097Y423007D01*
X140130Y422936D01*
X140253Y422693D01*
X140350Y422438D01*
X140423Y422176D01*
X140472Y421908D01*
X140497Y421636D01*
Y421364D01*
X140472Y421092D01*
X140423Y420824D01*
X140350Y420562D01*
X140253Y420307D01*
X140133Y420063D01*
X140100Y419991D01*
X140079Y419916D01*
X140071Y419837D01*
X140075Y419759D01*
X140091Y419682D01*
X140119Y419608D01*
X140158Y419540D01*
X140207Y419479D01*
X140266Y419426D01*
X140332Y419383D01*
X140404Y419351D01*
X140480Y419330D01*
X140558Y419322D01*
X140636Y419326D01*
X140713Y419342D01*
X140784Y419369D01*
Y413635D01*
X140714Y413661D01*
X140637Y413677D01*
X140558Y413681D01*
X140479Y413673D01*
X140403Y413652D01*
X140330Y413620D01*
X140264Y413577D01*
X140205Y413524D01*
X140156Y413462D01*
X140116Y413393D01*
X140088Y413319D01*
X140072Y413242D01*
X140068Y413163D01*
X140076Y413084D01*
X140097Y413007D01*
X140130Y412936D01*
X140253Y412693D01*
X140350Y412438D01*
X140423Y412176D01*
X140472Y411908D01*
X140497Y411636D01*
Y411364D01*
X140472Y411092D01*
X140423Y410824D01*
X140350Y410562D01*
X140253Y410307D01*
X140133Y410063D01*
X140100Y409991D01*
X140079Y409916D01*
X140071Y409837D01*
X140075Y409759D01*
X140091Y409682D01*
X140119Y409608D01*
X140158Y409540D01*
X140207Y409479D01*
X140266Y409426D01*
X140332Y409383D01*
X140404Y409351D01*
X140480Y409330D01*
X140558Y409322D01*
X140636Y409326D01*
X140713Y409342D01*
X140784Y409369D01*
Y378500D01*
G37*
G36*
X137502D02*X134216D01*
Y409365D01*
X134286Y409339D01*
X134363Y409323D01*
X134442Y409319D01*
X134521Y409327D01*
X134597Y409348D01*
X134670Y409380D01*
X134736Y409423D01*
X134795Y409476D01*
X134844Y409538D01*
X134884Y409607D01*
X134912Y409681D01*
X134928Y409758D01*
X134932Y409837D01*
X134924Y409916D01*
X134903Y409993D01*
X134870Y410064D01*
X134747Y410307D01*
X134650Y410562D01*
X134577Y410824D01*
X134528Y411092D01*
X134503Y411364D01*
Y411636D01*
X134528Y411908D01*
X134577Y412176D01*
X134650Y412438D01*
X134747Y412693D01*
X134867Y412937D01*
X134900Y413009D01*
X134921Y413085D01*
X134929Y413163D01*
X134925Y413241D01*
X134909Y413318D01*
X134881Y413392D01*
X134842Y413460D01*
X134793Y413521D01*
X134734Y413574D01*
X134668Y413617D01*
X134596Y413649D01*
X134520Y413670D01*
X134442Y413678D01*
X134364Y413674D01*
X134287Y413658D01*
X134216Y413631D01*
Y419365D01*
X134286Y419339D01*
X134363Y419323D01*
X134442Y419319D01*
X134521Y419327D01*
X134597Y419348D01*
X134670Y419380D01*
X134736Y419423D01*
X134795Y419476D01*
X134844Y419538D01*
X134884Y419607D01*
X134912Y419681D01*
X134928Y419758D01*
X134932Y419837D01*
X134924Y419916D01*
X134903Y419993D01*
X134870Y420064D01*
X134747Y420307D01*
X134650Y420562D01*
X134577Y420824D01*
X134528Y421092D01*
X134503Y421364D01*
Y421636D01*
X134528Y421908D01*
X134577Y422176D01*
X134650Y422438D01*
X134747Y422693D01*
X134867Y422937D01*
X134900Y423009D01*
X134921Y423085D01*
X134929Y423163D01*
X134925Y423241D01*
X134909Y423318D01*
X134881Y423392D01*
X134842Y423460D01*
X134793Y423521D01*
X134734Y423574D01*
X134668Y423617D01*
X134596Y423649D01*
X134520Y423670D01*
X134442Y423678D01*
X134364Y423674D01*
X134287Y423658D01*
X134216Y423631D01*
Y427000D01*
X137502D01*
Y425500D01*
X137318D01*
X136956Y425467D01*
X136598Y425401D01*
X136248Y425303D01*
X135908Y425174D01*
X135581Y425015D01*
X135515Y424972D01*
X135456Y424919D01*
X135406Y424857D01*
X135367Y424788D01*
X135339Y424714D01*
X135323Y424637D01*
X135319Y424558D01*
X135327Y424479D01*
X135348Y424403D01*
X135380Y424330D01*
X135423Y424264D01*
X135476Y424205D01*
X135538Y424156D01*
X135607Y424116D01*
X135681Y424088D01*
X135758Y424072D01*
X135837Y424068D01*
X135916Y424076D01*
X135993Y424097D01*
X136064Y424130D01*
X136307Y424253D01*
X136562Y424350D01*
X136824Y424423D01*
X137092Y424472D01*
X137364Y424497D01*
X137502D01*
Y418503D01*
X137364D01*
X137092Y418528D01*
X136824Y418577D01*
X136562Y418650D01*
X136307Y418747D01*
X136063Y418867D01*
X135991Y418900D01*
X135915Y418921D01*
X135837Y418929D01*
X135759Y418925D01*
X135682Y418909D01*
X135608Y418881D01*
X135540Y418842D01*
X135479Y418793D01*
X135426Y418734D01*
X135383Y418668D01*
X135351Y418596D01*
X135330Y418520D01*
X135322Y418442D01*
X135326Y418364D01*
X135342Y418287D01*
X135370Y418213D01*
X135409Y418145D01*
X135458Y418084D01*
X135517Y418031D01*
X135583Y417989D01*
X135908Y417826D01*
X136248Y417697D01*
X136598Y417599D01*
X136956Y417533D01*
X137318Y417500D01*
X137502D01*
Y415500D01*
X137318D01*
X136956Y415467D01*
X136598Y415401D01*
X136248Y415303D01*
X135908Y415174D01*
X135581Y415015D01*
X135515Y414972D01*
X135456Y414919D01*
X135406Y414857D01*
X135367Y414788D01*
X135339Y414714D01*
X135323Y414637D01*
X135319Y414558D01*
X135327Y414479D01*
X135348Y414403D01*
X135380Y414330D01*
X135423Y414264D01*
X135476Y414205D01*
X135538Y414156D01*
X135607Y414116D01*
X135681Y414088D01*
X135758Y414072D01*
X135837Y414068D01*
X135916Y414076D01*
X135993Y414097D01*
X136064Y414130D01*
X136307Y414253D01*
X136562Y414350D01*
X136824Y414423D01*
X137092Y414472D01*
X137364Y414497D01*
X137502D01*
Y408503D01*
X137364D01*
X137092Y408528D01*
X136824Y408577D01*
X136562Y408650D01*
X136307Y408747D01*
X136063Y408867D01*
X135991Y408900D01*
X135915Y408921D01*
X135837Y408929D01*
X135759Y408925D01*
X135682Y408909D01*
X135608Y408881D01*
X135540Y408842D01*
X135479Y408793D01*
X135426Y408734D01*
X135383Y408668D01*
X135351Y408596D01*
X135330Y408520D01*
X135322Y408442D01*
X135326Y408364D01*
X135342Y408287D01*
X135370Y408213D01*
X135409Y408145D01*
X135458Y408084D01*
X135517Y408031D01*
X135583Y407989D01*
X135908Y407826D01*
X136248Y407697D01*
X136598Y407599D01*
X136956Y407533D01*
X137318Y407500D01*
X137502D01*
Y378500D01*
G37*
G36*
X134216D02*X127500D01*
Y407505D01*
X130657Y407509D01*
X130810Y407546D01*
X130955Y407606D01*
X131090Y407688D01*
X131209Y407791D01*
X131312Y407910D01*
X131394Y408045D01*
X131454Y408190D01*
X131491Y408343D01*
X131500Y408500D01*
X131491Y414657D01*
X131454Y414810D01*
X131394Y414955D01*
X131312Y415090D01*
X131209Y415209D01*
X131090Y415312D01*
X130955Y415394D01*
X130810Y415454D01*
X130657Y415491D01*
X130500Y415500D01*
X127500Y415495D01*
Y417505D01*
X130657Y417509D01*
X130810Y417546D01*
X130955Y417606D01*
X131090Y417688D01*
X131209Y417791D01*
X131312Y417910D01*
X131394Y418045D01*
X131454Y418190D01*
X131491Y418343D01*
X131500Y418500D01*
X131491Y424657D01*
X131454Y424810D01*
X131394Y424955D01*
X131312Y425090D01*
X131209Y425209D01*
X131090Y425312D01*
X130955Y425394D01*
X130810Y425454D01*
X130657Y425491D01*
X130500Y425500D01*
X127500Y425495D01*
Y427000D01*
X134216D01*
Y423631D01*
X134213Y423630D01*
X134145Y423591D01*
X134084Y423542D01*
X134031Y423483D01*
X133989Y423417D01*
X133826Y423092D01*
X133697Y422752D01*
X133599Y422402D01*
X133533Y422044D01*
X133500Y421682D01*
Y421318D01*
X133533Y420956D01*
X133599Y420598D01*
X133697Y420248D01*
X133826Y419908D01*
X133985Y419581D01*
X134028Y419515D01*
X134081Y419456D01*
X134143Y419406D01*
X134212Y419367D01*
X134216Y419365D01*
Y413631D01*
X134213Y413630D01*
X134145Y413591D01*
X134084Y413542D01*
X134031Y413483D01*
X133989Y413417D01*
X133826Y413092D01*
X133697Y412752D01*
X133599Y412402D01*
X133533Y412044D01*
X133500Y411682D01*
Y411318D01*
X133533Y410956D01*
X133599Y410598D01*
X133697Y410248D01*
X133826Y409908D01*
X133985Y409581D01*
X134028Y409515D01*
X134081Y409456D01*
X134143Y409406D01*
X134212Y409367D01*
X134216Y409365D01*
Y378500D01*
G37*
G36*
X127500D02*X111246D01*
Y427000D01*
X127500D01*
Y425495D01*
X124343Y425491D01*
X124190Y425454D01*
X124045Y425394D01*
X123910Y425312D01*
X123791Y425209D01*
X123688Y425090D01*
X123606Y424955D01*
X123546Y424810D01*
X123509Y424657D01*
X123500Y424500D01*
X123509Y418343D01*
X123546Y418190D01*
X123606Y418045D01*
X123688Y417910D01*
X123791Y417791D01*
X123910Y417688D01*
X124045Y417606D01*
X124190Y417546D01*
X124343Y417509D01*
X124500Y417500D01*
X127500Y417505D01*
Y415495D01*
X124343Y415491D01*
X124190Y415454D01*
X124045Y415394D01*
X123910Y415312D01*
X123791Y415209D01*
X123688Y415090D01*
X123606Y414955D01*
X123546Y414810D01*
X123509Y414657D01*
X123500Y414500D01*
X123509Y408343D01*
X123546Y408190D01*
X123606Y408045D01*
X123688Y407910D01*
X123791Y407791D01*
X123910Y407688D01*
X124045Y407606D01*
X124190Y407546D01*
X124343Y407509D01*
X124500Y407500D01*
X127500Y407505D01*
Y378500D01*
G37*
G36*
X142246Y310500D02*X140059D01*
X140000Y310505D01*
X139765Y310486D01*
X139535Y310431D01*
X139317Y310341D01*
X139116Y310217D01*
X139115Y310217D01*
X138936Y310064D01*
X138898Y310019D01*
X125981Y297102D01*
X125936Y297064D01*
X125783Y296884D01*
X125659Y296683D01*
X125569Y296465D01*
X125514Y296235D01*
X125514Y296235D01*
X125495Y296000D01*
X125500Y295941D01*
Y294121D01*
X123602Y296019D01*
X123564Y296064D01*
X123384Y296217D01*
X123183Y296341D01*
X122965Y296431D01*
X122735Y296486D01*
X122500Y296505D01*
X122441Y296500D01*
X119490D01*
X119486Y298235D01*
X119431Y298465D01*
X119341Y298683D01*
X119217Y298884D01*
X119064Y299064D01*
X118884Y299217D01*
X118683Y299341D01*
X118465Y299431D01*
X118235Y299486D01*
X118000Y299500D01*
X111765Y299486D01*
X111535Y299431D01*
X111317Y299341D01*
X111246Y299297D01*
Y322500D01*
X142246D01*
Y310500D01*
G37*
G36*
Y170364D02*X142038Y169862D01*
X142000Y169705D01*
Y208500D01*
X111246D01*
Y219818D01*
X111272Y219849D01*
X111503Y220225D01*
X111671Y220632D01*
X111774Y221061D01*
X111800Y221500D01*
X111774Y221939D01*
X111671Y222368D01*
X111664Y222386D01*
X111849Y222228D01*
X112225Y221997D01*
X112632Y221829D01*
X113061Y221726D01*
X113500Y221691D01*
X113939Y221726D01*
X114368Y221829D01*
X114775Y221997D01*
X115151Y222228D01*
X115486Y222514D01*
X115772Y222849D01*
X116003Y223225D01*
X116171Y223632D01*
X116274Y224061D01*
X116300Y224500D01*
X116274Y224939D01*
X116171Y225368D01*
X116164Y225386D01*
X116349Y225228D01*
X116725Y224997D01*
X117132Y224829D01*
X117561Y224726D01*
X118000Y224691D01*
X118439Y224726D01*
X118868Y224829D01*
X119275Y224997D01*
X119651Y225228D01*
X119986Y225514D01*
X120272Y225849D01*
X120503Y226225D01*
X120671Y226632D01*
X120774Y227061D01*
X120800Y227500D01*
X120774Y227939D01*
X120671Y228368D01*
X120503Y228775D01*
X120272Y229151D01*
X119986Y229486D01*
X119651Y229772D01*
X119500Y229865D01*
Y245635D01*
X119651Y245728D01*
X119986Y246014D01*
X120272Y246349D01*
X120503Y246725D01*
X120671Y247132D01*
X120774Y247561D01*
X120800Y248000D01*
X120774Y248439D01*
X120671Y248868D01*
X120503Y249275D01*
X120272Y249651D01*
X119986Y249986D01*
X119651Y250272D01*
X119275Y250503D01*
X118868Y250671D01*
X118439Y250774D01*
X118000Y250809D01*
X117561Y250774D01*
X117132Y250671D01*
X116725Y250503D01*
X116349Y250272D01*
X116014Y249986D01*
X115750Y249677D01*
X115486Y249986D01*
X115151Y250272D01*
X114775Y250503D01*
X114368Y250671D01*
X113939Y250774D01*
X113500Y250809D01*
X113061Y250774D01*
X112632Y250671D01*
X112225Y250503D01*
X111849Y250272D01*
X111514Y249986D01*
X111250Y249677D01*
X111246Y249682D01*
Y290703D01*
X111317Y290659D01*
X111535Y290569D01*
X111765Y290514D01*
X112000Y290500D01*
X118235Y290514D01*
X118465Y290569D01*
X118683Y290659D01*
X118884Y290783D01*
X119064Y290936D01*
X119217Y291116D01*
X119341Y291317D01*
X119431Y291535D01*
X119486Y291765D01*
X119500Y292000D01*
X119497Y293500D01*
X121879D01*
X123000Y292379D01*
Y270309D01*
X122561Y270274D01*
X122132Y270171D01*
X121725Y270003D01*
X121349Y269772D01*
X121014Y269486D01*
X120728Y269151D01*
X120497Y268775D01*
X120329Y268368D01*
X120226Y267939D01*
X120191Y267500D01*
X120226Y267061D01*
X120329Y266632D01*
X120497Y266225D01*
X120728Y265849D01*
X121014Y265514D01*
X121349Y265228D01*
X121725Y264997D01*
X122132Y264829D01*
X122561Y264726D01*
X123000Y264691D01*
X123439Y264726D01*
X123868Y264829D01*
X124275Y264997D01*
X124500Y265135D01*
Y259611D01*
X124495Y259552D01*
X124514Y259317D01*
X124569Y259087D01*
X124659Y258869D01*
X124783Y258668D01*
X124936Y258488D01*
X124981Y258450D01*
X126767Y256663D01*
X126726Y256491D01*
X126691Y256052D01*
X126726Y255613D01*
X126829Y255184D01*
X126997Y254777D01*
X127228Y254401D01*
X127514Y254066D01*
X127849Y253780D01*
X128225Y253549D01*
X128632Y253381D01*
X129061Y253278D01*
X129500Y253243D01*
X129939Y253278D01*
X130368Y253381D01*
X130775Y253549D01*
X131151Y253780D01*
X131486Y254066D01*
X131772Y254401D01*
X132003Y254777D01*
X132171Y255184D01*
X132274Y255613D01*
X132300Y256052D01*
X132274Y256491D01*
X132171Y256920D01*
X132003Y257327D01*
X131772Y257703D01*
X131486Y258038D01*
X131207Y258276D01*
X131486Y258514D01*
X131772Y258849D01*
X131865Y259000D01*
X132441D01*
X132500Y258995D01*
X132735Y259014D01*
X132735Y259014D01*
X132965Y259069D01*
X133183Y259159D01*
X133384Y259283D01*
X133564Y259436D01*
X133602Y259481D01*
X134500Y260379D01*
Y255873D01*
X131111Y252485D01*
X130939Y252526D01*
X130500Y252561D01*
X130061Y252526D01*
X129632Y252423D01*
X129225Y252254D01*
X128849Y252024D01*
X128514Y251738D01*
X128228Y251403D01*
X127997Y251027D01*
X127829Y250620D01*
X127726Y250191D01*
X127691Y249752D01*
X127726Y249313D01*
X127829Y248884D01*
X127997Y248477D01*
X128228Y248101D01*
X128514Y247766D01*
X128849Y247480D01*
X129225Y247249D01*
X129632Y247081D01*
X130061Y246978D01*
X130500Y246943D01*
X130939Y246978D01*
X131368Y247081D01*
X131775Y247249D01*
X132151Y247480D01*
X132486Y247766D01*
X132772Y248101D01*
X133003Y248477D01*
X133171Y248884D01*
X133274Y249313D01*
X133300Y249752D01*
X133274Y250191D01*
X133233Y250363D01*
X137019Y254150D01*
X137064Y254188D01*
X137217Y254367D01*
X137217Y254368D01*
X137341Y254569D01*
X137431Y254787D01*
X137486Y255017D01*
X137505Y255252D01*
X137500Y255311D01*
Y282379D01*
X139121Y284000D01*
X142246D01*
Y227000D01*
X137559D01*
X137500Y227005D01*
X137265Y226986D01*
X137035Y226931D01*
X136817Y226841D01*
X136616Y226717D01*
X136615Y226717D01*
X136436Y226564D01*
X136398Y226519D01*
X133611Y223733D01*
X133439Y223774D01*
X133000Y223809D01*
X132561Y223774D01*
X132132Y223671D01*
X131725Y223503D01*
X131349Y223272D01*
X131014Y222986D01*
X130728Y222651D01*
X130497Y222275D01*
X130329Y221868D01*
X130226Y221439D01*
X130191Y221000D01*
X130226Y220561D01*
X130329Y220132D01*
X130497Y219725D01*
X130728Y219349D01*
X131014Y219014D01*
X131349Y218728D01*
X131725Y218497D01*
X132132Y218329D01*
X132561Y218226D01*
X133000Y218191D01*
X133439Y218226D01*
X133868Y218329D01*
X134275Y218497D01*
X134651Y218728D01*
X134986Y219014D01*
X135272Y219349D01*
X135503Y219725D01*
X135671Y220132D01*
X135774Y220561D01*
X135800Y221000D01*
X135774Y221439D01*
X135733Y221611D01*
X138121Y224000D01*
X140030D01*
X140014Y223986D01*
X139728Y223651D01*
X139497Y223275D01*
X139329Y222868D01*
X139226Y222439D01*
X139191Y222000D01*
X139226Y221561D01*
X139329Y221132D01*
X139497Y220725D01*
X139728Y220349D01*
X140014Y220014D01*
X140349Y219728D01*
X140725Y219497D01*
X141132Y219329D01*
X141561Y219226D01*
X142000Y219191D01*
X142246Y219211D01*
Y170364D01*
G37*
G36*
X137502Y79383D02*X137632Y79329D01*
X138061Y79226D01*
X138500Y79191D01*
X138939Y79226D01*
X139368Y79329D01*
X139775Y79497D01*
X140151Y79728D01*
X140486Y80014D01*
X140688Y80250D01*
X142246D01*
Y60000D01*
X138059D01*
X138000Y60005D01*
X137765Y59986D01*
X137535Y59931D01*
X137502Y59917D01*
Y79383D01*
G37*
G36*
Y152500D02*X142000D01*
Y160295D01*
X142038Y160138D01*
X142246Y159636D01*
Y83750D01*
X140688D01*
X140486Y83986D01*
X140151Y84272D01*
X139775Y84503D01*
X139368Y84671D01*
X138939Y84774D01*
X138500Y84809D01*
X138061Y84774D01*
X137632Y84671D01*
X137502Y84617D01*
Y152500D01*
G37*
G36*
X141220Y32959D02*X141522Y33451D01*
X141793Y34105D01*
X141958Y34794D01*
X142000Y35500D01*
X141958Y36206D01*
X141793Y36895D01*
X141522Y37549D01*
X141220Y38041D01*
Y44844D01*
X141271Y44883D01*
X141326Y44939D01*
X141370Y45004D01*
X141564Y45356D01*
X141721Y45726D01*
X141844Y46109D01*
X141933Y46500D01*
X141987Y46899D01*
X142004Y47300D01*
X141987Y47701D01*
X141933Y48100D01*
X141844Y48491D01*
X141721Y48874D01*
X141564Y49244D01*
X141374Y49598D01*
X141329Y49663D01*
X141274Y49720D01*
X141220Y49760D01*
Y52975D01*
X141275Y52997D01*
X141651Y53228D01*
X141986Y53514D01*
X142246Y53818D01*
Y24836D01*
X142158Y24911D01*
X141220Y25485D01*
Y32959D01*
G37*
G36*
Y38041D02*X141152Y38153D01*
X140692Y38692D01*
X140153Y39152D01*
X139549Y39522D01*
X138895Y39793D01*
X138206Y39958D01*
X137502Y40014D01*
Y42796D01*
X137901Y42813D01*
X138300Y42867D01*
X138691Y42956D01*
X139074Y43079D01*
X139444Y43236D01*
X139798Y43426D01*
X139863Y43471D01*
X139920Y43526D01*
X139968Y43590D01*
X140004Y43660D01*
X140030Y43735D01*
X140044Y43813D01*
X140045Y43892D01*
X140033Y43971D01*
X140010Y44046D01*
X139975Y44117D01*
X139929Y44182D01*
X139874Y44239D01*
X139811Y44287D01*
X139741Y44324D01*
X139666Y44349D01*
X139588Y44363D01*
X139508Y44364D01*
X139430Y44352D01*
X139354Y44329D01*
X139284Y44293D01*
X139010Y44143D01*
X138723Y44021D01*
X138426Y43925D01*
X138121Y43856D01*
X137812Y43814D01*
X137502Y43800D01*
Y50800D01*
X137812Y50786D01*
X138121Y50744D01*
X138426Y50675D01*
X138723Y50579D01*
X139010Y50457D01*
X139286Y50310D01*
X139355Y50274D01*
X139431Y50251D01*
X139509Y50240D01*
X139587Y50241D01*
X139665Y50254D01*
X139739Y50280D01*
X139809Y50316D01*
X139872Y50364D01*
X139927Y50420D01*
X139972Y50484D01*
X140007Y50555D01*
X140030Y50630D01*
X140041Y50708D01*
X140040Y50787D01*
X140027Y50864D01*
X140001Y50939D01*
X139965Y51008D01*
X139917Y51071D01*
X139861Y51126D01*
X139796Y51170D01*
X139444Y51364D01*
X139074Y51521D01*
X138691Y51644D01*
X138344Y51723D01*
X139389Y52767D01*
X139561Y52726D01*
X140000Y52691D01*
X140439Y52726D01*
X140868Y52829D01*
X141220Y52975D01*
Y49760D01*
X141210Y49768D01*
X141140Y49804D01*
X141065Y49830D01*
X140987Y49844D01*
X140908Y49845D01*
X140829Y49833D01*
X140754Y49810D01*
X140683Y49775D01*
X140618Y49729D01*
X140561Y49674D01*
X140513Y49611D01*
X140476Y49541D01*
X140451Y49466D01*
X140437Y49388D01*
X140436Y49308D01*
X140448Y49230D01*
X140471Y49154D01*
X140507Y49084D01*
X140657Y48810D01*
X140779Y48523D01*
X140875Y48226D01*
X140944Y47921D01*
X140986Y47612D01*
X141000Y47300D01*
X140986Y46988D01*
X140944Y46679D01*
X140875Y46374D01*
X140779Y46077D01*
X140657Y45790D01*
X140510Y45514D01*
X140474Y45445D01*
X140451Y45369D01*
X140440Y45291D01*
X140441Y45213D01*
X140454Y45135D01*
X140480Y45061D01*
X140516Y44991D01*
X140564Y44928D01*
X140620Y44873D01*
X140684Y44828D01*
X140755Y44793D01*
X140830Y44770D01*
X140908Y44759D01*
X140987Y44760D01*
X141064Y44773D01*
X141139Y44799D01*
X141208Y44835D01*
X141220Y44844D01*
Y38041D01*
G37*
G36*
X137502Y29845D02*X138854Y31197D01*
X138895Y31207D01*
X139549Y31478D01*
X140153Y31848D01*
X140692Y32308D01*
X141152Y32847D01*
X141220Y32959D01*
Y25485D01*
X141098Y25561D01*
X139949Y26037D01*
X138740Y26327D01*
X137502Y26424D01*
Y29845D01*
G37*
G36*
X142246Y2500D02*X137502D01*
Y10576D01*
X138740Y10673D01*
X139949Y10963D01*
X141098Y11439D01*
X142158Y12089D01*
X142246Y12164D01*
Y2500D01*
G37*
G36*
X133780Y152500D02*X137502D01*
Y84617D01*
X137225Y84503D01*
X136849Y84272D01*
X136514Y83986D01*
X136228Y83651D01*
X135997Y83275D01*
X135829Y82868D01*
X135726Y82439D01*
X135691Y82000D01*
X135726Y81561D01*
X135829Y81132D01*
X135997Y80725D01*
X136228Y80349D01*
X136514Y80014D01*
X136849Y79728D01*
X137225Y79497D01*
X137502Y79383D01*
Y59917D01*
X137317Y59841D01*
X137116Y59717D01*
X137115Y59717D01*
X136936Y59564D01*
X136898Y59519D01*
X135611Y58233D01*
X135439Y58274D01*
X135000Y58309D01*
X134561Y58274D01*
X134132Y58171D01*
X133780Y58025D01*
Y152500D01*
G37*
G36*
X137502Y40014D02*X137500Y40014D01*
X136794Y39958D01*
X136105Y39793D01*
X135451Y39522D01*
X134847Y39152D01*
X134308Y38692D01*
X133848Y38153D01*
X133780Y38041D01*
Y44840D01*
X133790Y44832D01*
X133860Y44796D01*
X133935Y44770D01*
X134013Y44756D01*
X134092Y44755D01*
X134171Y44767D01*
X134246Y44790D01*
X134317Y44825D01*
X134382Y44871D01*
X134439Y44926D01*
X134487Y44989D01*
X134524Y45059D01*
X134549Y45134D01*
X134563Y45212D01*
X134564Y45292D01*
X134552Y45370D01*
X134529Y45446D01*
X134493Y45516D01*
X134343Y45790D01*
X134221Y46077D01*
X134125Y46374D01*
X134056Y46679D01*
X134014Y46988D01*
X134000Y47300D01*
X134014Y47612D01*
X134056Y47921D01*
X134125Y48226D01*
X134221Y48523D01*
X134343Y48810D01*
X134490Y49086D01*
X134526Y49155D01*
X134549Y49231D01*
X134560Y49309D01*
X134559Y49387D01*
X134546Y49465D01*
X134520Y49539D01*
X134484Y49609D01*
X134436Y49672D01*
X134380Y49727D01*
X134316Y49772D01*
X134245Y49807D01*
X134170Y49830D01*
X134092Y49841D01*
X134013Y49840D01*
X133936Y49827D01*
X133861Y49801D01*
X133792Y49765D01*
X133780Y49756D01*
Y51000D01*
X135027D01*
X134996Y50940D01*
X134970Y50865D01*
X134956Y50787D01*
X134955Y50708D01*
X134967Y50629D01*
X134990Y50554D01*
X135025Y50483D01*
X135071Y50418D01*
X135126Y50361D01*
X135189Y50313D01*
X135259Y50276D01*
X135334Y50251D01*
X135412Y50237D01*
X135492Y50236D01*
X135570Y50248D01*
X135646Y50271D01*
X135716Y50307D01*
X135990Y50457D01*
X136277Y50579D01*
X136574Y50675D01*
X136879Y50744D01*
X137188Y50786D01*
X137500Y50800D01*
X137502Y50800D01*
Y43800D01*
X137500Y43800D01*
X137188Y43814D01*
X136879Y43856D01*
X136574Y43925D01*
X136277Y44021D01*
X135990Y44143D01*
X135714Y44290D01*
X135645Y44326D01*
X135569Y44349D01*
X135491Y44360D01*
X135413Y44359D01*
X135335Y44346D01*
X135261Y44320D01*
X135191Y44284D01*
X135128Y44236D01*
X135073Y44180D01*
X135028Y44116D01*
X134993Y44045D01*
X134970Y43970D01*
X134959Y43892D01*
X134960Y43813D01*
X134973Y43736D01*
X134999Y43661D01*
X135035Y43592D01*
X135083Y43529D01*
X135139Y43474D01*
X135204Y43430D01*
X135556Y43236D01*
X135926Y43079D01*
X136309Y42956D01*
X136700Y42867D01*
X137099Y42813D01*
X137500Y42796D01*
X137502Y42796D01*
Y40014D01*
G37*
G36*
X133780Y38041D02*X133478Y37549D01*
X133207Y36895D01*
X133197Y36854D01*
X111246Y14903D01*
Y30328D01*
X111288Y30305D01*
X111362Y30279D01*
X111439Y30265D01*
X111518Y30263D01*
X111596Y30273D01*
X111671Y30296D01*
X111742Y30330D01*
X111807Y30374D01*
X111864Y30429D01*
X111911Y30492D01*
X112150Y30890D01*
X112349Y31310D01*
X112510Y31746D01*
X112632Y32194D01*
X112714Y32651D01*
X112755Y33114D01*
Y33579D01*
X112714Y34042D01*
X112632Y34499D01*
X112510Y34947D01*
X112349Y35383D01*
X112150Y35803D01*
X111915Y36204D01*
X111867Y36267D01*
X111810Y36322D01*
X111745Y36367D01*
X111673Y36401D01*
X111597Y36424D01*
X111518Y36434D01*
X111439Y36432D01*
X111361Y36418D01*
X111286Y36391D01*
X111246Y36370D01*
Y152500D01*
X133780D01*
Y58025D01*
X133725Y58003D01*
X133349Y57772D01*
X133014Y57486D01*
X132728Y57151D01*
X132497Y56775D01*
X132329Y56368D01*
X132226Y55939D01*
X132191Y55500D01*
X132226Y55061D01*
X132329Y54632D01*
X132497Y54225D01*
X132635Y54000D01*
X119121D01*
X118233Y54889D01*
X118274Y55061D01*
X118300Y55500D01*
X118274Y55939D01*
X118171Y56368D01*
X118003Y56775D01*
X117772Y57151D01*
X117486Y57486D01*
X117151Y57772D01*
X116775Y58003D01*
X116368Y58171D01*
X115939Y58274D01*
X115500Y58309D01*
X115061Y58274D01*
X114632Y58171D01*
X114225Y58003D01*
X113849Y57772D01*
X113514Y57486D01*
X113228Y57151D01*
X112997Y56775D01*
X112829Y56368D01*
X112726Y55939D01*
X112691Y55500D01*
X112726Y55061D01*
X112829Y54632D01*
X112997Y54225D01*
X113228Y53849D01*
X113514Y53514D01*
X113849Y53228D01*
X114225Y52997D01*
X114632Y52829D01*
X115061Y52726D01*
X115500Y52691D01*
X115939Y52726D01*
X116111Y52767D01*
X117398Y51481D01*
X117436Y51436D01*
X117616Y51283D01*
X117817Y51159D01*
X118035Y51069D01*
X118265Y51014D01*
X118500Y50995D01*
X118559Y51000D01*
X133780D01*
Y49756D01*
X133729Y49717D01*
X133674Y49661D01*
X133630Y49596D01*
X133436Y49244D01*
X133279Y48874D01*
X133156Y48491D01*
X133067Y48100D01*
X133013Y47701D01*
X132996Y47300D01*
X133013Y46899D01*
X133067Y46500D01*
X133156Y46109D01*
X133279Y45726D01*
X133436Y45356D01*
X133626Y45002D01*
X133671Y44937D01*
X133726Y44880D01*
X133780Y44840D01*
Y38041D01*
G37*
G36*
X137502Y2500D02*X111246D01*
Y3589D01*
X137502Y29845D01*
Y26424D01*
X137500Y26424D01*
X136260Y26327D01*
X135051Y26037D01*
X133902Y25561D01*
X132842Y24911D01*
X131897Y24103D01*
X131089Y23158D01*
X130439Y22098D01*
X129963Y20949D01*
X129673Y19740D01*
X129576Y18500D01*
X129673Y17260D01*
X129963Y16051D01*
X130439Y14902D01*
X131089Y13842D01*
X131897Y12897D01*
X132842Y12089D01*
X133902Y11439D01*
X135051Y10963D01*
X136260Y10673D01*
X137500Y10576D01*
X137502Y10576D01*
Y2500D01*
G37*
G36*
X88996Y361277D02*X89000Y361295D01*
Y322500D01*
X111246D01*
Y299297D01*
X111116Y299217D01*
X110936Y299064D01*
X110783Y298884D01*
X110659Y298683D01*
X110569Y298465D01*
X110514Y298235D01*
X110500Y298000D01*
X110514Y291765D01*
X110569Y291535D01*
X110659Y291317D01*
X110783Y291116D01*
X110936Y290936D01*
X111116Y290783D01*
X111246Y290703D01*
Y249682D01*
X110986Y249986D01*
X110651Y250272D01*
X110275Y250503D01*
X109868Y250671D01*
X109439Y250774D01*
X109000Y250809D01*
X108561Y250774D01*
X108132Y250671D01*
X107725Y250503D01*
X107349Y250272D01*
X107014Y249986D01*
X106750Y249677D01*
X106486Y249986D01*
X106151Y250272D01*
X105775Y250503D01*
X105368Y250671D01*
X104939Y250774D01*
X104500Y250809D01*
X104061Y250774D01*
X103632Y250671D01*
X103225Y250503D01*
X102849Y250272D01*
X102514Y249986D01*
X102228Y249651D01*
X101997Y249275D01*
X101829Y248868D01*
X101726Y248439D01*
X101691Y248000D01*
X101726Y247561D01*
X101829Y247132D01*
X101997Y246725D01*
X102228Y246349D01*
X102514Y246014D01*
X102849Y245728D01*
X103000Y245635D01*
Y220865D01*
X102849Y220772D01*
X102514Y220486D01*
X102228Y220151D01*
X101997Y219775D01*
X101829Y219368D01*
X101726Y218939D01*
X101691Y218500D01*
X101726Y218061D01*
X101829Y217632D01*
X101997Y217225D01*
X102228Y216849D01*
X102514Y216514D01*
X102849Y216228D01*
X103225Y215997D01*
X103632Y215829D01*
X104061Y215726D01*
X104500Y215691D01*
X104939Y215726D01*
X105368Y215829D01*
X105775Y215997D01*
X106151Y216228D01*
X106486Y216514D01*
X106772Y216849D01*
X107003Y217225D01*
X107171Y217632D01*
X107274Y218061D01*
X107300Y218500D01*
X107274Y218939D01*
X107171Y219368D01*
X107164Y219386D01*
X107349Y219228D01*
X107725Y218997D01*
X108132Y218829D01*
X108561Y218726D01*
X109000Y218691D01*
X109439Y218726D01*
X109868Y218829D01*
X110275Y218997D01*
X110651Y219228D01*
X110986Y219514D01*
X111246Y219818D01*
Y208500D01*
X88996D01*
Y312000D01*
X97635D01*
X97728Y311849D01*
X98014Y311514D01*
X98349Y311228D01*
X98725Y310997D01*
X99132Y310829D01*
X99561Y310726D01*
X100000Y310691D01*
X100439Y310726D01*
X100868Y310829D01*
X101275Y310997D01*
X101651Y311228D01*
X101986Y311514D01*
X102272Y311849D01*
X102503Y312225D01*
X102671Y312632D01*
X102774Y313061D01*
X102800Y313500D01*
X102774Y313939D01*
X102671Y314368D01*
X102503Y314775D01*
X102272Y315151D01*
X101986Y315486D01*
X101651Y315772D01*
X101275Y316003D01*
X100868Y316171D01*
X100439Y316274D01*
X100000Y316309D01*
X99561Y316274D01*
X99184Y316184D01*
X99274Y316561D01*
X99300Y317000D01*
X99274Y317439D01*
X99171Y317868D01*
X99003Y318275D01*
X98772Y318651D01*
X98486Y318986D01*
X98151Y319272D01*
X97775Y319503D01*
X97368Y319671D01*
X96939Y319774D01*
X96500Y319809D01*
X96061Y319774D01*
X95632Y319671D01*
X95225Y319503D01*
X94849Y319272D01*
X94514Y318986D01*
X94228Y318651D01*
X94135Y318500D01*
X88996D01*
Y361277D01*
G37*
G36*
Y427000D02*X111246D01*
Y378500D01*
X89000D01*
Y370705D01*
X88996Y370723D01*
Y414176D01*
X90693Y412479D01*
X90726Y412061D01*
X90829Y411632D01*
X90997Y411225D01*
X91228Y410849D01*
X91514Y410514D01*
X91849Y410228D01*
X92225Y409997D01*
X92632Y409829D01*
X93061Y409726D01*
X93500Y409691D01*
X93939Y409726D01*
X94368Y409829D01*
X94775Y409997D01*
X95151Y410228D01*
X95486Y410514D01*
X95772Y410849D01*
X96003Y411225D01*
X96171Y411632D01*
X96274Y412061D01*
X96300Y412500D01*
X96274Y412939D01*
X96171Y413368D01*
X96003Y413775D01*
X95772Y414151D01*
X95486Y414486D01*
X95151Y414772D01*
X94775Y415003D01*
X94368Y415171D01*
X93939Y415274D01*
X93521Y415307D01*
X90970Y417859D01*
X90919Y417919D01*
X90679Y418123D01*
X90411Y418288D01*
X90120Y418408D01*
X89814Y418481D01*
X89814Y418481D01*
X89578Y418500D01*
X91530D01*
X91849Y418228D01*
X92225Y417997D01*
X92632Y417829D01*
X93061Y417726D01*
X93500Y417691D01*
X93939Y417726D01*
X94368Y417829D01*
X94775Y417997D01*
X95151Y418228D01*
X95486Y418514D01*
X95772Y418849D01*
X96003Y419225D01*
X96171Y419632D01*
X96274Y420061D01*
X96300Y420500D01*
X96274Y420939D01*
X96171Y421368D01*
X96003Y421775D01*
X95772Y422151D01*
X95486Y422486D01*
X95151Y422772D01*
X94775Y423003D01*
X94368Y423171D01*
X93939Y423274D01*
X93500Y423309D01*
X93061Y423274D01*
X92632Y423171D01*
X92225Y423003D01*
X91849Y422772D01*
X91530Y422500D01*
X88996D01*
Y427000D01*
G37*
G36*
X111246Y14903D02*X107507Y11164D01*
Y28096D01*
X107737D01*
X108200Y28138D01*
X108657Y28219D01*
X109106Y28341D01*
X109541Y28502D01*
X109961Y28701D01*
X110362Y28936D01*
X110425Y28984D01*
X110480Y29041D01*
X110525Y29107D01*
X110559Y29178D01*
X110582Y29254D01*
X110592Y29333D01*
X110590Y29412D01*
X110576Y29490D01*
X110550Y29565D01*
X110512Y29635D01*
X110464Y29698D01*
X110406Y29753D01*
X110341Y29798D01*
X110269Y29832D01*
X110193Y29855D01*
X110114Y29865D01*
X110035Y29863D01*
X109957Y29849D01*
X109882Y29822D01*
X109813Y29783D01*
X109491Y29589D01*
X109152Y29429D01*
X108799Y29298D01*
X108437Y29200D01*
X108067Y29134D01*
X107693Y29101D01*
X107507D01*
Y37592D01*
X107693D01*
X108067Y37559D01*
X108437Y37493D01*
X108799Y37394D01*
X109152Y37264D01*
X109491Y37103D01*
X109816Y36913D01*
X109884Y36875D01*
X109958Y36848D01*
X110036Y36834D01*
X110114Y36832D01*
X110192Y36842D01*
X110268Y36865D01*
X110339Y36899D01*
X110403Y36944D01*
X110461Y36998D01*
X110508Y37060D01*
X110546Y37129D01*
X110572Y37204D01*
X110586Y37281D01*
X110588Y37360D01*
X110578Y37438D01*
X110555Y37513D01*
X110521Y37584D01*
X110477Y37649D01*
X110423Y37706D01*
X110359Y37753D01*
X109961Y37992D01*
X109541Y38191D01*
X109106Y38352D01*
X108657Y38474D01*
X108200Y38555D01*
X107737Y38596D01*
X107507D01*
Y152500D01*
X111246D01*
Y36370D01*
X111216Y36354D01*
X111153Y36305D01*
X111099Y36248D01*
X111054Y36182D01*
X111019Y36111D01*
X110997Y36035D01*
X110986Y35956D01*
X110988Y35877D01*
X111003Y35799D01*
X111029Y35724D01*
X111068Y35655D01*
X111246Y35360D01*
Y31332D01*
X111072Y31036D01*
X111033Y30967D01*
X111007Y30893D01*
X110992Y30816D01*
X110990Y30737D01*
X111001Y30659D01*
X111023Y30584D01*
X111057Y30513D01*
X111102Y30448D01*
X111156Y30391D01*
X111219Y30343D01*
X111246Y30328D01*
Y14903D01*
G37*
G36*
X107507Y11164D02*X105843Y9500D01*
X103139D01*
Y30430D01*
X103142Y30426D01*
X103200Y30371D01*
X103265Y30326D01*
X103336Y30292D01*
X103413Y30269D01*
X103491Y30259D01*
X103571Y30261D01*
X103649Y30275D01*
X103723Y30302D01*
X103793Y30339D01*
X103856Y30388D01*
X103911Y30445D01*
X103956Y30510D01*
X103990Y30582D01*
X104013Y30658D01*
X104023Y30737D01*
X104021Y30816D01*
X104007Y30894D01*
X103980Y30969D01*
X103941Y31038D01*
X103748Y31360D01*
X103587Y31699D01*
X103457Y32052D01*
X103358Y32414D01*
X103292Y32784D01*
X103259Y33159D01*
Y33534D01*
X103292Y33909D01*
X103358Y34279D01*
X103457Y34641D01*
X103587Y34994D01*
X103748Y35333D01*
X103938Y35657D01*
X103977Y35726D01*
X104003Y35800D01*
X104017Y35877D01*
X104019Y35956D01*
X104009Y36034D01*
X103986Y36109D01*
X103952Y36180D01*
X103908Y36245D01*
X103853Y36302D01*
X103791Y36350D01*
X103722Y36388D01*
X103648Y36414D01*
X103570Y36428D01*
X103491Y36430D01*
X103413Y36420D01*
X103338Y36397D01*
X103267Y36363D01*
X103202Y36319D01*
X103145Y36264D01*
X103139Y36256D01*
Y105504D01*
X106657Y105509D01*
X106810Y105546D01*
X106955Y105606D01*
X107090Y105688D01*
X107209Y105791D01*
X107312Y105910D01*
X107394Y106045D01*
X107454Y106190D01*
X107491Y106343D01*
X107500Y106500D01*
X107491Y112657D01*
X107454Y112810D01*
X107394Y112955D01*
X107312Y113090D01*
X107209Y113209D01*
X107090Y113312D01*
X106955Y113394D01*
X106810Y113454D01*
X106657Y113491D01*
X106500Y113500D01*
X103139Y113495D01*
Y115504D01*
X106657Y115509D01*
X106810Y115546D01*
X106955Y115606D01*
X107090Y115688D01*
X107209Y115791D01*
X107312Y115910D01*
X107394Y116045D01*
X107454Y116190D01*
X107491Y116343D01*
X107500Y116500D01*
X107491Y122657D01*
X107454Y122810D01*
X107394Y122955D01*
X107312Y123090D01*
X107209Y123209D01*
X107090Y123312D01*
X106955Y123394D01*
X106810Y123454D01*
X106657Y123491D01*
X106500Y123500D01*
X103139Y123495D01*
Y152500D01*
X107507D01*
Y38596D01*
X107272D01*
X106810Y38555D01*
X106352Y38474D01*
X105904Y38352D01*
X105468Y38191D01*
X105048Y37992D01*
X104647Y37757D01*
X104584Y37709D01*
X104529Y37652D01*
X104484Y37586D01*
X104450Y37515D01*
X104427Y37439D01*
X104417Y37360D01*
X104419Y37281D01*
X104433Y37203D01*
X104460Y37128D01*
X104498Y37058D01*
X104546Y36995D01*
X104603Y36940D01*
X104669Y36895D01*
X104740Y36861D01*
X104816Y36838D01*
X104895Y36828D01*
X104974Y36830D01*
X105052Y36844D01*
X105127Y36871D01*
X105196Y36910D01*
X105518Y37103D01*
X105858Y37264D01*
X106210Y37394D01*
X106573Y37493D01*
X106943Y37559D01*
X107317Y37592D01*
X107507D01*
Y29101D01*
X107317D01*
X106943Y29134D01*
X106573Y29200D01*
X106210Y29298D01*
X105858Y29429D01*
X105518Y29589D01*
X105194Y29780D01*
X105126Y29818D01*
X105051Y29845D01*
X104974Y29859D01*
X104895Y29861D01*
X104817Y29850D01*
X104742Y29828D01*
X104671Y29794D01*
X104606Y29749D01*
X104549Y29695D01*
X104501Y29633D01*
X104464Y29563D01*
X104437Y29489D01*
X104423Y29412D01*
X104421Y29333D01*
X104432Y29255D01*
X104454Y29180D01*
X104488Y29109D01*
X104533Y29044D01*
X104587Y28987D01*
X104650Y28940D01*
X105048Y28701D01*
X105468Y28502D01*
X105904Y28341D01*
X106352Y28219D01*
X106810Y28138D01*
X107272Y28096D01*
X107507D01*
Y11164D01*
G37*
G36*
X103139Y9500D02*X93494D01*
Y12575D01*
X94044Y12803D01*
X94749Y13235D01*
X95377Y13772D01*
X95914Y14400D01*
X96346Y15104D01*
X96662Y15868D01*
X96855Y16671D01*
X96904Y17495D01*
X96855Y18319D01*
X96662Y19123D01*
X96346Y19886D01*
X95914Y20591D01*
X95377Y21219D01*
X94749Y21756D01*
X94044Y22187D01*
X93494Y22416D01*
Y105488D01*
X93500Y105488D01*
X94128Y105537D01*
X94740Y105684D01*
X95322Y105925D01*
X95858Y106254D01*
X96337Y106663D01*
X96746Y107142D01*
X97075Y107678D01*
X97316Y108260D01*
X97463Y108872D01*
X97500Y109500D01*
X97463Y110128D01*
X97316Y110740D01*
X97075Y111322D01*
X96746Y111858D01*
X96337Y112337D01*
X95858Y112746D01*
X95322Y113075D01*
X94740Y113316D01*
X94128Y113463D01*
X93500Y113512D01*
X93494Y113512D01*
Y115488D01*
X93500Y115488D01*
X94128Y115537D01*
X94740Y115684D01*
X95322Y115925D01*
X95858Y116254D01*
X96337Y116663D01*
X96746Y117142D01*
X97075Y117678D01*
X97316Y118260D01*
X97463Y118872D01*
X97500Y119500D01*
X97463Y120128D01*
X97316Y120740D01*
X97075Y121322D01*
X96746Y121858D01*
X96337Y122337D01*
X95858Y122746D01*
X95322Y123075D01*
X94740Y123316D01*
X94128Y123463D01*
X93500Y123512D01*
X93494Y123512D01*
Y152500D01*
X103139D01*
Y123495D01*
X100343Y123491D01*
X100190Y123454D01*
X100045Y123394D01*
X99910Y123312D01*
X99791Y123209D01*
X99688Y123090D01*
X99606Y122955D01*
X99546Y122810D01*
X99509Y122657D01*
X99500Y122500D01*
X99509Y116343D01*
X99546Y116190D01*
X99606Y116045D01*
X99688Y115910D01*
X99791Y115791D01*
X99910Y115688D01*
X100045Y115606D01*
X100190Y115546D01*
X100343Y115509D01*
X100500Y115500D01*
X103139Y115504D01*
Y113495D01*
X100343Y113491D01*
X100190Y113454D01*
X100045Y113394D01*
X99910Y113312D01*
X99791Y113209D01*
X99688Y113090D01*
X99606Y112955D01*
X99546Y112810D01*
X99509Y112657D01*
X99500Y112500D01*
X99509Y106343D01*
X99546Y106190D01*
X99606Y106045D01*
X99688Y105910D01*
X99791Y105791D01*
X99910Y105688D01*
X100045Y105606D01*
X100190Y105546D01*
X100343Y105509D01*
X100500Y105500D01*
X103139Y105504D01*
Y36256D01*
X103099Y36201D01*
X102859Y35803D01*
X102660Y35383D01*
X102499Y34947D01*
X102378Y34499D01*
X102296Y34042D01*
X102255Y33579D01*
Y33114D01*
X102296Y32651D01*
X102378Y32194D01*
X102499Y31746D01*
X102660Y31310D01*
X102859Y30890D01*
X103094Y30489D01*
X103139Y30430D01*
Y9500D01*
G37*
G36*
X93494Y22416D02*X93281Y22504D01*
X92477Y22697D01*
X91654Y22761D01*
X90830Y22697D01*
X90026Y22504D01*
X89263Y22187D01*
X88996Y22024D01*
Y152500D01*
X93494D01*
Y123512D01*
X92872Y123463D01*
X92260Y123316D01*
X91678Y123075D01*
X91142Y122746D01*
X90663Y122337D01*
X90254Y121858D01*
X89925Y121322D01*
X89684Y120740D01*
X89537Y120128D01*
X89488Y119500D01*
X89537Y118872D01*
X89684Y118260D01*
X89925Y117678D01*
X90254Y117142D01*
X90663Y116663D01*
X91142Y116254D01*
X91678Y115925D01*
X92260Y115684D01*
X92872Y115537D01*
X93494Y115488D01*
Y113512D01*
X92872Y113463D01*
X92260Y113316D01*
X91678Y113075D01*
X91142Y112746D01*
X90663Y112337D01*
X90254Y111858D01*
X89925Y111322D01*
X89684Y110740D01*
X89537Y110128D01*
X89488Y109500D01*
X89537Y108872D01*
X89684Y108260D01*
X89925Y107678D01*
X90254Y107142D01*
X90663Y106663D01*
X91142Y106254D01*
X91678Y105925D01*
X92260Y105684D01*
X92872Y105537D01*
X93494Y105488D01*
Y22416D01*
G37*
G36*
Y9500D02*X88996D01*
Y12967D01*
X89263Y12803D01*
X90026Y12487D01*
X90830Y12294D01*
X91654Y12229D01*
X92477Y12294D01*
X93281Y12487D01*
X93494Y12575D01*
Y9500D01*
G37*
G36*
X49495Y269882D02*X49775Y269997D01*
X50151Y270228D01*
X50486Y270514D01*
X50772Y270849D01*
X51003Y271225D01*
X51171Y271632D01*
X51274Y272061D01*
X51300Y272500D01*
X51274Y272939D01*
X51171Y273368D01*
X51003Y273775D01*
X50772Y274151D01*
X50486Y274486D01*
X50151Y274772D01*
X50000Y274865D01*
Y282135D01*
X50151Y282228D01*
X50486Y282514D01*
X50772Y282849D01*
X51003Y283225D01*
X51171Y283632D01*
X51274Y284061D01*
X51300Y284500D01*
X51274Y284939D01*
X51171Y285368D01*
X51003Y285775D01*
X50772Y286151D01*
X50486Y286486D01*
X50151Y286772D01*
X49775Y287003D01*
X49495Y287118D01*
Y450500D01*
X80000D01*
Y427000D01*
X88996D01*
Y422500D01*
X68970D01*
X68651Y422772D01*
X68275Y423003D01*
X67868Y423171D01*
X67439Y423274D01*
X67000Y423309D01*
X66561Y423274D01*
X66132Y423171D01*
X65725Y423003D01*
X65349Y422772D01*
X65014Y422486D01*
X64728Y422151D01*
X64497Y421775D01*
X64329Y421368D01*
X64226Y420939D01*
X64191Y420500D01*
X64226Y420061D01*
X64329Y419632D01*
X64497Y419225D01*
X64728Y418849D01*
X65014Y418514D01*
X65349Y418228D01*
X65725Y417997D01*
X66132Y417829D01*
X66561Y417726D01*
X67000Y417691D01*
X67439Y417726D01*
X67868Y417829D01*
X68275Y417997D01*
X68651Y418228D01*
X68970Y418500D01*
X71922D01*
X71686Y418481D01*
X71380Y418408D01*
X71089Y418288D01*
X70821Y418123D01*
X70821Y418123D01*
X70581Y417919D01*
X70530Y417859D01*
X55979Y403307D01*
X55561Y403274D01*
X55132Y403171D01*
X54725Y403003D01*
X54349Y402772D01*
X54014Y402486D01*
X53728Y402151D01*
X53497Y401775D01*
X53329Y401368D01*
X53226Y400939D01*
X53191Y400500D01*
X53226Y400061D01*
X53329Y399632D01*
X53497Y399225D01*
X53728Y398849D01*
X54014Y398514D01*
X54349Y398228D01*
X54725Y397997D01*
X55132Y397829D01*
X55561Y397726D01*
X56000Y397691D01*
X56439Y397726D01*
X56868Y397829D01*
X57275Y397997D01*
X57651Y398228D01*
X57986Y398514D01*
X58272Y398849D01*
X58503Y399225D01*
X58671Y399632D01*
X58774Y400061D01*
X58798Y400470D01*
X70511Y412182D01*
X70500Y412000D01*
Y408950D01*
X54525Y392975D01*
X54160Y392564D01*
X53872Y392094D01*
X53661Y391585D01*
X53532Y391049D01*
X53489Y390500D01*
X53532Y389951D01*
X53661Y389415D01*
X53872Y388906D01*
X54160Y388436D01*
X54517Y388017D01*
X54936Y387660D01*
X55406Y387372D01*
X55915Y387161D01*
X56451Y387032D01*
X57000Y386989D01*
X57549Y387032D01*
X58085Y387161D01*
X58594Y387372D01*
X59064Y387660D01*
X59475Y388025D01*
X76378Y404928D01*
X76483Y405017D01*
X76840Y405436D01*
X76840Y405436D01*
X77128Y405906D01*
X77339Y406415D01*
X77468Y406951D01*
X77511Y407500D01*
X77500Y407637D01*
Y412000D01*
X77468Y412549D01*
X77339Y413085D01*
X77128Y413594D01*
X76840Y414064D01*
X76483Y414483D01*
X76462Y414500D01*
X88672D01*
X88996Y414176D01*
Y370723D01*
X88962Y370862D01*
X88018Y373142D01*
X86728Y375247D01*
X85124Y377124D01*
X83247Y378728D01*
X81142Y380018D01*
X78862Y380962D01*
X76461Y381539D01*
X74000Y381732D01*
X71539Y381539D01*
X69138Y380962D01*
X66858Y380018D01*
X64753Y378728D01*
X62876Y377124D01*
X61272Y375247D01*
X59982Y373142D01*
X59038Y370862D01*
X58461Y368461D01*
X58268Y366000D01*
X58461Y363539D01*
X59038Y361138D01*
X59982Y358858D01*
X61272Y356753D01*
X62876Y354876D01*
X64753Y353272D01*
X66858Y351982D01*
X69138Y351038D01*
X71539Y350461D01*
X74000Y350268D01*
X76461Y350461D01*
X78862Y351038D01*
X81142Y351982D01*
X83247Y353272D01*
X85124Y354876D01*
X86728Y356753D01*
X88018Y358858D01*
X88962Y361138D01*
X88996Y361277D01*
Y318500D01*
X80365D01*
X80272Y318651D01*
X79986Y318986D01*
X79651Y319272D01*
X79275Y319503D01*
X78868Y319671D01*
X78439Y319774D01*
X78000Y319809D01*
X77561Y319774D01*
X77132Y319671D01*
X76725Y319503D01*
X76349Y319272D01*
X76014Y318986D01*
X75728Y318651D01*
X75497Y318275D01*
X75329Y317868D01*
X75226Y317439D01*
X75191Y317000D01*
X75226Y316561D01*
X75329Y316132D01*
X75497Y315725D01*
X75728Y315349D01*
X76014Y315014D01*
X76349Y314728D01*
X76725Y314497D01*
X77132Y314329D01*
X77561Y314226D01*
X78000Y314191D01*
X78439Y314226D01*
X78816Y314316D01*
X78726Y313939D01*
X78691Y313500D01*
X78726Y313061D01*
X78829Y312632D01*
X78997Y312225D01*
X79228Y311849D01*
X79514Y311514D01*
X79849Y311228D01*
X80225Y310997D01*
X80632Y310829D01*
X81061Y310726D01*
X81500Y310691D01*
X81939Y310726D01*
X82368Y310829D01*
X82775Y310997D01*
X83151Y311228D01*
X83486Y311514D01*
X83772Y311849D01*
X83865Y312000D01*
X88996D01*
Y208500D01*
X49495D01*
Y269882D01*
G37*
G36*
X88996Y9500D02*X83494D01*
Y105488D01*
X83500Y105488D01*
X84128Y105537D01*
X84740Y105684D01*
X85322Y105925D01*
X85858Y106254D01*
X86337Y106663D01*
X86746Y107142D01*
X87075Y107678D01*
X87316Y108260D01*
X87463Y108872D01*
X87500Y109500D01*
X87463Y110128D01*
X87316Y110740D01*
X87075Y111322D01*
X86746Y111858D01*
X86337Y112337D01*
X85858Y112746D01*
X85322Y113075D01*
X84740Y113316D01*
X84128Y113463D01*
X83500Y113512D01*
X83494Y113512D01*
Y115488D01*
X83500Y115488D01*
X84128Y115537D01*
X84740Y115684D01*
X85322Y115925D01*
X85858Y116254D01*
X86337Y116663D01*
X86746Y117142D01*
X87075Y117678D01*
X87316Y118260D01*
X87463Y118872D01*
X87500Y119500D01*
X87463Y120128D01*
X87316Y120740D01*
X87075Y121322D01*
X86746Y121858D01*
X86337Y122337D01*
X85858Y122746D01*
X85322Y123075D01*
X84740Y123316D01*
X84128Y123463D01*
X83500Y123512D01*
X83494Y123512D01*
Y152500D01*
X88996D01*
Y22024D01*
X88558Y21756D01*
X87930Y21219D01*
X87393Y20591D01*
X86961Y19886D01*
X86645Y19123D01*
X86452Y18319D01*
X86387Y17495D01*
X86452Y16671D01*
X86645Y15868D01*
X86961Y15104D01*
X87393Y14400D01*
X87930Y13772D01*
X88558Y13235D01*
X88996Y12967D01*
Y9500D01*
G37*
G36*
X83494D02*X74774D01*
X75008Y10066D01*
X75201Y10869D01*
X75250Y11693D01*
X75201Y12517D01*
X75008Y13320D01*
X74692Y14084D01*
X74260Y14788D01*
X73724Y15417D01*
X73095Y15953D01*
X72391Y16385D01*
X71627Y16701D01*
X70824Y16894D01*
X70000Y16959D01*
X69992Y16958D01*
Y33986D01*
X70000Y33986D01*
X70824Y34051D01*
X71627Y34244D01*
X72391Y34560D01*
X73095Y34992D01*
X73724Y35528D01*
X74260Y36157D01*
X74692Y36861D01*
X75008Y37625D01*
X75201Y38428D01*
X75250Y39252D01*
X75201Y40076D01*
X75008Y40879D01*
X74692Y41643D01*
X74260Y42347D01*
X73724Y42976D01*
X73095Y43512D01*
X72391Y43944D01*
X71627Y44260D01*
X70824Y44453D01*
X70000Y44518D01*
X69992Y44518D01*
Y152500D01*
X83494D01*
Y123512D01*
X82872Y123463D01*
X82260Y123316D01*
X81678Y123075D01*
X81142Y122746D01*
X80663Y122337D01*
X80254Y121858D01*
X79925Y121322D01*
X79684Y120740D01*
X79537Y120128D01*
X79488Y119500D01*
X79537Y118872D01*
X79684Y118260D01*
X79925Y117678D01*
X80254Y117142D01*
X80663Y116663D01*
X81142Y116254D01*
X81678Y115925D01*
X82260Y115684D01*
X82872Y115537D01*
X83494Y115488D01*
Y113512D01*
X82872Y113463D01*
X82260Y113316D01*
X81678Y113075D01*
X81142Y112746D01*
X80663Y112337D01*
X80254Y111858D01*
X79925Y111322D01*
X79684Y110740D01*
X79537Y110128D01*
X79488Y109500D01*
X79537Y108872D01*
X79684Y108260D01*
X79925Y107678D01*
X80254Y107142D01*
X80663Y106663D01*
X81142Y106254D01*
X81678Y105925D01*
X82260Y105684D01*
X82872Y105537D01*
X83494Y105488D01*
Y9500D01*
G37*
G36*
X69992Y16958D02*X69176Y16894D01*
X68373Y16701D01*
X67609Y16385D01*
X66905Y15953D01*
X66276Y15417D01*
X65740Y14788D01*
X65308Y14084D01*
X64992Y13320D01*
X64799Y12517D01*
X64734Y11693D01*
X64799Y10869D01*
X64992Y10066D01*
X65226Y9500D01*
X50157D01*
X49495Y10161D01*
Y12372D01*
X49974Y12487D01*
X50737Y12803D01*
X51442Y13235D01*
X52070Y13772D01*
X52607Y14400D01*
X53039Y15104D01*
X53355Y15868D01*
X53548Y16671D01*
X53596Y17495D01*
X53548Y18319D01*
X53355Y19123D01*
X53039Y19886D01*
X52607Y20591D01*
X52070Y21219D01*
X51442Y21756D01*
X50737Y22187D01*
X49974Y22504D01*
X49495Y22619D01*
Y87382D01*
X49974Y87497D01*
X50737Y87813D01*
X51442Y88245D01*
X52070Y88781D01*
X52607Y89410D01*
X53039Y90114D01*
X53355Y90878D01*
X53548Y91681D01*
X53596Y92505D01*
X53548Y93329D01*
X53355Y94132D01*
X53039Y94896D01*
X52607Y95601D01*
X52070Y96229D01*
X51442Y96766D01*
X50737Y97197D01*
X49974Y97514D01*
X49495Y97628D01*
Y130192D01*
X49500Y130191D01*
X49939Y130226D01*
X50368Y130329D01*
X50775Y130497D01*
X51151Y130728D01*
X51486Y131014D01*
X51713Y131280D01*
X51691Y131000D01*
X51726Y130561D01*
X51829Y130132D01*
X51997Y129725D01*
X52228Y129349D01*
X52514Y129014D01*
X52849Y128728D01*
X53225Y128497D01*
X53632Y128329D01*
X54061Y128226D01*
X54500Y128191D01*
X54939Y128226D01*
X55368Y128329D01*
X55775Y128497D01*
X56151Y128728D01*
X56486Y129014D01*
X56772Y129349D01*
X57003Y129725D01*
X57171Y130132D01*
X57274Y130561D01*
X57300Y131000D01*
X57274Y131439D01*
X57171Y131868D01*
X57003Y132275D01*
X56772Y132651D01*
X56486Y132986D01*
X56250Y133188D01*
Y138054D01*
X56269Y138065D01*
X56628Y138372D01*
X56935Y138731D01*
X57181Y139134D01*
X57362Y139570D01*
X57472Y140029D01*
X57500Y140500D01*
X57472Y140971D01*
X57362Y141430D01*
X57181Y141866D01*
X56935Y142269D01*
X56628Y142628D01*
X56269Y142935D01*
X55866Y143181D01*
X55430Y143362D01*
X54971Y143472D01*
X54500Y143509D01*
X54029Y143472D01*
X53570Y143362D01*
X53134Y143181D01*
X52731Y142935D01*
X52377Y142632D01*
X52472Y143029D01*
X52500Y143500D01*
X52472Y143971D01*
X52362Y144430D01*
X52181Y144866D01*
X51935Y145269D01*
X51628Y145628D01*
X51269Y145935D01*
X50866Y146181D01*
X50430Y146362D01*
X49971Y146472D01*
X49500Y146509D01*
X49495Y146509D01*
Y152500D01*
X69992D01*
Y44518D01*
X69176Y44453D01*
X68373Y44260D01*
X67609Y43944D01*
X66905Y43512D01*
X66276Y42976D01*
X65740Y42347D01*
X65308Y41643D01*
X64992Y40879D01*
X64799Y40076D01*
X64734Y39252D01*
X64799Y38428D01*
X64992Y37625D01*
X65308Y36861D01*
X65740Y36157D01*
X66276Y35528D01*
X66905Y34992D01*
X67609Y34560D01*
X68373Y34244D01*
X69176Y34051D01*
X69992Y33986D01*
Y16958D01*
G37*
G36*
X49495Y287118D02*X49368Y287171D01*
X48939Y287274D01*
X48500Y287309D01*
X48061Y287274D01*
X47632Y287171D01*
X47225Y287003D01*
X46849Y286772D01*
X46514Y286486D01*
X46228Y286151D01*
X46000Y285779D01*
Y293382D01*
X46009Y293500D01*
X45972Y293971D01*
X45972Y293971D01*
X45862Y294430D01*
X45681Y294866D01*
X45435Y295269D01*
X45128Y295628D01*
X45038Y295704D01*
X14500Y326243D01*
Y450500D01*
X49495D01*
Y287118D01*
G37*
G36*
X34213Y291209D02*X34309Y291291D01*
X34412Y291410D01*
X34494Y291545D01*
X34554Y291690D01*
X34591Y291843D01*
X34599Y291986D01*
X34658Y292052D01*
X35069Y292723D01*
X35370Y293450D01*
X35554Y294215D01*
X35615Y295000D01*
X35554Y295785D01*
X35370Y296550D01*
X35131Y297126D01*
X40000Y292257D01*
Y267000D01*
X40028Y266529D01*
X40138Y266070D01*
X40319Y265634D01*
X40565Y265231D01*
X40872Y264872D01*
X41231Y264565D01*
X41634Y264319D01*
X42070Y264138D01*
X42529Y264028D01*
X43000Y263991D01*
X43471Y264028D01*
X43930Y264138D01*
X44366Y264319D01*
X44769Y264565D01*
X45128Y264872D01*
X45435Y265231D01*
X45681Y265634D01*
X45862Y266070D01*
X45972Y266529D01*
X46000Y267000D01*
Y271221D01*
X46228Y270849D01*
X46514Y270514D01*
X46849Y270228D01*
X47225Y269997D01*
X47632Y269829D01*
X48061Y269726D01*
X48500Y269691D01*
X48939Y269726D01*
X49368Y269829D01*
X49495Y269882D01*
Y208500D01*
X45000D01*
Y169705D01*
X44962Y169862D01*
X44018Y172142D01*
X42728Y174247D01*
X41124Y176124D01*
X39247Y177728D01*
X37142Y179018D01*
X34862Y179962D01*
X34213Y180118D01*
Y233853D01*
X34256Y233860D01*
X34368Y233897D01*
X34473Y233952D01*
X34568Y234022D01*
X34651Y234106D01*
X34719Y234202D01*
X34770Y234308D01*
X34918Y234716D01*
X35022Y235137D01*
X35084Y235567D01*
X35105Y236000D01*
X35084Y236433D01*
X35022Y236863D01*
X34918Y237284D01*
X34775Y237694D01*
X34722Y237800D01*
X34653Y237896D01*
X34570Y237981D01*
X34475Y238051D01*
X34369Y238106D01*
X34257Y238143D01*
X34213Y238151D01*
Y291209D01*
G37*
G36*
X30602Y287931D02*X33680Y291009D01*
X33757Y291009D01*
X33910Y291046D01*
X34055Y291106D01*
X34190Y291188D01*
X34213Y291209D01*
Y238151D01*
X34140Y238163D01*
X34021Y238164D01*
X33904Y238146D01*
X33791Y238110D01*
X33685Y238057D01*
X33588Y237988D01*
X33504Y237905D01*
X33433Y237809D01*
X33379Y237704D01*
X33341Y237592D01*
X33322Y237475D01*
X33321Y237356D01*
X33339Y237239D01*
X33377Y237126D01*
X33476Y236855D01*
X33544Y236575D01*
X33586Y236289D01*
X33600Y236000D01*
X33586Y235711D01*
X33544Y235425D01*
X33476Y235145D01*
X33380Y234872D01*
X33342Y234761D01*
X33325Y234644D01*
X33325Y234526D01*
X33345Y234409D01*
X33382Y234297D01*
X33436Y234193D01*
X33506Y234098D01*
X33591Y234015D01*
X33687Y233946D01*
X33792Y233893D01*
X33905Y233857D01*
X34021Y233840D01*
X34139Y233841D01*
X34213Y233853D01*
Y180118D01*
X32461Y180539D01*
X30602Y180685D01*
Y231495D01*
X31033Y231516D01*
X31463Y231578D01*
X31884Y231682D01*
X32294Y231825D01*
X32400Y231878D01*
X32496Y231947D01*
X32581Y232030D01*
X32651Y232125D01*
X32706Y232231D01*
X32743Y232343D01*
X32763Y232460D01*
X32764Y232579D01*
X32746Y232696D01*
X32710Y232809D01*
X32657Y232915D01*
X32588Y233012D01*
X32505Y233096D01*
X32409Y233167D01*
X32304Y233221D01*
X32192Y233259D01*
X32075Y233278D01*
X31956Y233279D01*
X31839Y233261D01*
X31726Y233223D01*
X31455Y233124D01*
X31175Y233056D01*
X30889Y233014D01*
X30602Y233000D01*
Y239000D01*
X30889Y238986D01*
X31175Y238944D01*
X31455Y238876D01*
X31728Y238780D01*
X31839Y238742D01*
X31956Y238725D01*
X32074Y238725D01*
X32191Y238745D01*
X32303Y238782D01*
X32407Y238836D01*
X32502Y238906D01*
X32585Y238991D01*
X32654Y239087D01*
X32707Y239192D01*
X32743Y239305D01*
X32760Y239421D01*
X32759Y239539D01*
X32740Y239656D01*
X32703Y239768D01*
X32648Y239873D01*
X32578Y239968D01*
X32494Y240051D01*
X32398Y240119D01*
X32292Y240170D01*
X31884Y240318D01*
X31463Y240422D01*
X31033Y240484D01*
X30602Y240505D01*
Y287931D01*
G37*
G36*
X49495Y22619D02*X49170Y22697D01*
X48346Y22761D01*
X47523Y22697D01*
X46719Y22504D01*
X45956Y22187D01*
X45251Y21756D01*
X44623Y21219D01*
X44086Y20591D01*
X43654Y19886D01*
X43338Y19123D01*
X43145Y18319D01*
X43080Y17495D01*
X43145Y16671D01*
X43196Y16461D01*
X30602Y29055D01*
Y97115D01*
X32362Y97538D01*
X34642Y98482D01*
X36747Y99772D01*
X38624Y101376D01*
X40228Y103253D01*
X41518Y105358D01*
X42462Y107638D01*
X43039Y110039D01*
X43184Y112500D01*
X43039Y114961D01*
X42462Y117362D01*
X41518Y119642D01*
X40228Y121747D01*
X38624Y123624D01*
X36747Y125228D01*
X34642Y126518D01*
X32362Y127462D01*
X30602Y127885D01*
Y149315D01*
X32461Y149461D01*
X34862Y150038D01*
X37142Y150982D01*
X39247Y152272D01*
X41124Y153876D01*
X42728Y155753D01*
X44018Y157858D01*
X44962Y160138D01*
X45000Y160295D01*
Y152500D01*
X49495D01*
Y146509D01*
X49029Y146472D01*
X48570Y146362D01*
X48134Y146181D01*
X47731Y145935D01*
X47377Y145632D01*
X47472Y146029D01*
X47500Y146500D01*
X47472Y146971D01*
X47362Y147430D01*
X47181Y147866D01*
X46935Y148269D01*
X46628Y148628D01*
X46269Y148935D01*
X45866Y149181D01*
X45430Y149362D01*
X44971Y149472D01*
X44500Y149509D01*
X44029Y149472D01*
X43570Y149362D01*
X43134Y149181D01*
X42731Y148935D01*
X42372Y148628D01*
X42065Y148269D01*
X41819Y147866D01*
X41638Y147430D01*
X41528Y146971D01*
X41491Y146500D01*
X41528Y146029D01*
X41638Y145570D01*
X41819Y145134D01*
X42065Y144731D01*
X42372Y144372D01*
X42731Y144065D01*
X42750Y144054D01*
Y136688D01*
X42514Y136486D01*
X42228Y136151D01*
X41997Y135775D01*
X41829Y135368D01*
X41726Y134939D01*
X41691Y134500D01*
X41726Y134061D01*
X41829Y133632D01*
X41997Y133225D01*
X42228Y132849D01*
X42514Y132514D01*
X42849Y132228D01*
X43225Y131997D01*
X43632Y131829D01*
X44061Y131726D01*
X44500Y131691D01*
X44939Y131726D01*
X45368Y131829D01*
X45775Y131997D01*
X46151Y132228D01*
X46486Y132514D01*
X46709Y132775D01*
X46726Y132561D01*
X46829Y132132D01*
X46997Y131725D01*
X47228Y131349D01*
X47514Y131014D01*
X47849Y130728D01*
X48225Y130497D01*
X48632Y130329D01*
X49061Y130226D01*
X49495Y130192D01*
Y97628D01*
X49170Y97706D01*
X48346Y97771D01*
X47523Y97706D01*
X46719Y97514D01*
X45956Y97197D01*
X45251Y96766D01*
X44623Y96229D01*
X44086Y95601D01*
X43654Y94896D01*
X43338Y94132D01*
X43145Y93329D01*
X43080Y92505D01*
X43145Y91681D01*
X43338Y90878D01*
X43654Y90114D01*
X44086Y89410D01*
X44623Y88781D01*
X45251Y88245D01*
X45956Y87813D01*
X46719Y87497D01*
X47523Y87304D01*
X48346Y87239D01*
X49170Y87304D01*
X49495Y87382D01*
Y22619D01*
G37*
G36*
X26987Y284316D02*X30602Y287931D01*
Y240505D01*
X30600Y240505D01*
X30167Y240484D01*
X29737Y240422D01*
X29316Y240318D01*
X28906Y240175D01*
X28800Y240122D01*
X28704Y240053D01*
X28619Y239970D01*
X28549Y239875D01*
X28494Y239769D01*
X28457Y239657D01*
X28437Y239540D01*
X28436Y239421D01*
X28454Y239304D01*
X28490Y239191D01*
X28543Y239085D01*
X28612Y238988D01*
X28695Y238904D01*
X28791Y238833D01*
X28896Y238779D01*
X29008Y238741D01*
X29125Y238722D01*
X29244Y238721D01*
X29361Y238739D01*
X29474Y238777D01*
X29745Y238876D01*
X30025Y238944D01*
X30311Y238986D01*
X30600Y239000D01*
X30602Y239000D01*
Y233000D01*
X30600Y233000D01*
X30311Y233014D01*
X30025Y233056D01*
X29745Y233124D01*
X29472Y233220D01*
X29361Y233258D01*
X29244Y233275D01*
X29126Y233275D01*
X29009Y233255D01*
X28897Y233218D01*
X28793Y233164D01*
X28698Y233094D01*
X28615Y233009D01*
X28546Y232913D01*
X28493Y232808D01*
X28457Y232695D01*
X28440Y232579D01*
X28441Y232461D01*
X28460Y232344D01*
X28497Y232232D01*
X28552Y232127D01*
X28622Y232032D01*
X28706Y231949D01*
X28802Y231881D01*
X28908Y231830D01*
X29316Y231682D01*
X29737Y231578D01*
X30167Y231516D01*
X30600Y231495D01*
X30602Y231495D01*
Y180685D01*
X30000Y180732D01*
X27539Y180539D01*
X26987Y180406D01*
Y233849D01*
X27060Y233837D01*
X27179Y233836D01*
X27296Y233854D01*
X27409Y233890D01*
X27515Y233943D01*
X27612Y234012D01*
X27696Y234095D01*
X27767Y234191D01*
X27821Y234296D01*
X27859Y234408D01*
X27878Y234525D01*
X27879Y234644D01*
X27861Y234761D01*
X27823Y234874D01*
X27724Y235145D01*
X27656Y235425D01*
X27614Y235711D01*
X27600Y236000D01*
X27614Y236289D01*
X27656Y236575D01*
X27724Y236855D01*
X27820Y237128D01*
X27858Y237239D01*
X27875Y237356D01*
X27875Y237474D01*
X27855Y237591D01*
X27818Y237703D01*
X27764Y237807D01*
X27694Y237902D01*
X27609Y237985D01*
X27513Y238054D01*
X27408Y238107D01*
X27295Y238143D01*
X27179Y238160D01*
X27061Y238159D01*
X26987Y238147D01*
Y284316D01*
G37*
G36*
X30602Y127885D02*X29961Y128039D01*
X27500Y128232D01*
X26987Y128192D01*
Y149594D01*
X27539Y149461D01*
X30000Y149268D01*
X30602Y149315D01*
Y127885D01*
G37*
G36*
X26987Y128192D02*X25039Y128039D01*
X22638Y127462D01*
X20358Y126518D01*
X18253Y125228D01*
X16376Y123624D01*
X14772Y121747D01*
X13482Y119642D01*
X12538Y117362D01*
X12000Y115122D01*
Y269329D01*
X26987Y284316D01*
Y238147D01*
X26944Y238140D01*
X26832Y238103D01*
X26727Y238048D01*
X26632Y237978D01*
X26549Y237894D01*
X26481Y237798D01*
X26430Y237692D01*
X26282Y237284D01*
X26178Y236863D01*
X26116Y236433D01*
X26095Y236000D01*
X26116Y235567D01*
X26178Y235137D01*
X26282Y234716D01*
X26425Y234306D01*
X26478Y234200D01*
X26547Y234104D01*
X26630Y234019D01*
X26725Y233949D01*
X26831Y233894D01*
X26943Y233857D01*
X26987Y233849D01*
Y180406D01*
X25138Y179962D01*
X22858Y179018D01*
X20753Y177728D01*
X18876Y176124D01*
X17272Y174247D01*
X15982Y172142D01*
X15038Y169862D01*
X14461Y167461D01*
X14268Y165000D01*
X14461Y162539D01*
X15038Y160138D01*
X15982Y157858D01*
X17272Y155753D01*
X18876Y153876D01*
X20753Y152272D01*
X22858Y150982D01*
X25138Y150038D01*
X26987Y149594D01*
Y128192D01*
G37*
G36*
X30602Y29055D02*X12000Y47657D01*
Y109878D01*
X12538Y107638D01*
X13482Y105358D01*
X14772Y103253D01*
X16376Y101376D01*
X18253Y99772D01*
X20358Y98482D01*
X22638Y97538D01*
X25039Y96961D01*
X27500Y96768D01*
X29961Y96961D01*
X30602Y97115D01*
Y29055D01*
G37*
G36*
X49495Y10161D02*X47312Y12344D01*
X47523Y12294D01*
X48346Y12229D01*
X49170Y12294D01*
X49495Y12372D01*
Y10161D01*
G37*
G36*
X111246Y2500D02*X110135D01*
X110328Y2672D01*
X111246Y3589D01*
Y2500D01*
G37*
G36*
X91500Y8500D02*Y2500D01*
X55000D01*
Y8500D01*
X65823D01*
X66276Y7969D01*
X66905Y7432D01*
X67609Y7001D01*
X68373Y6684D01*
X69176Y6492D01*
X70000Y6427D01*
X70824Y6492D01*
X71627Y6684D01*
X72391Y7001D01*
X73095Y7432D01*
X73724Y7969D01*
X74177Y8500D01*
X91500D01*
G37*
G54D51*X193500Y300000D02*X176500D01*
X197000Y296500D02*X175500D01*
X172000Y300000D01*
X170500Y297000D02*X174500Y293000D01*
X140000Y309000D02*X199000D01*
X168000Y297000D02*X170500D01*
X148402Y296000D02*Y301902D01*
X150000Y303500D01*
X137500Y287500D02*X220650D01*
X220500D02*X239500D01*
X138500Y285500D02*X216000D01*
X202000Y289500D02*X143500D01*
X201000Y307000D02*X141500D01*
X200500Y293000D02*X174500D01*
G54D52*X234500Y291500D02*X210000D01*
G54D51*X203000Y303500D02*X150000D01*
X201000Y307000D02*X206500Y312500D01*
X202000Y289500D02*X205500Y293000D01*
X206500Y312500D02*X220000D01*
X203000Y303500D02*X206500Y307000D01*
X242700Y316200D02*X206200D01*
X199000Y309000D02*X206200Y316200D01*
X201500Y256051D02*X210000D01*
X201500Y249752D02*X219000D01*
X198500Y252901D02*X225500D01*
X203500Y262350D02*X221350D01*
X226500Y267500D01*
X228500D01*
X202000Y269000D02*X224500D01*
X206500Y275500D02*X218000D01*
X222500Y272000D02*X204500D01*
X228500Y267500D02*X233500Y272500D01*
X224500Y269000D02*X227000Y271500D01*
X232500Y284000D02*X217500D01*
X216000Y285500D02*X217500Y284000D01*
G54D52*X239500Y287500D02*Y290500D01*
X246350Y280650D02*X239500Y287500D01*
G54D51*X231500Y277000D02*X229500Y279000D01*
X221500D01*
X237500Y281000D02*X206000D01*
X218000Y275500D02*X221500Y279000D01*
X222500Y272000D02*X226500Y276000D01*
G54D52*X246350Y261800D02*Y280650D01*
G54D51*X201552Y274948D02*X204500Y272000D01*
X127000Y296000D02*X140000Y309000D01*
X129500Y295000D02*X141500Y307000D01*
X136000Y283000D02*X138500Y285500D01*
X143500Y289500D02*X141000Y292000D01*
X134000Y284000D02*X137500Y287500D01*
X127000Y296000D02*Y267500D01*
X126000Y266500D01*
X129500Y264851D02*Y295000D01*
X124500Y269000D02*Y293000D01*
G54D53*X11500Y325000D02*Y453500D01*
G54D54*X89500Y416500D02*X72000D01*
X56000Y400500D01*
G54D55*X74000Y407500D02*Y412000D01*
Y407500D02*X57000Y390500D01*
G54D51*X269500Y383500D02*X261000D01*
X253000Y413500D02*X269500D01*
X249500Y403500D02*X269500D01*
G54D52*X107000Y532843D02*X157157D01*
X164500Y525500D01*
Y460000D01*
G54D54*X112000D02*Y508157D01*
X107000Y513157D01*
G54D53*X5500Y453500D02*X232500D01*
G54D54*X67000Y420500D02*X93500D01*
Y412500D02*X89500Y416500D01*
G54D51*X175000Y146000D02*X185500Y156500D01*
G54D52*X49500Y133000D02*Y143500D01*
X54500Y131000D02*Y140500D01*
X44500Y146500D02*Y134500D01*
G54D51*X104500Y248000D02*Y218500D01*
X78000Y317000D02*X96500D01*
X81500Y313500D02*X100000D01*
X124500Y293000D02*X122500Y295000D01*
X115000D01*
G54D56*X7000Y47000D02*Y271400D01*
X30600Y295000D01*
G54D53*X11500Y325000D02*X43000Y293500D01*
Y267000D01*
G54D51*X48500Y284500D02*Y272500D01*
G54D57*X137500Y35500D02*X107500Y5500D01*
X48500D02*X7000Y47000D01*
X107500Y5500D02*X86000D01*
X48500D02*X60500D01*
G54D52*X138500Y82000D02*X146000D01*
G54D51*X140000Y55500D02*X137000Y52500D01*
X118500D01*
X115500Y55500D01*
X159500D02*X156500Y58500D01*
X138000D01*
X135000Y55500D01*
X142000Y222000D02*X151500D01*
X145252Y219000D02*X160000D01*
X162000Y217000D02*X160000Y219000D01*
X137500Y225500D02*X133000Y221000D01*
X109000Y248000D02*Y221500D01*
X113500Y248000D02*Y224500D01*
X118000Y248000D02*Y227500D01*
X201000Y234500D02*X216500D01*
X213500Y230000D02*X201000D01*
Y239000D02*X219500D01*
G54D52*X157850Y215000D02*Y191500D01*
G54D51*X181000Y195000D02*X170000D01*
X162000Y203000D01*
Y217000D01*
X175500Y225500D02*X137500D01*
X245000Y188500D02*Y198500D01*
G54D52*X240000D02*Y190500D01*
X232500Y193000D02*X240500Y185000D01*
X248500D01*
X216500Y200000D02*X223500Y193000D01*
X232500D01*
G54D51*X134000Y262000D02*Y284000D01*
X136000Y283000D02*Y255252D01*
X129500Y260500D02*X132500D01*
X126000Y266500D02*Y259552D01*
X129500Y256052D01*
X123000Y267500D02*X124500Y269000D01*
X132500Y260500D02*X134000Y262000D01*
X130500Y249752D02*X136000Y255252D01*
G54D58*X247500Y112500D03*
G54D59*X226343Y200000D03*
X216500D03*
X206657D03*
G54D60*X216500Y163000D03*
G54D61*X236185Y212992D03*
G54D62*X242505Y33346D03*
X226654Y17495D03*
G54D61*X196815Y212992D03*
G54D62*X205000Y39252D03*
Y11693D03*
X183346Y17495D03*
Y92505D03*
G54D63*X227650Y238200D03*
X246350D03*
X227650Y261800D03*
X246350D03*
G54D58*X157000Y165000D03*
G54D64*X137500Y18500D03*
G54D65*Y35500D03*
Y47300D03*
G54D62*X107505Y33346D03*
X91654Y17495D03*
G54D58*X247500Y487000D03*
G54D63*X205650Y510200D03*
Y533800D03*
X224350Y510200D03*
Y533800D03*
G54D57*X147500Y421500D03*
Y411500D03*
G54D58*X201000Y366000D03*
G54D57*X269500Y383500D03*
Y393500D03*
Y403500D03*
Y413500D03*
Y423500D03*
Y433500D03*
Y443500D03*
Y453500D03*
Y463500D03*
G54D58*X27500Y112500D03*
G54D62*X48346Y92505D03*
G54D58*X30000Y165000D03*
G54D57*X30600Y236000D03*
G54D62*X70000Y39252D03*
Y11693D03*
X48346Y17495D03*
G54D50*G36*
X100500Y112500D02*Y106500D01*
X106500D01*
Y112500D01*
X100500D01*
G37*
G54D57*X93500Y109500D03*
X83500D03*
G54D50*G36*
X100500Y122500D02*Y116500D01*
X106500D01*
Y122500D01*
X100500D01*
G37*
G54D57*X93500Y119500D03*
X83500D03*
G54D50*G36*
X27600Y298000D02*Y292000D01*
X33600D01*
Y298000D01*
X27600D01*
G37*
G36*
X112000D02*Y292000D01*
X118000D01*
Y298000D01*
X112000D01*
G37*
G36*
X124500Y424500D02*Y418500D01*
X130500D01*
Y424500D01*
X124500D01*
G37*
G54D57*X137500Y421500D03*
G54D50*G36*
X124500Y414500D02*Y408500D01*
X130500D01*
Y414500D01*
X124500D01*
G37*
G54D58*X74000Y366000D03*
G54D57*X137500Y411500D03*
G54D58*X27500Y487000D03*
G54D59*X107000Y513157D03*
G54D61*X119992Y503315D03*
G54D59*X107000Y523000D03*
Y532843D03*
G54D61*X119992Y542685D03*
G54D57*X5500Y383500D03*
Y393500D03*
Y403500D03*
Y413500D03*
Y423500D03*
Y433500D03*
Y443500D03*
Y453500D03*
Y463500D03*
G54D66*X97500Y440000D03*
X102500D03*
X97500Y435500D03*
X102500D03*
G54D67*X84000Y539000D03*
G54D66*X107500Y440000D03*
Y435500D03*
X93500Y412500D03*
X67000Y420500D03*
X93500D03*
X42000Y433500D03*
Y438000D03*
X261000Y383500D03*
X249500Y403500D03*
X253000Y413500D03*
X232500Y453500D03*
X232000Y434000D03*
X236500D03*
X205650Y447500D03*
Y443000D03*
X208000Y425000D03*
X228000Y453500D03*
X164500Y460000D03*
X74000Y407500D03*
X56000Y400500D03*
X60500Y394000D03*
X74000Y412000D03*
X57000Y390500D03*
X112000Y460000D03*
X108500Y407600D03*
Y425600D03*
Y416600D03*
X63000Y435000D03*
X66500Y438000D03*
Y444000D03*
X63000Y441000D03*
Y447000D03*
X177500Y268649D03*
X161000Y282000D03*
X172000Y300000D03*
X176500D03*
X168000Y297000D03*
X141000Y292000D03*
X148402Y296000D03*
X68000Y254000D03*
X64500Y256000D03*
Y252000D03*
X71000Y230500D03*
X67000D03*
X78000Y317000D03*
X87000Y268500D03*
Y260500D03*
Y264500D03*
X104500Y248000D03*
X96500Y317000D03*
X100000Y313500D03*
X109000Y248000D03*
Y221500D03*
X113500Y248000D03*
X81500Y313500D03*
X145252Y219000D03*
X142000Y222000D03*
X161000Y249000D03*
X133000Y221000D03*
X144500Y265500D03*
X134500Y235500D03*
Y231000D03*
X139000Y235500D03*
Y231000D03*
X129500Y256052D03*
X201500Y256051D03*
X210000D03*
X201000Y230000D03*
Y234500D03*
X213500Y230000D03*
X216500Y234500D03*
X175500Y225500D03*
X201000Y239000D03*
X219500D03*
X201500Y249752D03*
X219000D03*
X198500Y252901D03*
X225500D03*
X203500Y262350D03*
X129500Y260500D03*
X118000Y227500D03*
X113500Y224500D03*
X130500Y249752D03*
X129500Y265000D03*
X202000Y269000D03*
X206000Y281000D03*
X206500Y275500D03*
X201552Y274948D03*
X233500Y272500D03*
X231500Y277000D03*
X237500Y281000D03*
X232500Y284000D03*
X239500Y290500D03*
X234500Y291500D03*
X238600Y301000D03*
X247600D03*
X229600D03*
X220000Y312500D03*
X242700Y316200D03*
X200500Y293000D03*
X197000Y296500D03*
X193500Y300000D03*
X206500Y307000D03*
X205500Y293000D03*
X210000Y291500D03*
X226500Y276000D03*
X227000Y271500D03*
X118000Y248000D03*
X43000Y271700D03*
Y267000D03*
X48500Y284500D03*
Y272500D03*
X123000Y267500D03*
X49500Y133000D03*
Y143500D03*
X54500Y131000D03*
Y140500D03*
X77400Y141500D03*
X59400D03*
X68400D03*
X44500Y134500D03*
Y146500D03*
X157850Y215000D03*
X151500Y222000D03*
X104500Y218500D03*
X190500Y135740D03*
X152000Y124500D03*
Y119500D03*
X157850Y191500D03*
X175000Y146000D03*
X185500Y156500D03*
X181000Y195000D03*
X185500Y206500D03*
X181000Y201500D03*
Y206500D03*
X176500D03*
X248500Y185000D03*
X245000Y198500D03*
Y188500D03*
X240000Y198500D03*
Y190500D03*
X111124Y143348D03*
X128000Y68348D03*
X138500Y82000D03*
X146000D03*
X94500Y39500D03*
X115500Y55500D03*
X180500Y39500D03*
X140000Y55500D03*
X159500D03*
X135000D03*
G54D54*G54D55*G54D54*G54D68*G54D69*G54D70*G54D71*G54D72*G54D71*G54D72*G54D73*G54D68*G54D74*G54D53*G54D72*G54D68*G54D73*G54D53*G54D68*G54D75*G54D68*G54D72*G54D68*G54D53*G54D72*G54D53*G54D75*G54D53*G54D68*G54D53*G54D68*G54D69*G54D71*G54D69*G54D71*G54D75*M02*
