G04 start of page 7 for group -4062 idx -4062 *
G04 Title: (unknown), soldermask *
G04 Creator: pcb 20140316 *
G04 CreationDate: Tue 22 Aug 2017 02:05:26 AM GMT UTC *
G04 For: railfan *
G04 Format: Gerber/RS-274X *
G04 PCB-Dimensions (mil): 2750.00 5500.00 *
G04 PCB-Coordinate-Origin: lower left *
%MOIN*%
%FSLAX25Y25*%
%LNBOTTOMMASK*%
%ADD123C,0.0720*%
%ADD122C,0.0001*%
%ADD121C,0.0660*%
%ADD120C,0.0760*%
%ADD119C,0.1440*%
%ADD118C,0.0710*%
%ADD117C,0.0910*%
%ADD116C,0.1130*%
%ADD115C,0.4060*%
%ADD114C,0.0650*%
%ADD113C,0.2997*%
G54D113*X247500Y112500D03*
G54D114*X226343Y200000D03*
X216500D03*
X206657D03*
G54D115*X216500Y163000D03*
G54D116*X236185Y212992D03*
G54D117*X242505Y33346D03*
X226654Y17495D03*
G54D116*X196815Y212992D03*
G54D117*X205000Y39252D03*
Y11693D03*
X183346Y17495D03*
Y92505D03*
G54D118*X227650Y238200D03*
X246350D03*
X227650Y261800D03*
X246350D03*
G54D113*X157000Y165000D03*
G54D119*X137500Y18500D03*
G54D120*Y35500D03*
Y47300D03*
G54D117*X107505Y33346D03*
X91654Y17495D03*
G54D113*X247500Y487000D03*
G54D118*X205650Y510200D03*
Y533800D03*
X224350Y510200D03*
Y533800D03*
G54D121*X147500Y421500D03*
Y411500D03*
G54D113*X201000Y366000D03*
G54D121*X269500Y383500D03*
Y393500D03*
Y403500D03*
Y413500D03*
Y423500D03*
Y433500D03*
Y443500D03*
Y453500D03*
Y463500D03*
G54D113*X27500Y112500D03*
G54D117*X48346Y92505D03*
G54D113*X30000Y165000D03*
G54D121*X30600Y236000D03*
G54D117*X70000Y39252D03*
Y11693D03*
X48346Y17495D03*
G54D122*G36*
X100200Y112800D02*Y106200D01*
X106800D01*
Y112800D01*
X100200D01*
G37*
G54D121*X93500Y109500D03*
X83500D03*
G54D122*G36*
X100200Y122800D02*Y116200D01*
X106800D01*
Y122800D01*
X100200D01*
G37*
G54D121*X93500Y119500D03*
X83500D03*
G54D122*G36*
X27300Y298300D02*Y291700D01*
X33900D01*
Y298300D01*
X27300D01*
G37*
G36*
X111700D02*Y291700D01*
X118300D01*
Y298300D01*
X111700D01*
G37*
G36*
X124200Y424800D02*Y418200D01*
X130800D01*
Y424800D01*
X124200D01*
G37*
G54D121*X137500Y421500D03*
G54D122*G36*
X124200Y414800D02*Y408200D01*
X130800D01*
Y414800D01*
X124200D01*
G37*
G54D113*X74000Y366000D03*
G54D121*X137500Y411500D03*
G54D113*X27500Y487000D03*
G54D114*X107000Y513157D03*
G54D116*X119992Y503315D03*
G54D114*X107000Y523000D03*
Y532843D03*
G54D116*X119992Y542685D03*
G54D121*X5500Y383500D03*
Y393500D03*
Y403500D03*
Y413500D03*
Y423500D03*
Y433500D03*
Y443500D03*
Y453500D03*
Y463500D03*
G54D123*X84000Y539000D03*
M02*
